<?xml version="1.0" standalone="no"?><!DOCTYPE svg PUBLIC "-//W3C//DTD SVG 1.1//EN" "http://www.w3.org/Graphics/SVG/1.1/DTD/svg11.dtd"><svg t="1702997062737" class="icon" viewBox="0 0 1024 1024" version="1.1" xmlns="http://www.w3.org/2000/svg" p-id="32215" xmlns:xlink="http://www.w3.org/1999/xlink" width="48" height="48"><path d="M916.0192 290.133333H375.466667v580.266667h540.552533A39.714133 39.714133 0 0 0 955.733333 830.685867V329.847467A39.714133 39.714133 0 0 0 916.0192 290.133333z" fill="#5FA1F6" p-id="32216"></path><path d="M690.176 661.026133c13.841067 11.383467 29.576533 22.186667 47.1552 32.426667 17.578667 10.24 37.239467 19.0976 58.948267 26.538667 5.802667 1.877333 11.127467 1.536 15.991466-0.938667 4.864-2.474667 8.328533-6.6048 10.3936-12.407467 2.065067-5.5808 1.962667-10.5472-0.3072-14.8992-2.286933-4.334933-6.314667-7.543467-12.117333-9.608533a279.0912 279.0912 0 0 1-48.247467-20.9408 324.181333 324.181333 0 0 1-42.973866-28.091733c13.243733-14.677333 24.9856-31.863467 35.2256-51.5072a469.845333 469.845333 0 0 0 26.8288-62.378667h30.1056c5.5808 0 10.0352-1.655467 13.346133-4.949333 3.310933-3.310933 4.949333-7.662933 4.949333-13.038934 0-5.5808-1.6384-10.0352-4.949333-13.346133-3.310933-3.310933-7.765333-4.949333-13.346133-4.949333h-115.438934l13.346134-4.352a13.482667 13.482667 0 0 0 8.379733-6.673067c1.655467-3.208533 1.655467-6.673067 0-10.410667a87.296 87.296 0 0 0-3.720533-9.301333l-4.352-9.301333a21.128533 21.128533 0 0 0-10.7008-10.0864 19.831467 19.831467 0 0 0-14.421334-0.477867l-3.106133 0.938667c-5.802667 1.877333-9.6768 5.0176-11.639467 9.472-1.962667 4.437333-1.706667 9.454933 0.785067 15.035733l4.795733 13.346133c1.553067 4.352 2.850133 8.277333 3.8912 11.793067h-111.7184c-5.5808 0-10.0352 1.655467-13.346133 4.9664-3.310933 3.310933-4.949333 7.765333-4.949333 13.346133 0 5.376 1.6384 9.728 4.949333 13.021867 3.310933 3.310933 7.765333 4.9664 13.346133 4.9664h31.351467c2.269867 6.212267 4.693333 12.322133 7.287467 18.312533l7.901866 18.312534 1.553067 2.781866c6.826667 14.2848 14.165333 27.818667 22.033067 40.6528 7.850667 12.834133 16.349867 24.32 25.4464 34.440534a336.247467 336.247467 0 0 1-44.526934 28.552533c-16.452267 8.891733-33.570133 16.145067-51.3536 21.725867-5.5808 2.065067-9.557333 5.3248-11.946666 9.7792-2.389333 4.437333-2.525867 9.454933-0.4608 15.035733 2.065067 5.597867 5.4272 9.6256 10.069333 12.117333 4.6592 2.474667 9.898667 2.679467 15.684267 0.6144a358.570667 358.570667 0 0 0 60.654933-27.153066 361.284267 361.284267 0 0 0 49.186133-33.365334z m-53.691733-141.806933h102.7072c-6.007467 16.554667-12.970667 32.529067-20.9408 47.957333a194.4576 194.4576 0 0 1-27.477334 40.482134 207.991467 207.991467 0 0 1-30.72-41.2672c-8.874667-15.530667-16.7424-31.232-23.569066-47.172267z" fill="#FFFFFF" p-id="32217"></path><path d="M375.466667 170.666667h238.933333v563.2l-238.933333 136.533333z" fill="#707838" p-id="32218"></path><path d="M107.9808 170.666667H614.4v563.2H107.9808A39.714133 39.714133 0 0 1 68.266667 694.152533V210.3808A39.714133 39.714133 0 0 1 107.9808 170.666667z" fill="#C4D546" p-id="32219"></path><path d="M220.091733 555.997867c0 21.418667 18.7904 28.842667 35.396267 28.842666 14.848 0 20.974933-8.311467 26.2144-20.5312 7.850667-20.548267 15.735467-41.506133 18.773333-49.8176h40.6528c25.326933 0 51.114667-0.426667 68.1472 0.443734 1.314133 3.498667 6.5536 18.346667 20.104534 51.541333 5.6832 13.994667 13.533867 18.7904 28.398933 18.7904 19.6608 0 33.6384-13.1072 33.6384-25.326933 0-6.997333-2.184533-12.680533-4.8128-18.7904-9.608533-21.418667-16.162133-38.007467-32.768-79.530667-2.184533-4.352-4.795733-10.478933-6.997333-14.848-19.643733-49.373867-42.8032-109.226667-55.9104-139.810133-5.6832-14.421333-15.291733-21.845333-36.693334-21.845334-13.550933 0-28.398933 6.997333-33.655466 20.5312-22.698667 57.685333-43.246933 106.171733-52.4288 128.4608-4.795733 12.2368-22.698667 54.613333-40.618667 94.378667-4.8128 10.922667-7.441067 18.346667-7.441067 27.511467z m134.997334-197.922134c7.8848 24.029867 29.730133 86.084267 37.154133 107.9296-32.341333 0.853333-62.9248 0.853333-75.144533 0.853334 12.219733-34.5088 28.398933-78.199467 38.007466-108.782934z" fill="#FFFFFF" p-id="32220"></path></svg>