<?xml version="1.0" encoding="UTF-8"?>
<svg width="405px" height="110px" viewBox="0 0 405 110" version="1.1" xmlns="http://www.w3.org/2000/svg" xmlns:xlink="http://www.w3.org/1999/xlink">
    <!-- Generator: Sketch 63 (92445) - https://sketch.com -->
    <title>logo</title>
    <desc>Created with Sketch.</desc>
    <g id="页面-1" stroke="none" stroke-width="1" fill="none" fill-rule="evenodd">
        <g id="logo" fill="#FF6A33" fill-rule="nonzero">
            <path d="M7.08,102.45 L7.08,83.53 C12.3470905,84.8104814 17.7402193,85.5013922 23.16,85.59 C26.5302667,85.6534548 29.8937557,85.2632901 33.16,84.43 C38.0065148,83.3560017 42.2226299,80.3892392 44.87,76.19 C47.5366667,71.99 48.87,65.9433333 48.87,58.05 C49.0055795,52.4613737 48.5530913,46.8739829 47.52,41.38 C46.62,37.38 45.12,34.4833333 43.02,32.69 C40.92,30.8966667 37.9466667,30 34.1,30 C29.64,30 26.1866667,31.03 23.74,33.09 C21.2727214,35.2025084 19.9184399,38.3354376 20.07,41.58 C20.07,49.22 24.32,53.04 32.82,53.04 C37.7066667,53.04 41.7066667,51.9433333 44.82,49.75 C47.8122916,47.8306355 49.5922126,44.4942305 49.52,40.94 L53.25,46.86 C53.5013472,48.3032802 53.6317999,49.7650202 53.64,51.23 C53.64,57.7566667 51.43,62.5633333 47.01,65.65 C42.59,68.7366667 37.12,70.28 30.6,70.28 C25.6462604,70.3011222 20.73323,69.3850184 16.12,67.58 C11.4924212,65.7472701 7.50675069,62.592817 4.66,58.51 C1.62,54.2633333 0.0966666667,48.7066667 0.09,41.84 C-0.0782737979,35.9500453 1.4676706,30.1379891 4.54,25.11 C7.44194658,20.5269192 11.6101238,16.8832376 16.54,14.62 C21.8037177,12.2059172 27.5397017,10.9965435 33.33,11.08 C44.23,11.08 53.09,14.4133333 59.91,21.08 C66.73,27.7466667 70.14,39.2233333 70.14,55.51 C70.14,70.79 67.0733333,82.16 60.94,89.62 C55.0759093,96.9260976 46.610981,101.678212 37.32,102.88 C32.2441134,103.595396 27.1259623,103.969568 22,104 C16.9823741,104.086523 11.9726905,103.56608 7.08,102.45 L7.08,102.45 Z" id="路径"></path>
            <path d="M95.69,98.91 C90.2366667,95.43 85.9233333,90.1733333 82.75,83.14 C79.5766667,76.1066667 77.9933333,67.4833333 77.999979,57.27 C77.999979,46.7233333 79.5866667,37.9933333 82.76,31.08 C85.9333333,24.1666667 90.2233333,19.0833333 95.63,15.83 C101.238641,12.5162879 107.656631,10.823517 114.17,10.94 C120.619446,10.8301325 126.971393,12.5237543 132.51,15.83 C137.843333,19.09 142.09,24.1733333 145.25,31.08 C148.41,37.9866667 149.976667,46.7166667 149.950335,57.27 C149.950335,67.83 148.383333,76.6033333 145.25,83.59 C142.116667,90.5766667 137.843333,95.7466667 132.43,99.1 C121.097247,105.860447 106.952226,105.787296 95.69,98.91 Z M125.93,76.19 C128.81,71.8966667 130.25,65.5066667 130.25,57.02 C130.25,48.5333333 128.81,42.0966667 125.93,37.71 C123.434667,33.5393286 118.888763,31.0333516 114.03,31.15 C109.05,31.15 105.08,33.3366667 102.12,37.71 C99.16,42.0833333 97.68,48.5133333 97.68,57 C97.68,65.4933333 99.16,71.8833333 102.12,76.17 C104.679938,80.2504376 109.183524,82.6993572 114,82.63 C118.840428,82.7638261 123.38591,80.3101039 125.93,76.19 L125.93,76.19 Z" id="形状"></path>
            <path d="M159.46,33.59 L190.61,33.59 L190.61,54.7 L159.46,54.7 L159.46,33.59 Z M162,5.66 L189.29,5.66 L193.15,26.77 L165.9,26.77 L162,5.66 Z M200.23,60.75 L200.23,84 L162.52,101.51 L162.52,77.09 L200.23,60.75 Z M190.58,72.2 L171,81.73 L171,39.51 L190.57,39.51 L190.58,72.2 Z M257.12,79.86 C249.669709,88.8797859 240.187039,96.00464 229.45,100.65 C218.839154,105.248784 207.60256,108.241615 196.11,109.53 L196.11,86.75 C203.996274,86.2894499 211.808969,84.9716862 219.41,82.82 C226.703333,80.72 232.623333,77.9533333 237.17,74.52 C241.315316,71.4617957 244.522773,67.3052631 246.43,62.52 C248.438252,56.9327414 249.610887,51.0796767 249.91,45.15 L270.91,45.15 C269.456667,59.05 264.87,70.62 257.15,79.86 L257.12,79.86 Z M227,1.93 L227,25.48 C227,30.98 225.713333,35.0566667 223.14,37.71 C220.566667,40.3633333 216.02,41.6966667 209.5,41.71 L198.59,41.71 L198.59,23.81 L203.09,23.94 C204.404096,24.049561 205.72221,23.7824695 206.89,23.17 C207.773967,22.3480931 208.304536,21.2152565 208.37,20.01 C208.684143,17.3856858 208.811131,14.7423426 208.75,12.1 L208.75,1.93 L227,1.93 Z M222.62,56.93 C223.364257,59.9862682 224.514481,62.9290936 226.04,65.68 C227.746611,68.7614455 230.039693,71.4791731 232.79,73.68 C237.604568,77.5519183 243.172809,80.3786093 249.14,81.98 C255.74,83.9133333 263.976667,84.9133333 273.85,84.98 L273.85,109.57 C261.853053,108.206541 250.218437,104.60422 239.55,98.95 C228.826022,93.4491447 219.425731,85.6832419 212,76.19 C204.893716,67.3443775 200.701637,56.5148406 200,45.19 L220.6,45.19 C221.28,50.0766667 221.963333,53.9766667 222.65,56.89 L222.62,56.93 Z M200,45.18 L270.92,45.18 L260.11,61.65 L212.11,61.65 L200,45.18 Z M210,1.93 L260.07,1.93 L260.07,21.24 L210,21.24 L210,1.93 Z M243.21,26.51 L243.21,1.93 L261.35,1.93 L261.35,21.62 L272,21.62 L272,40.67 L243.3,40.67 L243.21,26.51 Z" id="形状"></path>
            <path d="M288.16,32.3 L319.31,32.3 L319.31,53.41 L288.16,53.41 L288.16,32.3 Z M290.74,4.38 L319.31,4.38 L323.17,25.48 L294.6,25.48 L290.74,4.38 Z M330.25,65.25 L330.25,90 L291.25,106.09 L291.25,81.6 L330.25,65.25 Z M319.31,74.78 L299.75,84.3 L299.75,38.23 L319.31,38.23 L319.31,74.78 Z M326.78,34.36 L404.51,34.36 L404.51,54.44 L326.78,54.44 L326.78,34.36 Z M353.55,105.79 L353.55,0.26 L377.1,0.26 L377.1,105.79 L353.55,105.79 Z" id="形状"></path>
        </g>
    </g>
</svg>