<?xml version="1.0" standalone="no"?><!DOCTYPE svg PUBLIC "-//W3C//DTD SVG 1.1//EN" "http://www.w3.org/Graphics/SVG/1.1/DTD/svg11.dtd"><svg t="1703170968128" class="icon" viewBox="0 0 1024 1024" version="1.1" xmlns="http://www.w3.org/2000/svg" p-id="20472" xmlns:xlink="http://www.w3.org/1999/xlink" width="48" height="48"><path d="M851.2 328.533333c-2.133333-23.466667-14.933333-42.666667-34.133333-53.333333-87.466667-46.933333-219.733333-110.933333-277.333334-138.666667-17.066667-8.533333-38.4-8.533333-55.466666 0-57.6 27.733333-189.866667 91.733333-277.333334 140.8-19.2 10.666667-32 29.866667-34.133333 53.333334-21.333333 358.4 224 516.266667 309.333333 558.933333 17.066667 8.533333 38.4 8.533333 57.6 0 85.333333-44.8 332.8-200.533333 311.466667-561.066667z m-160 128l-170.666667 181.333334c-8.533333 8.533333-19.2 12.8-29.866666 12.8-10.666667 0-21.333333-4.266667-27.733334-10.666667l-106.666666-96c-17.066667-14.933333-19.2-42.666667-2.133334-59.733333 14.933333-17.066667 42.666667-19.2 59.733334-2.133334l74.666666 68.266667 142.933334-149.333333c17.066667-17.066667 42.666667-17.066667 59.733333-2.133334 17.066667 12.8 17.066667 40.533333 0 57.6z" p-id="20473" data-spm-anchor-id="a313x.search_index.0.i14.7c717615WnD8vQ" class="selected" fill="#2aa515"></path></svg>