<?xml version="1.0" standalone="no"?><!DOCTYPE svg PUBLIC "-//W3C//DTD SVG 1.1//EN" "http://www.w3.org/Graphics/SVG/1.1/DTD/svg11.dtd"><svg t="1703332975899" class="icon" viewBox="0 0 1024 1024" version="1.1" xmlns="http://www.w3.org/2000/svg" p-id="28553" xmlns:xlink="http://www.w3.org/1999/xlink" width="48" height="48"><path d="M0 0m204.8 0l614.4 0q204.8 0 204.8 204.8l0 614.4q0 204.8-204.8 204.8l-614.4 0q-204.8 0-204.8-204.8l0-614.4q0-204.8 204.8-204.8Z" fill="#48B5FF" p-id="28554"></path><path d="M819.2 0H534.272A756.48 756.48 0 0 0 0 483.584V819.2a204.8 204.8 0 0 0 204.8 204.8h614.4a204.8 204.8 0 0 0 204.8-204.8V204.8a204.8 204.8 0 0 0-204.8-204.8z" fill="#4DAFFF" p-id="28555"></path><path d="M819.2 0h-3.84a755.2 755.2 0 0 0-539.392 1024H819.2a204.8 204.8 0 0 0 204.8-204.8V204.8a204.8 204.8 0 0 0-204.8-204.8z" fill="#50A8FF" p-id="28556"></path><path d="M497.152 721.152A752.384 752.384 0 0 0 560.384 1024H819.2a204.8 204.8 0 0 0 204.8-204.8V204.8a204.8 204.8 0 0 0-89.088-168.96 755.2 755.2 0 0 0-437.76 685.312z" fill="#50A0FF" p-id="28557"></path><path d="M768 559.36c0-152.32-179.2-340.992-238.08-398.08a25.6 25.6 0 0 0-35.84 0C435.2 218.368 256 407.04 256 559.36a256 256 0 1 0 512 0z" fill="#E9F6FF" p-id="28558"></path><path d="M529.92 161.28a25.6 25.6 0 0 0-35.84 0C435.2 218.368 256 407.04 256 559.36a260.096 260.096 0 0 0 86.528 194.048c159.232 7.424 303.616-128 328.192-315.648a411.392 411.392 0 0 0 0-114.688 1287.424 1287.424 0 0 0-140.8-161.792z" fill="#FFFFFF" p-id="28559"></path></svg>