<?xml version="1.0" standalone="no"?><!DOCTYPE svg PUBLIC "-//W3C//DTD SVG 1.1//EN" "http://www.w3.org/Graphics/SVG/1.1/DTD/svg11.dtd"><svg t="1703032759109" class="icon" viewBox="0 0 1061 1024" version="1.1" xmlns="http://www.w3.org/2000/svg" p-id="59629" xmlns:xlink="http://www.w3.org/1999/xlink" width="49.734375" height="48"><path d="M344.367407 398.222222l-189.629629 303.407408zM401.256296 474.074074l-189.629629 303.407407zM491.70963 570.424889L239.122963 823.845926zM593.161481 659.550815l-303.786666 188.984889zM666.737778 777.481481l-320.474074 146.906075z" fill="#F9DDA8" p-id="59630"></path><path d="M420.219259 18.962963h227.555556l18.962963 208.592593h208.592592l-18.962963 170.666666 170.666667 94.814815v227.555556l-417.185185 56.888888-37.925926-75.851851-37.925926-18.962963v-75.851852l-94.814815-18.962963-18.962963-94.814815h-56.888889l-18.962963-75.851852-56.888888 18.962963 132.74074-417.185185zM87.798519 708.133926a170.666667 170.666667 0 0 1 87.381333-46.705778c33.109333-6.580148 2.218667 33.792 33.412741 46.705778a170.68563 170.68563 0 0 1 76.61037 62.862222C303.919407 799.061333 341.333333 829.060741 341.333333 862.814815c0 33.754074 27.799704 32.749037 9.045334 60.814222A170.68563 170.68563 0 1 1 87.798519 708.133926z" fill="#FFFFFF" p-id="59631"></path><path d="M181.722074 679.632593h-0.18963 0.18963z m-8.438518-7.073186z m0.455111 8.590223c0.056889 1.422222 0.113778 3.034074 0.265481 4.816592a95.611259 95.611259 0 0 1-3.053037-4.133926l2.787556-0.682666z m-38.722371 14.942814c5.575111 9.253926 12.288 17.825185 19.986963 25.486223l178.119111 178.138074 2.048 3.147852c0.606815 0.910222 1.137778 1.706667 1.573926 2.446222 0.568889 0.891259 0.872296 1.498074 1.061926 1.85837a25.372444 25.372444 0 0 1-3.185778 5.935408A151.703704 151.703704 0 1 1 135.016296 696.073481z m228.465778 180.337778c-2.029037-3.77363-3.185778-7.471407-3.185778-13.615407 0-23.608889-12.932741-43.918222-24.974222-59.600593-5.082074-6.637037-10.619259-13.160296-15.739259-19.190518a1378.759111 1378.759111 0 0 1-3.223704-3.811556c-6.125037-7.281778-11.377778-13.710222-15.416889-19.759407a189.62963 189.62963 0 0 0-85.086815-69.840593c-2.616889-1.080889-2.901333-1.896296-3.128888-2.56l-0.037926-0.094815c-0.758519-2.048-0.948148-4.79763-1.137778-11.036444v-0.075852c-0.056889-2.541037-0.170667-6.257778-0.739556-9.860741a31.800889 31.800889 0 0 0-5.537185-14.070518c-9.140148-12.439704-23.703704-12.079407-33.792-10.088297A189.62963 189.62963 0 1 0 366.174815 934.172444c5.688889-8.533333 9.614222-17.389037 9.671111-27.003259 0.075852-9.860741-3.982222-17.199407-6.788741-21.769481a132.987259 132.987259 0 0 0-0.948148-1.498074l1.441185-1.422223-6.049185-6.049185z m-92.254815-92.254815l-46.08-46.08a151.703704 151.703704 0 0 1 44.278519 43.425186c0.568889 0.891259 1.194667 1.763556 1.801481 2.654814z m66.692741 122.500741v0.037926z" fill="#070002" p-id="59632"></path><path d="M628.811852 37.925926v208.592593l-170.666667 227.555555h-75.851852a53.096296 53.096296 0 0 1-4.74074-61.421037C496.260741 245.399704 628.811852 37.925926 628.811852 37.925926zM856.367407 246.518519v166.703407l-261.12 231.348148-77.558518-13.274074a52.944593 52.944593 0 0 1 6.068148-62.160593C674.891852 422.874074 856.367407 246.518519 856.367407 246.518519z" fill="#C3BFB6" p-id="59633"></path><path d="M422.286222 0h258.730667l18.962963 208.592593h192.549926v179.181037L1061.925926 481.886815v255.241481l-430.023111 77.17926-277.731556 127.317333-15.815111-34.474667 270.563556-124.017778-35.19526-67.375407-19.418074-9.709037-254.919111 158.587259-20.024889-32.199111L530.962963 675.915852v-23.115852l-25.125926-4.28563-4.475259-7.585185a71.888593 71.888593 0 0 1-9.272889-26.358518l-14.696296-2.920297L252.548741 837.214815l-26.851556-26.775704 212.043852-212.764444L420.598519 512h-20.66963l-172.22163 275.531852-32.161185-20.100741 166.267259-266.012444-11.434666-45.700741a63.582815 63.582815 0 0 1-6.030223-13.141333l-6.940444 2.541037L170.81837 711.68l-32.161185-20.100741 149.333334-238.933333L422.286222 0z m74.94163 575.924148c3.034074-7.054222 7.205926-13.615407 12.363852-19.399111l0.474074-0.530963 0.493037-0.493037a223239.243852 223239.243852 0 0 0 301.89037-292.750222l16.687408-16.232296H663.703704v-0.170667L468.005926 474.074074h-16.327111l18.261333 91.306667 8.324741-8.343704 18.962963 18.887111z m94.871704 106.628741l9.879703 4.93037 34.702222 69.366519L1024 704.037926V504.187259l-148.66963-82.583703v0.151703L601.012148 664.803556l-5.12-0.89126 7.281778 11.757037-11.07437 6.883556zM352.521481 388.589037l0.398223-0.568889 0.455111-0.568889c64.284444-79.03763 132.361481-167.670519 184.414815-236.600889a12220.055704 12220.055704 0 0 0 81.54074-109.226666L622.061037 37.925926H449.991111l-113.152 355.612444 9.595259 5.992297c1.649778-3.792593 3.678815-7.452444 6.087111-10.94163zM568.888889 620.828444l20.593778 3.508149L837.404444 404.688593v-113.303704a278448.355556 278448.355556 0 0 1-299.899259 290.834963c-0.663704 0.758519-1.289481 1.573926-1.896296 2.389333L568.888889 591.265185v29.563259zM634.766222 37.925926l8.343704 4.645926-8.343704-4.645926z m-12.250074 65.630815A12445.392593 12445.392593 0 0 1 572.188444 170.666667c-52.015407 68.892444-120.187259 157.620148-184.699259 236.999111-3.735704 5.650963-5.423407 12.155259-4.854518 18.659555 0.379259 4.133926 1.630815 8.154074 3.697777 11.813926h61.098667l175.085037-203.776V103.556741z" fill="#070002" p-id="59634"></path><path d="M213.522963 656.232296l182.613333 182.670223a47.255704 47.255704 0 0 1 0 67.034074l-13.463703 13.406814a47.255704 47.255704 0 0 1-66.93926 0l-182.613333-182.651259a47.29363 47.29363 0 0 1 0-67.034074l13.274074-13.425778a47.521185 47.521185 0 0 1 67.128889 0z" fill="#FF0000" p-id="59635"></path><path d="M159.819852 669.620148a28.558222 28.558222 0 0 1 40.315259 0.037926l182.59437 182.651259 0.037926 0.037926a28.34963 28.34963 0 0 1 0 40.144593l-13.463703 13.425778-0.056889 0.037926a28.311704 28.311704 0 0 1-40.087704 0l-182.613333-182.670223-0.056889-0.037926a28.311704 28.311704 0 0 1 0-40.144592l13.349926-13.482667z m53.703111-13.387852l13.387852-13.425777a66.484148 66.484148 0 0 0-93.904593 0l-13.312 13.463703a66.218667 66.218667 0 0 0 0.037926 93.847704v0.018963l182.575408 182.59437s0 0.018963 0 0a66.23763 66.23763 0 0 0 93.771851 0.037926l0.018963-0.037926 13.406815-13.349926a66.313481 66.313481 0 0 0 14.449778-72.381629 66.218667 66.218667 0 0 0-14.411852-21.522963l-0.037926-0.018963-182.575407-182.632297-13.406815 13.406815z" fill="#070002" p-id="59636"></path></svg>