<?xml version="1.0" standalone="no"?><!DOCTYPE svg PUBLIC "-//W3C//DTD SVG 1.1//EN" "http://www.w3.org/Graphics/SVG/1.1/DTD/svg11.dtd"><svg t="1703041800528" class="icon" viewBox="0 0 1024 1024" version="1.1" xmlns="http://www.w3.org/2000/svg" p-id="25074" xmlns:xlink="http://www.w3.org/1999/xlink" width="48" height="48"><path d="M2.048523 269.045663c2.486929 178.862358 0.498898 317.865819 0.498897 489.252271 0 171.386452 89.597478 263.058891 261.830545 263.557789 172.233067 0.498898 331.022354-0.498898 496.285972 0s261.830545-83.202518 261.335427-264.056687c-0.498898-180.850389-0.498898-331.812275-0.498898-490.246287 0-158.434012-70.684723-266.048497-261.830545-265.549599C568.51654 2.494488 440.590874 1.504252 266.868674 2.494488 93.142694 3.496063-0.442186 90.183305 2.048523 269.045663z" fill="#F7F7F7" p-id="25075"></path><path d="M355.082845 952.830213l170.237476 0.037795-0.018898 68.734487H355.086624v-68.772282z m-23.826141-558.893845c31.589291 0.090709 45.883463 30.462991 46.204723 49.11496 0.31748 18.644409-16.425826 46.454172-47.289448 46.575117 49.421101-0.030236 88.694171 40.183936 89.601258 89.310234-0.449764 32.94992-11.074015 49.572282-23.705196 62.025825l111.930706-111.598108c-9.327874-46.216062-69.339211-135.299524-176.742043-135.428028z" fill="#E63838" p-id="25076"></path><path d="M525.320321 952.868008l-0.018898 68.757164h170.229917v-68.757164h-170.20724zM331.28694 393.940148c29.480314-0.846614 46.272755 29.125039 46.234959 49.364408-0.049134 20.228031-17.533228 46.053542-47.357479 46.337007-52.021416 0.506457-94.333226 38.498267-92.1411 90.651966 1.991811 52.902046 46.344566 90.587714 89.242203 91.135746 42.897637 0.536693 68.78362-30.421417 68.78362-30.421417l196.879365-197.064562s54.06992-51.068975 126.497005-50.07118c108.763462-1.496693 190.650704 93.66425 187.252909 187.596846-3.394016 93.943935-71.769447 183.08031-185.620153 185.159051-58.499526 1.028031-138.640627-37.205668-138.29291-81.157794-0.47622-26.79685 24.661417-47.720314 47.697637-47.470865 34.934172-0.449764 33.660472 31.974802 90.047241 32.881889 50.596534 1.084724 89.151494-42.398739 90.236219-89.858265 1.088504-47.470865-37.83307-90.765352-89.370707-91.494801-39.692597-0.907087-61.594959 23.557795-61.594959 23.557795l-223.181097 220.119679s-50.188345 33.581102-107.701414 33.690708c-88.085667-2.101417-184.656373-69.361888-186.081256-185.514326 0.181417-92.847872 75.514959-191.168499 188.469917-187.441885z" fill="#3077FE" p-id="25077"></path><path d="M331.256704 393.940148s-2.199685-13.285039-2.059843-26.845984c-3.43559-79.445667 66.852282-200.027712 198.633066-199.438105 131.773225 0.589606 200.288499 119.395273 197.567239 199.196215-0.275906 13.644094-2.116535 27.084094-2.116535 27.084094-47.867715-0.498898-88.448502 16.818897-128.352753 49.980471 0 0 33.99307-26.422677 34.809448-77.518108 0.816378-51.091652-41.725983-102.727557-102.096375-102.992123-60.359054-0.272126-101.81669 48.642518-103.079053 101.812911-1.266142 53.177951 43.982361 103.540155 103.1811 103.449446 35.837479 0.997795 67.18866-24.771023 67.18866-24.771023l-85.080943 85.175431c-19.045039-74.263935-94.159368-136.044091-178.594011-135.137005z" fill="#2C73F2" p-id="25078"></path></svg>