<?xml version="1.0" standalone="no"?><!DOCTYPE svg PUBLIC "-//W3C//DTD SVG 1.1//EN" "http://www.w3.org/Graphics/SVG/1.1/DTD/svg11.dtd"><svg t="1703570993540" class="icon" viewBox="0 0 1024 1024" version="1.1" xmlns="http://www.w3.org/2000/svg" p-id="13011" xmlns:xlink="http://www.w3.org/1999/xlink" width="48" height="48"><path d="M912.256 279.808v466.304c0 105.728-85.632 191.488-191.488 191.488H254.464c-105.728 0-191.488-85.76-191.488-191.488V279.808C62.976 174.08 148.736 88.32 254.464 88.32h466.304c105.856 0 191.488 85.76 191.488 191.488z" fill="#FFFFFF" p-id="13012"></path><path d="M912.384 279.808v25.6H63.104v-25.6C63.104 174.08 148.864 88.32 254.592 88.32h466.304c105.856 0 191.488 85.76 191.488 191.488z" fill="#FF4D3C" p-id="13013"></path><path d="M388.736 431.616m-21.504 0a21.504 21.504 0 1 0 43.008 0 21.504 21.504 0 1 0-43.008 0Z" fill="#100311" p-id="13014"></path><path d="M487.68 431.616m-21.504 0a21.504 21.504 0 1 0 43.008 0 21.504 21.504 0 1 0-43.008 0Z" fill="#100311" p-id="13015"></path><path d="M586.624 431.616m-21.504 0a21.504 21.504 0 1 0 43.008 0 21.504 21.504 0 1 0-43.008 0Z" fill="#100311" p-id="13016"></path><path d="M685.696 431.616m-21.504 0a21.504 21.504 0 1 0 43.008 0 21.504 21.504 0 1 0-43.008 0Z" fill="#100311" p-id="13017"></path><path d="M784.64 431.616m-21.504 0a21.504 21.504 0 1 0 43.008 0 21.504 21.504 0 1 0-43.008 0Z" fill="#100311" p-id="13018"></path><path d="M190.72 543.616m-21.504 0a21.504 21.504 0 1 0 43.008 0 21.504 21.504 0 1 0-43.008 0Z" fill="#100311" p-id="13019"></path><path d="M289.792 543.616m-21.504 0a21.504 21.504 0 1 0 43.008 0 21.504 21.504 0 1 0-43.008 0Z" fill="#100311" p-id="13020"></path><path d="M388.736 543.616m-21.504 0a21.504 21.504 0 1 0 43.008 0 21.504 21.504 0 1 0-43.008 0Z" fill="#100311" p-id="13021"></path><path d="M487.68 543.616m-21.504 0a21.504 21.504 0 1 0 43.008 0 21.504 21.504 0 1 0-43.008 0Z" fill="#100311" p-id="13022"></path><path d="M586.624 543.616m-21.504 0a21.504 21.504 0 1 0 43.008 0 21.504 21.504 0 1 0-43.008 0Z" fill="#100311" p-id="13023"></path><path d="M685.696 543.616m-21.504 0a21.504 21.504 0 1 0 43.008 0 21.504 21.504 0 1 0-43.008 0Z" fill="#100311" p-id="13024"></path><path d="M784.64 543.616m-21.504 0a21.504 21.504 0 1 0 43.008 0 21.504 21.504 0 1 0-43.008 0Z" fill="#100311" p-id="13025"></path><path d="M190.72 655.616m-21.504 0a21.504 21.504 0 1 0 43.008 0 21.504 21.504 0 1 0-43.008 0Z" fill="#100311" p-id="13026"></path><path d="M289.792 655.616m-21.504 0a21.504 21.504 0 1 0 43.008 0 21.504 21.504 0 1 0-43.008 0Z" fill="#100311" p-id="13027"></path><path d="M388.736 655.616m-21.504 0a21.504 21.504 0 1 0 43.008 0 21.504 21.504 0 1 0-43.008 0Z" fill="#100311" p-id="13028"></path><path d="M487.68 655.616m-21.504 0a21.504 21.504 0 1 0 43.008 0 21.504 21.504 0 1 0-43.008 0Z" fill="#100311" p-id="13029"></path><path d="M586.624 655.616m-46.848 0a46.848 46.848 0 1 0 93.696 0 46.848 46.848 0 1 0-93.696 0Z" fill="#FF4D3C" p-id="13030"></path><path d="M685.696 655.616m-21.504 0a21.504 21.504 0 1 0 43.008 0 21.504 21.504 0 1 0-43.008 0Z" fill="#100311" p-id="13031"></path><path d="M784.64 655.616m-21.504 0a21.504 21.504 0 1 0 43.008 0 21.504 21.504 0 1 0-43.008 0Z" fill="#100311" p-id="13032"></path><path d="M190.72 767.488m-21.504 0a21.504 21.504 0 1 0 43.008 0 21.504 21.504 0 1 0-43.008 0Z" fill="#100311" p-id="13033"></path><path d="M289.792 767.488m-21.504 0a21.504 21.504 0 1 0 43.008 0 21.504 21.504 0 1 0-43.008 0Z" fill="#100311" p-id="13034"></path><path d="M388.736 767.488m-21.504 0a21.504 21.504 0 1 0 43.008 0 21.504 21.504 0 1 0-43.008 0Z" fill="#100311" p-id="13035"></path><path d="M487.68 767.488m-21.504 0a21.504 21.504 0 1 0 43.008 0 21.504 21.504 0 1 0-43.008 0Z" fill="#100311" p-id="13036"></path><path d="M586.624 767.488m-21.504 0a21.504 21.504 0 1 0 43.008 0 21.504 21.504 0 1 0-43.008 0Z" fill="#100311" p-id="13037"></path></svg>