<?xml version="1.0" standalone="no"?><!DOCTYPE svg PUBLIC "-//W3C//DTD SVG 1.1//EN" "http://www.w3.org/Graphics/SVG/1.1/DTD/svg11.dtd"><svg t="1703600387527" class="icon" viewBox="0 0 1030 1024" version="1.1" xmlns="http://www.w3.org/2000/svg" p-id="25327" xmlns:xlink="http://www.w3.org/1999/xlink" width="48.28125" height="48"><path d="M1030.318343 205.300385v-20.585461A184.746594 184.746594 0 0 0 861.090019 0.649234zM871.002711 412.770161h159.331467V208.609894L871.002711 412.770161zM679.842954 0H524.771093l170.653471 206.377163-161.057479 206.392998h149.545456l169.830052-207.99233L679.842954 0zM172.300498 204.761996l-123.354416-145.270014A184.03402 184.03402 0 0 0 0.00019 184.730759v228.023567h2.48609zM344.141591 0H184.730949c-1.852691 0-3.689548 0-5.526404 0.079175l171.017675 206.820542-160.629935 205.854609h157.7163l170.194257-208.514884zM357.316286 775.913526v-126.948954L270.667331 775.913526h86.648955zM645.481069 600.588739H603.154194v247.896454h42.326875q110.844789 4.069587 108.817913-122.926871 1.979371-128.959995-108.817913-124.969583z" fill="#2c2c2c" p-id="25328" data-spm-anchor-id="a313x.search_index.0.i10.58f83a81UGc3aN" class="selected"></path><path d="M0.00019 461.320179V839.253406a184.730759 184.730759 0 0 0 184.730759 184.730759H845.587584A184.730759 184.730759 0 0 0 1030.318343 839.253406V461.320179zM482.254199 834.344565h-50.386874v76.577915h-74.551039V834.344565h-145.095829v-68.50208l145.095829-211.602703h74.551039v221.689579h50.386874z m169.275828 76.577915h-126.964788V538.119783h126.964788q185.364158 2.042711 187.40687 187.406869Q836.894185 908.927274 651.530027 910.92248z" fill="#2c2c2c" p-id="25329" data-spm-anchor-id="a313x.search_index.0.i9.58f83a81UGc3aN" class="selected"></path></svg>