<?xml version="1.0" standalone="no"?><!DOCTYPE svg PUBLIC "-//W3C//DTD SVG 1.1//EN" "http://www.w3.org/Graphics/SVG/1.1/DTD/svg11.dtd"><svg t="1703040109351" class="icon" viewBox="0 0 1024 1024" version="1.1" xmlns="http://www.w3.org/2000/svg" p-id="73753" xmlns:xlink="http://www.w3.org/1999/xlink" width="48" height="48"><path d="M78.848 19.68355555h336.78222222c46.53511111 10.92266667 59.50577778 28.33066667 64.62577778 76.45866667 10.92266667 100.92088889 21.61777778 201.95555555 33.792 302.76266667 3.18577778 26.28266667 3.64088889 52.90666667 4.32355555 79.41688889 0.34133333 10.58133333 7.85066667 21.61777778-1.82044444 31.63022222-7.50933333 5.34755555-16.04266667 3.98222222-24.34844444 3.75466667-47.78666667-8.192-96.256-8.53333333-144.27022222-14.22222222-85.56088889-10.01244445-171.12177778-19.79733333-256.79644445-29.35466667-38.68444445-4.32355555-64.05688889-24.34844445-64.39822222-71.11111111-0.79644445-106.95111111-0.91022222-213.90222222 0.11377777-320.85333334 0.34133333-38.45688889 7.85066667-44.82844445 51.99644445-58.48177778z" fill="#00A03B" p-id="73754"></path><path d="M515.75466667 506.19733333c-1.13777778-7.96444445-2.27555555-16.04266667-3.52711112-24.00711111 6.71288889-12.06044445 4.55111111-25.6 4.096-38.00177777-1.59288889-53.36177778 9.67111111-105.472 14.67733334-158.15111112 5.80266667-62.464 13.42577778-124.928 20.59377778-187.27822222 0.56888889-4.55111111-0.11377778-9.216 1.13777778-13.53955556 10.69511111-39.82222222 15.36-57.45777778 63.14666666-65.64977777h336.78222222c47.78666667 14.79111111 52.33777778 20.93511111 52.33777778 71.79377777v299.91822223c3.18577778 55.63733333-32.99555555 75.88977778-74.86577778 80.21333333-89.20177778 9.32977778-178.28977778 19.91111111-267.49155555 30.26488889-38.912 4.55111111-78.05155555 7.85066667-117.30488889 7.85066667-9.89866667-1.024-21.04888889 8.41955555-29.58222222-3.41333334z" fill="#77BD31" p-id="73755"></path><path d="M543.744 503.808c120.26311111-13.19822222 240.41244445-26.51022222 360.67555555-39.70844445 9.78488889-1.024 19.56977778-1.82044445 29.35466667-2.95822222 41.75644445-4.89244445 63.03288889-25.6 69.74577778-67.69777778 1.13777778-3.18577778 2.38933333-3.18577778 3.75466667-0.11377777 0 198.31466667-0.22755555 396.51555555 0.34133333 594.83022222 0 13.65333333-2.73066667 16.384-16.27022222 16.384-317.09866667-0.45511111-634.08355555-0.45511111-951.18222223 0-13.53955555 0-16.27022222-2.73066667-16.27022222-16.384 0.45511111-317.55377778 0.45511111-635.10755555 0-952.66133333 0-13.53955555 2.61688889-17.86311111 16.384-16.27022222 12.74311111 1.47911111 25.71377778 0.34133333 38.68444445 0.34133333C39.82222222 37.54666667 27.30666667 68.49422222 28.21688889 110.81955555c2.048 90.90844445 0.56888889 181.81688889 0.68266666 272.83911112 0.11377778 45.73866667 23.21066667 72.24888889 68.608 77.36888888 125.38311111 14.22222222 250.88 27.98933333 376.3768889 41.64266667 6.94044445 0.79644445 13.19822222 2.27555555 19.22844444 5.46133333 1.13777778 2.84444445 0.56888889 5.34755555-1.59288889 7.39555556-25.82755555 13.19822222-54.61333333 11.37777778-81.92 14.22222222-102.28622222 10.46755555-204.23111111 24.576-306.74488889 34.01955556-41.52888889 3.86844445-63.26044445 27.76177778-63.60177778 69.06311111-0.79644445 95.68711111-0.91022222 191.37422222 0 287.06133333 0.34133333 41.64266667 23.66577778 64.512 65.64977778 64.96711112 94.77688889 0.79644445 189.55377778 0.56888889 284.33066667 0.11377777 41.87022222-0.11377778 65.64977778-20.25244445 70.08711111-62.00888889 9.44355555-87.38133333 19.56977778-174.64888889 28.89955556-262.03022222 4.32355555-39.936 9.216-79.75822222 14.10844444-119.58044444 0.56888889-4.66488889 2.50311111-8.76088889 5.57511111-12.288 18.65955555-10.58133333 20.02488889 3.64088889 21.95911111 15.81511111 6.144 37.31911111 9.10222222 75.20711111 13.42577778 112.75377777 10.01244445 86.47111111 19.68355555 173.056 28.78577778 259.6408889 5.00622222 47.78666667 27.07911111 67.47022222 74.52444444 67.69777777 91.70488889 0.45511111 183.40977778 0.45511111 275.00088889 0 50.40355555-0.22755555 70.76977778-20.36622222 70.99733333-70.42844444 0.45511111-93.29777778 0.45511111-186.70933333 0-280.00711111-0.22755555-42.66666667-21.39022222-66.56-63.94311111-70.76977778-115.82577778-11.37777778-231.31022222-26.85155555-347.136-38.00177778-12.74311111-1.25155555-25.48622222-3.18577778-38.00177777-6.25777778-5.00622222-1.25155555-10.46755555-4.43733333-9.32977778-10.80888888 0.79644445-4.20977778 6.144-3.52711111 9.55733333-4.89244445z" fill="#FEFEFE" p-id="73756"></path><path d="M615.87911111 19.68355555c-38.912 15.13244445-51.2 45.62488889-55.18222222 85.21955556-12.288 124.24533333-27.19288889 248.37688889-40.84622222 372.50844444-0.68266667 5.68888889-1.36533333 8.98844445-7.62311112 4.89244445-13.19822222-119.808-26.39644445-239.72977778-39.59466666-359.53777778-0.79644445-6.82666667-2.27555555-13.53955555-2.27555556-20.36622222-0.45511111-39.48088889-16.83911111-68.15288889-54.72711111-82.71644445h200.24888889z" fill="#FEFEFE" p-id="73757"></path><path d="M1007.27466667 393.44355555l-1.82044445 0.11377778h-1.82044444c-0.22755555-94.09422222-2.048-188.30222222 0-282.28266666 0.91022222-42.55288889-11.49155555-73.50044445-50.85866667-91.47733334 18.09066667 0 42.89422222-7.05422222 52.33777778 2.048 9.10222222 8.64711111 2.16177778 34.01955555 2.16177778 52.11022222v319.488z" fill="#F6FAF1" p-id="73758"></path><path d="M492.31644445 511.31733333c0.22755555-1.024 0.45511111-2.048 0.68266666-3.18577778 7.62311111-0.68266667 15.13244445-1.25155555 22.75555556-1.93422222 9.44355555 0.22755555 18.31822222-5.46133333 27.98933333-2.38933333-3.18577778 3.75466667-6.94044445 6.71288889 2.27555555 7.73688889 97.84888889 10.58133333 195.584 21.504 293.4328889 32.31288889 32.31288889 3.52711111 64.85333333 6.03022222 97.05244444 10.58133333 45.16977778 6.37155555 66.21866667 31.51644445 66.33244444 77.25511111 0.11377778 95.68711111 0.11377778 191.37422222 0 287.06133333-0.11377778 49.72088889-26.28266667 76.23111111-75.43466666 76.3448889-96.256 0.11377778-192.62577778 0.11377778-288.88177778 0-42.21155555-0.11377778-68.15288889-20.02488889-73.728-61.55377778-10.01244445-74.41066667-17.63555555-149.04888889-26.05511111-223.57333334-6.48533333-57.23022222-12.51555555-114.57422222-18.77333333-171.80444444-0.45511111-4.55111111-0.45511111-9.78488889-7.7368889-6.94044444-9.78488889-3.64088889-16.384-10.24-19.9111111-19.91111112z" fill="#B7DA7C" p-id="73759"></path><path d="M160.31288889 234.83733333c0-17.408 0.11377778-34.92977778 0-52.33777778-0.22755555-20.36622222 9.216-31.17511111 30.03733333-31.1751111 36.29511111 0 72.704 0.11377778 108.99911111 0 18.432-0.11377778 27.87555555 9.32977778 29.92355556 27.0791111 5.68888889 48.92444445 11.03644445 97.84888889 17.18044444 146.65955556 1.59288889 12.62933333-3.29955555 13.65333333-13.76711111 12.40177778-48.01422222-5.91644445-96.14222222-11.49155555-144.27022222-16.72533334-19.00088889-2.16177778-28.44444445-11.83288889-28.10311111-31.28888888 0.22755555-18.20444445 0-36.40888889 0-54.61333334zM871.53777778 237.11288889c0 17.408-0.11377778 34.816 0 52.224 0.22755555 19.11466667-8.87466667 29.24088889-28.10311111 31.40266666-48.01422222 5.23377778-96.02844445 10.92266667-144.04266667 16.72533334-10.01244445 1.25155555-15.36 0.45511111-13.76711111-12.51555556 6.144-48.81066667 11.03644445-97.73511111 16.83911111-146.54577778 2.048-17.408 11.71911111-27.07911111 30.26488889-26.96533333 36.29511111 0.22755555 72.59022222 0 108.88533333 0 20.82133333 0 30.15111111 10.92266667 29.92355556 31.17511111-0.11377778 18.20444445 0 36.40888889 0 54.49955556z" fill="#FEFEFE" p-id="73760"></path><path d="M492.31644445 511.31733333c14.10844445-0.79644445 20.25244445 6.25777778 19.79733333 19.91111112-10.12622222 93.41155555-20.13866667 186.93688889-30.26488889 280.34844444-3.86844445 35.38488889-8.41955555 70.76977778-11.60533334 106.26844444-4.77866667 53.70311111-29.696 77.25511111-83.3991111 77.25511112-93.98044445 0-187.96088889 0.11377778-281.94133334 0-48.81066667-0.11377778-75.88977778-27.19288889-76.00355556-76.00355556-0.11377778-95.68711111-0.11377778-191.26044445 0-286.94755556 0-45.51111111 21.504-71.90755555 66.1048889-77.36888888 86.35733333-10.58133333 173.056-19.56977778 259.5271111-29.12711112 45.85244445-5.00622222 91.81866667-9.55733333 137.7848889-14.336z" fill="#93C45E" p-id="73761"></path><path d="M244.736 863.68711111h-54.49955555c-19.34222222 0-29.696-9.32977778-29.696-29.01333333 0-37.20533333 0-74.41066667 0.11377777-111.50222223 0-17.63555555 10.01244445-26.51022222 26.28266667-28.44444444 48.81066667-5.80266667 97.73511111-10.80888889 146.54577778-16.95288889 13.08444445-1.59288889 13.76711111 4.32355555 12.62933333 14.22222223-5.68888889 48.128-11.264 96.36977778-16.83911111 144.49777777-2.048 17.86311111-11.60533333 27.30666667-29.92355556 27.30666667-18.20444445-0.22755555-36.40888889-0.22755555-54.61333333-0.11377778z" fill="#FEFEFE" p-id="73762"></path></svg>