<?xml version="1.0" standalone="no"?><!DOCTYPE svg PUBLIC "-//W3C//DTD SVG 1.1//EN" "http://www.w3.org/Graphics/SVG/1.1/DTD/svg11.dtd"><svg t="1703169235897" class="icon" viewBox="0 0 1024 1024" version="1.1" xmlns="http://www.w3.org/2000/svg" p-id="22203" xmlns:xlink="http://www.w3.org/1999/xlink" width="48" height="48"><path d="M443.024557 870.254384c-62.11571 0-116.932176-49.770544-177.061648-109.913319-42.135656-42.135656-81.453127-83.559091-99.393731-127.063931-21.724791-52.68185-9.648754-102.493326 35.882232-148.023288l345.174484-345.187787c44.64378-44.644803 104.251366-69.227688 167.842683-69.227688 64.210417 0 124.501572 24.931832 169.790034 70.221318 44.980447 44.980447 69.911256 104.882745 70.206992 168.675654 0.295735 64.007803-24.287149 124.017548-69.227688 168.94376L541.050128 823.851541C510.267031 854.648964 477.282802 870.254384 443.024557 870.254384zM715.467553 125.801171c-48.910966 0-94.710059 18.86772-128.981606 53.125965L241.311463 524.113899c-37.626969 37.626969-33.211403 65.698305-23.939225 88.202854 14.0766 34.136471 49.408293 71.105455 87.450724 109.162212 51.326992 51.326992 97.15269 93.812619 138.200572 93.812619 19.417235 0 38.766932-9.91686 59.163471-30.30112l345.187787-345.17346c34.486442-34.486442 53.354162-80.59355 53.124941-129.827881-0.228197-49.206702-19.443841-95.39465-54.118572-130.069381C811.494607 145.017838 764.99762 125.801171 715.467553 125.801171z" fill="#afcd50" p-id="22204"></path><path d="M837.512167 329.33882c-0.148379 0-0.295735 0-0.443092 0-7.594979 0-13.539364-5.649674-13.297864-13.243629 0.228197-7.085372-0.228197-13.768585-1.369184-20.772093-1.207501-7.487531 3.891633-14.3181 11.379165-15.525602 7.515161-1.235131 14.546298 4.012384 15.754822 11.499915 1.409093 8.735965 1.985214 16.774035 1.703805 25.616424C850.998319 324.347133 844.893274 329.33882 837.512167 329.33882z" fill="#afcd50" p-id="22205"></path><path d="M537.559631 326.427514c-3.51608 0-7.031137-1.342578-9.715269-4.025687-5.366218-5.367241-5.366218-14.063297 0-19.430538l87.98796-88.001263c53.568033-53.581336 141.018757-53.326533 194.935738 0.563842 5.368264 5.367241 5.368264 14.063297 0 19.430538-5.367241 5.368264-14.062274 5.368264-19.430538 0-43.181475-43.194778-113.201202-43.436278-156.074661-0.563842l-87.98796 88.001263C544.590767 325.084936 541.075711 326.427514 537.559631 326.427514z" fill="#afcd50" p-id="22206"></path><path d="M89.530594 953.161628c-7.03216 0-14.063297-2.682086-19.430538-8.05035-10.735505-10.734482-10.735505-28.132734 0-38.867216l171.801854-171.801854c10.722202-10.734482 28.139897-10.734482 38.861076 0 10.735505 10.734482 10.735505 28.124548 0 38.860053L108.961132 945.111279C103.607194 950.479543 96.561731 953.161628 89.530594 953.161628z" fill="#afcd50" p-id="22207"></path></svg>