<?xml version="1.0" standalone="no"?><!DOCTYPE svg PUBLIC "-//W3C//DTD SVG 1.1//EN" "http://www.w3.org/Graphics/SVG/1.1/DTD/svg11.dtd"><svg t="1703509469428" class="icon" viewBox="0 0 1024 1024" version="1.1" xmlns="http://www.w3.org/2000/svg" p-id="15499" xmlns:xlink="http://www.w3.org/1999/xlink" width="48" height="48"><path d="M923.136 969.557333H193.024v-909.653333h521.386667l208.725333 207.701333z" fill="#7CCDFF" p-id="15500"></path><path d="M912.896 253.952l2.56 671.914667c0 15.530667-12.458667 27.989333-27.989333 27.989333H237.909333c-15.530667 0-27.989333-12.458667-27.989333-27.989333V96.938667c0-15.530667 12.458667-27.989333 27.989333-27.989334l493.397334-1.024-38.912-39.936H239.274667c-36.352 0-65.706667 29.354667-65.706667 65.706667v835.584c0 36.352 29.354667 65.706667 65.706667 65.706667h646.826666c36.352 0 65.706667-29.354667 65.706667-65.706667V293.888l-38.912-39.936z" fill="#4191FB" p-id="15501"></path><path d="M692.394667 222.72c0 39.424 31.914667 71.338667 71.338666 71.338667h188.245334L692.394667 27.989333v194.730667z" fill="#C7E2FF" p-id="15502"></path><path d="M557.568 482.304H158.72c-50.346667 0-91.136-40.789333-91.136-91.136v-60.245333c0-50.346667 40.789333-91.136 91.136-91.136h398.848c50.346667 0 91.136 40.789333 91.136 91.136v60.245333c0 50.346667-40.789333 91.136-91.136 91.136z" fill="#4191FB" p-id="15503"></path><path d="M228.864 386.901333v-32.426666h74.410667v66.389333c-14.165333 9.728-26.794667 16.384-37.717334 19.797333s-23.893333 5.290667-38.912 5.290667c-18.432 0-33.621333-3.072-45.226666-9.386667-11.605333-6.314667-20.650667-15.701333-27.136-28.16s-9.557333-26.794667-9.557334-42.837333c0-17.066667 3.584-31.744 10.581334-44.373333s17.237333-22.186667 30.890666-28.672c10.581333-4.949333 24.746667-7.509333 42.666667-7.509334 17.237333 0 30.037333 1.536 38.570667 4.608s15.701333 8.021333 21.162666 14.506667c5.632 6.485333 9.898667 14.848 12.629334 24.917333l-46.421334 8.362667c-1.877333-5.802667-5.12-10.410667-9.728-13.482667-4.608-3.072-10.410667-4.608-17.408-4.608-10.581333 0-18.944 3.584-25.258666 10.922667s-9.386667 18.944-9.386667 34.816c0 16.896 3.242667 28.842667 9.557333 36.181333 6.314667 7.168 15.189333 10.752 26.453334 10.752 5.461333 0 10.581333-0.853333 15.36-2.389333 4.949333-1.536 10.410667-4.266667 16.725333-8.021333v-14.677334h-32.256zM333.653333 287.573333h48.298667v155.818667h-48.298667v-155.818667zM416.768 287.573333h118.954667v33.450667h-70.656V348.16h60.416v31.402667h-60.416v63.658666h-48.298667v-155.648z" fill="#FFFFFF" p-id="15504"></path><path d="M616.448 597.162667c-30.549333-35.498667-75.605333-57.856-126.122667-57.856-91.818667 0-166.229333 74.410667-166.229333 166.229333s74.410667 166.229333 166.229333 166.229333c32.768 0 63.488-9.557333 89.258667-25.941333l-89.258667-140.288 126.122667-108.373333z m-146.261333 39.253333c-11.946667 0-21.504-9.728-21.504-21.504 0-11.946667 9.728-21.504 21.504-21.504s21.504 9.728 21.504 21.504c0.170667 11.946667-9.557333 21.504-21.504 21.504z" fill="#4191FB" p-id="15505"></path><path d="M591.872 734.378667m-29.013333 0a29.013333 29.013333 0 1 0 58.026666 0 29.013333 29.013333 0 1 0-58.026666 0Z" fill="#4191FB" p-id="15506"></path><path d="M680.789333 734.378667m-29.013333 0a29.013333 29.013333 0 1 0 58.026667 0 29.013333 29.013333 0 1 0-58.026667 0Z" fill="#4191FB" p-id="15507"></path><path d="M769.706667 734.378667m-29.013334 0a29.013333 29.013333 0 1 0 58.026667 0 29.013333 29.013333 0 1 0-58.026667 0Z" fill="#4191FB" p-id="15508"></path></svg>