<?xml version="1.0" standalone="no"?><!DOCTYPE svg PUBLIC "-//W3C//DTD SVG 1.1//EN" "http://www.w3.org/Graphics/SVG/1.1/DTD/svg11.dtd"><svg t="1702971641435" class="icon" viewBox="0 0 1024 1024" version="1.1" xmlns="http://www.w3.org/2000/svg" p-id="28689" xmlns:xlink="http://www.w3.org/1999/xlink" width="48" height="48"><path d="M170.666667 85.333333h682.666666a85.333333 85.333333 0 0 1 85.333334 85.333334v682.666666a85.333333 85.333333 0 0 1-85.333334 85.333334h-219.733333c-14.933333-3.413333-14.933333-32.426667-14.933333-42.666667v-116.906667c0-39.68-14.08-65.706667-29.44-78.933333 95.146667-10.666667 194.986667-46.506667 194.986666-209.493333 0-47.36-16.213333-85.333333-43.946666-115.626667 4.266667-10.666667 19.2-55.04-4.266667-112.64 0 0-35.84-11.52-117.333333 43.52-33.706667-9.386667-70.4-14.08-106.666667-14.08-36.266667 0-72.96 4.693333-106.666667 14.08-81.493333-55.04-117.333333-43.52-117.333333-43.52-23.466667 57.6-8.533333 101.973333-4.266667 112.64-27.733333 30.293333-43.946667 68.266667-43.946666 115.626667 0 162.56 99.413333 199.253333 194.133333 209.92-11.946667 10.666667-23.04 29.44-26.88 57.173333-24.32 10.24-87.04 29.44-124.16-35.413333 0 0-22.613333-40.96-65.28-43.946667 0 0-41.813333-0.853333-4.266667 25.6 0 0 29.013333 13.226667 48.64 62.72 0 0 25.173333 82.773333 143.36 57.173333V896c0 10.24 0 39.253333-15.36 42.666667H170.666667a85.333333 85.333333 0 0 1-85.333334-85.333334V170.666667a85.333333 85.333333 0 0 1 85.333334-85.333334z" fill="#2c2c2c" p-id="28690" data-spm-anchor-id="a313x.search_index.0.i4.14f77615XrEfGq" class="selected"></path></svg>