<?xml version="1.0" standalone="no"?><!DOCTYPE svg PUBLIC "-//W3C//DTD SVG 1.1//EN" "http://www.w3.org/Graphics/SVG/1.1/DTD/svg11.dtd"><svg t="1703040241490" class="icon" viewBox="0 0 1024 1024" version="1.1" xmlns="http://www.w3.org/2000/svg" p-id="74758" xmlns:xlink="http://www.w3.org/1999/xlink" width="48" height="48"><path d="M348.16 985.6C194.56 931.84 25.6 744.96 25.6 627.2c0-51.2 69.12-48.64 97.28 2.56 20.48 35.84 25.6 30.72 40.96-25.6 10.24-43.52 33.28-66.56 66.56-66.56 48.64 0 48.64 2.56 10.24 102.4-51.2 122.88-38.4 163.84 71.68 230.4 181.76 110.08 419.84 46.08 550.4-151.04 89.6-130.56 79.36-156.16-64-156.16-66.56 0-135.68-12.8-153.6-30.72-23.04-23.04-43.52 5.12-94.72 117.76-38.4 84.48-79.36 143.36-97.28 138.24-15.36-7.68-53.76-76.8-81.92-158.72-30.72-79.36-61.44-138.24-71.68-128s-17.92 0-17.92-20.48c0-35.84 48.64-71.68 99.84-71.68 10.24 0 35.84 48.64 51.2 107.52l33.28 107.52 58.88-138.24c66.56-158.72 117.76-186.88 161.28-89.6 25.6 56.32 43.52 64 171.52 64 166.4 0 184.32 20.48 140.8 181.76-38.4 143.36-207.36 314.88-345.6 353.28-130.56 35.84-181.76 33.28-304.64-10.24z" fill="#EA5430" p-id="74759"></path><path d="M28.16 637.44C-61.44 322.56 197.12 0 540.16 0c87.04 0 309.76 112.64 350.72 179.2 51.2 84.48-30.72 94.72-125.44 15.36-184.32-156.16-440.32-112.64-596.48 97.28-40.96 51.2-53.76 107.52-53.76 222.72 0 81.92-7.68 151.04-17.92 151.04-7.68 0-20.48 20.48-25.6 46.08-5.12 23.04-23.04-7.68-43.52-74.24z" fill="#F5A246" p-id="74760"></path><path d="M163.84 596.48c102.4-320 171.52-386.56 222.72-215.04 25.6 87.04 23.04 107.52-10.24 140.8-35.84 38.4-40.96 35.84-48.64-5.12-7.68-33.28-20.48-23.04-53.76 40.96-46.08 87.04-135.68 117.76-110.08 38.4z" fill="#F5A246" p-id="74761"></path></svg>