<?xml version="1.0" standalone="no"?><!DOCTYPE svg PUBLIC "-//W3C//DTD SVG 1.1//EN" "http://www.w3.org/Graphics/SVG/1.1/DTD/svg11.dtd"><svg t="1703030635997" class="icon" viewBox="0 0 1945 1024" version="1.1" xmlns="http://www.w3.org/2000/svg" p-id="12234" xmlns:xlink="http://www.w3.org/1999/xlink" width="91.171875" height="48"><path d="M35.15392 332.68224v358.02624h63.36l0.03584-148.55168 141.0816-0.03584 0.1024 148.42368h63.0784V332.83584H237.32224l-0.07168 146.00192-138.7008-0.04096-0.0768-145.96096zM568.72448 329.14944c-101.15584 0-183.15776 82.00192-183.15776 183.15776s82.00192 183.15776 183.15776 183.15776 183.15776-82.00192 183.15776-183.15776-82.00192-183.15776-183.15776-183.15776z m1.62304 299.78112c-65.53088 0-118.656-53.12512-118.656-118.656 0-65.53088 53.12512-118.656 118.656-118.656 65.53088 0 118.656 53.12512 118.656 118.656 0 65.536-53.12512 118.656-118.656 118.656zM1367.07072 328.54016c-101.15584 0-183.15776 82.00192-183.15776 183.15776s82.00192 183.15776 183.15776 183.15776c101.15584 0 183.15776-82.00192 183.15776-183.15776s-82.00192-183.15776-183.15776-183.15776z m1.62304 299.78624c-65.53088 0-118.656-53.12512-118.656-118.656 0-65.53088 53.12512-118.656 118.656-118.656 65.53088 0 118.656 53.12512 118.656 118.656 0 65.53088-53.12512 118.656-118.656 118.656zM835.85536 688.08192l0.1536-355.28192h48.67584l153.344 219.51488V332.8768L1101.2352 332.8v355.32288l-48.55296 0.03584-155.37152-222.10048-0.60416 222.02368zM1803.36128 559.16032c15.21152-4.56192 79.104-32.24576 79.104-109.83424 0-87.92576-93.70624-116.52608-103.44448-116.52608H1634.2016v357.79584h61.46048l0.30208-156.98944 131.7376 156.98944h82.14528c0-0.00512-97.3568-117.44256-106.48576-131.43552z m-26.0864-55.68512l-80.70144 0.01024V396.69248h81.23392c15.8208 0 41.07264 21.1456 41.07264 52.6336 0 30.26944-28.67712 54.14912-41.60512 54.14912z" fill="#1296db" p-id="12235"></path></svg>