<?xml version="1.0" standalone="no"?><!DOCTYPE svg PUBLIC "-//W3C//DTD SVG 1.1//EN" "http://www.w3.org/Graphics/SVG/1.1/DTD/svg11.dtd"><svg t="1702998099021" class="icon" viewBox="0 0 1024 1024" version="1.1" xmlns="http://www.w3.org/2000/svg" p-id="42654" xmlns:xlink="http://www.w3.org/1999/xlink" width="48" height="48"><path d="M446.581 174.002c-11.97 1.059-44.32 8.422-44.32 8.422h-0.014c-72.915 18.847-90.149 85.015-90.149 85.015-3.56 11.127-5.178 22.53-5.653 33.273v14.622c0.967 22.59 5.991 39.46 5.991 39.46 24.356 107.998 144.11 285.456 169.848 322.734 1.826 1.81 3.289 1.157 3.289 1.157 2.777-0.767 2.56-3.431 2.56-3.431l0.053 0.013c39.642-396.236-41.604-501.265-41.604-501.265zM577.567 174s-81.601 105.086-41.929 501.553h0.053c0.307 2.516 2.093 3.04 2.093 3.04 2.655 1.03 4.016-1.52 4.016-1.52l0.013 0.024c26.398-38.23 145.47-214.721 169.718-322.305 0 0 13.147-52.071 0.455-87.355 0 0-18.025-67.193-91.032-84.95 0 0-21.04-5.34-43.385-8.487h-0.002zM201.18 292.95s-69.474 65.943-72.927 135.85h0.027v10.593c0.053 0.797 0.093 1.604 0.144 2.417 2.992 56.37 45.4 89.733 45.4 89.733 68.325 66.591 233.768 150.667 272.213 169.744 0.539 0.2 2.525 0.85 3.692-0.624 0 0 0.606-0.46 0.883-1.288v-1.756c-0.027-0.1-0.08-0.2-0.13-0.311h0.013C345.213 467.313 201.182 292.95 201.182 292.95h-0.002z m621.62 0S679.202 466.768 573.966 696.296l0.04-0.013s-1.242 2.66 0.767 4.38c0 0 0.6 0.452 1.43 0.636h1.456c0.261-0.075 0.542-0.176 0.818-0.365v0.026c39.489-19.599 203.652-103.122 271.656-169.407 0 0 43.065-34.583 45.321-90.11 4.973-77.12-72.654-148.493-72.654-148.493h-0.002z m129.244 228.338s-234.106 125.633-355.15 207.28l0.014 0.014 0.027 0.025s-2.196 1.438-1.43 4.016c0 0 1.149 2.08 2.82 2.08v0.013c43.357 0.075 207.418 0.26 211.53-0.508 0 0 21.215-0.847 47.428-10.917 0 0 58.356-18.553 88.667-84.807 0 0 13.85-27.704 14.05-66.624v-1.65c-0.1-15.01-2.215-31.626-7.954-48.922h-0.002z m-880.173 0.586c-21.3 65.94 7.375 119.073 7.421 119.159 29.883 63.14 86.926 82.272 86.926 82.272 26.336 10.82 52.677 11.568 52.677 11.568 4.114 0.752 163.804 0.075 206.592-0.126 1.81-0.013 2.807-1.833 2.807-1.833 0.126-0.202 0.236-0.403 0.286-0.586v-1.65c-0.354-1.104-1.3-1.884-1.3-1.884l0.028-0.013C306.325 647.16 71.873 521.878 71.873 521.878l-0.002-0.004zM420.6 755.02L145.2 764.676c29.866 53.24 80.163 94.616 132.559 81.908 36.158-9.04 118.072-66.176 145.114-85.483l-0.09-0.075c2.102-1.889 1.351-3.405 1.351-3.405-0.691-2.473-3.535-2.47-3.535-2.47v-0.132z m182.403 0.2l-0.028 0.101s-2.418 0.307-3.093 2.118c0 0-0.588 2.475 1.04 3.704l-0.028 0.025c26.367 18.908 106.296 74.789 144.802 85.639 0 0 5.834 1.984 15.61 2.34h5.875c25.798-0.906 70.742-14.16 111.58-84.327l-275.758-9.6z" fill="#CF0A2C" p-id="42655"></path></svg>