<?xml version="1.0" standalone="no"?><!DOCTYPE svg PUBLIC "-//W3C//DTD SVG 1.1//EN" "http://www.w3.org/Graphics/SVG/1.1/DTD/svg11.dtd"><svg t="1702983996355" class="icon" viewBox="0 0 1024 1024" version="1.1" xmlns="http://www.w3.org/2000/svg" p-id="35250" xmlns:xlink="http://www.w3.org/1999/xlink" width="48" height="48"><path d="M737.780863 263.642754a627.157945 627.157945 0 0 1 76.463379 4.979661c7.027371 0.8377 8.376998 3.397338 5.631205 10.610864-12.798192 33.554532-36.114171 57.940905-66.550599 75.997991a289.797605 289.797605 0 0 1-94.799698 33.507994c-5.39851 1.023855-10.890098 1.6754-16.288608 2.745793s-6.934293 4.933121-3.164644 9.307776a30.250272 30.250272 0 0 0 12.89127 7.958149 166.60919 166.60919 0 0 0 40.674981 8.516615c3.071566 0.372311 7.306604-0.744622 8.795848 2.745794 1.861555 4.235038-2.652716 5.910438-5.026199 8.144304-32.577216 30.157194-71.623336 46.53888-114.346027 55.195111a465.388799 465.388799 0 0 1-114.811417 7.260066h-2.466561c-2.09425 0-5.072738-1.023855-5.81736 1.861555s2.5131 3.676572 4.653888 4.653888c6.608521 3.211183 13.263581 6.329288 19.872102 9.307776 2.233866 1.070394 4.653888 2.047711 6.65506 3.164644 6.329288 3.211183 7.027371 7.585837 1.582322 12.286264a172.193856 172.193856 0 0 1-49.284674 28.621411 311.298567 311.298567 0 0 1-173.915794 17.824391 37.231104 37.231104 0 0 0-33.740688 8.935465c-32.158366 28.202561-66.317904 53.985101-97.731648 82.839206-4.048883 3.72311-8.051226 7.539299-12.100109 11.355487-1.442705 1.349628-2.838872 3.443877-5.119276 1.908094s-1.116933-4.048883 0-5.956977c8.702771-13.961664 17.03323-27.923328 26.201389-41.419603 61.989788-91.309282 135.84699-171.402695 225.294717-236.510587 74.182975-53.985101 155.253703-93.07776 245.259897-112.903323a599.141539 599.141539 0 0 1 121.187244-12.937809z" fill="#21AC3C" p-id="35251"></path><path d="M433.975055 874.930942c18.010547 2.699255 35.928015 5.863899 53.9851 7.958148 43.048464 5.072738 85.817694 4.653888 127.190759-10.37817 43.281158-15.77668 68.737926-47.236963 77.114924-92.146982 2.699255-14.427053 2.885411-29.272955 4.14196-43.979242 4.095421-49.331213 8.237382-98.662425 8.935465-148.179793 0-5.863899 2.745794-13.635892-1.070394-17.03323s-10.890098-0.930778-16.567841-0.930778h-188.110153a274.579391 274.579391 0 0 0 24.665607-19.080941c1.163472-1.116933 3.955805-0.605005 5.956976-0.605005h148.552105a13.961664 13.961664 0 0 0 11.960492-5.538127c12.612036-14.799364 25.549845-29.272955 38.254959-44.02578a4.653888 4.653888 0 0 1 6.608521-1.768478q72.042186 31.553361 144.270528 62.827488c0.884239 0.41885 1.6754 0.977316 2.978488 1.768478-13.961664 13.961664-27.318322 27.551017-41.093831 40.907675a14.845903 14.845903 0 0 0-4.886582 11.774337 881.586001 881.586001 0 0 1-13.682431 168.517284c-8.935465 46.53888-23.26944 91.030049-48.540052 131.379258-38.999581 62.594793-95.96317 96.568176-168.703439 105.038251-10.37817 1.210011-20.75634 1.6754-31.18105 2.373483a7.91161 7.91161 0 0 1-9.54047-6.468904 231.158616 231.158616 0 0 0-41.884992-77.021846 219.663513 219.663513 0 0 0-84.793839-61.989788c-1.535783-0.605005-2.978488-1.349628-4.421194-2.047711-0.325772-0.325772-0.41885-0.605005-0.279233-0.930778s0.046539-0.41885 0.139617-0.418849zM1024.55344 136.638151c-46.53888 2.466561-91.309282 8.563154-134.59044 22.617896a404.283249 404.283249 0 0 0-120.303005 61.617477c-0.884239-2.699255 0.605005-4.653888 1.25655-6.468904q20.616724-59.290533 41.466142-118.44145c1.396166-3.955805 1.815016-5.491588-3.443877-5.491588H187.644764a150.227504 150.227504 0 0 1 8.563154 26.387545A125.654976 125.654976 0 0 1 141.943584 243.677575a74.462208 74.462208 0 0 1-96.242404-11.774337 52.77509 52.77509 0 0 1-10.145476-58.54591 104.29363 104.29363 0 0 1 25.130995-33.740688c8.982004-8.330459 18.150163-16.567841 27.597556-24.339835 26.806395-22.152507 39.232276-51.93739 46.026952-84.840378a94.101615 94.101615 0 0 0 0.465389-29.784883c1.023855-0.791161 1.628861-0.372311 2.233866 0.232695 18.848246 18.382858 34.252616 38.999581 41.884992 64.595965a6.561982 6.561982 0 0 0 7.585838 5.584666h614.499369a12.89127 12.89127 0 0 0 10.936637-4.653888c14.892442-17.126308 30.110655-33.973382 45.189253-50.960074 1.861555-2.09425 3.118105-3.583494 6.561982-2.094249 50.26199 21.640579 95.777015 50.355068 133.75274 90.238888a253.590356 253.590356 0 0 1 27.132167 33.042604z" fill="#4E4D4D" p-id="35252"></path><path d="M213.334225 469.716915c11.448564-40.256131 20.849418-80.698418 30.110656-121.001088 13.31012-58.545911 26.201389-117.1849 36.300326-176.382355 2.885411-16.940152 5.39851-33.926843 8.004687-50.866996 0.372311-2.606177 0.372311-4.653888 4.188499-4.235038 50.029296 5.072738 98.290114 15.916297 142.176278 41.884992 5.212355 3.025027 4.933121 4.653888 0.41885 8.051226-10.145476 7.91161-19.779024 16.521302-29.784883 24.619068a14.799364 14.799364 0 0 0-5.724282 9.54047c-7.958148 42.769231-16.19553 85.491922-24.153679 128.261153a11.960492 11.960492 0 0 1-5.538126 8.795849 893.034566 893.034566 0 0 0-149.715577 127.330375c-1.628861 1.582322-2.745794 4.56081-6.282749 4.002344zM0 735.360841a14.566669 14.566669 0 0 1 7.865071-0.884239h454.312545a15.032058 15.032058 0 0 0 11.774337-4.653888c23.26944-23.26944 46.53888-46.53888 69.808319-70.087553 3.397338-3.490416 5.305432-3.211183 8.74931 0q48.307357 42.676153 96.893948 84.979995a18.336319 18.336319 0 0 1 3.490416 15.125136c-0.558467 1.210011-1.442705 1.25655-2.420022 1.256549H75.718758a63.106721 63.106721 0 0 0-33.228761 7.865071c-10.052398 5.863899-10.331631 5.351971-17.777852-3.490416z" fill="#4E4D4D" p-id="35253"></path></svg>