<?xml version="1.0" standalone="no"?><!DOCTYPE svg PUBLIC "-//W3C//DTD SVG 1.1//EN" "http://www.w3.org/Graphics/SVG/1.1/DTD/svg11.dtd"><svg t="1703031525380" class="icon" viewBox="0 0 1024 1024" version="1.1" xmlns="http://www.w3.org/2000/svg" p-id="32141" xmlns:xlink="http://www.w3.org/1999/xlink" width="48" height="48"><path d="M301.332299 0l-2.314238 95.487943c159.354784 4.956157 317.849409 65.515481 432.80358 177.448853 122.623926 115.558331 191.395725 281.579351 196.659082 449.126131 9.410554 8.069115 33.19806 0.21504 47.984611 2.314238 14.110712-3.962878 43.315174 6.369276 47.534052-6.942715 0.24576-216.50419-106.659776-427.212544-276.223835-560.434864C622.796426 55.603167 462.008043 0.02048 301.332299 0z m-2.047999 223.948666v97.423301c116.01913 4.136958 230.614902 55.357407 304.998217 145.817513 61.849563 70.973397 94.402503 164.659101 98.703301 258.078565h97.361862c-0.860159-149.88279-73.093076-296.181582-190.433166-389.232407-86.384588-71.720917-198.860681-110.335934-310.640454-112.097212z m2.099199 213.299072C150.09783 427.806463 10.721274 556.779186 1.013759 706.528856c-8.396795 97.351622 36.270058 194.846603 113.049533 254.668647 111.738813 94.300103 293.304144 80.056272 391.915284-27.002864 102.041539-101.478339 109.557694-280.309592 16.363511-389.918486-52.223969-65.96604-136.632238-107.796415-220.958588-107.028415z m78.294993 116.78713c54.108128 1.515519 101.427139 55.828447 85.657549 110.366653-11.100153 70.205398-114.309051 94.556103-155.033507 35.594219-51.752929-54.978527-2.324479-147.199912 69.375958-145.960872z" p-id="32142" class="selected" fill="#1296db"></path></svg>