<?xml version="1.0" standalone="no"?><!DOCTYPE svg PUBLIC "-//W3C//DTD SVG 1.1//EN" "http://www.w3.org/Graphics/SVG/1.1/DTD/svg11.dtd"><svg t="1702998197908" class="icon" viewBox="0 0 1024 1024" version="1.1" xmlns="http://www.w3.org/2000/svg" p-id="45975" xmlns:xlink="http://www.w3.org/1999/xlink" width="48" height="48"><path d="M448.608 753.408H262.88v25.376h185.728v-25.376z m262.016-567.456c-4.16-0.48-8.416-1.152-12.544-1.472a194.368 194.368 0 0 1-13.984-2.304c4.608 0.96 9.344 1.632 13.984 2.304 4.16 0.32 8.32 1.152 12.544 1.472z" fill="#E12319" p-id="45976"></path><path d="M833.408 23.008H176.704A168.896 168.896 0 0 0 7.808 191.872V848.64a168.896 168.896 0 0 0 168.896 168.864h656.704a168.896 168.896 0 0 0 168.896-168.864V191.872A168.896 168.896 0 0 0 833.408 23.04zM194.368 307.328c2.144-5.696 3.904-11.392 6.528-16.832 3.296-6.88 7.456-13.28 12.32-19.2 12.096-14.72 20.384-31.52 27.392-49.184 4-9.952 8.384-19.808 12.416-29.888 4.64-11.488 14.72-13.504 24.896-10.432 4.992 1.568 9.472 4.288 13.408 7.616 7.584 6.4 16.224 11.36 24.512 16.96 1.44 0.928 2.496 1.408 4.032-0.256 15.904-17.184 35.68-28.704 56.768-37.92 41.6-18.496 85.216-30.464 130.016-37.952 36.512-6.048 73.28-7.232 110.24-5.44 0.704 0 1.408-0.128 2.112-0.128 2.144-2.016 4.032-1.184 6.08 0.256a8.768 8.768 0 0 0 4.256 0.32c0.96-0.8 1.76-0.8 2.592 0.256 5.216 0.48 10.304 1.088 15.52 1.536 0.96-0.832 1.792-0.704 2.496 0.256 1.792 0.224 3.456 0.32 5.216 0.576 0.704-0.704 1.184-0.576 1.664 0.256 1.056 0.48 2.24 0.704 3.424 0.48 1.44-1.216 2.624-0.832 3.68 0.576 8.64 1.92 17.44 3.552 26.08 5.696 23.584 5.792 46.336 13.632 65.664 29.28 15.52 12.544 21.568 28.32 18.368 48.448a228.032 228.032 0 0 1-27.264 76c-1.664 2.944-4.608 4.48-6.624 6.976 0.96 4.608-3.552 6.88-4.64 10.656-0.96 3.2-3.776 5.216-5.792 7.712-0.128 0.48-0.256 1.056-0.96 0.704 0 0.608 0.224 1.536-0.832 0.832 0.704 1.92-1.184 2.72-2.016 3.808-12.448 16.48-27.84 29.856-44.096 42.432-33.76 26.176-72.416 41.6-114.368 48.832-10.432 1.76-20.96 0-31.392-1.184a258.272 258.272 0 0 1-23.104-3.328c-1.44-0.256-3.104-1.44-4.512 0.128l-0.608 0.32c-0.832-5.44-5.664-3.2-8.416-3.776-24.032-5.568-46.08-16.128-67.52-27.84-27.872-15.424-54.912-32.128-78.112-54.4-17.92-17.184-33.568-36.032-43.264-59.264a61.76 61.76 0 0 1-4.384-14.464c-0.48-3.552-1.92-5.696-5.568-6.752 0.704 8.064 1.184 16.128 0.448 24.064-2.464 32.128-18.016 54.752-48.704 65.92-10.176 3.648-20.032 8.384-31.168 9.44-14.816 1.568-33.408-14.432-26.784-32.096z m80.704 561.056c-7.36 13.152-17.664 24.768-26.656 36.992-7.232 9.696-16.704 12.8-30.08 8.768 4.256-7.584 9.216-14.336 12.064-21.952 8.192-21.664 16-43.584 22.88-65.76 2.24-7.104 4.16-10.88 12.192-10.432 9.728 0.608 19.456 0.128 33.536 0.128-8.768 19.52-15.04 36.608-23.936 52.256z m99.808-9.472c-0.608 38.88-22.752 58.784-63.296 56.064v-16.48c23.68-8.416 24.896-10.208 24.896-36.288v-60.896H226.144v-68.384h258.944v67.52h-110.208v42.464c0 5.216 0.128 10.656 0 16z m89.728 48.096c-23.712-25.472-39.968-54.848-49.664-90.304h37.216c12.896 33.44 25.344 65.792 37.92 98.24-8.64 2.4-17.184 0.96-25.472-7.936z m29.856-192.704H216.768v-19.52H336c0.608-5.728 0.96-10.112 1.536-15.424h36.48c0.736 4.832 1.44 9.6 2.4 15.648h88.992c4.512 0 9.024-0.128 13.536-0.128 17.536-0.256 17.664-0.128 15.52 19.424z m31.648-204.448c-5.216 11.392-8.064 23.712-11.616 35.68-0.832 2.72-1.792 4.16-4.864 4.032-3.552 0-8.192 2.144-10.432 0.128-2.368-2.144-0.224-6.752 0-10.208 1.056-13.632 1.664-27.264 0.832-41.248-4.48 1.44-8.064 4.16-11.392 7.008-12.896 10.784-23.584 23.68-35.648 35.2-2.016 1.92-4.032 3.68-5.824 5.792-2.592 3.328-6.176 3.68-9.952 4.032-3.424 0.352-4.16-0.704-2.368-3.904 6.528-10.88 12.8-21.92 19.2-32.832 3.424-5.92 6.752-12.096 10.56-17.92 1.888-2.944 0.576-3.52-1.792-4.128a31.904 31.904 0 0 1-11.84-5.92c-8.544-6.528-12.576-19.904-8.64-29.76 1.28 4.512 2.816 8.64 5.536 12.224 8.416 11.36 20.736 9.376 29.76 4.256 1.056-0.576 1.664-1.888 2.368-3.072 10.656-17.792 21.216-35.552 31.776-53.44 1.632-2.88 3.2-3.456 6.496-2.88 14.24 2.624 28.48 4.768 42.912 2.976 6.88-0.832 13.504-2.368 20.384-6.272v7.104c-0.352 42.912-0.704 85.92-0.832 128.832 0 4.032-1.184 4.736-4.864 4.384-8.992-0.832-8.864-0.704-11.136-9.6-2.592-9.92-3.904-20.384-7.584-30.08a41.12 41.12 0 0 0-8.16-14.112c-5.12-5.12-8.896-5.12-14.112 0a45.92 45.92 0 0 0-8.768 13.76z m37.216 401.792c-4.736 4.16-13.76 3.424-21.92 5.216 9.696-22.048 18.592-41.472 26.784-61.152 3.072-7.36 6.272-15.424 6.4-23.232 0.224-15.04 8.032-17.792 20.736-16.48 7.36 0.704 14.912 0.128 24.16 0.128-11.264 38.272-27.968 70.496-56.16 95.52z m222.56-5.696c-23.36-25.248-38.976-54.272-48.48-87.808 2.496-1.088 2.88-1.312 3.328-1.312 35.328-3.552 34.976-3.424 44.576 29.984 3.424 12.096 8.064 23.808 13.12 35.328 4.896 10.88 11.168 21.216 16.96 32.224-12.192 3.2-21.088 0.704-29.504-8.416z m31.296-191.296c-4.16 0.256-8.896 0.736-13.632 0.736-54.4 0.096-108.928 0.32-163.328-0.128-10.432-0.128-16.32 2.592-20.256 12.8-6.528 16.576-14.72 32.576-23.456 51.68 21.216 0 40.16 0.32 59.264-0.48 2.112-0.128 5.568-6.048 5.792-9.472 0.704-11.52 0.224-23.136 0.224-35.68h37.6v45.376h107.488v21.12h-107.264c0 20.608 0.128 39.36 0 58.048-0.224 38.88-22.048 58.784-62.464 56.64-2.944-10.304-3.904-18.112 10.432-21.536 5.344-1.312 12.32-9.504 12.576-14.944 1.28-25.376 0.576-50.976 0.576-78.08h-112.704c13.28-28.928 25.6-55.616 39.104-85.12h-48.224v-20.736c16.096 0 32.224 0.224 48.32-0.128 3.84-0.128 9.984-0.96 10.816-3.072 9.12-23.008 27.84-10.08 44.192-14.08-2.112 6.496-3.52 10.528-5.568 16.576h180.384c0.128 7.584 0.128 13.12 0.128 20.48z" fill="#E12319" p-id="45977"></path><path d="M727.68 315.008c0.96 2.144-1.056 2.88-1.888 4.032-12.416 16.48-27.84 29.888-44.064 42.432-33.792 26.208-72.416 41.6-114.368 48.832-10.432 1.792-20.992 0-31.424-1.184a258.272 258.272 0 0 1-23.104-3.328c-1.44-0.224-3.072-1.408-4.48 0.128-0.16 0.128-0.512 0.256-0.64 0.352-0.8-5.44-5.664-3.2-8.384-3.776-24.064-5.568-46.112-16.128-67.552-27.84-27.84-15.424-54.88-32.128-78.112-54.4-17.92-17.216-33.536-36.064-43.264-59.264a61.76 61.76 0 0 1-4.384-14.464c-0.48-3.552-1.92-5.696-5.568-6.752 0.704 8.032 1.184 16.096 0.48 24.032-2.496 32.128-18.016 54.784-48.736 65.92-10.176 3.68-20 8.416-31.168 9.472-14.816 1.408-33.28-14.464-26.656-32.128 2.144-5.664 3.904-11.36 6.528-16.832 3.296-6.848 7.456-13.248 12.32-19.2 12.096-14.688 20.384-31.52 27.392-49.184 4-9.92 8.384-19.776 12.416-29.856 4.64-11.52 14.72-13.504 24.896-10.432 4.992 1.536 9.472 4.256 13.408 7.584 7.584 6.4 16.224 11.392 24.512 16.96 1.44 0.96 2.496 1.408 4.032-0.256 15.904-17.184 35.68-28.672 56.768-37.92 41.6-18.496 85.216-30.464 130.016-37.92 36.512-6.048 73.28-7.232 110.24-5.44 0.704 0 1.408-0.128 2.112-0.128 2.016 0.128 4.032 0.128 6.08 0.224a8.768 8.768 0 0 0 4.256 0.352c0.832 0.128 1.664 0.128 2.592 0.256 5.216 0.48 10.304 1.056 15.52 1.536 0.832 0.128 1.664 0.128 2.496 0.224 1.792 0.256 3.456 0.352 5.216 0.608 0.608 0.128 1.184 0.128 1.664 0.224 1.056 0.48 2.24 0.736 3.424 0.48 1.184 0.256 2.496 0.352 3.68 0.608 8.64 1.888 17.44 3.52 26.08 5.664 23.584 5.824 46.336 13.632 65.664 29.28 15.52 12.576 21.568 28.32 18.368 48.48a228.032 228.032 0 0 1-27.264 75.968c-1.664 2.976-4.608 4.48-6.624 7.008-1.792 0.576-3.552 0.96-5.216 1.76a109.024 109.024 0 0 1-28.352 8.768 223.616 223.616 0 0 1-109.984-8.512c-33.76-11.392-60.544-32.48-81.76-60.928-2.144-2.976-6.176-4.032-8.64-2.368-2.4 1.536-3.456 7.584-1.568 10.176 6.656 9.376 14.24 18.144 22.4 26.208 28.576 27.84 63.552 42.88 102.304 49.76a234.56 234.56 0 0 0 73.92 0.832c8.32-1.184 16.384-3.648 24.448-6.048z m-29.6-131.2c7.456 0.384 14.816 1.792 22.4 1.088 9.6-0.832 18.848-2.368 26.88-8.192 5.248-3.776 5.952-9.696 1.92-14.688a19.456 19.456 0 0 0-5.568-4.736 71.616 71.616 0 0 0-26.08-9.28 121.984 121.984 0 0 0-28.672-0.672c-7.712 0.832-15.04 1.888-21.824 5.568-5.12 2.848-9.728 6.88-9.728 12.8 0 6.272 5.696 9.248 10.784 11.712 9.376 4.64 19.68 5.344 29.888 6.4z m-191.872-0.448c-0.832 7.936 6.016 15.872 14.336 16.832 7.36 0.8 17.28-6.4 18.112-13.184 0.96-7.2-6.624-15.872-14.56-16.576-9.504-0.832-16.96 4.608-17.92 12.928z" fill="#EEEEEE" p-id="45978"></path><path d="M442.304 455.936c1.312 4.48 2.88 8.64 5.568 12.224 8.416 11.36 20.736 9.344 29.76 4.256 1.056-0.608 1.664-1.92 2.368-3.072 10.656-17.792 21.216-35.552 31.776-53.44 1.632-2.88 3.2-3.456 6.496-2.88 14.24 2.624 28.48 4.768 42.912 2.976 6.88-0.832 13.504-2.368 20.384-6.272v7.104a23341.44 23341.44 0 0 0-0.832 128.832c0 4.032-1.184 4.736-4.864 4.384-8.992-0.832-8.864-0.704-11.136-9.6-2.592-9.952-3.904-20.384-7.584-30.08a41.12 41.12 0 0 0-8.16-14.144c-5.12-5.088-8.896-5.088-14.112 0a45.248 45.248 0 0 0-8.544 13.408c-5.216 11.36-8.064 23.68-11.616 35.68-0.832 2.72-1.76 4.16-4.864 4.032-3.52 0-8.16 2.112-10.432 0.096-2.368-2.112-0.224-6.72 0-10.176 1.088-13.632 1.664-27.264 0.832-41.248-4.48 1.408-8.064 4.16-11.36 6.976-12.928 10.816-23.584 23.712-35.68 35.2-2.016 1.92-4.032 3.68-5.824 5.824-2.592 3.328-6.144 3.68-9.92 4.032-3.456 0.352-4.16-0.704-2.4-3.904 6.528-10.912 12.8-21.952 19.2-32.832 3.456-5.92 6.752-12.096 10.56-17.92 1.92-2.944 0.576-3.52-1.792-4.16a31.904 31.904 0 0 1-11.84-5.888 26.528 26.528 0 0 1-8.896-29.408z" fill="#EEEEEE" p-id="45979"></path><path d="M727.68 315.008a172.096 172.096 0 0 1-24.512 5.952 234.496 234.496 0 0 1-73.952-0.832c-38.752-6.88-73.6-21.92-102.272-49.792a181.6 181.6 0 0 1-22.4-26.176c-1.92-2.624-0.832-8.544 1.536-10.208 2.592-1.664 6.528-0.576 8.64 2.368 21.216 28.48 48 49.536 81.792 60.928 35.776 12.096 72.64 14.72 109.984 8.544 9.824-1.664 19.296-4.512 28.32-8.8 1.664-0.704 3.424-1.184 5.216-1.76 0.96 4.608-3.552 6.88-4.64 10.656-0.96 3.2-3.776 5.216-5.792 7.712-0.608-0.128-0.96 0.128-0.96 0.704l0.128-0.096c-0.704 0.096-1.28 0.096-1.056 0.8z m-102.72-187.616c-2.016-0.32-4.032-0.32-6.08-0.64 2.144-5.312 4.16-3.104 6.08 0.64z m39.104 4.256c-1.216-0.736-2.56-1.12-3.808-1.856 1.472-3.296 2.688-2.208 3.808 1.856z m-31.04-3.968c-1.216-0.384-2.432-0.384-3.808-0.768 1.376-2.624 2.752-2.24 3.776 0.768z m18.24 1.792c-1.28-0.384-2.56-0.384-3.808-0.768 1.28-2.656 2.56-2.272 3.808 0.768z m7.68 0.736c-1.344-0.384-2.688-0.384-3.776-0.768 1.344-2.272 2.72-1.92 3.808 0.768z" fill="#282526" p-id="45980"></path><path d="M728.8 316.384c0.384-1.888 1.504-2.24 3.04-2.24-0.384 1.504-0.384 3.392-3.04 2.24z" fill="#EEEEEE" p-id="45981"></path><path d="M727.744 316.864c-0.384-2.56 1.504-2.56 3.392-2.56-0.384 1.824 1.152 5.824-3.392 2.56z" fill="#EEEEEE" p-id="45982"></path><path d="M698.08 183.808c-10.208-1.056-20.384-1.888-29.888-6.272-5.184-2.496-10.784-5.44-10.784-11.744 0-5.92 4.64-10.048 9.728-12.8 6.752-3.648 14.08-4.736 21.824-5.568 9.696-1.056 19.2-0.448 28.672 0.736 9.248 1.184 17.92 4.736 26.08 9.248a19.456 19.456 0 0 1 5.568 4.736c4.032 4.96 3.328 10.88-1.92 14.688-8.032 5.792-17.28 7.232-26.88 8.16-7.584 0.736-14.944-0.8-22.4-1.184z" fill="#282526" p-id="45983"></path><path d="M506.208 183.36c0.96-8.32 8.384-13.76 17.984-12.928 7.968 0.704 15.424 9.376 14.592 16.576-0.832 6.656-10.784 13.888-18.144 13.184-8.416-0.832-15.264-8.896-14.432-16.832z" fill="#444243" p-id="45984"></path><path d="M587.392 715.616h-48.256v-20.736c16.128 0 32.256 0.224 48.352-0.128 3.808-0.128 9.952-0.96 10.784-3.072 9.12-23.008 27.84-10.08 44.224-14.08-2.144 6.496-3.552 10.528-5.568 16.576h180.384v20.48c-4.16 0.256-8.896 0.736-13.632 0.736-54.4 0.096-108.928 0.32-163.328-0.128-10.432-0.128-16.352 2.592-20.256 12.8-6.528 16.576-14.72 32.576-23.488 51.68 21.216 0 40.192 0.32 59.264-0.48 2.144-0.128 5.568-6.048 5.824-9.472 0.704-11.52 0.224-23.136 0.224-35.68h37.568v45.376h107.52v21.12h-107.264c0 20.608 0.096 39.36 0 58.048-0.256 38.88-22.08 58.784-62.464 56.64-2.976-10.304-3.904-18.112 10.432-21.536 5.312-1.312 12.32-9.504 12.544-14.944 1.312-25.376 0.608-50.976 0.608-78.08H548.16c13.376-28.928 25.696-55.744 39.232-85.12z m-275.808 199.36v-16.48c23.68-8.416 24.896-10.208 24.896-36.288v-60.896H226.144v-68.384h258.944v67.52h-110.208v58.688c-0.608 38.656-22.656 58.656-63.296 55.84z m-48.704-136.192h185.728v-25.376H262.88v25.376zM216.64 714.304v-19.52h119.232c0.608-5.728 0.96-10.112 1.536-15.424h36.512l2.368 15.648h89.024c4.48 0 8.992-0.128 13.504-0.128 17.792-0.128 17.792 0 15.648 19.52-92.096-0.096-184.32-0.096-277.824-0.096z" fill="#FFFFFF" p-id="45985"></path><path d="M737.408 818.016c2.496-1.056 2.88-1.28 3.328-1.28 35.328-3.584 34.976-3.456 44.576 29.952 3.424 12.096 8.064 23.84 13.12 35.328 4.896 10.88 11.168 21.216 16.96 32.224-12.192 3.328-21.088 0.832-29.504-8.288a209.856 209.856 0 0 1-48.48-87.936z m-322.464-1.28h37.216c12.896 33.408 25.344 65.76 37.92 98.24-8.544 2.464-17.184 0.96-25.376-7.84-23.808-25.6-39.936-54.88-49.76-90.432z m-115.808-0.64c-8.768 19.584-15.168 36.64-24.064 52.416-7.36 13.12-17.664 24.768-26.656 36.96-7.232 9.728-16.704 12.8-30.08 8.768 4.256-7.584 9.216-14.336 12.064-21.92 8.192-21.696 16-43.616 22.88-65.76 2.24-7.136 4.16-10.912 12.192-10.432 9.728 0.48 19.456 0 33.664 0z m320.256-0.096c-11.168 38.4-27.84 70.528-56.192 95.52-4.736 4.16-13.76 3.456-21.92 5.216 9.728-22.048 18.592-41.472 26.784-61.152 3.072-7.36 6.272-15.392 6.4-23.232 0.224-15.04 8.064-17.76 20.736-16.48 7.36 0.736 14.944 0.128 24.192 0.128z" fill="#FFFFFF" p-id="45986"></path></svg>