<?xml version="1.0" standalone="no"?><!DOCTYPE svg PUBLIC "-//W3C//DTD SVG 1.1//EN" "http://www.w3.org/Graphics/SVG/1.1/DTD/svg11.dtd"><svg t="1703332646445" class="icon" viewBox="0 0 1166 1024" version="1.1" xmlns="http://www.w3.org/2000/svg" p-id="22951" xmlns:xlink="http://www.w3.org/1999/xlink" width="54.65625" height="48"><path d="M203.093192 493.440368c0 181.688763 147.285231 328.973994 328.959772 328.973994 181.688763 0 328.973994-147.285231 328.973994-328.959771 0-181.688763-147.285231-328.973994-328.959772-328.973994-181.688763 0-328.959772 147.285231-328.959771 328.959771" fill="#E9EAEB" p-id="22952"></path><path d="M733.098158 511.715911H1007.217078v-36.551085H733.098158v36.551085z m12.799991-109.653257H568.60405V365.511568h157.155446l85.902163-127.9288h159.004334v36.551086h-140.728792l-84.053275 127.9288z" fill="#3E3A39" p-id="22953"></path><path d="M897.563821 265.003194a63.957289 63.957289 0 1 0 127.9288 0 63.957289 63.957289 0 0 0-127.914578 0" fill="#E50012" p-id="22954"></path><path d="M970.680215 731.022426h-159.004334l-82.232832-109.653258h-32.895977v-36.551085h51.17152l82.232832 109.653257h140.728791v36.551086z m-9.144883-511.715201a45.226635 45.226635 0 0 0-45.681746 45.695969 45.226635 45.226635 0 0 0 45.681746 45.681746 45.240857 45.240857 0 0 0 45.695969-45.681746c0-25.599982-20.110208-45.695968-45.695969-45.695969z m0 127.928801a81.905721 81.905721 0 0 1-82.232832-82.232832 81.905721 81.905721 0 0 1 82.232832-82.247054 81.891499 81.891499 0 0 1 82.247054 82.247054 81.891499 81.891499 0 0 1-82.247054 82.232832z" fill="#3E3A39" p-id="22955"></path><path d="M897.563821 721.891765c0-34.71642 29.255091-63.957289 63.971511-63.957289 34.730643 0 63.971511 29.240869 63.971511 63.957289 0 34.730643-29.240869 63.971511-63.971511 63.971511-34.71642 0-63.957289-29.240869-63.957289-63.971511" fill="#E50012" p-id="22956"></path><path d="M961.535332 676.210019a45.226635 45.226635 0 0 0-45.681746 45.681746 45.240857 45.240857 0 0 0 45.681746 45.695969 45.25508 45.25508 0 0 0 45.695969-45.695969c0-25.58576-20.110208-45.681746-45.695969-45.681746m0 127.9288a81.905721 81.905721 0 0 1-82.232832-82.247054 81.905721 81.905721 0 0 1 82.232832-82.232831 81.891499 81.891499 0 0 1 82.247054 82.232831 81.891499 81.891499 0 0 1-82.247054 82.247054" fill="#3E3A39" p-id="22957"></path><path d="M952.404672 484.309708a63.971511 63.971511 0 1 0 127.943022 0 63.971511 63.971511 0 0 0-127.943022 0" fill="#E50012" p-id="22958"></path><path d="M804.365664 968.618705l-153.51456-219.306514h-118.783918v-36.551086h137.05946l164.479886 233.926949-29.240868 21.930651zM1016.361961 438.61374a45.240857 45.240857 0 0 0-45.681746 45.695968 45.240857 45.240857 0 0 0 45.681746 45.695968c25.599982 0 45.695968-20.110208 45.695968-45.695968a45.25508 45.25508 0 0 0-45.695968-45.695968z m0 127.943022a81.905721 81.905721 0 0 1-82.232832-82.247054 81.905721 81.905721 0 0 1 82.232832-82.247054 81.891499 81.891499 0 0 1 82.247054 82.247054 81.891499 81.891499 0 0 1-82.247054 82.247054z" fill="#3E3A39" p-id="22959"></path><path d="M751.359478 941.212502a63.957289 63.957289 0 1 0 127.9288 0 63.957289 63.957289 0 0 0-127.914578 0" fill="#E50012" p-id="22960"></path><path d="M703.857289 255.858311h-43.875525v-36.551086h27.420425l140.728791-162.659442 27.406204 23.765317L703.857289 255.858311z m111.4737 639.658223a45.240857 45.240857 0 0 0-45.681746 45.695968 45.226635 45.226635 0 0 0 45.681746 45.681746c25.599982 0 45.695968-20.095986 45.695969-45.681746a45.25508 45.25508 0 0 0-45.695969-45.695968z m0 127.9288a81.905721 81.905721 0 0 1-82.232831-82.232832 81.891499 81.891499 0 0 1 82.232831-82.247054 81.891499 81.891499 0 0 1 82.247054 82.247054 81.891499 81.891499 0 0 1-82.247054 82.232832z" fill="#3E3A39" p-id="22961"></path><path d="M787.910564 82.247765a63.971511 63.971511 0 1 0 127.943022 0 63.971511 63.971511 0 0 0-127.9288 0" fill="#E50012" p-id="22962"></path><path d="M605.155135 968.618705H422.399707v-98.702154c-31.061312-9.116438-62.136846-21.916429-89.543049-38.357306l-67.62662 62.122623-129.749243-131.583908 56.647072-73.102172c-18.275543-32.895977-31.061312-73.102171-40.206195-105.998148H56.888849V381.966668h96.853266c9.144883-27.406203 20.110208-56.661294 36.551086-85.902162L135.495017 232.107217l129.749243-131.583909 67.62662 54.826629c25.58576-14.620434 56.647072-27.420425 89.557271-36.551086V34.731354h182.755429v91.363492h-36.551086V71.268217h-109.653257v76.771502l-14.634657 3.640887c-42.026637 9.144883-74.922615 23.765317-104.163483 42.040859l-10.965326 7.310218-62.151068-51.17152-82.232831 84.067497 53.006185 58.481737-7.310217 12.799991c-20.110208 34.730643-36.551086 67.612397-43.861303 100.522597l-3.669331 14.620434H93.439935v127.914578h87.722606l3.655108 14.620434c9.13066 43.875525 27.420425 89.557271 45.695969 118.79814l7.310217 10.965326-53.006186 67.626619 82.247054 84.067498 62.136846-56.661294 10.951104 7.310217c31.089756 20.110208 67.62662 34.730643 104.177705 43.861303l14.620434 3.655108v89.557271h109.653258v-91.377714h36.551085v127.9288zM851.882075 36.551797a45.240857 45.240857 0 0 0-45.681746 45.695968 45.25508 45.25508 0 0 0 45.681746 45.681746 45.240857 45.240857 0 0 0 45.695968-45.681746c0-25.599982-20.110208-45.695968-45.695968-45.695968z m0 127.9288a81.891499 81.891499 0 0 1-82.232832-82.232832A81.891499 81.891499 0 0 1 851.882075 0.000711a81.905721 81.905721 0 0 1 82.247054 82.247054 81.891499 81.891499 0 0 1-82.247054 82.232832z" fill="#3E3A39" p-id="22963"></path><path d="M568.60405 621.369168h-38.371529c-69.447063 0-129.763465-58.481737-129.763466-127.9288 0-69.432841 58.481737-127.914578 129.763466-127.914577h38.385751v36.551085h-38.385751c-49.351077 0-93.198158 42.026637-93.198158 91.363492 0 49.351077 42.026637 91.391937 93.198158 91.391937h38.385751v36.551086z" fill="#3E3A39" p-id="22964"></path><path d="M605.155135 621.369168h54.826629v-36.551085H605.155135v36.551085z m-36.551085-365.510857h36.551085v-36.551086h-36.551085v36.551086z m91.377714 255.8576h36.551086v-36.551085h-36.551086v36.551085z m-91.363492 0h36.551086v-36.551085h-36.551086v36.551085z m-36.551086 237.59628c-151.694117 0-274.147365-115.143031-274.147365-255.8576 0-146.204343 127.9288-274.147365 274.147365-274.147366v36.551086c-126.108357 0-237.596279 111.487923-237.596279 237.582057 0 120.632805 105.998149 219.320737 237.596279 219.320737v36.551086z" fill="#3E3A39" p-id="22965"></path></svg>