<?xml version="1.0" standalone="no"?><!DOCTYPE svg PUBLIC "-//W3C//DTD SVG 1.1//EN" "http://www.w3.org/Graphics/SVG/1.1/DTD/svg11.dtd"><svg t="1703636408739" class="icon" viewBox="0 0 1024 1024" version="1.1" xmlns="http://www.w3.org/2000/svg" p-id="9711" xmlns:xlink="http://www.w3.org/1999/xlink" width="48" height="48"><path d="M256.8704 769.5872s184.9344-508.416 428.9024-628.5824C420.096 359.424 223.5392 1014.8352 223.5392 1014.8352l338.8416-90.8288s-10.752-17.664-30.3104-12.3904l-271.6672 72.7552s31.5904-83.7632 65.2288-137.3184c171.0592-56.1152 317.184-115.8144 375.3984-312.8832 6.5536-42.8544-23.3984-31.4368-31.7952-29.184 70.912-60.0576 209.92-258.2528 162.2528-324.2496-14.6432-9.7792-21.3504-1.1264-21.3504-1.1264S918.016 44.544 836.096 18.5856c-82.0224-26.0096-236.8 90.8288-236.8 90.8288s2.6624-34.9696-33.792-25.1904C427.008 138.496 348.5184 282.7264 348.5184 282.7264s-10.24-38.3488-28.3648-16.384c-243.2 291.1744-63.2832 503.296-63.2832 503.296z" fill="#c606d8" p-id="9712" class="selected"></path></svg>