<?xml version="1.0" encoding="utf-8"?>
<!-- Generator: Adobe Illustrator 21.0.0, SVG Export Plug-In . SVG Version: 6.00 Build 0)  -->
<svg version="1.1" id="图层_1" xmlns="http://www.w3.org/2000/svg" xmlns:xlink="http://www.w3.org/1999/xlink" x="0px" y="0px"
	 viewBox="0 0 794.8 225.3" style="enable-background:new 0 0 794.8 225.3;" xml:space="preserve">
<style type="text/css">
	.st0{fill:#039498;}
	.st1{fill:#0CB1BE;}
	.st2{fill:#15CBC1;}
	.st3{fill:#05A9AD;}
	.st4{fill:#22DAC0;}
	.st5{fill:#4AECC2;}
	.st6{fill:#7CFDCB;}
	.st7{fill:#11AA99;}
</style>
<g>
	<g>
		<path class="st0" d="M221.9,128.8c-1.8-1.1-3.8-1.1-5.6,0l-29,17.6l-29,17.6c-1.8,1.1-3.8,1.1-5.6,0l-26.1-15.8
			c-1.8-1.1-3.8-1.1-5.6,0L95,164c-1.8,1.1-3.8,1.1-5.6,0l-57.9-35.2c-1.8-1.1-3.8-1.1-5.6,0l-21.3,13c-1.6,1-2.6,2.7-2.6,4.6
			c0,1.9,1,3.7,2.6,4.6l116.3,70.9c1.8,1.1,3.8,1.1,5.6,0l29-17.6l87.7-53.3c1.6-1,2.6-2.7,2.6-4.6c0-1.9-1-3.7-2.6-4.6L221.9,128.8
			z"/>
		<path class="st1" d="M60.3,117.8l-32-19.4l32-19.4l32,19.4L60.3,117.8z"/>
		<path class="st2" d="M28.3,98.4L4.9,84.2c-1.8-1.1-2.9-3-2.9-5.1s1.1-4,2.9-5.1l23.4-14.2l32,19.4L28.3,98.4z"/>
		<path class="st3" d="M89.1,135.4L60.3,118l32-19.4l32,19.4l-28.8,17.4C93.4,136.5,91,136.5,89.1,135.4L89.1,135.4z"/>
		<path class="st1" d="M187.9,117.8l32-19.4l-32-19.4l-32,19.4L187.9,117.8z"/>
		<path class="st2" d="M219.9,98.4l23.4-14.2c1.8-1.1,2.9-3,2.9-5.1s-1.1-4-2.9-5.1l-23.4-14.2l-32,19.5L219.9,98.4z"/>
		<path class="st3" d="M159.1,135.4l28.8-17.4l-32-19.4l-32,19.4l28.8,17.4C154.8,136.5,157.2,136.5,159.1,135.4L159.1,135.4z"/>
		<path class="st2" d="M155.9,98.4l32-19.4l-32-19.4l-32,19.4L155.9,98.4z"/>
		<path class="st4" d="M187.9,79.1l32-19.4l-32-19.4l-32,19.4L187.9,79.1z"/>
		<path class="st1" d="M123.9,118.1l33.8-20.5l-33.8-20.5L90.2,97.6L123.9,118.1z"/>
		<path class="st4" d="M124.1,79.1l32-19.4l-32-19.4l-32,19.4L124.1,79.1z"/>
		<path class="st5" d="M155.9,59.5l32-19.4l-32-19.4l-32,19.4L155.9,59.5z"/>
		<path class="st2" d="M92.1,98.4l32-19.4l-32-19.4L60.1,79L92.1,98.4z"/>
		<path class="st5" d="M92.1,59.5l32-19.4l-32-19.4l-32,19.4L92.1,59.5z"/>
		<path class="st6" d="M124.1,40.2l32-19.4L127.3,3.4c-1.9-1.1-4.3-1.1-6.2,0L92.3,20.8L124.1,40.2z"/>
		<path class="st4" d="M60.3,79.1l32-19.4l-32-19.4l-32,19.4L60.3,79.1z"/>
	</g>
	<g>
		<polygon class="st7" points="434.6,39.7 431.6,17.4 411.3,9 414.2,31.3 		"/>
		<polygon class="st7" points="388.3,2.7 365.7,2.7 371.8,41.4 333.4,41.4 333.4,19.1 352.3,10.5 334.6,2.7 306.9,16.4 277.7,16.4 
			277.7,27.5 310.9,27.5 310.9,41.4 277.7,41.4 277.7,52.5 310.9,52.5 310.9,84.7 277.7,84.7 277.7,95.8 310.9,95.8 310.9,126.1 
			277.7,126.1 277.7,137.2 333.2,137.2 333.2,89.9 355.2,75.7 355.2,62.3 333.2,75.1 333.2,52.5 373.5,52.5 380.7,97.5 341,121.4 
			341,137.2 382.8,112.2 386.7,137.2 441.8,137.2 441.8,126.1 408.4,126.1 404,99.6 441.8,77.3 441.8,60.7 401.7,84.9 396.4,52.5 
			441.8,52.5 441.8,41.4 394.5,41.4 		"/>
		<path class="st7" d="M656.9,2.6v0.2v11.1h114v103.7l-27.8-50.8l27.6-9.4V46.3L738,57.4l-20.7-38.1h-27.6l25.1,46l-9.4,3.1
			l-26.8-49.1h-27.3l-0.2-16.7h-55.8l0.1,123.4H475.8V13.7h114v-11H453.3V137h164.1V13.5H629v123.4h22.5V97.8l36-12.3l18.9,34.8H734
			l-23.2-42.6l9.4-3.1l25,45.9h25.9v5.6h-23.7l5.5,11.1h40.2V2.6H656.9z M651.3,86.8V19.6l30.9,56.8L651.3,86.8z"/>
		<polygon class="st7" points="589.7,24.1 525.7,24.1 531.6,19.3 503.7,19.3 481.6,37.4 509.6,37.4 512.3,35.2 561.7,35.2 
			534.9,54.7 510.3,42.5 482.2,42.5 521,63.1 520.2,63.6 481.3,63.6 481.3,74.7 531.5,74.5 536,71.4 541.6,74.5 589.7,74.5 
			589.7,63.8 550.2,63.8 549,63.1 589.7,35.2 		"/>
		<polygon class="st7" points="576.1,79.4 562.5,85 549.1,90.6 535.5,85 522,90.6 495,79.4 481.4,85 495,90.6 508.4,96.2 522,101.8 
			535.5,96.2 549.1,101.8 562.5,96.2 576.1,90.6 589.7,85 		"/>
		<polygon class="st7" points="562.5,104 549.1,109.6 535.5,104 522,109.6 495,98.4 481.4,104 495,109.6 522,120.8 535.5,115.2 
			549.1,120.8 562.5,115.2 576.1,109.6 589.7,104 576.1,98.4 		"/>
	</g>
	<path class="st7" d="M289.6,162.5c-2.4,7.8-6.8,16.1-8.2,18.1c-1.4,2.2-2.4,3.7-3.7,4c0.7,1.5,1.6,4.2,1.9,5.4
		c0.9-0.5,2.5-0.8,9.7-1.8c-2.6,3.9-4.9,6.9-6.1,8c-2,2.4-3.5,3.9-4.9,4.3c0.7,1.4,1.5,3.9,1.8,5c1.4-0.8,3.7-1.4,18.8-4.5
		c-0.1-1.2,0-3.5,0.1-5l-10.8,1.9c4.6-5.5,9.2-12.3,12.9-18.9l-4.7-2.9c-1.1,2.3-2.5,4.6-3.9,6.9l-7.3,0.7
		c3.7-5.4,7.2-12.2,9.9-18.7L289.6,162.5z"/>
	<path class="st7" d="M307.1,202.7c-1.8,3.5-4.6,7.3-7.3,10.4l-0.5-4.7c-7.8,1.8-15.7,3.7-21,4.7l1.1,5.8c5.7-1.4,12.9-3.4,19.9-5.3
		c-0.5,0.7-1.1,1.2-1.6,1.7c1.4,0.8,3.8,2.5,4.8,3.5c3.3-3.7,7.4-9.4,10.2-14.4L307.1,202.7z"/>
	<path class="st7" d="M336.9,193.8h-36v5.3h15.5v16.8c0,0.7-0.2,0.8-1,0.9c-0.7,0-3.5,0-6.1-0.1c0.7,1.6,1.5,3.8,1.7,5.4
		c4.1,0.1,6.9,0,8.9-0.9c2-0.8,2.4-2.4,2.4-5.2v-17h14.6V193.8z"/>
	<path class="st7" d="M301.5,181.7h5.7v-6.3h23.4v6.3h6v-11.5h-13c-0.8-2.4-2.3-5.6-3.7-8.2l-5.8,1.4c1,2,2.1,4.6,2.9,6.7h-15.5
		V181.7z"/>
	<path class="st7" d="M325.6,204.7c2.9,4.3,6.2,10.1,7.6,13.6l5.5-2.5c-1.5-3.5-5-9.1-7.9-13.2L325.6,204.7z"/>
	<rect x="307.2" y="182" class="st7" width="23.9" height="5.2"/>
	<path class="st7" d="M379.5,165l-5.4-2.7c-6.7,10.1-18.7,18.3-30.9,23.1c1.7,1.5,3.4,3.8,4.4,5.4c3.2-1.4,6.3-3.1,9.4-5v3.3h32.5
		v-4.3c3.3,2,6.6,3.7,10.1,5.4c0.8-2,2.6-4.2,4.2-5.5c-9.7-3.9-18.5-8.8-26.5-16.7C378.2,167,378.8,166,379.5,165z M387.6,183.5
		h-26.8c4.7-3.3,9.1-7.1,12.9-11.2C378.3,176.8,382.8,180.4,387.6,183.5z"/>
	<path class="st7" d="M353.4,222.3h6.1V219h28.3v3h6.4v-26.1h-40.8V222.3z M359.5,201.3h28.3v12.1h-28.3V201.3z"/>
	<path class="st7" d="M424.6,208.7c-3.7,3.4-10,6.6-15.7,8.7c1.3,0.9,3.6,3.1,4.6,4.1c5.6-2.5,12.2-6.6,16.6-10.6L424.6,208.7z"/>
	<path class="st7" d="M441.5,179.1h19.7v-4.5h-19.7v-3.4h23.4v-4.6h-23.4v-4.2h-6.1v4.2h-22.8v4.6h22.8v3.4h-19.3v4.5h19.3v3.5
		h-26.1v4.8h21.8c-4,2.3-8.2,4-9.7,4.6c-1.8,0.7-3.3,1.2-4.6,1.4c0.6,1.4,1.3,3.9,1.5,4.9c1.4-0.4,3.3-0.7,15.5-1.4
		c-5.5,2.2-10.2,3.9-12.3,4.6c-4,1.4-6.8,2.1-9.2,2.4c0.5,1.4,1.2,4,1.4,5.1c2-0.7,4.6-1,23-2v8.8c0,0.8-0.3,1-1.3,1
		c-1,0.1-4.7,0-8.4-0.1c0.8,1.6,1.8,3.9,2.2,5.6c4.8,0,8.1-0.1,10.4-1c2.4-0.8,3-2.4,3-5.4v-9.3l15.5-0.9c1.7,1.5,3.1,2.9,4.1,4
		l4.7-3.2c-2.7-3-8.2-7.2-12.6-10.1l-4.5,2.7c1.1,0.8,2.4,1.7,3.6,2.6l-23.2,1.1c8.6-2.9,17.3-6.4,25.5-10.7l-4.2-3.7
		c-2.4,1.4-5,2.7-7.6,4l-14.3,0.7c3.1-1.4,6.3-2.9,9.1-4.5l-1.4-1.2H468v-4.8h-26.4v-3.5H441.5z"/>
	<path class="st7" d="M447.1,211.9c5.3,2.7,12.3,6.9,15.5,9.7l4.7-3.6c-3.7-2.9-10.6-6.8-15.9-9.3L447.1,211.9z"/>
	<path class="st7" d="M502,194.8c-1.5-1.8-7.8-8.7-10.3-11.2v-1.7h8.6v-5.8h-8.6v-13.6h-6.1v13.6h-10.4v5.8h9.7
		c-2.4,8.5-7,17.9-11.7,23.2c1,1.6,2.5,4.1,3.2,5.9c3.5-4,6.7-10.4,9.3-17.3v28.7h6.1v-31.7c2.5,3.2,5.2,7.1,6.6,9.3L502,194.8z"/>
	<path class="st7" d="M527.3,162.5h-6.4v13.6h-18.5v5.8H519c-4.8,9.9-13.1,20.2-21.1,25.6c1.5,1.2,3.3,3.4,4.4,4.9
		c6.7-5.1,13.6-13.4,18.6-22v24.2c0,1.2-0.5,1.6-1.6,1.6c-1.2,0.1-5.3,0.1-9.2-0.1c0.8,1.7,1.8,4.5,2.2,6.2c5.5,0,9.5-0.1,11.8-1.2
		c2.4-1,3.3-2.7,3.3-6.5V182h6.5v-5.8h-6.5L527.3,162.5L527.3,162.5z"/>
	<path class="st7" d="M545.7,195.8c5.7-3.6,12.6-9.5,17.1-15l-5.9-2.3c-3.8,4.8-10.2,9.7-15.9,12.9
		C542.3,192.3,544.6,194.6,545.7,195.8z"/>
	<path class="st7" d="M580.9,178.3l-4.8,3.5c5.9,4.1,13.1,10.3,16.4,14.3l5.1-4C594.1,188,586.8,182.1,580.9,178.3z"/>
	<path class="st7" d="M584.5,191.3l-6.1-1.8c-2.1,5.5-5.1,10.1-9,13.9c-4-3.8-7.1-8.4-9.1-13.6l-5.5,1.7c2.6,6.1,5.9,11.3,10.1,15.7
		c-6.6,4.7-15,7.8-24.9,9.8c1.2,1.4,3,4,3.7,5.5c10.1-2.5,18.7-6,25.8-11.3c6.7,5.3,15.1,8.9,25.7,10.8c0.8-1.7,2.4-4.2,3.7-5.4
		c-10.1-1.6-18.3-4.8-24.8-9.3C578.4,202.9,581.9,197.7,584.5,191.3z"/>
	<path class="st7" d="M541,177h56.3v-5.9h-25.2l1.9-0.7c-0.9-2.3-3-5.9-4.8-8.6l-5.7,2c1.4,2.3,2.9,5.2,3.9,7.4H541V177z"/>
	<path class="st7" d="M627.6,190.7H656v-25.3h-42v25.3h6.5c-4,5.7-10.1,10.8-16.2,14.2c1.4,1,3.7,3.1,4.6,4.3c3.4-2.2,7-5,10.3-8.3
		h7.6c-4.2,6.5-10.5,12.1-17.2,15.7c1.4,1,3.6,3.2,4.6,4.4c7.4-4.7,14.7-11.8,19.5-20.1h7.4c-3.1,7.4-7.8,13.9-13.6,18.1
		c1.3,0.8,3.8,2.7,4.8,3.8c6.1-5.1,11.6-12.9,15.1-21.9h6.9c-1,10.2-2.2,14.6-3.5,15.8c-0.7,0.7-1.2,0.8-2.4,0.8s-4,0-7-0.3
		c0.9,1.4,1.5,3.7,1.6,5.2c3.2,0.2,6.3,0.2,8,0c2-0.1,3.4-0.7,4.8-2c2-2.1,3.4-7.8,4.7-22.2c0.1-0.8,0.3-2.5,0.3-2.5H624
		C625.3,194,626.5,192.4,627.6,190.7z M619.9,170.4h29.9v5.3h-29.9V170.4z M619.9,185.8v-5.5h29.9v5.5H619.9z"/>
	<path class="st7" d="M683.9,175.3l-5.5,1.7c2.4,4.6,4.6,10.6,5.4,14.4l5.8-2C688.8,185.6,686.3,179.8,683.9,175.3z"/>
	<path class="st7" d="M714.3,191.4c2.4-3.7,5.3-9.5,7.6-14.6l-6.5-1.8c-1.4,4.6-4.2,10.8-6.4,14.7L714.3,191.4z"/>
	<polygon class="st7" points="702.9,172.6 725.3,172.6 725.3,166.7 674.1,166.7 674.1,172.6 696.6,172.6 696.6,194.1 670.7,194.1 
		670.7,200.2 696.6,200.2 696.6,222.4 702.9,222.4 702.9,200.2 729,200.2 729,194.1 702.9,194.1 	"/>
	<path class="st7" d="M743.9,222.4h6.1v-3.5h29.7v3.3h6.5v-27.7h-42.3V222.4z M750.1,200.4h29.7v12.7h-29.7V200.4z"/>
	<path class="st7" d="M775.7,169.2l-4.7,3.2c2.8,2.6,5.8,5.7,8.6,8.9l-30.4,1.2c5.4-5.1,10.9-11.4,15.6-18l-6.1-2.6
		c-4.8,7.9-12.1,15.9-14.4,18.1c-2.2,2.1-3.8,3.5-5.4,3.7c0.7,1.7,1.7,4.7,2,5.9c2.9-1,7.1-1.2,43-3.1c1.5,1.9,2.8,3.7,3.8,5.4
		l5.1-3.8C789.5,182.8,781.9,174.7,775.7,169.2z"/>
</g>
</svg>
