<?xml version="1.0" standalone="no"?><!DOCTYPE svg PUBLIC "-//W3C//DTD SVG 1.1//EN" "http://www.w3.org/Graphics/SVG/1.1/DTD/svg11.dtd"><svg t="1702982772713" class="icon" viewBox="0 0 1024 1024" version="1.1" xmlns="http://www.w3.org/2000/svg" p-id="12105" xmlns:xlink="http://www.w3.org/1999/xlink" width="48" height="48"><path d="M208.979592 1024h606.040816c115.461224 0 208.979592-93.518367 208.979592-208.979592V208.979592C1024 93.518367 930.481633 0 815.020408 0H208.979592C93.518367 0 0 93.518367 0 208.979592v606.040816c0 115.461224 93.518367 208.979592 208.979592 208.979592z" fill="#FFFFFF" p-id="12106"></path><path d="M386.612245 846.367347h438.857143c23.092245 0 41.795918-18.703673 41.795918-41.795918V219.428571c0-23.092245-18.703673-41.795918-41.795918-41.795918H386.612245c-23.092245 0-41.795918 18.703673-41.795918 41.795918v585.142858c0 23.092245 18.703673 41.795918 41.795918 41.795918z" fill="#0364B8" p-id="12107"></path><path d="M344.816327 261.22449h522.448979v-41.795919c0-23.092245-18.703673-41.795918-41.795918-41.795918H386.612245c-23.092245 0-41.795918 18.703673-41.795918 41.795918v41.795919z" fill="#0358A7" p-id="12108"></path><path d="M344.816327 428.408163h177.632653V261.22449H344.816327v167.183673zM344.816327 595.591837h177.632653V428.408163H344.816327v167.183674zM344.816327 762.77551h177.632653V595.591837H344.816327v167.183673z" fill="#0078D4" p-id="12109"></path><path d="M689.632653 428.408163h177.632653V261.22449H689.632653v167.183673z" fill="#50D9FF" p-id="12110"></path><path d="M689.632653 595.591837h177.632653V428.408163H689.632653v167.183674z" fill="#28A8EA" p-id="12111"></path><path d="M689.632653 762.77551h177.632653V595.591837H689.632653v167.183673z" fill="#0078D4" p-id="12112"></path><path d="M522.44898 428.408163h167.183673V261.22449H522.44898v167.183673z" fill="#28A8EA" p-id="12113"></path><path d="M522.44898 595.591837h167.183673V428.408163H522.44898v167.183674z" fill="#0078D4" p-id="12114"></path><path d="M522.44898 762.77551h167.183673V595.591837H522.44898v167.183673z" fill="#0364B8" p-id="12115"></path><path d="M856.816327 553.795918l31.346938-20.897959-31.346938-20.897959v41.795918z" fill="#123B6D" p-id="12116"></path><path d="M846.346449 846.367347a41.77502 41.77502 0 0 0 25.80898-8.881633c9.717551-7.627755 15.986939-19.539592 15.986938-32.914285V532.897959l-282.122449 156.734694-266.13551 147.853061c7.105306 5.537959 16.091429 8.881633 25.80898 8.881633h480.653061z" fill="#1F93DE" p-id="12117"></path><path d="M846.367347 846.367347c9.717551 0 18.703673-3.343673 25.80898-8.881633L606.040816 689.632653 323.918367 532.897959v271.67347c0 13.374694 6.269388 25.286531 15.986939 32.914285A41.77502 41.77502 0 0 0 365.714286 846.367347h480.653061z" fill="#29A9EA" p-id="12118"></path><path d="M188.081633 700.081633h292.571428c23.092245 0 41.795918-18.703673 41.795919-41.795919V365.714286c0-23.092245-18.703673-41.795918-41.795919-41.795919H188.081633c-23.092245 0-41.795918 18.703673-41.795919 41.795919v292.571428c0 23.092245 18.703673 41.795918 41.795919 41.795919z" fill="#0163CC" p-id="12119"></path><path d="M428.408163 516.597551c0 30.093061-10.866939 52.662857-10.866939 52.662857-10.866939 22.674286-31.137959 34.899592-31.137959 34.899592C366.132245 616.489796 339.905306 616.489796 339.905306 616.489796c-25.913469 0-46.28898-12.120816-46.288979-12.120816-20.37551-12.225306-31.555918-34.795102-31.555919-34.795102-11.180408-22.465306-11.284898-51.826939-11.284898-51.826939v-10.031021c0-30.093061 11.075918-52.871837 11.075919-52.871836 11.180408-22.883265 31.346939-35.108571 31.346938-35.108572C313.469388 407.510204 339.591837 407.510204 339.591837 407.510204c26.122449 0 46.393469 12.225306 46.393469 12.225306 20.27102 12.225306 31.346939 35.108571 31.346939 35.108572C428.408163 477.622857 428.408163 507.506939 428.408163 507.506939z m-55.275102-57.782857c-11.807347-16.613878-33.541224-16.613878-33.541224-16.613878-21.629388 0-33.332245 16.404898-33.332245 16.404898-11.807347 16.404898-11.911837 48.065306-11.911837 48.065306v9.926531c0 31.137959 11.702857 48.378776 11.702857 48.378776 11.807347 17.136327 33.854694 17.136327 33.854694 17.136326 21.629388 0 33.227755-16.509388 33.227755-16.509388 11.598367-16.613878 11.702857-48.274286 11.702857-48.274285v-9.926531c0-31.973878-11.702857-48.587755-11.702857-48.587755z" fill="#FFFFFF" p-id="12120"></path></svg>