<?xml version="1.0" standalone="no"?><!DOCTYPE svg PUBLIC "-//W3C//DTD SVG 1.1//EN" "http://www.w3.org/Graphics/SVG/1.1/DTD/svg11.dtd"><svg t="1702982364924" class="icon" viewBox="0 0 1024 1024" version="1.1" xmlns="http://www.w3.org/2000/svg" p-id="5882" xmlns:xlink="http://www.w3.org/1999/xlink" width="48" height="48"><path d="M937.467356 184.529733c-16.50196-17.494105-41.254388-26.411122-73.579471-26.533989-55.9625-0.217064-112.319196-0.177132-164.652023 0-54.004831 0.177132-99.908682 9.637833-148.327196 55.201754-14.925176 14.068184-24.23639 22.835714-38.169421 34.662614-9.71872-8.76753-52.672757-46.678932-65.559377-58.518118-24.508743-22.523429-51.626346-33.08583-81.476699-32.841122-44.707953 0.162798-203.949766 0-203.949765 0-63.424576 0-98.400499 33.588558-98.494697 94.580383-0.231398 173.719551-0.244709 347.424768 0.054266 521.15763 0.108532 61.399331 33.928488 95.286864 95.232598 95.436351 60.965204 0.149487 584.664118 0 584.664118 0 1.821492 0 3.615339-0.176108 5.355944-0.530372 16.135409 0.026621 94.213832 0.121842 124.688755-0.040956 53.787768-3.112611 84.467468-36.551682 84.140848-91.753435-0.054266-10.806086 0.662454-418.123026 0.419793-516.141616-0.080887-32.138736-3.873358-57.225975-20.347673-74.679124z m-571.573744 27.647975c17.453149-0.218088 29.510423 5.206457 43.619563 18.160654 13.171261 12.11154 57.961124 51.639656 68.42728 61.128002 20.987601 19.003312 46.079959 19.764058 67.149471 2.025245 16.447694-13.851121 26.628186-23.407042 43.973827-39.746204 31.264338-29.415201 60.149167-39.909002 110.348217-40.0718 42.833219-0.134129 88.325468-0.185323 134.109524-0.087031-30.51383 23.957893-304.130801 238.03286-310.383669 243.579247-7.73443 6.44331-16.148719 6.768906-22.52343 1.00648-7.353544-6.742285-257.283952-197.867887-317.540627-245.977187 0-0.001024 138.029981 0.118771 182.819844-0.017406z m352.956821 176.178924c1.519446 0.402387 2.494185 1.900331 2.42968 4.320796 0 0 0.006143 241.85912 0.003071 242.664918-0.366551 0.013311-76.776041 0.007167-103.090918 0.014334a85044.48129 85044.48129 0 0 0-60.596605-77.127234c-16.189675-20.566785-33.465692-25.201913-45.102148-25.459932-11.485946-0.502728-29.102916 3.575408-46.216136 23.407042-21.57224 25.024781-41.526741 50.660822-60.094901 74.775369-3.00408 3.901003-5.574032 5.239221-8.196202 5.206457l-100.009023-0.08703s0.027645-221.530901 0.020477-244.061497c-0.001024-3.200666 0.116723-3.381893 1.099653-3.856976 5.948774-2.877118 12.06956-5.934439 12.06956-5.934439 18.08591 13.85624 145.977379 111.634217 151.944583 117.098692 13.634057 12.382869 30.326459 18.609116 47.344457 18.609116 16.882845 0 34.064665-6.131025 48.880285-18.459628 6.16379-5.348777 76.6071-60.536196 146.509799-115.229079 5.394852 1.349481 11.148063 3.152543 13.004368 4.119091zM158.680724 811.9984c-30.367415-0.067576-39.637673-9.37879-39.691939-39.868047-0.298975-173.650951-0.285664-347.301902-0.054266-520.967187 0.011263-6.792455 0.485322-12.698226 1.822516-17.726527 36.178988 29.625098 88.958229 70.752524 142.364087 111.886093-18.05417 13.901291-20.766442 31.437375-20.801254 47.140704-0.122866 50.634201-0.122866 237.715456-0.122866 237.715456-0.013311 19.805014 7.666853 36.824036 21.626506 47.929096 11.295503 8.984594 26.071192 13.729278 42.750284 13.729278h91.440126c19.451773 0 39.473851-10.303358 52.265251-26.900539 18.106388-23.502264 60.190123-74.584926 60.937559-75.251476 0.706481 0.69317 127.774745 162.368759 174.806917 222.368439-117.485722 0.107508-386.940599 0.311261-527.342921-0.05529z m745.60558-563.735901c-0.44539 41.080327-0.250852 397.073992-0.258019 527.401283-0.002048 28.586878-13.307438 34.662614-32.501192 35.804246-25.772218 0.149487-89.809077 0.067576-115.201433 0.01331-16.555202-21.122754-54.387765-69.384613-94.475947-120.486729 23.732638-0.008191 48.120562-0.004096 58.087062 0.038907h0.231398c17.494105 0 31.468092-5.111236 41.540052-15.19753 10.222471-10.221447 15.360328-24.617275 15.291727-42.750284-0.203753-52.537604-0.177132-240.60998-0.177132-240.609979 0-15.316301-2.804422-32.507335-21.698178-46.789512 64.697266-50.608604 124.969299-97.764666 146.464748-114.865599 2.671317 7.66071 2.783944 9.483226 2.696914 17.441887z" fill="#1296db" p-id="5883"></path></svg>