<?xml version="1.0" standalone="no"?><!DOCTYPE svg PUBLIC "-//W3C//DTD SVG 1.1//EN" "http://www.w3.org/Graphics/SVG/1.1/DTD/svg11.dtd"><svg t="1702999304511" class="icon" viewBox="0 0 1024 1024" version="1.1" xmlns="http://www.w3.org/2000/svg" p-id="75372" xmlns:xlink="http://www.w3.org/1999/xlink" width="48" height="48"><path d="M678.881 20.067c-11.827 18.331-78.658 47.312-136.617 59.731-70.975 14.196-109.415 27.203-147.267 47.904-50.269 28.981-78.065 68.012-71.562 101.724 1.777 7.097 61.508 94.036 132.477 193.393 71.558 99.359 131.886 183.34 134.251 187.474 2.957 4.734-7.687 5.92-41.396 3.547-108.231-7.097-209.955 48.497-254.31 138.987-13.011 26.617-15.969 41.396-15.969 75.113 0 73.927 40.215 133.071 114.143 167.958 29.574 13.6 40.215 15.381 101.132 15.381 66.239 0 69.196-0.597 113.559-21.885 120.050-56.774 168.551-169.143 118.87-270.867-10.059-21.294-72.748-128.927-138.987-239.52l-120.646-201.083 20.7-1.184c79.25-5.911 134.843-28.977 172.693-71.558 32.527-37.262 43.174-73.927 39.030-135.437-2.949-53.819-8.865-67.419-20.103-49.678z" fill="#36ab60" p-id="75373"></path></svg>