<?xml version="1.0" standalone="no"?><!DOCTYPE svg PUBLIC "-//W3C//DTD SVG 1.1//EN" "http://www.w3.org/Graphics/SVG/1.1/DTD/svg11.dtd"><svg t="1702984060142" class="icon" viewBox="0 0 1024 1024" version="1.1" xmlns="http://www.w3.org/2000/svg" p-id="36556" xmlns:xlink="http://www.w3.org/1999/xlink" width="48" height="48"><path d="M0 0h1024v1024H0V0z" fill="#009966" p-id="36557"></path><path d="M970.752 26.112c45.568 13.824 45.568 15.36 23.552 77.312-27.648 77.312-21.504 69.632-49.152 60.416-25.6-9.216-55.296-11.264-71.68-5.12-17.92 7.168-27.648 38.4-30.72 97.28-1.024 31.232-1.024 62.976 1.024 71.168 3.584 15.36 4.096 15.36 64 15.36h60.416v140.288h-124.928l2.56 257.536 2.048 257.536-97.28-1.024-97.792-1.536 2.048-256.512 1.536-255.488h-81.92V342.016H655.36l-1.024-83.456c-0.512-65.024 1.024-90.624 9.216-117.76 18.944-66.048 59.392-105.984 124.416-124.416C827.392 5.12 921.6 10.24 970.752 26.112z m-568.32 312.832c54.784 16.896 92.672 37.376 92.672 50.176 0 13.824-50.688 118.272-56.832 115.2-2.048-1.024-18.432-9.216-36.352-17.92-62.976-31.744-138.24-33.28-167.424-3.584-12.288 12.288-14.848 45.568-5.12 64.512 7.68 13.312 36.864 29.184 99.328 52.736 95.744 35.84 145.408 72.192 168.96 122.368 9.728 20.992 12.288 37.376 12.288 81.92 0 70.656-13.824 104.96-58.368 145.92-90.624 83.456-277.504 84.992-404.992 3.072-16.896-11.264-30.72-24.064-30.72-29.184 0-8.704 40.448-89.088 53.76-105.984 4.096-5.632 10.24-3.584 26.624 9.216 30.72 24.064 77.312 46.592 112.128 53.76 60.416 12.288 113.664-17.408 113.664-64 0-32.256-21.504-52.736-75.776-73.728-155.648-60.928-208.896-115.2-209.92-212.992C34.816 427.008 89.6 360.448 196.096 332.8c40.96-10.752 164.352-7.168 206.336 6.144z" fill="#FFFFFF" p-id="36558"></path></svg>