<?xml version="1.0" standalone="no"?><!DOCTYPE svg PUBLIC "-//W3C//DTD SVG 1.1//EN" "http://www.w3.org/Graphics/SVG/1.1/DTD/svg11.dtd"><svg t="1703041466256" class="icon" viewBox="0 0 1035 1024" version="1.1" xmlns="http://www.w3.org/2000/svg" p-id="22022" xmlns:xlink="http://www.w3.org/1999/xlink" width="48.515625" height="48"><path d="M2.909091 0m512 0l0 0q512 0 512 512l0 0q0 512-512 512l0 0q-512 0-512-512l0 0q0-512 512-512Z" fill="#EFF4FF" p-id="22023"></path><path d="M526.277818 628.293818a4.852364 4.852364 0 0 0-6.818909 0l-70.411636 70.411637c-32.616727 32.581818-87.633455 36.072727-123.648 0-36.072727-36.072727-32.581818-91.019636 0-123.636364l70.423272-70.388364a4.852364 4.852364 0 0 0 0-6.842182l-24.110545-24.133818a4.852364 4.852364 0 0 0-6.842182 0l-70.423273 70.4a131.025455 131.025455 0 0 0 0 185.460364 131.060364 131.060364 0 0 0 185.448728 0l70.423272-70.423273a4.852364 4.852364 0 0 0 0-6.842182l-24.005818-24.005818h-0.034909z m14.626909-230.667636c4.189091-4.456727 11.636364-0.814545 10.647273 5.236363l-15.045818 92.136728a6.190545 6.190545 0 0 0 6.097454 7.179636h42.251637c5.410909 0 8.238545 6.469818 4.514909 10.426182l-106.344727 113.803636c-4.177455 4.456727-11.636364 0.814545-10.647273-5.236363l15.045818-92.136728a6.190545 6.190545 0 0 0-6.097455-7.179636h-42.24a6.202182 6.202182 0 0 1-4.538181-10.426182zM636.858182 256c34.792727 0 68.154182 13.847273 92.718545 38.469818 51.2 51.2 51.2 134.237091 0 185.483637l-70.4 70.4a4.840727 4.840727 0 0 1-6.865454 0l-24.133818-24.087273a4.852364 4.852364 0 0 1 0-6.865455l70.423272-70.376727c32.605091-32.616727 36.072727-87.598545 0-123.671273-35.979636-36.037818-91.031273-32.581818-123.613091 0l-70.446545 70.446546a4.852364 4.852364 0 0 1-6.818909 0l-24.064-24.064a4.852364 4.852364 0 0 1 0-6.853818l70.481454-70.411637A130.990545 130.990545 0 0 1 636.858182 256z" fill="#3871FF" p-id="22024"></path></svg>