<?xml version="1.0" standalone="no"?><!DOCTYPE svg PUBLIC "-//W3C//DTD SVG 1.1//EN" "http://www.w3.org/Graphics/SVG/1.1/DTD/svg11.dtd"><svg t="1702982931111" class="icon" viewBox="0 0 1024 1024" version="1.1" xmlns="http://www.w3.org/2000/svg" p-id="16020" xmlns:xlink="http://www.w3.org/1999/xlink" width="48" height="48"><path d="M922.88 471.04c-18.346667 0-33.706667-15.36-33.706667-33.706667 0-18.346667 15.36-33.706667 33.706667-33.706666s33.706667 15.36 33.706667 33.706666c0 18.346667-15.36 33.706667-33.706667 33.706667z m0-11.946667c11.52 0 21.333333-9.813333 21.333333-21.333333s-9.813333-21.333333-21.333333-21.333333-21.333333 9.813333-21.333333 21.333333c-0.426667 11.52 9.386667 21.333333 21.333333 21.333333z m-647.253333-349.866666c-23.893333 0-43.093333-19.2-43.093334-43.093334s19.2-42.666667 43.093334-42.666666S318.72 42.666667 318.72 66.56s-19.2 42.666667-43.093333 42.666667z m0-12.373334c17.066667 0 30.72-13.653333 30.72-30.72s-13.653333-30.72-30.72-30.72-30.72 13.653333-30.72 30.72 13.653333 30.72 30.72 30.72z" fill="#109B57" p-id="16021"></path><path d="M209.493333 476.586667l311.466667-152.746667 281.6 152.746667c8.106667 4.266667 12.8 12.373333 12.8 21.333333v291.84c0 26.88-22.186667 49.066667-49.066667 49.066667H244.906667c-26.88 0-49.066667-22.186667-49.066667-49.066667v-291.413333c0-8.96 5.546667-17.493333 13.653333-21.76z" fill="#109B57" opacity=".2" p-id="16022"></path><path d="M520.96 337.493333l-305.493333 149.76c-4.266667 1.706667-6.826667 5.973333-6.826667 11.093334V789.333333c0 20.053333 16.64 36.693333 36.693333 36.693334h521.386667c20.053333 0 36.693333-16.64 36.693333-36.693334v-291.84c0-4.266667-2.56-8.533333-5.973333-11.093333l-276.48-148.906667z m-311.466667 139.093334l311.466667-152.746667 281.6 152.746667c8.106667 4.266667 12.8 12.373333 12.8 21.333333v291.84c0 26.88-22.186667 49.066667-49.066667 49.066667H244.906667c-26.88 0-49.066667-22.186667-49.066667-49.066667v-291.413333c0-8.96 5.546667-17.493333 13.653333-21.76z" fill="#109B57" p-id="16023"></path><path d="M288 268.8h435.626667c26.88 0 49.066667 22.186667 49.066666 49.066667v203.093333c0 7.253333-3.84 14.506667-9.386666 19.2l-219.733334 174.08c-22.186667 17.92-54.186667 17.92-75.946666 0l-219.733334-174.08c-5.973333-5.12-9.386667-11.52-9.386666-19.2V317.866667C238.933333 290.986667 261.12 268.8 288 268.8z" fill="#FFFFFF" p-id="16024"></path><path d="M288 281.173333c-20.053333 0-36.693333 16.64-36.693333 36.693334v203.093333c0 3.84 1.706667 7.253333 4.693333 9.813333l219.733333 174.08c17.92 14.08 43.093333 14.08 60.586667 0l219.733333-174.08c2.986667-2.56 4.693333-5.973333 4.693334-9.813333V317.866667c0-20.053333-16.64-36.693333-36.693334-36.693334H288z m0-12.373333h435.626667c26.88 0 49.066667 22.186667 49.066666 49.066667v203.093333c0 7.253333-3.84 14.506667-9.386666 19.2l-219.733334 174.08c-22.186667 17.92-54.186667 17.92-75.946666 0l-219.733334-174.08c-5.973333-5.12-9.386667-11.52-9.386666-19.2V317.866667C238.933333 290.986667 261.12 268.8 288 268.8z" fill="#109B57" p-id="16025"></path><path d="M812.8 500.48l-7.253333-9.813333-78.933334 62.72 7.253334 9.813333 78.933333-62.72z m-614.4 0l7.253333-9.813333 78.933334 62.72L277.333333 563.2l-78.933333-62.72z m521.386667 263.68c-2.56-1.706667-2.986667-5.973333-1.28-8.533333 1.706667-2.56 5.973333-2.986667 8.533333-1.28l70.4 55.893333c2.56 1.706667 2.986667 5.973333 1.28 8.533333-1.706667 2.56-5.973333 2.986667-8.533333 1.28l-70.4-55.893333z m-428.8 0c2.56-1.706667 2.986667-5.973333 1.28-8.533333-1.706667-2.56-5.973333-2.986667-8.533334-1.28l-69.973333 55.04c-2.56 1.706667-2.986667 5.973333-1.28 8.533333 1.706667 2.56 5.973333 2.986667 8.533333 1.28l69.973334-55.04z" fill="#109B57" p-id="16026"></path><path d="M404.48 471.04c0 57.6 46.506667 104.106667 104.106667 104.533333 57.6 0 104.106667-46.506667 104.533333-104.106666 0-57.6-46.506667-104.106667-104.106667-104.106667-58.026667-0.426667-104.533333 46.08-104.533333 103.68z" fill="#44B914" p-id="16027"></path><path d="M555.946667 427.52c3.84-3.84 9.386667-3.84 12.8 0s3.84 9.386667 0 12.8l-74.24 74.24c-3.84 3.84-9.386667 3.84-12.8 0l-34.986667-34.986667c-3.84-3.84-3.84-9.386667 0-12.8s9.386667-3.84 12.8 0l28.16 28.16 68.266667-67.413333z" fill="#FFFFFF" p-id="16028"></path><path d="M91.733333 875.946667h705.28c3.84 0 5.973333 2.56 5.973334 5.973333 0 3.84-2.56 5.973333-5.973334 5.973333H91.733333c-3.84 0-5.973333-2.56-5.973333-5.973333-0.426667-3.413333 2.133333-5.973333 5.973333-5.973333z m729.6 0h85.76c3.84 0 5.973333 2.56 5.973334 5.973333 0 3.84-2.56 5.973333-5.973334 5.973333h-85.76c-3.84 0-5.973333-2.56-5.973333-5.973333 0-3.413333 2.56-5.973333 5.973333-5.973333zM220.586667 925.013333h165.546666c3.84 0 5.973333 2.56 5.973334 5.973334s-2.56 5.973333-5.973334 5.973333H220.586667c-3.84 0-5.973333-2.56-5.973334-5.973333s2.133333-5.973333 5.973334-5.973334z m189.866666 0H477.866667c3.84 0 5.973333 2.56 5.973333 5.973334s-2.56 5.973333-5.973333 5.973333H410.453333c-3.84 0-5.973333-2.56-5.973333-5.973333s2.56-5.973333 5.973333-5.973334z m92.16 0h104.106667c3.84 0 5.973333 2.56 5.973333 5.973334s-2.56 5.973333-5.973333 5.973333h-104.106667c-3.84 0-5.973333-2.56-5.973333-5.973333s2.133333-5.973333 5.973333-5.973334z m-43.093333 49.066667h61.44c3.84 0 5.973333 2.56 5.973333 5.973333 0 3.84-2.56 5.973333-5.973333 5.973334h-61.44c-3.84 0-5.973333-2.56-5.973333-5.973334 0-3.413333 2.56-5.973333 5.973333-5.973333z m221.44 0c2.56-10.24 12.373333-18.346667 23.893333-18.346667s20.906667 8.106667 23.893334 18.346667h80.213333c3.84 0 5.973333 2.56 5.973333 5.973333 0 3.84-2.56 5.973333-5.973333 5.973334h-80.213333c-2.56 10.24-12.373333 18.346667-23.893334 18.346666s-20.906667-8.106667-23.893333-18.346666h-135.68c-3.84 0-5.973333-2.56-5.973333-5.973334 0-3.84 2.56-5.973333 5.973333-5.973333h135.68z m23.893333 18.346667c6.826667 0 12.373333-5.546667 12.373334-12.373334 0-6.826667-5.546667-12.373333-12.373334-12.373333s-12.373333 5.546667-12.373333 12.373333c0.426667 6.826667 5.973333 12.373333 12.373333 12.373334z" fill="#109B57" p-id="16029"></path><path d="M109.653333 387.84l-21.333333 21.333333 21.333333 21.333334 21.333334-21.333334-21.333334-21.333333z m39.253334 21.333333l-39.253334 39.253334-39.253333-39.253334 39.253333-39.253333 39.253334 39.253333z m552.533333-257.706666l21.333333 21.333333 21.333334-21.333333-21.333334-21.333334-21.333333 21.333334z m60.586667 0l-39.253334 39.253333-39.253333-39.253333 39.253333-39.253334 39.253334 39.253334z" fill="#109B57" opacity=".2" p-id="16030"></path></svg>