<?xml version="1.0" standalone="no"?><!DOCTYPE svg PUBLIC "-//W3C//DTD SVG 1.1//EN" "http://www.w3.org/Graphics/SVG/1.1/DTD/svg11.dtd"><svg t="1703165915549" class="icon" viewBox="0 0 1024 1024" version="1.1" xmlns="http://www.w3.org/2000/svg" p-id="5323" xmlns:xlink="http://www.w3.org/1999/xlink" width="48" height="48"><path d="M903.3955552 580.44871147a648.8064 648.8064 0 0 1-12.19697707 125.61066666A383.74968853 383.74968853 0 0 1 512 1012.62222187 383.74968853 383.74968853 0 0 1 132.98346667 706.05937813 650.08071147 650.08071147 0 0 1 390.7584 53.248a193.1491552 193.1491552 0 0 1 242.4832 0 652.81137813 652.81137813 0 0 1 127.43111147 120.69546667 47.87768853 47.87768853 0 0 1 8.55608853 28.58097813 49.152 49.152 0 0 1-49.51608853 48.9699552 49.69813333 49.69813333 0 0 1-39.13955627-18.2044448A459.66222187 459.66222187 0 0 0 621.22666667 183.22773333a175.3088 175.3088 0 0 0-218.45333334 0 455.11111147 455.11111147 0 0 0-144.1792 582.54222187h1.09226667a289.63271147 289.63271147 0 0 0 504.26311147 0h1.09226666a454.0188448 454.0188448 0 0 0 50.97244374-208.80497707v-6.18951146c-2.18453333 3.82293333-4.55111147 8.0099552-7.09973334 12.9251552-26.76053333 46.96746667-60.25671147 105.76782187-114.87004373 87.1992896-70.4512-24.21191147-84.65066667-107.04213333-135.9872-105.2216896-41.87022187 1.6384-71.17937813 72.81777813-120.51342293 73.9100448-96.8476448 2.91271147-139.4460448-151.64302187-140.9024-175.4908448-1.27431147-4.7331552 41.87022187 109.22666667 117.9648 108.1344 50.42631147-1.27431147 81.37386667-113.95982187 135.9872-115.78026667 44.96497813-1.4563552 91.02222187 78.09706667 131.98222293 80.6456896 49.69813333 3.2768 91.02222187-91.02222187 99.39626667-111.7752896l1.2743104-3.45884373a49.69813333 49.69813333 0 0 1 7.28177813-11.28675627 50.42631147 50.42631147 0 0 1 86.8352 13.1072 642.2528 642.2528 0 0 1 26.0323552 176.76515627z" fill="#FFB90F" p-id="5324"></path></svg>