<?xml version="1.0" standalone="no"?><!DOCTYPE svg PUBLIC "-//W3C//DTD SVG 1.1//EN" "http://www.w3.org/Graphics/SVG/1.1/DTD/svg11.dtd"><svg t="1703040068161" class="icon" viewBox="0 0 1024 1024" version="1.1" xmlns="http://www.w3.org/2000/svg" p-id="72600" xmlns:xlink="http://www.w3.org/1999/xlink" width="48" height="48"><path d="M281.6 758.4c-115.2-124.8-123.2-134.4-124.8-158.4-1.6-16 1.6-28.8 6.4-32 4.8-3.2 30.4-12.8 59.2-22.4l51.2-16 19.2 22.4c11.2 12.8 17.6 24 14.4 25.6-3.2 3.2-17.6 9.6-33.6 14.4-30.4 11.2-33.6 14.4-20.8 28.8 19.2 25.6 158.4 137.6 169.6 137.6 22.4 0 339.2-156.8 339.2-168 0-8-20.8-16-81.6-32-44.8-12.8-83.2-24-84.8-25.6-4.8-4.8 14.4-44.8 20.8-44.8 8 0 184 46.4 217.6 57.6l33.6 11.2v65.6l-41.6 27.2c-65.6 43.2-140.8 91.2-177.6 113.6-17.6 11.2-70.4 44.8-113.6 73.6-120 80-102.4 84.8-252.8-78.4z" fill="#2378FE" p-id="72601"></path><path d="M454.4 512c-24-20.8-35.2-35.2-35.2-44.8 0-9.6 3.2-12.8 8-11.2 8 3.2 17.6-6.4 108.8-112C636.8 228.8 734.4 128 748.8 128c6.4 0 36.8 38.4 36.8 46.4 0 3.2-17.6 24-38.4 46.4-20.8 22.4-57.6 65.6-81.6 96-43.2 57.6-144 209.6-144 219.2 0 3.2-8 4.8-16 4.8-12.8 1.6-28.8-8-51.2-28.8z" fill="#0BA07E" p-id="72602"></path><path d="M324.8 489.6l-97.6-136 19.2-19.2c9.6-11.2 20.8-19.2 24-19.2 3.2 0 41.6 33.6 88 76.8 112 104 147.2 132.8 160 132.8 8 0 4.8 8-12.8 41.6-30.4 56-36.8 60.8-60.8 60.8-22.4-1.6-24-3.2-120-137.6z" fill="#1DD061" p-id="72603"></path></svg>