<?xml version="1.0" standalone="no"?><!DOCTYPE svg PUBLIC "-//W3C//DTD SVG 1.1//EN" "http://www.w3.org/Graphics/SVG/1.1/DTD/svg11.dtd"><svg t="1703040001736" class="icon" viewBox="0 0 1024 1024" version="1.1" xmlns="http://www.w3.org/2000/svg" p-id="71405" xmlns:xlink="http://www.w3.org/1999/xlink" width="48" height="48"><path d="M168.228571 0h687.542858A168.228571 168.228571 0 0 1 1024 168.228571v687.542858a168.228571 168.228571 0 0 1-168.228571 168.228571H168.228571A168.228571 168.228571 0 0 1 0 855.771429V168.228571A168.228571 168.228571 0 0 1 168.228571 0z" fill="#FF3C00" p-id="71406"></path><path d="M662.162286 396.580571a12.8 12.8 0 0 0 2.633143 6.144 353.792 353.792 0 0 1-198.948572-158.72c-0.438857-0.804571-1.170286-1.170286-2.121143-1.024 1.901714-16.018286 4.754286-31.670857 8.411429-46.957714 4.096-16.603429 9.508571-32.914286 16.164571-48.932571a1.316571 1.316571 0 0 1 1.462857-0.731429 353.060571 353.060571 0 0 1 196.169143 90.550857 2.925714 2.925714 0 0 1 0.804572 2.998857l-13.897143 43.373715a382.537143 382.537143 0 0 0-10.678857 113.298285z" fill="#FFECEC" p-id="71407"></path><path d="M463.725714 242.980571c0.950857-0.146286 1.682286 0.219429 2.121143 1.024a353.792 353.792 0 0 0 198.948572 158.72c36.352 11.117714 41.545143 13.897143 124.123428 15.36 20.699429-0.731429 34.742857-1.828571 42.130286-3.437714 0.512 0 1.097143 0.146286 1.536 0.512 1.682286 1.462857 3.218286 3.510857 4.534857 6.217143 22.966857 44.836571 37.668571 92.379429 40.009143 141.897143 1.097143 22.381714 0.658286 44.836571-1.462857 67.291428a2.121143 2.121143 0 0 1-1.755429 1.828572 397.750857 397.750857 0 0 1-97.426286 1.682286c-97.865143-12.068571-184.246857-60.489143-243.419428-139.556572-55.222857-73.654857-78.262857-157.476571-69.339429-251.538286zM560.274286 781.385143c-2.194286 0.804571-3.949714-0.731429-5.193143-4.754286a356.425143 356.425143 0 0 0-196.388572-153.892571 380.635429 380.635429 0 0 0-165.156571-11.629715 4.022857 4.022857 0 0 1-4.096-2.048A347.721143 347.721143 0 0 1 147.017143 462.994286a447.926857 447.926857 0 0 1 1.536-68.242286 1.462857 1.462857 0 0 1 1.243428-1.243429c21.211429-2.925714 42.496-4.169143 63.707429-3.876571 162.816 2.194286 300.982857 116.077714 339.602286 272.530286 9.142857 37.156571 11.556571 76.8 7.168 119.222857z" fill="#FFFFFF" p-id="71408"></path><path d="M360.813714 686.445714c1.536-18.432 1.901714-36.790857 1.097143-55.003428a15.140571 15.140571 0 0 0-3.218286-8.704 355.401143 355.401143 0 0 1 185.270858 137.069714l11.117714 16.822857c1.243429 4.022857 2.925714 5.558857 5.12 4.754286-1.170286 11.410286-2.925714 22.893714-5.339429 34.230857l-4.096 16.969143a334.409143 334.409143 0 0 1-15.36 46.08c-0.292571 0.585143-0.731429 0.877714-1.462857 0.731428a357.668571 357.668571 0 0 1-196.096-90.624 2.340571 2.340571 0 0 1-0.658286-2.633142 365.348571 365.348571 0 0 0 23.625143-99.693715z" fill="#FFECEC" p-id="71409"></path></svg>