<?xml version="1.0" standalone="no"?><!DOCTYPE svg PUBLIC "-//W3C//DTD SVG 1.1//EN" "http://www.w3.org/Graphics/SVG/1.1/DTD/svg11.dtd"><svg t="1702996135640" class="icon" viewBox="0 0 1024 1024" version="1.1" xmlns="http://www.w3.org/2000/svg" p-id="20415" xmlns:xlink="http://www.w3.org/1999/xlink" width="48" height="48"><path d="M108.544 121.6512h809.7792c54.6816 0 98.9184 44.2368 98.9184 98.9184v593.92c0 54.6816-44.2368 98.9184-98.9184 98.9184H108.544c-54.6816 0-98.9184-44.2368-98.9184-98.9184v-593.92c0-54.4768 44.4416-98.9184 98.9184-98.9184z" fill="#E01E00" p-id="20416"></path><path d="M227.328 319.2832l-20.2752 36.864-45.2608 1.2288c-41.7792 0.8192-45.8752 1.8432-45.8752 9.8304 0 11.264 11.6736 16.9984 41.7792 20.6848 20.2752 2.2528 24.1664 4.5056 22.528 10.24-6.3488 16.5888-55.7056 80.4864-87.6544 112.8448-19.2512 19.2512-35.0208 36.0448-35.0208 37.6832 0 1.4336 5.3248 2.6624 12.4928 2.6624 14.7456 0 45.4656-13.5168 66.1504-29.696 13.9264-10.8544 15.7696-10.8544 18.432-4.096 1.8432 4.5056 0 22.528-4.096 39.936-4.096 17.6128-10.8544 48.9472-14.7456 70.0416-6.3488 32.3584-21.504 81.3056-35.4304 114.0736-3.6864 7.5776-2.2528 8.6016 15.36 5.9392 36.4544-4.5056 62.464-29.2864 70.0416-66.1504 5.9392-28.2624 32.3584-79.4624 51.6096-100.5568 30.1056-32.768 88.4736-56.5248 137.4208-56.5248 14.7456 0 15.36 0.4096 15.36 17.6128v16.9984l-37.2736 2.2528c-23.3472 1.8432-45.4656 5.9392-57.9584 11.6736-62.0544 27.4432-63.8976 106.496-2.6624 143.36 24.7808 15.36 48.128 21.504 99.328 27.4432l30.1056 3.6864 4.5056-16.9984c2.6624-9.4208 6.3488-28.672 7.9872-42.8032 3.072-25.1904 3.6864-26.0096 16.5888-25.6 7.5776 0.4096 28.2624 9.4208 46.6944 19.8656 38.7072 22.1184 100.5568 46.6944 148.6848 58.7776 49.3568 13.1072 134.7584 16.1792 188.6208 6.7584 69.2224-12.0832 134.7584-48.5376 134.7584-74.5472 0-6.7584-5.7344-4.9152-37.2736 11.264-53.0432 27.4432-94.0032 35.4304-162.2016 32.3584-40.3456-1.8432-64.7168-5.3248-94.8224-14.336-46.6944-13.5168-105.0624-40.3456-108.7488-49.9712-1.4336-3.072 4.096-13.5168 11.264-21.9136 21.9136-24.7808 25.1904-71.0656 6.3488-96.256-9.4208-13.1072-44.032-40.96-50.7904-40.96-5.3248 0-11.6736 16.1792-15.36 41.7792-3.072 19.2512-2.2528 21.0944 7.5776 25.1904 13.5168 4.9152 35.0208 29.696 35.0208 40.3456 0 13.1072-13.5168 27.4432-25.6 27.4432-11.264 0-65.536-26.4192-77.2096-38.0928-5.3248-4.9152-5.3248-10.8544-1.4336-31.9488 7.9872-38.2976 6.7584-92.16-1.8432-104.2432-3.6864-5.3248-16.5888-15.36-28.672-21.0944-19.8656-9.8304-27.8528-11.264-72.704-11.264-27.8528 0-67.7888 3.072-88.8832 6.7584-21.0944 3.6864-38.7072 6.7584-39.1168 6.7584-5.3248 0 0.8192-14.336 12.4928-27.8528 17.6128-21.504 30.1056-24.7808 114.0736-28.2624 91.7504-4.096 146.0224-13.9264 138.8544-25.6-1.8432-2.2528-41.3696-4.096-91.136-3.6864-123.0848 0.8192-117.3504 1.4336-117.3504-7.9872 0-4.5056 3.072-12.4928 7.168-18.0224 8.6016-12.4928 5.9392-16.5888-20.2752-30.1056l-21.504-10.8544-20.0704 37.0688z m157.696 144.1792c5.3248 4.9152 9.4208 9.8304 9.4208 11.264 0 1.8432-18.8416 6.7584-41.3696 10.8544-40.96 7.5776-75.9808 22.1184-115.5072 46.2848l-19.8656 12.4928 2.2528-28.672c2.2528-32.3584 5.3248-35.4304 48.128-52.6336 33.3824-13.5168 101.5808-13.1072 116.9408 0.4096z m-17.408 157.696c10.8544 13.1072-5.3248 83.1488-18.8416 83.1488-18.432 0-48.5376-33.792-48.5376-54.8864 0-9.4208 13.5168-26.0096 24.1664-30.5152 15.36-6.144 36.864-4.9152 43.2128 2.2528zM833.536 301.2608c-3.6864 5.9392-16.9984 22.1184-30.1056 36.0448-33.792 37.2736-46.6944 34.2016-50.3808-11.264-1.4336-14.336-3.6864-27.4432-4.9152-29.2864-1.8432-1.8432-13.1072 0.8192-24.7808 5.9392l-21.0944 9.0112 1.4336 24.7808 1.8432 25.1904-21.504 3.072c-11.6736 1.4336-28.672 2.6624-38.7072 2.6624-18.8416 0-26.4192 9.0112-16.9984 20.2752 4.5056 5.3248 16.9984 6.7584 55.7056 6.7584 27.4432 0 53.0432 2.2528 56.5248 4.5056 13.1072 7.9872-1.8432 19.8656-44.032 33.792-22.528 7.168-42.5984 15.36-44.8512 18.0224-2.2528 2.2528-11.6736 46.2848-21.0944 97.4848-13.9264 75.9808-15.7696 94.8224-11.264 100.1472 7.5776 9.0112 71.0656 28.672 112.8448 34.6112 49.3568 6.7584 123.0848-2.2528 132.5056-16.5888 3.6864-5.3248 12.4928-44.032 20.2752-85.8112 20.6848-114.0736 20.6848-106.0864 4.096-124.928-19.8656-22.1184-28.672-26.4192-62.8736-29.2864-22.528-2.2528-29.696-4.5056-30.5152-10.24-2.6624-13.5168 18.432-21.504 74.9568-28.2624 58.368-7.168 88.064-16.1792 84.3776-25.6-1.4336-4.5056-12.4928-5.3248-42.5984-4.096-35.4304 1.4336-41.7792 0.4096-44.032-6.3488-1.8432-4.9152 1.8432-12.4928 11.6736-22.528l14.7456-15.7696-25.6-11.264c-13.9264-6.3488-26.0096-11.264-27.0336-11.264s-4.7104 4.5056-8.6016 10.24z m-39.5264 147.456c42.1888 9.0112 47.7184 35.4304 7.168 35.4304-10.8544 0-37.6832 4.9152-60.2112 10.8544s-41.7792 9.4208-43.2128 7.9872c-5.7344-5.9392-1.4336-28.2624 7.5776-36.864 5.3248-4.9152 10.8544-9.0112 12.0832-9.0112 1.4336-0.4096 13.1072-3.072 25.1904-6.7584 28.4672-7.5776 24.7808-7.5776 51.4048-1.6384z m31.744 83.1488c11.6736 11.6736-4.096 20.2752-46.6944 25.1904-21.0944 2.2528-49.9712 7.9872-63.8976 12.4928-31.9488 11.264-33.1776 11.264-33.1776 0 0-15.36 23.3472-36.4544 47.104-43.2128 27.648-7.5776 86.8352-4.5056 96.6656 5.5296z m-14.336 80.2816c1.4336 18.432-3.6864 24.7808-24.1664 29.696-27.8528 6.3488-114.0736-3.6864-114.0736-13.5168 0-5.9392 14.7456-17.6128 31.5392-24.7808 11.264-4.9152 28.2624-6.7584 60.6208-5.9392l44.8512 0.8192 1.2288 13.7216z m-268.288-210.1248c-2.6624 13.9264-4.9152 27.8528-4.9152 30.9248s14.7456 16.1792 32.768 28.672l32.3584 22.9376 1.4336-14.336c3.6864-32.3584-12.0832-62.0544-43.6224-84.5824l-12.4928-9.0112-5.5296 25.3952z" fill="#FFFFFF" p-id="20417"></path></svg>