<?xml version="1.0" standalone="no"?><!DOCTYPE svg PUBLIC "-//W3C//DTD SVG 1.1//EN" "http://www.w3.org/Graphics/SVG/1.1/DTD/svg11.dtd"><svg t="1703170434457" class="icon" viewBox="0 0 1024 1024" version="1.1" xmlns="http://www.w3.org/2000/svg" p-id="10033" data-spm-anchor-id="a313x.search_index.0.i10.7c717615WnD8vQ" xmlns:xlink="http://www.w3.org/1999/xlink" width="48" height="48"><path d="M886.08 485.504v-172.16h-215.168v-76.16h198.592v-49.6h-198.592V128H588.16v59.584H386.176v49.664H588.16v76.16H356.416v52.928h456.832v119.168h72.832z m-576-182.08c-15.488-64-36.48-120.256-62.912-168.832H174.336c30.912 66.24 50.752 122.496 59.584 168.832h76.16zM200.832 856.32c55.168-17.664 109.248-44.16 162.176-79.424v-62.912c-35.264 17.664-62.848 30.912-82.752 39.68v-387.2H128v59.52h72.832v430.336zM896 892.8v-49.728c-86.08-30.848-143.424-80.512-172.16-148.928h168.832v-56.32h-192c6.656-35.264 9.92-76.16 9.92-122.432v-115.84H627.84V531.84c0 39.744-3.264 75.072-9.92 105.984H359.744v56.256h238.336c-26.496 61.76-100.48 111.424-221.824 148.928v49.664c152.32-44.16 248.32-97.088 288-158.848 41.92 72.768 119.168 125.76 231.744 158.848zM581.504 505.344V439.168c-52.928-19.84-111.424-30.912-175.424-33.088v46.336c59.52 6.592 118.08 24.32 175.424 52.992z m-16.512 112.512V551.744c-48.576-24.32-109.248-38.656-182.08-43.072v46.336a497.28 497.28 0 0 1 182.08 62.912z" fill="#d81e06" p-id="10034" data-spm-anchor-id="a313x.search_index.0.i11.7c717615WnD8vQ" class="selected"></path></svg>