<?xml version="1.0" standalone="no"?><!DOCTYPE svg PUBLIC "-//W3C//DTD SVG 1.1//EN" "http://www.w3.org/Graphics/SVG/1.1/DTD/svg11.dtd"><svg t="1703384322716" class="icon" viewBox="0 0 1024 1024" version="1.1" xmlns="http://www.w3.org/2000/svg" p-id="92960" xmlns:xlink="http://www.w3.org/1999/xlink" width="48" height="48"><path d="M-33.226-30.788h1088.922v1088.922h-1088.922z" fill="#E8E819" p-id="92961"></path><path d="M742.557 286.367c4.544-8.355 8.737-15.428 12.513-21.258 3.767-5.829 7.739-9.249 11.775-10.259 6.326-1.283 26.579 7.93 60.702 27.514 34.117 19.586 51.214 33.965 51.214 43.059-0.227 11.62-8.196 17.529-23.899 17.644s-29.607 1.011-41.739 2.642c-12.124 1.632-22.802 5.247-32.058 10.688-9.252 5.441-22.347 13.99-39.284 25.61l-18.227 12.513c-4.046 2.799-7.029 3.225-8.896 1.322-1.871-1.904-1.596-5.519 0.929-10.804l14.419-29.613c2.023-4.314 9.252-22.385 21.644-54.252h-483.094c1.011 13.136 1.71 24.717 2.098 34.742s-0.31 19.159-2.098 27.516c-3.265 15.933-11.425 30.622-24.482 44.031-13.058 13.408-27.904 19.741-44.575 18.965-12.125-0.234-22.811-4.74-32.062-13.485-9.249-8.745-14.107-18.732-14.613-29.964-0.505-11.231 3.537-22.695 12.127-34.354 2.799-3.535 10.804-11.268 24.094-23.162 13.291-11.891 22.347-22.345 27.125-31.323 4.781-8.976 8.083-18.070 9.869-27.321 1.788-9.249 2.138-18.031 1.129-26.386-1.011-8.355 1.747-11.619 8.355-9.869 3.030 1.011 7.229 6.14 12.513 15.389 5.286 9.249 10.882 22.695 16.711 40.415h227.34c-7.581-1.747-14.8-4.818-21.643-9.092-6.841-4.274-10.265-16.089-10.265-35.286l1.129-26.192c-1.006-16.944-5.749-29.341-14.221-37.193-8.471-7.85-14.611-12.666-18.425-14.417-3.804-1.749-7.069-4.702-9.868-8.745s9.479-5.441 36.804-4.158c50.596 2.799 81.522 14.924 92.795 36.451 11.276 21.53 15.894 38.862 13.835 51.996-2.020 11.893-7.147 21.958-15.389 30.158-8.234 8.202-14.802 12.554-19.856 13.058l-18.225 3.42h233.797zM470.446 583.543v-35.284l-4.554-80.444c3.539-4.314 11.899-4.704 25.067-1.127l37.19 7.967 26.937 8.742c3.265-5.325 6.14-10.181 8.549-14.613 2.406-4.429 9.164-21.684 20.283-51.802h-217.819l-61.481 2.292-13.68-21.684 66.025 4.546 219.373 0.388c6.341-10.103 12.013-19.121 17.060-26.932 5.055-7.809 9.796-12.319 14.233-13.485 4.425-1.167 11.967 0.817 22.574 5.868 43.527 21.996 69.876 37.309 79.132 45.936 9.252 8.626 13.909 14.574 14.023 17.838 0.124 3.263-6.49 6.218-19.927 8.745l-34.125 4.508c-21.764 4.042-52.894 18.847-93.349 44.419 5.325 2.799 8.398 6.644 9.286 11.581 0.89 4.934-6.877 10.805-23.348 17.644v64.898h153.694c15.94-21.99 28.61-38.704 37.971-50.092 9.364-11.385 16.554-17.254 21.644-17.644 5.098-0.386 12.399 2.836 22.002 9.677 21.76 16.439 39.090 31.321 51.988 44.575 12.902 13.254 18.539 21.296 16.908 24.093-1.632 2.8-4.973 4.158-10.067 4.158h-294.106v189.376c0 12.666-1.907 24.678-5.675 36.065-3.775 11.381-13.917 19.819-30.35 25.181-16.445 5.481-30.976 9.17-43.644 11.231-12.666 1.982-22.657 2.72-29.962 2.295-7.343-0.314-11.775-1.438-13.292-3.655-1.517-2.138-2.448-7.425-2.836-15.93-0.388-8.432-3.615-17.917-9.679-28.254-6.062-10.414-19.856-19.12-41.346-26.192l-24.678-7.972c-6.842-2.016-9.679-4.735-8.548-8.16 1.129-3.42 4.745-4.859 10.807-4.349l36.063 3.42c24.050 2.526 40.181 3.265 48.379 2.292 8.197-0.971 14.183-3.454 17.837-7.377 3.653-3.927 5.521-12.319 5.521-25.221v-142.702h-228.082l-58.060 2.294-13.759-21.646 63.773 4.544 236.049-0.007z" fill="#2c2c2c" p-id="92962" data-spm-anchor-id="a313x.search_index.0.i64.ee927615WwBjfd" class="selected"></path></svg>