<?xml version="1.0" standalone="no"?><!DOCTYPE svg PUBLIC "-//W3C//DTD SVG 1.1//EN" "http://www.w3.org/Graphics/SVG/1.1/DTD/svg11.dtd"><svg t="1702982542887" class="icon" viewBox="0 0 1024 1024" version="1.1" xmlns="http://www.w3.org/2000/svg" p-id="9153" xmlns:xlink="http://www.w3.org/1999/xlink" width="48" height="48"><path d="M513.12 523.2m-464 0a464 464 0 1 0 928 0 464 464 0 1 0-928 0Z" p-id="9154" data-spm-anchor-id="a313x.search_index.0.i7.59217615HQP6eC" class="selected" fill="#d81e06"></path><path d="M580 365.6a42.88 42.88 0 0 1-28.16 16A522.08 522.08 0 0 1 464 384l-1.92-1.44v-77.6c-16 16-35.36 16-55.36 17.76V384H344a51.36 51.36 0 0 0-53.6 44.32 89.6 89.6 0 0 0-0.96 16v247.68a51.04 51.04 0 0 1 32-16 182.56 182.56 0 0 1 24.64-1.92h181.28a50.88 50.88 0 0 0 50.72-41.76 98.4 98.4 0 0 0 1.44-18.08V371.68z m-86.88 288h-148.16V436.96a27.52 27.52 0 0 1 31.04-31.04h31.04v113.12H384a30.08 30.08 0 0 0-32 27.04 101.92 101.92 0 0 1 54.72-4.64V631.84c0 8 1.6 9.6 9.44 9.6h36.32c8 0 9.6-1.44 9.6-9.28v-84.32c0-5.6 1.76-7.36 7.2-7.04a129.12 129.12 0 0 0 20.8 0 30.08 30.08 0 0 0 27.68-26.72c-17.44 9.92-36.32 3.36-55.04 5.76v-112h61.6v215.2a27.84 27.84 0 0 1-31.2 30.4zM737.12 525.92v-7.2h-28.8A40 40 0 0 0 736.8 480a80.96 80.96 0 0 0 0-8.8v-115.52-6.56a54.08 54.08 0 0 1-29.92 14.4 245.28 245.28 0 0 1-28.64 3.36h-25.6a52 52 0 0 0-54.72 56v318.56c11.52-14.88 27.68-14.56 43.68-16v-55.68h37.92a52.96 52.96 0 0 0 57.44-57.6c0.32-28.8 0.16-57.44 0.16-86.24z m-44.16 92.16a27.36 27.36 0 0 1-30.08 30.08h-20.64V420.16a27.52 27.52 0 0 1 32-32h19.04v117.76c-32 3.04-40.16 8.8-43.36 26.24 6.72-1.28 13.6-3.04 20.64-3.68s14.72 0 22.88 0v7.52z" fill="#FFFFFF" p-id="9155"></path></svg>