<?xml version="1.0" standalone="no"?><!DOCTYPE svg PUBLIC "-//W3C//DTD SVG 1.1//EN" "http://www.w3.org/Graphics/SVG/1.1/DTD/svg11.dtd"><svg t="1703600312954" class="icon" viewBox="0 0 1024 1024" version="1.1" xmlns="http://www.w3.org/2000/svg" p-id="19775" xmlns:xlink="http://www.w3.org/1999/xlink" width="48" height="48"><path d="M678.114994 354.986644h-16.49775v312.319479h16.49775c81.919863 0 139.946433-37.546604 139.946434-158.150847s-58.02657-154.168632-139.946434-154.168632z" fill="#ea3d38" p-id="19776"></path><path d="M813.510324 0.000569H210.489107A209.91965001 209.91965001 0 0 0 0.000569 210.489107v603.021217A209.91965001 209.91965001 0 0 0 210.489107 1023.99886199h603.021217a209.91965001 209.91965001 0 0 0 210.48853801-210.48853799V210.489107A209.91965001 209.91965001 0 0 0 813.510324 0.000569zM255.43125401 775.394832a217.315193 217.315193 0 0 1-174.07971001-71.110992l56.88879399-76.230985a157.013072 157.013072 0 0 0 105.81315701 48.92436299c47.217699 0 77.937648-19.91107801 77.93764799-56.88879399s-24.462181-70.54210499-130.84422599-70.542104v-85.333191c86.470967 0 113.77758799-26.737733 113.77758799-67.128777S284.444539 341.333333 246.897935 341.333333a133.68866601 133.68866601 0 0 0-90.453182 42.097708L95.004855 311.182272a240.639599 240.639599 0 0 1 157.58196-62.577673c105.244269 0 174.07971001 48.924363 174.079709 139.946433a116.622028 116.622028 0 0 1-81.919863 113.777589v3.413327A125.72423502 125.72423502 0 0 1 443.164275 625.777304c0 96.14206201-87.03985499 149.617528-187.73302101 149.617528z m436.90593899-9.67109499H539.306337V258.27569398h146.2042c154.73752 0 257.137349 74.52432001 257.13735 250.87958202s-102.399829 256.568461-250.310694 256.56846101z" fill="#ea3d38" p-id="19777"></path></svg>