<?xml version="1.0" standalone="no"?><!DOCTYPE svg PUBLIC "-//W3C//DTD SVG 1.1//EN" "http://www.w3.org/Graphics/SVG/1.1/DTD/svg11.dtd"><svg t="1703041873847" class="icon" viewBox="0 0 1025 1024" version="1.1" xmlns="http://www.w3.org/2000/svg" p-id="27788" xmlns:xlink="http://www.w3.org/1999/xlink" width="48.046875" height="48"><path d="M250.654292 0h504.87239c37.895128 2.37587 77.096984 1.663109 113.566589 14.017633C933.716937 35.875638 986.580046 88.738747 1009.74478 152.768445c8.077958 20.432483 10.453828 42.409281 13.067285 64.029699 2.851044 112.616241 1.663109 225.351276 1.900696 337.967517-0.950348 83.511833 1.781903 167.142459-1.425522 250.654293-3.326218 90.639443-66.405568 175.101624-152.293271 203.968445-44.07239 15.205568-91.233411 12.235731-136.96891 14.611601H255.406032c-36.350812-2.138283-73.889559-3.682599-108.339675-17.106265C88.382367 986.223666 40.033411 938.468677 18.531787 880.141067 3.207425 839.87007 3.207425 795.916473 0.593968 753.625986V275.125754c2.257077-47.279814 2.732251-96.816705 22.333178-141.126682C45.141531 80.898376 90.401856 38.845476 143.977726 18.412993 177.833875 4.989327 214.541067 1.900696 250.654292 0z m237.230627 150.392575c-90.758237 2.613457-179.615777 44.547564-238.656149 113.685383-85.531323 97.173086-103.587935 242.932715-57.614849 362.082599 43.953596 122.119722 155.144316 216.798144 282.372158 241.744779 122.951276 26.134571 257.069142-13.304872 346.52065-101.330858 44.785151-44.07239 79.116473-98.954988 97.648259-159.064501 2.257077-6.177262-0.712761-12.948492-5.702088-16.749884-17.225058-8.434339-36.707193-10.216241-54.645011-16.512297-12.116937-4.39536-29.104408-3.326218-36.113225-16.27471-1.544316-11.998144 3.326218-23.521114 4.157772-35.400464 8.790719-69.375406-4.038979-142.07703-38.964269-203.018098-57.139675-106.79536-177.952668-175.101624-299.003248-169.161949z" fill="#6D80FB" p-id="27789"></path><path d="M497.625986 285.817169c55.714153-1.781903 111.428306 22.451972 149.323434 63.316938 35.044084 38.726682 54.407425 91.470998 50.962413 143.858932 1.069142 12.116937-6.058469 25.065429 0.118793 36.5884 3.920186 4.989327 10.097448 7.246404 16.037123 8.909512 20.432483 4.989327 40.746172 10.216241 60.822274 16.393504 9.1471 2.494664 13.780046 11.285383 10.097448 20.432482-15.918329 46.923434-46.923434 88.50116-87.075638 117.367982-50.962413 38.489095-117.724362 54.407425-180.684919 46.091879-56.070534-7.721578-109.52761-34.92529-147.541531-76.859397-42.528074-45.141531-66.880742-106.914153-66.286775-169.043155 0-59.277958 22.927146-120.337819 69.137819-158.945708 34.450116-29.935963 79.35406-47.517401 125.089559-48.111369z" fill="#6D80FB" p-id="27790"></path></svg>