<?xml version="1.0" standalone="no"?><!DOCTYPE svg PUBLIC "-//W3C//DTD SVG 1.1//EN" "http://www.w3.org/Graphics/SVG/1.1/DTD/svg11.dtd"><svg t="1703030949549" class="icon" viewBox="0 0 1024 1024" version="1.1" xmlns="http://www.w3.org/2000/svg" p-id="21680" xmlns:xlink="http://www.w3.org/1999/xlink" width="48" height="48"><path d="M923.648 576.512c41.770667-3.2 75.562667 24.106667 78.805333 65.92 3.2 43.434667-27.392 78.805333-69.162666 82.005333a73.642667 73.642667 0 0 1-78.805334-67.541333c-3.242667-43.392 25.685333-75.605333 69.12-80.426667v0.042667z" fill="#86DA2F" p-id="21681"></path><path d="M415.530667 919.04c0-41.770667 32.170667-73.941333 70.741333-73.941333 38.570667 0 75.605333 35.413333 75.605333 75.562666 0 40.192-32.128 72.405333-69.12 73.984-46.634667 0-77.226667-29.013333-77.226666-75.562666z" fill="#24C2FF" p-id="21682"></path><path d="M529.664 449.493333c-6.4 3.242667-9.642667-1.578667-11.221333-6.4-59.477333-111.018667-41.813333-250.88 62.72-334.506666 27.349333-22.485333 78.805333-27.392 101.290666-4.821334 9.642667 8.106667 11.264 17.664 12.885334 28.928 3.2 24.149333 8.021333 48.256 24.149333 67.541334 17.664 20.949333 40.149333 28.928 65.877333 27.392 22.485333 0 45.013333-3.2 59.52 22.485333 8.021333 14.506667 4.821333 70.698667-8.021333 81.962667-6.442667 4.864-11.264 1.621333-16.085333 0-37.034667-14.464-75.605333-14.464-114.218667-8.021334-12.842667 1.578667-19.285333-1.621333-19.285333-16.085333-1.621333-24.149333-6.4-46.634667-19.285334-67.541333-24.106667-43.434667-69.12-45.056-98.090666-4.821334-24.106667 32.170667-30.506667 70.741333-36.992 109.397334-6.442667 33.706667-4.821333 69.12-3.242667 104.533333z" fill="#FFCB12" p-id="21683"></path><path d="M569.856 473.6c-3.2-4.864-1.621333-9.642667 3.2-12.842667 91.690667-83.626667 228.394667-99.712 334.506667-17.706666 27.306667 22.528 45.013333 69.162667 30.549333 96.512a39.552 39.552 0 0 1-24.192 19.285333c-22.485333 9.642667-43.392 19.328-57.856 40.192-14.464 20.992-17.664 45.013333-11.221333 70.826667 4.821333 20.864 12.842667 43.349333-8.064 62.634666-11.221333 11.264-65.92 20.949333-80.384 11.264-6.4-4.821333-4.821333-9.642667-3.242667-16.085333 4.821333-40.192-4.821333-77.226667-19.285333-112.554667-4.821333-12.842667-3.2-19.285333 9.642666-22.485333 22.528-6.4 43.477333-17.706667 59.52-33.749333 35.370667-33.749333 27.392-77.141333-19.285333-96.469334-36.992-16.128-75.562667-12.885333-112.554667-9.642666-35.328 1.578667-69.12 11.221333-101.290666 20.906666l-0.042667-0.085333z" fill="#86DA2F" p-id="21684"></path><path d="M548.949333 515.413333c4.821333-4.821333 8.106667-3.242667 12.885334 0 106.112 64.341333 160.768 191.317333 112.554666 315.178667-12.885333 32.213333-54.698667 64.341333-85.205333 56.32-12.842667-3.157333-19.328-9.642667-25.770667-17.664-14.464-19.370667-30.549333-37.034667-54.613333-45.013333-25.728-8.021333-48.298667-3.2-70.826667 9.642666-19.242667 11.264-38.528 25.728-62.634666 11.264-14.506667-8.064-38.613333-57.856-33.792-73.941333 3.2-6.4 9.642667-6.4 16.128-6.4 40.149333-6.442667 72.362667-25.728 102.912-51.498667 9.642667-8.064 17.664-8.064 25.685333 3.2 12.885333 19.285333 28.928 35.370667 49.834667 46.592 41.813333 24.192 82.005333 3.242667 86.826666-44.970666 4.821333-40.192-9.642667-75.52-22.485333-110.933334a638.421333 638.421333 0 0 0-51.498667-91.690666v-0.085334z" fill="#24C2FF" p-id="21685"></path><path d="M497.493333 525.098667c-6.4 32.128-20.906667 62.677333-40.106666 90.026666-57.941333 86.784-141.568 122.197333-244.48 112.554667-36.949333-3.242667-67.541333-33.792-70.698667-64.341333a38.826667 38.826667 0 0 1 9.642667-32.128c11.221333-14.464 20.906667-27.392 25.685333-45.013334 9.642667-35.413333-3.2-64.341333-28.928-90.026666-35.328-35.413333-30.506667-67.584 11.264-93.269334 4.821333-3.242667 11.264-6.4 17.664-9.642666 9.642667-4.821333 17.706667-4.821333 20.949333 6.4 14.506667 36.992 43.392 64.341333 75.605334 86.869333 11.264 9.642667 11.264 16.042667 1.621333 27.349333a119.466667 119.466667 0 0 0-32.170667 75.52c-3.2 35.413333 17.706667 57.941333 53.034667 57.941334 22.528 0 43.392-8.021333 62.72-17.664 49.834667-25.770667 88.405333-62.72 125.44-101.376 4.821333-1.621333 6.4-4.821333 12.842667-3.2h-0.042667z" fill="#0069DA" p-id="21686"></path><path d="M233.813333 187.392c3.2 0 11.221333 1.578667 19.285334 3.2 59.52 11.264 96.469333-9.642667 115.754666-65.962667 12.842667-36.949333 40.192-48.256 75.605334-28.928 1.578667 0 1.578667 1.621333 3.2 1.621334 36.949333 20.906667 36.949333 24.106667 14.464 56.32-19.285333 25.685333-29.013333 54.613333-33.749334 85.205333-3.2 17.706667-9.642667 20.949333-25.728 14.506667-25.685333-9.685333-53.034667-9.685333-80.384 0-30.549333 9.6-43.392 36.906667-33.749333 67.498666 12.842667 40.192 48.213333 57.941333 78.72 78.805334 30.592 20.949333 65.962667 32.213333 99.712 46.634666 4.864 1.578667 12.842667 1.578667 11.264 9.642667-1.621333 4.864-8.064 4.864-14.506667 4.864-72.362667 3.2-141.44-8.106667-197.76-56.32-53.077333-43.392-91.648-96.426667-85.248-170.410667 4.821333-24.149333 22.528-41.813333 53.12-46.634666v-0.042667z" fill="#FF4649" p-id="21687"></path><path d="M101.973333 639.232c-38.570667 4.821333-77.141333-27.349333-80.426666-67.541333-3.2-38.570667 28.928-77.226667 65.92-80.384 41.770667-4.906667 80.384 24.064 83.626666 62.634666 1.578667 37.034667-22.528 82.048-69.162666 85.205334v0.085333z" fill="#0069DA" p-id="21688"></path><path d="M777.344 66.816c40.149333-3.242667 78.805333 28.928 82.005333 69.12 3.242667 38.613333-29.013333 75.605333-67.541333 78.762667-41.813333 3.242667-78.805333-27.306667-82.005333-67.541334-3.242667-40.192 25.685333-77.141333 67.541333-80.341333z" fill="#FFCB12" p-id="21689"></path><path d="M357.632 97.28c4.864 41.813333-24.192 77.184-67.584 83.626667-36.949333 4.864-75.562667-25.685333-80.384-61.013334C204.8 73.216 230.570667 39.424 274.005333 34.602667c40.149333-4.864 78.72 25.685333 83.626667 62.677333z" fill="#FF4649" p-id="21690"></path></svg>