<?xml version="1.0" standalone="no"?><!DOCTYPE svg PUBLIC "-//W3C//DTD SVG 1.1//EN" "http://www.w3.org/Graphics/SVG/1.1/DTD/svg11.dtd"><svg t="1703039840997" class="icon" viewBox="0 0 1024 1024" version="1.1" xmlns="http://www.w3.org/2000/svg" p-id="68514" xmlns:xlink="http://www.w3.org/1999/xlink" width="48" height="48"><path d="M491.03622 996.988976c-4.031496-0.806299-7.256693-4.434646-7.256692-7.659842 0-4.434646 6.853543-5.644094 32.251968-5.644095 24.592126 0 32.251969 1.209449 32.251969 5.644095 0 8.869291-34.670866 13.707087-57.247245 7.659842zM411.212598 987.313386c-75.388976-16.125984-149.165354-52.006299-210.444094-102.4l-29.429921-24.188977 13.303937-1.209448c14.110236-1.612598 24.995276 4.434646 24.995275 13.707086 0 3.225197 3.628346 5.644094 8.062992 5.644095s9.272441 2.822047 10.48189 6.047244c1.612598 3.225197 5.240945 6.047244 8.062992 6.047244 3.225197 0 6.853543 2.822047 8.062992 6.047244 1.612598 3.225197 4.837795 6.047244 8.062993 6.047244s5.644094 1.612598 5.644094 3.628347 4.434646 4.837795 10.07874 6.047244c5.644094 1.612598 10.07874 5.240945 10.07874 8.466141s3.628346 6.047244 8.062992 6.047244c9.675591 0 36.283465 12.497638 36.283465 16.932284 0 1.612598 2.822047 3.225197 6.450394 3.225197s22.979528 5.644094 43.540157 12.497638c20.15748 6.853543 50.79685 14.110236 68.132284 16.932283 25.398425 3.628346 31.04252 5.644094 31.042519 11.691339 0 9.272441-10.48189 9.272441-60.472441-1.209449zM556.346457 987.716535c0-6.047244 2.822047-8.062992 11.691338-8.062992 10.07874 0 48.781102-9.272441 105.222048-24.995275 10.07874-2.822047 20.15748-6.853543 22.576377-9.272441 2.418898-2.015748 16.125984-9.272441 30.236221-16.125984 14.110236-6.450394 28.220472-14.513386 31.04252-16.932284 2.822047-2.822047 8.062992-5.240945 11.288189-5.240945s5.644094-1.612598 5.644094-4.031496c0-2.015748 2.418898-4.031496 5.644095-4.031496s6.450394-2.822047 8.062992-6.047244c1.209449-3.225197 5.644094-6.047244 10.07874-6.047244 4.031496 0 8.466142-3.628346 9.67559-8.062992 1.209449-5.644094 5.644094-8.062992 12.497638-8.062992 7.256693 0 10.48189-2.015748 10.48189-7.256693 0-9.272441 28.220472-37.089764 37.492913-37.089764 4.434646 0 6.853543-3.225197 6.853544-10.07874 0-5.644094 3.628346-12.094488 8.062992-14.916536s8.062992-7.659843 8.062992-10.481889 2.822047-6.047244 6.047244-7.256693c3.225197-1.612598 6.047244-4.837795 6.047244-8.062992s2.015748-5.644094 4.031496-5.644095c2.418898 0 4.031496-2.822047 4.031496-6.047244s1.612598-6.047244 3.225197-6.047244 5.644094-6.450394 8.466142-14.110236c3.628346-10.885039 7.256693-14.110236 14.916535-14.110237 5.240945 0 9.675591 1.612598 9.675591 3.225197 0 2.015748-6.450394 14.110236-14.513386 27.414173-70.954331 118.122835-193.511811 203.590551-328.16378 228.988977-43.540157 8.466142-48.377953 8.062992-48.377952-1.612599zM145.537008 832.503937c-18.544882-20.96378-64.907087-89.096063-64.907087-95.143307 0-2.015748 4.434646-3.628346 10.07874-3.628347 7.256693 0 10.48189 2.822047 12.497638 10.078741 1.209449 5.644094 4.031496 10.07874 6.047244 10.07874s3.628346 2.822047 3.628347 6.047244 2.015748 6.047244 4.031496 6.047244c2.418898 0 4.031496 2.822047 4.031496 6.047244s2.015748 6.047244 4.031496 6.047244c2.418898 0 4.031496 2.418898 4.031496 5.644095s2.822047 6.450394 6.047244 8.062992c3.225197 1.209449 6.047244 6.047244 6.047244 10.48189s2.418898 8.062992 5.240945 8.062992c10.48189 0 19.754331 14.916535 18.141732 28.623622l-1.209448 13.303937-17.738583-19.754331zM152.793701 729.700787c-23.785827-6.047244-60.069291-20.56063-60.069292-24.592126 0-2.015748-2.822047-3.628346-6.047244-3.628346-3.628346 0-6.047244 4.031496-6.047244 10.48189 0 18.544882-9.675591 8.062992-22.979527-24.995276-17.335433-42.330709-16.932283-46.765354 4.031496-27.011023 32.251969 31.445669 73.776378 51.2 124.976378 59.666141 9.272441 1.612598 14.916535 4.434646 14.916535 8.062992 0 6.853543-24.188976 7.659843-48.781102 2.015748zM217.700787 727.685039c0-3.628346 5.644094-6.450394 15.319685-8.062992 33.058268-5.644094 68.938583-18.544882 92.72441-33.864567l24.995275-16.529134v12.094489c0 8.062992-2.015748 12.094488-6.047244 12.094488-3.225197 0-6.047244 2.015748-6.047244 4.031496 0 2.418898-4.434646 4.031496-10.07874 4.031496-6.450394 0-10.07874 2.418898-10.07874 6.047244s-3.628346 6.047244-9.675591 6.047244c-5.240945 0-10.48189 1.612598-11.288189 4.031496-1.612598 4.837795-45.555906 16.125984-64.503937 16.125984-10.885039 0-15.319685-1.612598-15.319685-6.047244zM757.51811 729.700787c-23.785827-6.047244-60.069291-20.56063-60.069291-24.592126 0-2.015748-2.822047-3.628346-6.047244-3.628346s-6.047244-1.612598-6.047244-4.031496c0-2.015748-2.822047-4.031496-6.047244-4.031496s-6.047244-3.628346-6.047244-8.062992c0-5.644094-2.822047-8.062992-9.272441-8.062992-11.691339 0-18.948031-7.256693-18.948032-18.948032 0-6.450394-2.418898-9.272441-8.062992-9.272441-4.434646 0-8.062992-2.822047-8.062992-6.047244s-1.612598-6.047244-4.031496-6.047244c-2.015748 0-4.031496-2.822047-4.031496-6.047244s-1.612598-6.047244-3.628347-6.047244-7.256693-9.675591-12.094488-20.96378c-16.125984-41.524409-22.173228-87.886614-10.48189-87.886614 3.628346 0 6.450394 5.644094 8.062992 15.319685 15.319685 101.99685 84.661417 170.935433 188.674016 188.270866 9.272441 1.612598 14.916535 4.434646 14.916536 8.062992 0 6.853543-24.188976 7.659843-48.781103 2.015748zM822.425197 727.685039c0-3.628346 5.644094-6.450394 15.319685-8.062992 52.006299-8.466142 89.096063-26.607874 126.588976-61.68189 20.56063-18.948031 20.56063-18.948031 17.738583-6.853543-4.837795 20.96378-28.220472 71.76063-33.461417 73.776378-3.628346 0.806299-5.240945-2.822047-5.240945-10.885039 0-10.48189-1.612598-12.497638-10.07874-12.497638-6.450394 0-10.07874 2.418898-10.078741 6.047244s-3.628346 6.047244-9.67559 6.047244c-5.240945 0-10.48189 1.612598-11.288189 4.031496-1.612598 4.837795-45.555906 16.125984-64.503937 16.125984-10.885039 0-15.319685-1.612598-15.319685-6.047244zM385.007874 626.897638c16.932283-24.995276 34.267717-69.341732 34.267717-88.289764 0-14.916535 4.837795-26.607874 10.481889-26.607874 4.031496 0 5.644094 5.240945 5.644095 17.335433 0 20.56063-10.885039 64.907087-16.125984 66.519685-2.418898 0.806299-4.031496 6.047244-4.031497 11.288189 0 6.047244-2.418898 9.675591-6.047244 9.675591s-6.047244 3.628346-6.047244 10.07874c0 5.644094-1.612598 10.07874-3.628346 10.07874s-4.434646 3.628346-5.644095 8.062992c-1.612598 6.047244-5.644094 8.062992-14.513385 8.062992h-12.497638l18.141732-26.204724zM786.141732 643.829921c-54.828346-12.094488-98.771654-57.247244-107.237795-110.866141-2.418898-15.319685-2.015748-16.932283 6.047244-16.932284 6.047244 0 8.466142 2.418898 8.466142 8.466142 0 10.885039 16.529134 49.184252 22.979527 53.215748 2.822047 1.612598 5.240945 8.466142 5.240945 14.916535 0 10.48189 1.612598 12.094488 11.691339 12.094488 6.450394 0 12.497638 1.209449 13.303937 3.225197 0.806299 1.612598 10.885039 7.256693 22.979527 12.900788 26.607874 12.094488 75.792126 13.707087 86.677166 2.822047 3.628346-3.628346 10.07874-7.659843 14.513386-8.869291 8.869291-2.822047 44.346457-37.089764 44.346456-42.733859 0-2.015748 2.418898-3.628346 5.644095-3.628346 5.644094 0 8.869291-11.691339 12.900787-53.215748 2.015748-18.948031 0.806299-26.204724-8.062992-45.555906-5.644094-12.900787-10.48189-25.801575-10.48189-28.623622 0-3.225197-2.418898-5.644094-5.644094-5.644094s-10.48189-5.240945-15.722835-12.094488c-5.644094-6.450394-12.094488-12.094488-14.513386-12.094489s-4.434646-1.612598-4.434645-3.628346-10.885039-6.853543-24.188977-10.885039c-18.141732-5.644094-24.188976-9.675591-24.188976-15.319685 0-17.335433 55.634646 4.434646 83.855118 33.058267 26.607874 26.607874 38.702362 56.037795 39.105512 95.546457 0 28.623622-1.612598 35.477165-13.303937 59.262992-28.220472 57.247244-89.096063 87.483465-149.971654 74.582677zM163.275591 637.782677c-24.592126-8.466142-47.974803-25.801575-63.294489-46.765354-13.707087-19.351181-14.110236-22.576378-1.209448-22.576378 6.047244 0 10.07874 2.418898 10.07874 5.644094s2.822047 6.450394 6.047244 8.062992c3.225197 1.209449 6.047244 4.837795 6.047244 8.466142 0 3.225197 2.822047 6.047244 6.450394 6.047244s7.256693 3.225197 8.466141 7.256693c1.612598 6.853543 11.691339 11.691339 46.765355 22.173229 10.07874 2.822047 14.916535 6.853543 14.916535 11.691338 0 8.869291-8.062992 8.869291-34.267716 0zM217.700787 638.185827c0-6.450394 3.628346-8.869291 15.319685-10.88504 21.770079-3.628346 33.058268-2.822047 33.058268 1.612599 0 5.644094-12.900787 11.288189-31.848819 14.513386-14.916535 2.418898-16.529134 1.612598-16.529134-5.240945zM270.110236 618.834646c0-5.644094 2.015748-10.07874 4.434646-10.07874s8.869291-5.240945 14.513386-12.094489c5.240945-6.450394 12.094488-12.094488 14.513386-12.094488 2.822047 0 6.853543-6.047244 9.67559-12.900787 2.418898-7.256693 7.659843-21.366929 11.288189-31.44567 4.837795-12.497638 6.047244-24.188976 4.434646-38.299212-4.837795-40.314961-7.256693-50.393701-12.900788-50.393701-3.225197 0-5.644094-2.418898-5.644094-5.644094s-2.822047-6.450394-6.047244-8.062993c-3.225197-1.209449-6.047244-6.047244-6.047244-10.481889 0-5.240945-2.822047-8.062992-8.062992-8.062992-4.031496 0-9.272441-2.418898-10.88504-4.837796-4.837795-8.062992-40.314961-23.382677-59.666142-26.204724-20.15748-2.418898-59.666142 8.062992-72.163779 19.754331-4.434646 4.031496-14.110236 7.256693-21.366929 7.256692-12.497638 0-13.303937 0.806299-13.303937 13.707087 0 7.659843-1.612598 14.513386-3.225197 15.319685-4.837795 2.015748-20.96378 41.524409-20.96378 51.2 0 6.047244-2.418898 8.466142-8.466141 8.466142-8.062992 0-8.466142-1.612598-6.047244-16.932284 6.853543-43.137008 38.299213-83.451969 80.226771-101.99685 67.325984-30.63937 143.52126-2.015748 176.982677 65.713386 11.691339 23.785827 13.303937 30.63937 13.303937 59.262992-0.40315 35.880315-8.466142 59.262992-30.23622 86.677165-10.885039 13.707087-34.670866 32.251969-41.927559 32.251969-1.209449 0-2.418898-4.434646-2.418898-10.07874zM80.629921 556.346457c-2.418898-4.031496-5.240945-16.125984-6.450393-26.204725-2.418898-16.125984-2.015748-18.141732 5.240944-18.141732 6.450394 0 8.869291 3.628346 10.88504 15.319685 5.240945 33.058268 0.40315 47.974803-9.675591 29.026772z" fill="#8C8F8F" p-id="68515"></path><path d="M678.500787 489.826772c6.047244-44.346457 43.137008-90.708661 84.661418-106.028347 29.429921-11.288189 39.105512-11.288189 39.105512-0.806299 0 4.434646-2.822047 8.062992-6.450394 8.062992-10.48189 0-47.571654 17.335433-53.215748 24.995276-2.822047 4.031496-8.062992 7.256693-11.288189 7.256693s-5.644094 2.822047-5.644095 6.047244c0 3.628346-2.822047 7.256693-6.047244 8.466141-3.225197 1.612598-6.047244 4.837795-6.047244 8.062993s-1.612598 5.644094-3.225197 5.644094c-3.628346 0-16.932283 39.105512-16.932283 49.587402 0 4.434646-3.225197 6.853543-8.466142 6.853543-8.062992 0-8.466142-1.612598-6.450394-18.141732zM421.291339 489.020472c-16.529134-107.237795-82.24252-175.370079-184.23937-192.705511-18.544882-2.822047-21.366929-14.110236-4.031497-14.110237 17.738583 0 57.247244 8.869291 57.247245 12.497638 0 2.015748 3.628346 3.628346 8.062992 3.628347 9.675591 0 28.220472 8.466142 28.220472 12.900787 0 1.612598 2.822047 3.225197 6.047244 3.225197s6.047244 2.015748 6.047244 4.031496c0 2.418898 2.822047 4.031496 6.047244 4.031496s6.047244 3.628346 6.047244 8.062992c0 5.644094 2.822047 8.062992 9.272441 8.062992 11.691339 0 18.948031 7.256693 18.948032 18.948032 0 6.450394 2.418898 9.272441 8.062992 9.272441 4.434646 0 8.062992 2.822047 8.062992 6.047244s2.015748 6.047244 4.031496 6.047244c2.418898 0 4.031496 2.418898 4.031496 5.644094s2.015748 6.450394 4.031496 7.256693c7.659843 2.418898 24.592126 56.844094 27.011024 85.064567 2.015748 22.979528 1.612598 27.011024-4.031496 27.011024-4.434646 0-7.256693-4.837795-8.869291-14.916536zM588.598425 484.585827c0-17.738583 8.869291-57.247244 12.497638-57.247244 2.015748 0 3.628346-4.031496 3.628346-8.869292 0-10.885039 22.576378-51.60315 28.220473-51.603149 2.418898 0 4.031496-2.418898 4.031496-5.240945 0-6.450394 24.592126-31.04252 31.04252-31.04252 2.418898 0 5.240945-2.822047 6.853543-6.047244 1.209449-3.225197 4.837795-6.047244 8.466142-6.047244 3.225197 0 6.047244-1.612598 6.047244-3.628346 0-4.434646 41.927559-22.979528 64.503937-28.220473 26.204724-6.047244 44.346457-5.644094 44.346456 1.209449 0 3.628346-9.675591 7.659843-28.220472 12.094488-87.886614 19.754331-151.584252 88.692913-167.307087 181.014173-2.822047 18.141732-14.110236 20.96378-14.110236 3.628347z" fill="#8C8F8F" p-id="68516"></path><path d="M959.496063 353.562205c-28.220472-26.607874-63.697638-45.555906-100.384252-53.618898-18.544882-4.434646-28.623622-8.466142-28.623622-12.094488 0-12.094488 55.231496-2.418898 91.91811 16.125984l18.948032 9.675591-1.209449-15.722835c-0.806299-8.466142 1.209449-32.655118 4.837795-53.215748 3.628346-20.96378 6.450394-41.12126 6.450394-44.749606 0-6.450394-16.529134-6.853543-224.151181-6.047244l-223.748032 0.806299-10.885039-15.722835c-5.644094-8.869291-27.011024-42.330709-47.168504-74.582677l-36.686614-58.859842-23.785827 6.853543c-13.303937 4.031496-31.04252 10.07874-39.911811 13.707086-17.738583 7.256693-38.702362 8.466142-38.702362 2.015748 0-11.691339 82.645669-37.089764 144.730708-43.943307 85.064567-9.675591 168.919685 0.806299 243.099213 30.63937l37.089764 14.916536 134.248819-24.188976c81.033071-14.513386 134.248819-22.173228 134.248819-19.754331-0.40315 2.418898-10.885039 63.294488-23.785827 135.458268-23.382677 129.007874-23.382677 131.023622-16.529134 145.133858 8.062992 16.125984 24.995276 64.907087 23.382677 66.519685-0.806299 0.806299-11.288189-8.062992-23.382677-19.351181zM44.346457 366.866142c0-2.822047 6.450394-20.96378 14.110236-40.314961l14.110236-35.074016-23.785827-134.651968C35.477165 82.645669 24.995276 21.770079 25.398425 21.366929c0.806299-0.40315 243.502362 41.524409 262.047244 45.555906 13.303937 2.822047 14.916535 13.707087 1.612599 13.707086-4.837795 0-61.27874-9.272441-125.379528-20.15748-64.100787-11.288189-116.913386-19.754331-118.122834-18.948032-0.806299 0.806299 7.659843 53.215748 18.948031 116.107087 10.885039 62.891339 20.15748 122.96063 20.15748 133.44252 0 20.96378 1.209449 21.770079 16.125985 13.303937 5.644094-3.225197 14.110236-5.644094 19.351181-6.047244 4.837795 0 8.869291-1.612598 8.869291-3.628347 0-3.628346 39.508661-12.497638 57.247244-12.497638 7.256693 0 11.288189 2.015748 11.288189 6.047245 0 3.225197-1.209449 6.047244-2.822047 6.047244-2.015748 0-15.319685 2.822047-29.833071 5.644094-35.477165 7.659843-70.148031 25.398425-97.965354 50.79685-12.497638 11.691339-22.576378 18.544882-22.576378 16.125985z" fill="#8C8F8F" p-id="68517"></path><path d="M428.951181 989.329134c-161.259843-27.011024-308.812598-145.537008-367.672441-295.911811-20.15748-50.79685-20.15748-51.2-0.806299-32.655118 9.272441 8.869291 24.592126 21.366929 34.670866 27.414173 9.675591 6.047244 17.738583 12.497638 17.738583 14.513386 0 1.612598-6.450394 2.822047-14.110236 2.822047h-14.513386l6.450393 12.094488c3.225197 6.450394 6.047244 15.319685 6.047245 20.157481 0 4.434646 2.822047 8.062992 6.047244 8.062992s6.047244 2.822047 6.047244 6.047244 2.015748 6.047244 4.031496 6.047244c2.418898 0 4.031496 2.822047 4.031496 6.047244s2.015748 6.047244 4.031496 6.047244c2.418898 0 4.031496 2.822047 4.031496 6.047244s2.015748 6.047244 4.031496 6.047244c2.418898 0 4.031496 3.225197 4.031496 7.659843 0 4.031496 3.628346 8.466142 8.062992 9.67559 6.047244 1.612598 8.062992 5.644094 8.062992 14.513386 0 10.48189 1.612598 12.497638 9.272441 12.497638 11.691339 0 39.105512 27.414173 39.105512 39.508661 0 7.256693 2.418898 8.869291 12.094488 8.869292 8.062992 0 12.094488 2.015748 12.094488 6.047244 0 3.225197 3.628346 6.047244 8.062993 6.047244s8.062992 2.822047 8.062992 6.047244 3.628346 6.047244 8.062992 6.047244 8.062992 2.015748 8.062992 4.031496c0 2.418898 2.418898 4.031496 5.644094 4.031496s8.466142 2.418898 11.288189 5.240945c2.822047 2.418898 20.56063 12.094488 39.508662 20.96378s35.074016 17.335433 36.283464 18.544881 8.869291 3.628346 17.335433 5.240945c8.062992 1.612598 14.916535 4.031496 14.916536 5.644095 0 2.822047 44.749606 11.691339 81.83937 15.722834 14.916535 1.612598 18.948031 3.628346 18.948031 9.675591 0 8.869291-4.434646 9.272441-50.79685 1.209449zM544.251969 988.119685c0-7.256693 2.418898-8.466142 15.319685-8.466142 18.948031 0 70.954331-12.497638 108.044094-25.801574 31.445669-11.288189 51.60315-13.707087 49.184252-5.240945-4.031496 11.288189-95.143307 39.105512-147.149606 45.152756-24.188976 2.822047-25.398425 2.418898-25.398425-5.644095zM745.826772 925.631496c0-8.466142 2.015748-10.48189 10.07874-10.48189 6.450394 0 10.07874-2.418898 10.07874-6.047244 0-3.225197 2.822047-6.047244 6.047244-6.047244s6.047244-1.612598 6.047244-4.031496c0-2.015748 3.628346-4.031496 8.062992-4.031496s8.062992-2.822047 8.062992-6.047244c0-3.628346 3.628346-6.047244 9.675591-6.047244 7.256693 0 10.07874-2.418898 11.288189-8.869292 0.806299-7.659843 4.031496-9.272441 17.335433-10.481889l16.125984-0.8063-18.141732 16.125985c-18.544882 16.932283-66.116535 49.990551-77.807874 54.828346-5.240945 2.015748-6.853543 0-6.853543-8.062992zM867.577953 827.666142c0.806299-12.497638 2.822047-15.722835 10.48189-16.529134 6.450394-1.209449 8.869291-4.031496 8.869291-11.288189 0-6.047244 2.418898-9.675591 6.047244-9.675591 3.225197 0 6.047244-3.628346 6.047244-8.062992s2.015748-8.062992 4.031496-8.062992c2.418898 0 4.031496-2.822047 4.031496-6.047244s1.612598-6.047244 3.628347-6.047244 4.837795-4.434646 6.047244-10.07874c1.612598-5.644094 5.240945-10.07874 8.466141-10.07874s6.047244-3.628346 6.047245-8.062993c0-11.691339 8.466142-28.220472 14.916535-28.220472 2.822047 0 5.240945-1.612598 5.240945-4.031496 0-6.047244-7.659843-4.837795-14.513386 2.015748-3.628346 3.225197-9.675591 6.047244-14.110236 6.047244-4.031496 0-7.659843 1.612598-7.659843 3.628347 0 5.240945-34.267717 16.125984-59.262992 19.351181-17.335433 2.015748-21.366929 1.209449-21.366929-3.628347 0-4.031496 8.466142-8.062992 26.204724-12.497638 38.702362-9.675591 69.341732-26.204724 98.368504-53.215748 29.026772-27.414173 29.026772-27.011024 5.644095 30.236221-7.659843 18.544882-21.366929 46.362205-29.833071 61.27874-15.319685 26.204724-62.085039 87.886614-66.519685 87.886614-1.209449 0-1.612598-6.853543-0.806299-14.916535z" fill="#5C5F60" p-id="68518"></path><path d="M143.11811 727.685039c-10.885039-3.225197-21.366929-5.644094-22.979527-6.047244-2.015748 0-3.225197-4.434646-3.225197-9.67559v-10.07874l21.366929 7.256692c11.288189 4.031496 27.817323 8.466142 36.283465 10.078741 8.869291 1.612598 14.916535 5.240945 14.916535 8.466141 0 7.659843-18.948031 7.659843-46.362205 0zM229.795276 728.894488c0-4.031496 8.466142-8.062992 26.204724-12.497638 43.137008-10.885039 69.744882-26.204724 102.80315-59.262992s48.377953-59.666142 59.262992-102.803149c4.434646-17.738583 8.466142-26.204724 12.497638-26.204725 4.837795 0 5.644094 4.031496 3.628346 21.366929-3.225197 24.995276-14.110236 59.262992-19.351181 59.262993-2.015748 0-3.628346 3.628346-3.628347 7.659842 0 4.434646-2.822047 10.48189-6.047244 14.110236-3.225197 3.225197-6.047244 7.659843-6.047244 10.07874s-2.822047 4.434646-6.047244 4.434646-6.047244 3.225197-6.047244 7.256693c0 9.272441-24.188976 33.058268-33.461417 33.058268-3.628346 0-6.853543 2.822047-6.853544 6.047244s-2.015748 6.047244-4.434645 6.047244-6.853543 2.822047-10.07874 6.047244c-3.628346 3.225197-9.675591 6.047244-14.110237 6.047244-4.031496 0-7.659843 1.612598-7.659842 3.628347 0 5.240945-34.267717 16.125984-59.262992 19.351181-17.335433 2.015748-21.366929 1.209449-21.366929-3.628347zM747.84252 727.685039c-10.885039-3.225197-21.366929-5.644094-22.979528-6.047244-2.015748 0-3.225197-4.434646-3.225197-9.67559v-10.07874l21.366929 7.256692c11.288189 4.031496 27.817323 8.466142 36.283465 10.078741 8.869291 1.612598 14.916535 5.240945 14.916535 8.466141 0 7.659843-18.948031 7.659843-46.362204 0zM689.385827 701.480315c0-2.015748-2.822047-4.031496-6.047244-4.031496s-6.047244-2.418898-6.047244-5.644095-4.031496-6.450394-8.869292-7.256693c-6.047244-0.806299-9.675591-4.434646-10.48189-10.07874s-4.434646-9.272441-10.07874-10.07874c-4.837795-0.806299-10.48189-5.240945-12.900787-10.07874-2.015748-5.240945-5.240945-9.272441-6.853543-9.272441-2.015748 0-3.225197-2.822047-3.225197-6.047244s-1.612598-6.047244-4.031496-6.047244c-2.015748 0-4.031496-6.450394-4.031496-14.110236s1.209449-14.110236 3.225196-14.110237c1.612598 0 8.062992 8.062992 14.513386 18.141733 14.513386 23.382677 41.524409 50.393701 64.907087 64.907086 10.07874 6.450394 18.141732 12.900787 18.141732 14.916536 0 1.612598-6.450394 2.822047-14.110236 2.822047s-14.110236-1.612598-14.110236-4.031496zM171.338583 639.395276c-35.074016-10.885039-58.053543-29.026772-78.614174-61.278741-14.110236-22.576378-15.722835-33.864567-4.434645-33.864566 5.240945 0 9.675591 4.434646 12.900787 14.110236 2.822047 7.659843 6.853543 14.110236 8.466142 14.110236s3.225197 3.225197 3.225197 7.659842c0 4.031496 3.628346 8.466142 8.062992 9.675591 4.837795 1.209449 8.062992 5.644094 8.062992 10.48189 0 5.644094 2.418898 8.466142 7.659843 8.466142 4.031496 0 17.335433 4.434646 29.429921 10.07874 11.691339 5.644094 25.398425 10.07874 30.63937 10.07874 6.047244 0 8.869291 2.418898 8.869291 8.062992 0 9.675591-9.675591 10.07874-34.267716 2.418898zM213.669291 637.379528c0-6.047244 2.418898-8.466142 8.466142-8.466142 9.675591 0 49.184252-16.125984 51.2-20.96378 0.806299-1.612598 8.062992-3.225197 15.722835-3.225197 14.110236 0 14.513386 0 7.256693 8.062993-10.07874 10.885039-44.749606 27.011024-65.310237 30.23622-15.722835 2.418898-17.335433 2.015748-17.335433-5.644094zM774.450394 639.798425c-16.932283-6.047244-21.366929-14.916535-7.256693-14.916535 21.366929 0 35.074016 4.837795 35.074016 12.497638 0 8.869291-7.659843 9.272441-27.817323 2.418897zM826.456693 637.782677c0-8.062992 12.900787-12.900787 34.670866-12.900787 21.366929 0 6.853543 13.303937-19.754331 18.141732-13.303937 2.418898-14.916535 2.015748-14.916535-5.240945zM733.329134 619.237795c-27.011024-18.544882-48.781102-55.231496-54.022047-91.91811-3.225197-22.576378 0.806299-43.540157 8.466141-43.540157 4.031496 0 5.644094 6.047244 5.644095 23.382677 0 16.125984 3.225197 29.429921 10.07874 44.346456 5.644094 12.094488 10.07874 24.188976 10.07874 27.414174s2.418898 5.644094 5.644095 5.644094 10.48189 5.644094 15.722834 12.094488c5.644094 6.853543 12.094488 12.094488 14.513386 12.094489s4.434646 4.434646 4.434646 10.07874c0 12.497638-2.418898 12.497638-20.56063 0.403149zM874.834646 619.237795c0-8.466142 2.015748-10.48189 10.07874-10.481889 7.256693 0 10.07874-2.015748 10.07874-8.062993 0-5.240945 2.822047-8.062992 8.062992-8.062992 6.047244 0 8.062992-2.822047 8.062992-10.07874 0-5.644094 1.612598-10.07874 3.225197-10.07874 2.015748 0 8.062992-12.497638 13.303937-28.220472 8.466142-25.398425 8.869291-29.833071 4.434646-51.60315-6.047244-29.026772-6.047244-41.12126-0.40315-41.12126 14.916535 0 21.770079 71.35748 10.07874 104.415748-10.07874 27.414173-40.71811 63.697638-60.472441 71.35748-4.837795 2.015748-6.450394 0-6.450393-8.062992zM306.393701 587.792126c0-13.707087 1.209449-15.319685 10.07874-15.319685 12.497638 0 12.900787 4.434646 0 18.948031l-9.675591 11.288189-0.403149-14.916535zM600.692913 589.001575c0-6.450394-2.015748-12.497638-4.031496-13.303937-2.418898-0.806299-5.644094-11.691339-6.853543-24.592126-2.015748-19.351181-1.209449-22.979528 4.031496-22.979528 4.434646 0 7.659843 6.853543 10.885039 22.576378 2.822047 12.497638 7.256693 28.623622 10.48189 36.283465 5.644094 13.303937 5.644094 13.707087-4.434645 13.707086-8.466142 0-10.07874-2.015748-10.078741-11.691338zM322.519685 554.330709c0-11.288189 1.612598-14.110236 8.062992-14.110237 8.869291 0 10.48189 8.062992 4.031496 20.56063-6.450394 12.094488-12.094488 9.272441-12.094488-6.450393zM74.582677 523.691339c-7.256693-32.251969 14.513386-89.499213 43.137008-114.091339 18.948031-16.125984 43.943307-28.623622 64.907087-32.655118 13.303937-2.418898 14.916535-2.015748 14.916535 5.240945 0 6.853543-3.225197 8.869291-18.141732 11.288189-10.07874 1.209449-18.141732 4.031496-18.141732 6.047244s-5.240945 3.628346-12.094489 3.628346c-9.272441 0-12.094488 2.015748-12.094488 7.659843 0 4.031496-6.450394 13.303937-14.110236 20.15748s-14.110236 14.110236-14.110236 16.125984-2.418898 6.450394-5.240945 9.272441c-7.659843 8.062992-14.916535 35.880315-14.916536 59.262992 0 23.785827-9.675591 29.026772-14.110236 8.062993zM320.503937 469.669291c-4.031496-12.094488-8.869291-22.173228-10.885039-22.173228-1.612598 0-3.225197-3.225197-3.225197-7.659843 0-4.031496-3.628346-8.466142-8.466142-9.67559-4.434646-1.209449-9.272441-6.047244-10.48189-10.48189-1.209449-4.837795-5.644094-8.466142-9.67559-8.466142-5.644094 0-7.659843-2.822047-7.659843-10.07874 0-12.497638 2.015748-12.497638 20.56063 0 17.738583 12.497638 37.896063 39.911811 45.959055 62.891339 8.062992 21.770079 7.659843 27.817323-1.209449 27.817323-5.240945 0-9.272441-6.450394-14.916535-22.173229zM420.888189 472.894488c-1.612598-8.466142-6.047244-24.995276-10.07874-36.283464l-7.256693-21.36693h9.272441c10.48189 0 16.932283 16.529134 21.366929 52.409449 2.015748 16.932283 1.209449 20.15748-4.031496 20.157481-4.434646 0-7.256693-5.240945-9.272441-14.916536zM589.807874 464.831496c1.209449-12.900787 4.434646-23.785827 6.853543-24.592126 2.015748-0.806299 4.031496-6.853543 4.031496-13.303937 0-9.675591 1.612598-11.691339 10.078741-11.691339 10.07874 0 10.07874 0.40315 4.434645 13.707087-3.225197 7.659843-7.659843 23.785827-10.48189 36.283465-3.225197 15.722835-6.450394 22.576378-10.885039 22.576378-5.240945 0-6.047244-3.628346-4.031496-22.979528zM689.788976 456.768504c5.644094-14.916535 23.382677-38.299213 38.702363-51.2 44.749606-37.492913 116.107087-39.911811 162.872441-5.644095l17.738582 13.303937-13.707086 1.209449c-7.659843 0.806299-14.916535 0-16.125985-2.015748s-11.691339-7.659843-23.382677-12.497638c-28.220472-12.094488-57.650394-11.691339-85.064567 1.209449-12.094488 5.644094-24.995276 10.07874-29.026771 10.07874-4.837795 0-8.062992 3.628346-8.869292 9.272441-0.806299 6.450394-4.434646 9.272441-12.094488 10.078741-9.272441 1.209449-11.288189 3.225197-11.288189 12.900787 0 17.335433-4.031496 24.188976-14.513386 24.188976-8.466142 0-9.272441-0.806299-5.240945-10.885039zM911.11811 432.579528l0.40315-15.319685 9.67559 11.288188c12.900787 14.513386 12.497638 18.948031 0 18.948032-8.869291 0-10.07874-1.612598-10.07874-14.916535zM389.44252 393.070866c-14.513386-23.382677-41.524409-50.393701-64.907087-64.907086-10.07874-6.450394-18.141732-12.900787-18.141732-14.513386 0-2.015748 6.450394-3.225197 14.110236-3.225197s14.110236 2.015748 14.110236 4.031496c0 2.418898 2.822047 4.031496 6.047244 4.031496s6.047244 2.418898 6.047244 5.644094 4.031496 6.450394 9.272441 7.256693c5.644094 0.806299 9.272441 4.434646 10.078741 10.078741s4.434646 9.272441 10.07874 10.07874 9.272441 4.434646 10.07874 10.481889c0.806299 4.837795 4.031496 8.869291 7.256693 8.869292s5.644094 2.822047 5.644094 6.047244 2.015748 6.047244 4.031496 6.047244c2.418898 0 4.031496 6.450394 4.031496 14.110236s-1.209449 14.110236-2.822047 14.110236c-2.015748 0-8.466142-8.062992-14.916535-18.141732zM620.850394 389.03937c0-7.659843 1.612598-14.110236 3.628346-14.110236s4.434646-3.628346 5.644095-8.062992c1.612598-6.047244 5.644094-8.062992 14.513385-8.062992h12.900788l-15.319685 22.173228c-8.466142 12.094488-16.529134 21.770079-18.141732 22.173228-2.015748 0-3.225197-6.450394-3.225197-14.110236zM231.004724 392.264567c-6.047244-1.209449-9.272441-4.837795-9.272441-10.07874 0-7.256693 1.612598-7.659843 14.916536-5.240945 18.141732 3.225197 29.429921 8.869291 29.429921 14.110236 0 4.031496-17.738583 4.434646-35.074016 1.209449z" fill="#5C5F60" p-id="68519"></path><path d="M957.480315 349.530709c-23.785827-22.979528-65.310236-44.749606-97.562205-51.2-33.058268-6.853543-90.305512-3.225197-119.332283 8.062992-13.303937 4.837795-35.074016 16.932283-49.184252 26.204724-14.110236 10.07874-26.607874 16.125984-28.623622 14.110236s-18.948031-4.031496-37.896063-4.837795l-34.267717-1.209449-59.262992-94.740157c-32.655118-52.006299-59.666142-97.159055-59.666142-99.577953 0-2.822047-1.612598-5.240945-3.225196-5.240945-2.015748 0-6.853543-6.853543-11.288189-14.916535-4.031496-8.466142-10.885039-18.544882-14.916536-23.382677-4.031496-4.434646-8.062992-12.094488-9.272441-16.932284-1.612598-5.240945-4.031496-9.272441-5.644094-9.272441-2.015748 0-4.837795-4.031496-6.450394-8.869291-4.837795-16.125984-11.288189-19.351181-33.461417-16.529134-11.288189 1.209449-20.56063 4.031496-20.56063 5.644094 0 2.015748-4.434646 3.628346-10.07874 3.628347s-10.07874 2.015748-10.078741 4.031496c0 2.418898-3.628346 4.031496-8.466141 4.031496-4.434646 0-10.885039 2.822047-14.110237 6.047244-10.07874 10.07874-45.152756 7.256693-164.888189-13.707086-62.085039-10.885039-113.285039-19.754331-113.285039-19.351182-0.40315 0.40315 8.869291 56.037795 20.96378 123.76693 23.785827 136.264567 24.592126 141.102362 15.722834 141.102362-3.225197 0-6.047244 2.015748-6.047244 4.031496 0 2.418898 6.450394 4.031496 14.110236 4.031496 16.932283 0 17.738583 4.031496 3.225197 12.900787-6.450394 3.628346-19.351181 14.110236-29.026771 22.979528-9.675591 9.272441-18.544882 16.529134-18.948032 16.529134-1.612598 0 11.691339-36.283465 22.576378-62.891339 4.837795-10.885039 2.418898-28.220472-17.738583-142.71496C37.089764 84.258268 29.429921 29.429921 31.445669 27.414173s56.844094 5.644094 133.84567 18.948032l129.814173 22.576378 31.042519-12.094489c22.576378-8.869291 85.064567-28.623622 91.514961-28.623622 0 0 10.07874 15.722835 21.770079 35.477166 11.691339 19.351181 33.864567 54.022047 48.781102 77.404724l27.414173 42.330709 226.973229-2.015748 227.376378-2.015748-9.272441 55.634645-9.675591 55.634646 14.513386 36.283465c8.062992 19.754331 14.110236 37.492913 13.303937 39.105512s-10.07874-6.047244-21.366929-16.529134z" fill="#5C5F60" p-id="68520"></path><path d="M116.913386 304.377953c0-8.466142 2.015748-10.07874 11.691338-10.07874 6.450394 0 12.497638-2.015748 13.303937-4.031496 0.806299-2.418898 11.691339-5.644094 24.592126-6.853544 19.351181-2.015748 22.979528-1.209449 22.979528 4.031496 0 4.434646-6.853543 7.659843-22.576378 10.88504-12.497638 2.822047-28.623622 7.256693-36.283465 10.481889-13.303937 5.644094-13.707087 5.644094-13.707086-4.434645zM287.848819 308.812598c-7.256693-3.225197-22.979528-7.659843-35.477165-10.481889-15.722835-3.225197-22.576378-6.450394-22.576378-10.88504 0-5.240945 3.628346-6.047244 22.979527-4.031496 12.900787 1.209449 23.785827 4.434646 24.592126 6.853544 0.806299 2.015748 6.853543 4.031496 13.303937 4.031496 9.675591 0 11.691339 1.612598 11.691339 10.07874 0 5.644094-0.40315 10.07874-0.806299 10.07874-0.806299-0.40315-6.853543-2.822047-13.707087-5.644095z" fill="#5C5F60" p-id="68521"></path><path d="M457.574803 993.36063c-68.132283-10.48189-113.688189-24.995276-168.919685-53.215748-104.012598-53.215748-189.883465-149.165354-230.601575-257.612599-5.240945-14.110236-9.675591-26.607874-9.67559-27.414173 0-1.209449 10.07874 6.047244 22.173228 16.125984 89.096063 72.16378 210.847244 67.325984 290.267717-12.094488 115.703937-115.703937 64.100787-312.037795-94.337008-358.4-28.623622-8.466142-85.064567-8.466142-113.688189 0-31.848819 9.675591-63.294488 26.607874-85.870866 46.362205-22.173228 19.754331-22.173228 18.544882-2.822048-28.623622 8.466142-20.96378 10.07874-29.429921 7.659843-42.330709C58.456693 203.993701 28.623622 26.607874 29.429921 25.398425c0.806299-0.806299 60.875591 8.869291 133.44252 21.770079 117.316535 20.15748 133.44252 22.173228 144.730709 17.738583 31.848819-12.900787 79.017323-28.623622 93.933858-31.04252l16.125984-2.418898 72.16378 116.510237c39.508661 63.697638 81.43622 131.023622 93.127559 149.165354l21.366929 33.058268 37.492913 1.209448c27.817323 0.806299 39.911811-0.40315 47.571654-4.837795 5.644094-3.225197-2.822047 6.047244-18.544882 21.366929-47.168504 44.346457-70.148031 97.159055-70.148032 160.453544 0 119.332283 94.337008 213.266142 213.669292 213.266141 54.425197 0 102.4-18.141732 144.730708-55.231496 24.592126-21.770079 24.995276-20.56063 2.015748 32.655118-49.587402 117.316535-150.777953 216.491339-264.869291 260.837796-61.68189 23.785827-104.012598 32.251969-168.113386 33.864567-32.251969 0.806299-63.697638 0.40315-70.551181-0.40315z" fill="#282C2E" p-id="68522"></path><path d="M180.207874 641.007874c-41.927559-10.885039-76.195276-39.105512-94.337008-79.420472-8.869291-18.948031-10.07874-26.204724-8.466142-56.844095 1.612598-41.12126 9.675591-60.875591 38.299213-90.305512 27.011024-27.414173 51.60315-37.492913 93.933858-37.492913 29.429921 0 37.492913 1.612598 57.247244 11.288189 79.017323 38.702362 100.787402 144.327559 43.137008 210.040945-30.23622 33.864567-87.886614 53.215748-129.814173 42.733858zM776.062992 639.798425c-37.089764-12.497638-66.519685-38.299213-83.048819-73.373228-9.675591-20.15748-11.691339-29.429921-11.691338-56.440945 0-27.414173 1.612598-35.880315 11.691338-56.440945 39.508661-82.24252 145.133858-102.4 213.266142-40.314961 37.089764 33.058268 51.2 95.949606 33.058268 143.92441-10.885039 29.833071-38.702362 60.472441-66.922835 74.179527-26.607874 12.900787-70.551181 16.932283-96.352756 8.466142zM955.464567 345.902362c-12.094488-11.288189-18.141732-18.544882-13.303937-16.125984 6.853543 4.031496 10.07874 3.628346 14.916535-1.612598 3.628346-3.225197 6.450394-5.644094 6.450394-4.837796s3.628346 10.885039 8.062992 22.576378c4.434646 11.288189 7.659843 20.96378 6.853543 20.96378-0.40315-0.40315-10.885039-9.675591-22.979527-20.96378z" fill="#282C2E" p-id="68523"></path></svg>