<?xml version="1.0" standalone="no"?><!DOCTYPE svg PUBLIC "-//W3C//DTD SVG 1.1//EN" "http://www.w3.org/Graphics/SVG/1.1/DTD/svg11.dtd"><svg t="1703509297713" class="icon" viewBox="0 0 1024 1024" version="1.1" xmlns="http://www.w3.org/2000/svg" p-id="6739" xmlns:xlink="http://www.w3.org/1999/xlink" width="48" height="48"><path d="M145.359987 1023.993217V0h318.013397c208.370713 0 359.68754 67.968542 359.68754 251.533218 0 98.728028-52.588799 191.502607-145.859499 222.262093v6.945691c117.084496 23.317675 201.425022 104.185356 201.425022 243.099165 0 202.913385-163.719846 300.153051-391.439267 300.15305zM444.024675 427.656082c155.781914 0 220.773731-58.046127 220.773731-153.797431 0-105.673719-71.937508-147.347861-216.804765-147.347861H306.599229v301.145292z m24.806037 469.826345c159.75088 0 251.533218-57.053886 251.533218-182.076313 0-114.107771-88.805613-165.208208-251.533218-165.208208H306.599229v347.284521z" fill="#5C5C5C" p-id="6740"></path></svg>