<?xml version="1.0" standalone="no"?><!DOCTYPE svg PUBLIC "-//W3C//DTD SVG 1.1//EN" "http://www.w3.org/Graphics/SVG/1.1/DTD/svg11.dtd"><svg t="1703166137664" class="icon" viewBox="0 0 1026 1024" version="1.1" xmlns="http://www.w3.org/2000/svg" p-id="9018" data-spm-anchor-id="a313x.search_index.0.i3.3d7f7615NQX7nF" xmlns:xlink="http://www.w3.org/1999/xlink" width="48.09375" height="48"><path d="M797.314987 881.92H228.56832a227.413333 227.413333 0 0 1-52.906667-448.853333 341.333333 341.333333 0 0 1 674.986667 0 227.413333 227.413333 0 0 1-53.333333 448.853333zM726.48832 654.506667a42.666667 42.666667 0 1 0 42.666667 42.666666 42.666667 42.666667 0 0 0-42.666667-42.666666z m-512-85.333334v85.333334h85.333333v85.333333h85.333334v-85.333333h85.333333v-85.333334H385.154987v-85.333333H299.821653v85.333333z m597.333333 0a42.666667 42.666667 0 1 0 42.666667 42.666667 42.666667 42.666667 0 0 0-42.666667-42.666667z m-170.666666 0a42.666667 42.666667 0 1 0 42.666666 42.666667 42.666667 42.666667 0 0 0-42.666666-42.666667z m85.333333-85.333333a42.666667 42.666667 0 1 0 42.666667 42.666667 42.666667 42.666667 0 0 0-42.666667-42.666667z" p-id="9019" fill="#36ab60"></path></svg>