<?xml version="1.0" standalone="no"?><!DOCTYPE svg PUBLIC "-//W3C//DTD SVG 1.1//EN" "http://www.w3.org/Graphics/SVG/1.1/DTD/svg11.dtd"><svg t="1703333148382" class="icon" viewBox="0 0 1024 1024" version="1.1" xmlns="http://www.w3.org/2000/svg" p-id="35728" xmlns:xlink="http://www.w3.org/1999/xlink" width="48" height="48"><path d="M816 512v96h-192v-96a31.978 31.978 0 0 0 32-32v-32h128v32a31.958 31.958 0 0 0 32 32z" fill="#FDC8A2" p-id="35729"></path><path d="M786.54 492.48a152.212 152.212 0 0 1-136.62 6.3A31.918 31.918 0 0 0 656 480v-32h128v32a31.702 31.702 0 0 0 2.54 12.48z" fill="#FDBF92" p-id="35730"></path><path d="M487.862 572.346L448 672h128v240h288V672h112v-64a96 96 0 0 0-96-96h-64l-17.948 23.93A100.174 100.174 0 0 1 717.912 576a100.176 100.176 0 0 1-89.6-55.376L624 512h-47a96 96 0 0 0-89.138 60.346z" fill="#DE5540" p-id="35731"></path><path d="M480 912h-128l96-240h128z" fill="#FDC8A2" p-id="35732"></path><path d="M864 352h-32v-96h32a48 48 0 0 1 48 48 48 48 0 0 1-48 48zM560 256h32v96h-32a48 48 0 0 1-48-48 48 48 0 0 1 48-48z" fill="#FDB683" p-id="35733"></path><path d="M656 128h112a96 96 0 0 1 96 96v104a152 152 0 0 1-152 152 152 152 0 0 1-152-152v-104a96 96 0 0 1 96-96z" fill="#FDC8A2" p-id="35734"></path><path d="M864 256l-35.284-11.762A88.8 88.8 0 0 1 768 160V80a96 96 0 0 1 96 96z" fill="#7D4A38" p-id="35735"></path><path d="M768 80v80a380.534 380.534 0 0 1-100.96 47.66 381 381 0 0 1-110.42 16.34H528V176a128 128 0 0 1 128-128h60.22A57.878 57.878 0 0 1 768 80zM640 320a32 32 0 1 1 32-32 32.038 32.038 0 0 1-32 32zM768 320a32 32 0 1 1 32-32 32.038 32.038 0 0 1-32 32z" fill="#844E3A" p-id="35736"></path><path d="M704 384.042a103.914 103.914 0 0 1-56.726-16.816l17.452-26.822a72.052 72.052 0 0 0 78.548 0l17.452 26.822A103.914 103.914 0 0 1 704 384.042z" fill="#FCB079" p-id="35737"></path><path d="M48 912h928v64H48z" fill="#844E3A" p-id="35738"></path><path d="M48 400m48 0l448 0q48 0 48 48l0 288q0 48-48 48l-448 0q-48 0-48-48l0-288q0-48 48-48Z" fill="#D5D5D3" p-id="35739"></path><path d="M320 784h64l-16-96h-48z" fill="#CECECC" p-id="35740"></path><path d="M224 848h192v64h-192z" fill="#D5D5D3" p-id="35741"></path><path d="M320 912H160l96-224h112z" fill="#DFDFDD" p-id="35742"></path><path d="M480 848h192v64h-192z" fill="#D5D5D3" p-id="35743"></path><path d="M864 672v128H656a64 64 0 0 0-64 64v32a16 16 0 0 0 16 16h256a112 112 0 0 0 112-112v-128z" fill="#FDC8A2" p-id="35744"></path><path d="M880 496h-64a15.962 15.962 0 0 1-16-16v-8.968a168.538 168.538 0 0 0 75.386-104.056A64 64 0 0 0 880 242.026V176a112.13 112.13 0 0 0-102.63-111.578A73.4 73.4 0 0 0 716.222 32H656a144.162 144.162 0 0 0-144 144v48a16 16 0 0 0 16 16h16v2.018a64 64 0 0 0 4.548 124.936q0.624 2.634 1.332 5.246l30.878-8.4A136.348 136.348 0 0 1 576 328v-88.484a395.368 395.368 0 0 0 179.44-52.886 104.634 104.634 0 0 0 68.216 72.786L848 267.532V328a136.012 136.012 0 0 1-214.726 110.908l-18.548 26.076A168.384 168.384 0 0 0 640 479.81V480a16.018 16.018 0 0 1-16 16h-16v-48a64.072 64.072 0 0 0-64-64H96a64.072 64.072 0 0 0-64 64v48h32v-48a32.038 32.038 0 0 1 32-32h448a32.038 32.038 0 0 1 32 32v288a32.038 32.038 0 0 1-32 32h-176.78l16.424-76.648A16 16 0 0 0 368 672h-112a16 16 0 0 0-14.706 9.698L204.308 768H96a32.038 32.038 0 0 1-32-32V528H32v208a64.072 64.072 0 0 0 64 64h94.6l-41.15 96H48a16 16 0 0 0-16 16v64a16 16 0 0 0 16 16h928a16 16 0 0 0 16-16v-64a16 16 0 0 0-16-16h-27.472A127.7 127.7 0 0 0 992 800v-16h-32v16a96.11 96.11 0 0 1-96 96H608v-32a48.056 48.056 0 0 1 48-48h208a16 16 0 0 0 16-16v-112h80v64h32v-144a112.128 112.128 0 0 0-112-112z m0-168v-51.67a31.956 31.956 0 0 1 6.64 50.284 32.4 32.4 0 0 1-6.734 5.122c0.026-1.246 0.094-2.484 0.094-3.736z m-352-24a31.846 31.846 0 0 1 9.36-22.614 32.318 32.318 0 0 1 6.64-5.064V328c0 1.238 0.034 2.472 0.062 3.708A32 32 0 0 1 528 304z m224-152.68A363.866 363.866 0 0 1 556.622 208H544v-17.822c136.966-17.938 185.26-64.812 187.314-66.864l-22.526-22.728c-0.116 0.112-11.754 11.178-39.844 23.97-23.63 10.762-63.544 24.748-123.422 33.124a111.136 111.136 0 0 1 9.38-29.84c59.86-1.69 90.89-16.848 92.254-17.53l-14.224-28.664c-0.228 0.112-18.14 8.584-53.22 12.458A111.568 111.568 0 0 1 656 64h60.222A41.632 41.632 0 0 1 752 84.096z m81.776 77.74A72.702 72.702 0 0 1 784 160V97.6A80.142 80.142 0 0 1 848 176v57.8z m-163.034 261.818a168.138 168.138 0 0 0 97.67-4.65 47.776 47.776 0 0 0 13.654 27.744 48.43 48.43 0 0 0 7.75 6.274l-4.56 6.078a84.062 84.062 0 0 1-137.77-4.486 48.158 48.158 0 0 0 23.256-30.96zM576 864v32h-80v-32z m-33.968-64H544a63.88 63.88 0 0 0 16-2.026V832h-30.768z m-128 0h93.536l-12.8 32H480a16 16 0 0 0-16 16v48h-32v-48a16 16 0 0 0-16-16h-14.768z m-53.67 0h19.2l-12.8 32h-13.262zM400 864v32h-60.2l6.856-32z m-133.45-160H348.2l-41.142 192h-122.8zM960 928v32H64v-32z m0-272h-80v-48h-32v176h-192a79.928 79.928 0 0 0-64 32.056v-37.8A63.72 63.72 0 0 0 608 736V528h6.122a116.166 116.166 0 0 0 196.738 17.52L824 528h56a80.09 80.09 0 0 1 80 80z m-177.234-46.4l13.95 28.8A176 176 0 0 1 632 632.42l16-27.712a144 144 0 0 0 134.768 4.892zM672 288a32 32 0 1 1-32-32 32.038 32.038 0 0 1 32 32z m64 0a32 32 0 1 1 32 32 32.038 32.038 0 0 1-32-32z m7.274 52.4l17.452 26.822a104.086 104.086 0 0 1-113.452 0l17.452-26.822a72.052 72.052 0 0 0 78.548 0zM256 496H192v-32h64z m96-32v32h-64v-32z m96 0v32h-64v-32z m96 32h-64v-32h64zM160 464v32H96v-32z" p-id="35745"></path></svg>