<?xml version="1.0" standalone="no"?><!DOCTYPE svg PUBLIC "-//W3C//DTD SVG 1.1//EN" "http://www.w3.org/Graphics/SVG/1.1/DTD/svg11.dtd"><svg t="1703041014788" class="icon" viewBox="0 0 1024 1024" version="1.1" xmlns="http://www.w3.org/2000/svg" p-id="11189" xmlns:xlink="http://www.w3.org/1999/xlink" width="48" height="48"><path d="M512 512m-512 0a512 512 0 1 0 1024 0 512 512 0 1 0-1024 0Z" fill="#2254F4" p-id="11190"></path><path d="M600.615385 342.646154l-13.784616-37.415385h-47.261538l13.784615 37.415385h-106.338461v-23.630769l-135.876923 21.661538v37.415385l57.107692-9.846154v59.076923h-57.107692v37.415385h47.261538L295.384615 667.569231h37.415385l35.446154-108.307693v159.507693h39.384615V464.738462h39.384616v-37.415385h-39.384616v-64.984615l39.384616-5.907693v25.6H728.615385v-39.384615z" fill="#FFFFFF" p-id="11191"></path><path d="M661.661538 415.507692h-145.723076v82.707693h-68.923077v220.553846h39.384615v-181.169231h27.569231v135.876923h145.723077v-135.876923H689.230769v181.169231h39.384616V496.246154h-68.923077v-80.738462z m-39.384615 214.646154l-70.892308 1.969231v-94.523077h70.892308V630.153846z m0-133.907692H551.384615V452.923077h70.892308v43.323077z" fill="#FFFFFF" p-id="11192"></path></svg>