<?xml version="1.0" standalone="no"?><!DOCTYPE svg PUBLIC "-//W3C//DTD SVG 1.1//EN" "http://www.w3.org/Graphics/SVG/1.1/DTD/svg11.dtd"><svg t="1702996279681" class="icon" viewBox="0 0 1024 1024" version="1.1" xmlns="http://www.w3.org/2000/svg" p-id="22428" xmlns:xlink="http://www.w3.org/1999/xlink" width="48" height="48"><path d="M896 854.016V298.016C896 274.016 877.984 256 853.984 256h-376l50.016 172h82.016V384h46.016v44h154.016v44h-54.016c-14.016 54.016-44 106.016-82.016 150.016l116 114.016-30.016 32-116-114.016-38.016 38.016L640 810.048l-86.016 86.016h300c24 0 42.016-18.016 42.016-42.016z m-300-336a373.44 373.44 0 0 0 48 72c52-62.016 66.016-118.016 66.016-118.016h-170.016l14.016 46.016h42.016z m-32 32l26.016 94.016 24-22.016a358.24 358.24 0 0 1-50.016-72z m-89.984-98.016c0-9.856-0.288-22.56-4-30.016h-168v66.016h94.016c-6.016 26.016-32 64-90.016 64-56 0-102.016-48-102.016-104s46.016-104 102.016-104c32 0 52 14.016 64 26.016l4 2.016 52-50.016-4-2.016a166.656 166.656 0 0 0-116-46.016c-96 0-174.016 78.016-174.016 174.016s78.016 174.016 174.016 174.016c98.016 0 168-70.016 168-170.016z m380-237.984a84.48 84.48 0 0 1 84 84v556a84.48 84.48 0 0 1-84 84H512l-42.016-128H169.984a84.48 84.48 0 0 1-84-84V170.016a84.48 84.48 0 0 1 84-84h256l38.016 128h390.016z" p-id="22429" data-spm-anchor-id="a313x.search_index.0.i8.ee927615WwBjfd" class="selected" fill="#1296db"></path></svg>