<?xml version="1.0" standalone="no"?><!DOCTYPE svg PUBLIC "-//W3C//DTD SVG 1.1//EN" "http://www.w3.org/Graphics/SVG/1.1/DTD/svg11.dtd"><svg t="1703031597291" class="icon" viewBox="0 0 1024 1024" version="1.1" xmlns="http://www.w3.org/2000/svg" p-id="33141" xmlns:xlink="http://www.w3.org/1999/xlink" width="48" height="48"><path d="M540.5 558.5l171.5-294-75 0q-10.5 19.5-31.75 59.25t-34 64.25-29.75 59.25-30 64.25l-1.5 0q-10.5-24-22.25-48.5t-26-52.75-23.25-46-27-52.25-24.5-47.5l-75 0 161.5 294.5 0 217.5 67 0 0-218zm355.5-286.5l0 480q0 59.5-42.25 101.75t-101.75 42.25l-480 0q-59.5 0-101.75-42.25t-42.25-101.75l0-480q0-59.5 42.25-101.75t101.75-42.25l480 0q59.5 0 101.75 42.25t42.25 101.75z" p-id="33142" class="selected" fill="#e0620d"></path></svg>