<?xml version="1.0" standalone="no"?><!DOCTYPE svg PUBLIC "-//W3C//DTD SVG 1.1//EN" "http://www.w3.org/Graphics/SVG/1.1/DTD/svg11.dtd"><svg t="1703032129084" class="icon" viewBox="0 0 1026 1024" version="1.1" xmlns="http://www.w3.org/2000/svg" p-id="37325" xmlns:xlink="http://www.w3.org/1999/xlink" width="48.09375" height="48"><path d="M0 506.88c0 281.6 227.84 506.88 506.88 506.88 281.6 0 506.88-227.84 506.88-506.88S785.92 0 506.88 0C225.28 0 0 227.84 0 506.88z" fill="#C01D2F" p-id="37326"></path><path d="M384 220.16c-5.12 7.68-17.92 28.16-17.92 28.16h56.32l5.12-7.68h99.84l23.04-25.6h-107.52V204.8H360.96s33.28 2.56 23.04 15.36z m125.44 35.84l-28.16 28.16h-158.72l-102.4 199.68H115.2s61.44-2.56 74.24-35.84c12.8-33.28 61.44-133.12 64-143.36 2.56-5.12 7.68-15.36 5.12-23.04-2.56-12.8-28.16-20.48-51.2-25.6h302.08z" fill="#FFFFFF" p-id="37327"></path><path d="M340.48 304.64h-17.92l-12.8 30.72h12.8l-25.6 43.52h143.36l25.6-23.04H360.96l10.24-20.48H488.96l30.72-30.72H386.56l5.12-10.24h-46.08l-5.12 10.24z m-46.08 87.04l-38.4 71.68s-7.68 15.36-25.6 17.92v5.12h69.12l28.16-66.56h79.36l-10.24 40.96s0 15.36-28.16 20.48v2.56h112.64l33.28-33.28h-66.56l17.92-61.44-171.52 2.56z m312.32-17.92L496.64 486.4h74.24l35.84-112.64z" fill="#FFFFFF" p-id="37328"></path><path d="M647.68 256l20.48-51.2h-84.48v2.56c35.84 0 30.72 12.8 28.16 20.48-2.56 2.56-7.68 17.92-10.24 28.16h-79.36l-40.96 43.52h104.96l-20.48 48.64-87.04 92.16h51.2l89.6-89.6 12.8-48.64 46.08-46.08h-30.72z m30.72-51.2h76.8l-74.24 71.68 20.48-56.32s5.12-12.8-23.04-12.8V204.8z m69.12 20.48l-74.24 74.24-74.24 217.6 79.36-79.36 69.12-212.48z m-7.68 66.56l-28.16 87.04h79.36l-51.2-87.04z m-386.56 248.32h64l-140.8 120.32-25.6-38.4 102.4-81.92z m-30.72 104.96l66.56-51.2-66.56 194.56-58.88 23.04 58.88-166.4z m97.28-87.04l-23.04 25.6h174.08l25.6-25.6h-176.64z m69.12-33.28h40.96l-10.24 30.72h-38.4l7.68-30.72z m-71.68 66.56H463.36l-87.04 199.68h-46.08l87.04-199.68z m38.4 204.8l-51.2 15.36 7.68-20.48h-28.16l12.8-35.84h30.72l43.52-163.84H514.56l-43.52 161.28h23.04l-20.48 35.84h-17.92m64-197.12h38.4l-12.8 156.16-43.52 43.52 17.92-199.68z m23.04 171.52l-23.04 28.16h23.04v-28.16z m71.68-207.36L583.68 588.8h38.4l33.28-33.28h-40.96z m56.32 0h46.08L642.56 640h-35.84l7.68-25.6 56.32-58.88z m74.24-30.72h40.96v30.72H898.56l-23.04 35.84h-174.08l30.72-38.4 12.8-28.16z m-64 87.04l-23.04 28.16h148.48l10.24-15.36h5.12v12.8h43.52v-43.52H821.76v15.36h-140.8z m-53.76 51.2h-33.28l-10.24 43.52 43.52-43.52z m12.8 0l-58.88 64-20.48 84.48 51.2-20.48 5.12-23.04h122.88l20.48-23.04h-94.72V742.4l99.84-23.04 7.68-12.8h-133.12l2.56-20.48h161.28L770.56 780.8h-97.28l-7.68 28.16h107.52l51.2-33.28 30.72-115.2-215.04 2.56z m10.24 56.32v5.12l-25.6 5.12 5.12-10.24h20.48z" fill="#FFFFFF" p-id="37329"></path></svg>