<?xml version="1.0" encoding="UTF-8" standalone="no"?>
<!-- Created with Inkscape (http://www.inkscape.org/) -->

<svg
   width="840"
   height="580"
   viewBox="0 0 222.25 153.45833"
   version="1.1"
   id="svg5"
   inkscape:version="1.2.2 (732a01da63, 2022-12-09)"
   sodipodi:docname="logo_v21.svg"
   xmlns:inkscape="http://www.inkscape.org/namespaces/inkscape"
   xmlns:sodipodi="http://sodipodi.sourceforge.net/DTD/sodipodi-0.dtd"
   xmlns="http://www.w3.org/2000/svg"
   xmlns:svg="http://www.w3.org/2000/svg">
  <sodipodi:namedview
     id="namedview7"
     pagecolor="#ffffff"
     bordercolor="#111111"
     borderopacity="1"
     inkscape:showpageshadow="0"
     inkscape:pageopacity="0"
     inkscape:pagecheckerboard="1"
     inkscape:deskcolor="#d1d1d1"
     inkscape:document-units="px"
     showgrid="false"
     inkscape:zoom="0.57245266"
     inkscape:cx="560.74506"
     inkscape:cy="546.7701"
     inkscape:window-width="1904"
     inkscape:window-height="993"
     inkscape:window-x="81"
     inkscape:window-y="33"
     inkscape:window-maximized="0"
     inkscape:current-layer="layer1" />
  <defs
     id="defs2" />
  <g
     inkscape:label="Layer 1"
     inkscape:groupmode="layer"
     id="layer1"
     transform="translate(-1.0583333)"
     style="display:inline;fill:#2265c8;fill-opacity:1">
    <rect
       style="fill:#2265c8;fill-opacity:1;stroke-width:0.269091"
       id="rect643"
       width="236.64256"
       height="166.2579"
       x="-15.379675"
       y="-19.873188"
       ry="14.133088" />
  </g>
  <g
     inkscape:groupmode="layer"
     id="layer3"
     inkscape:label="Layer 3">
    <g
       aria-label="archive"
       id="text589"
       style="font-size:52.7814px;font-family:Rubik;-inkscape-font-specification:'Rubik, Normal';fill:#ffffff;stroke-width:0.171765"
       transform="translate(1.0583333,-1.5875)">
      <path
         d="m 39.3603,111.53224 v -0.68615 q 0,-2.58629 -1.741786,-3.95861 -1.689005,-1.4251 -4.433637,-1.4251 -2.111256,0 -3.325228,0.73894 -1.161191,0.68616 -2.216819,2.11126 -0.316689,0.42225 -0.686158,0.58059 -0.36947,0.15835 -1.002847,0.15835 h -1.583442 q -0.580595,0 -1.055628,-0.42225 -0.422251,-0.42225 -0.36947,-1.00285 0.158345,-1.58344 1.530661,-3.1141 1.425098,-1.58344 3.747479,-2.58629 2.322382,-1.00285 4.961452,-1.00285 4.90867,0 7.917209,2.74463 3.061322,2.74464 3.061322,7.70609 v 16.09833 q 0,0.58059 -0.422252,1.00284 -0.422251,0.42225 -1.002846,0.42225 h -1.952912 q -0.580595,0 -1.002846,-0.42225 -0.422252,-0.42225 -0.422252,-1.00284 v -2.16404 q -0.844502,1.90013 -3.589135,3.00854 -2.744633,1.10841 -5.489265,1.10841 -2.691852,0 -4.803108,-0.95007 -2.111256,-1.00284 -3.272446,-2.69185 -1.10841,-1.689 -1.10841,-3.80026 0,-3.9586 2.955759,-6.17542 2.955758,-2.2696 7.864428,-3.06132 z m 0,4.22252 -6.228205,1.00284 q -3.430791,0.52782 -5.330921,1.74179 -1.90013,1.16119 -1.90013,2.95576 0,1.31953 1.213972,2.37516 1.213972,1.05563 3.694698,1.05563 3.80026,0 6.175423,-2.16404 2.375163,-2.16404 2.375163,-5.64761 z"
         id="path3296" />
      <path
         d="m 65.803756,101.451 q 0.580596,0 1.002847,0.42225 0.422251,0.42225 0.422251,1.00284 v 1.68901 q 0,0.58059 -0.422251,1.00285 -0.422251,0.42225 -1.002847,0.42225 h -3.061321 q -2.955758,0 -4.5392,1.58344 -1.530661,1.53066 -1.530661,4.48642 v 15.41217 q 0,0.58059 -0.422251,1.00284 -0.422251,0.42225 -1.002847,0.42225 h -1.952911 q -0.580596,0 -1.002847,-0.42225 -0.422251,-0.42225 -0.422251,-1.00284 v -24.59614 q 0,-0.58059 0.422251,-1.00284 0.422251,-0.42225 1.002847,-0.42225 h 1.952911 q 0.580596,0 1.002847,0.42225 0.422251,0.42225 0.422251,1.00284 v 1.63623 q 1.055628,-1.58344 2.533507,-2.32238 1.477879,-0.73894 3.853042,-0.73894 z"
         id="path3298" />
      <path
         d="m 82.904942,124.88594 q 5.27814,0 7.125489,-4.11695 0.36947,-0.79172 0.73894,-1.10841 0.36947,-0.31669 1.002846,-0.31669 h 1.583442 q 0.580596,0 1.002847,0.42225 0.422251,0.36947 0.422251,0.89729 0,1.79456 -1.425098,3.85304 -1.425098,2.05847 -4.116949,3.48357 -2.691851,1.4251 -6.333768,1.4251 -3.747479,0 -6.492112,-1.58344 -2.744632,-1.58345 -4.222512,-4.32808 -1.477879,-2.79741 -1.636223,-6.2282 -0.05278,-0.63338 -0.05278,-2.42795 0,-1.26675 0.05278,-1.79457 0.475033,-5.3837 3.641917,-8.76171 3.166883,-3.37801 8.70893,-3.37801 3.641917,0 6.280987,1.4251 2.691851,1.37232 4.064167,3.43079 1.425098,2.00569 1.530661,3.80026 0.05278,0.5806 -0.422251,1.00285 -0.422251,0.42225 -1.002847,0.42225 h -1.583442 q -0.633376,0 -1.002846,-0.31669 -0.36947,-0.31669 -0.73894,-1.10841 -1.847349,-4.11695 -7.125489,-4.11695 -2.902977,0 -5.067014,1.95291 -2.164037,1.95292 -2.480726,5.91152 -0.05278,0.5806 -0.05278,1.90013 0,1.21397 0.05278,1.79457 0.36947,3.9586 2.480726,5.91152 2.164037,1.95291 5.067014,1.95291 z"
         id="path3300" />
      <path
         d="m 125.49954,127.47223 q 0,0.58059 -0.42225,1.00284 -0.42225,0.42225 -1.00284,0.42225 h -1.95292 q -0.58059,0 -1.00284,-0.42225 -0.42225,-0.42225 -0.42225,-1.00284 v -13.93429 q 0,-3.95861 -1.95291,-6.01708 -1.95292,-2.05848 -5.43649,-2.05848 -3.43079,0 -5.43648,2.05848 -1.95291,2.05847 -1.95291,6.01708 v 13.93429 q 0,0.58059 -0.42226,1.00284 -0.42225,0.42225 -1.00284,0.42225 h -1.95291 q -0.5806,0 -1.00285,-0.42225 -0.42225,-0.42225 -0.42225,-1.00284 V 92.847628 q 0,-0.580595 0.42225,-1.002846 0.42225,-0.422252 1.00285,-0.422252 h 1.95291 q 0.58059,0 1.00284,0.422252 0.42226,0.422251 0.42226,1.002846 v 11.664692 q 1.16119,-1.53066 3.16688,-2.53351 2.05847,-1.05563 5.01423,-1.05563 3.32523,0 5.91152,1.4251 2.58629,1.4251 4.01139,4.11695 1.47787,2.63907 1.47787,6.28099 z"
         id="path3302" />
      <path
         d="m 138.48379,95.856168 q 0,0.580595 -0.42225,1.002847 -0.42225,0.422251 -1.00285,0.422251 h -3.00854 q -0.58059,0 -1.00284,-0.422251 -0.42226,-0.422252 -0.42226,-1.002847 v -3.00854 q 0,-0.580595 0.42226,-1.002846 0.42225,-0.422252 1.00284,-0.422252 h 3.00854 q 0.5806,0 1.00285,0.422252 0.42225,0.422251 0.42225,1.002846 z m -0.52781,31.616062 q 0,0.58059 -0.42226,1.00284 -0.42225,0.42225 -1.00284,0.42225 h -1.95291 q -0.5806,0 -1.00285,-0.42225 -0.42225,-0.42225 -0.42225,-1.00284 v -24.59614 q 0,-0.58059 0.42225,-1.00284 0.42225,-0.42225 1.00285,-0.42225 h 1.95291 q 0.58059,0 1.00284,0.42225 0.42226,0.42225 0.42226,1.00284 z"
         id="path3304" />
      <path
         d="m 157.69618,128.89732 q 1.05563,0 1.58344,-1.31953 l 10.5035,-24.49057 q 0.0528,-0.15834 0.0528,-0.36947 0,-0.52781 -0.36947,-0.89728 -0.36947,-0.36947 -0.89728,-0.36947 h -2.16404 q -1.05563,0 -1.53066,1.26675 l -8.18112,19.15965 -8.18112,-19.15965 Q 148.0372,101.451 146.77045,101.451 h -1.95291 q -0.52782,0 -0.89729,0.36947 -0.36947,0.36947 -0.36947,0.89728 0,0.21113 0.0528,0.36947 l 10.5035,24.49057 q 0.52782,1.31953 1.63623,1.31953 z"
         id="path3306" />
      <path
         d="m 186.25089,100.92318 q 5.64761,0 8.92005,3.58914 3.27245,3.58913 3.27245,9.76456 v 1.42509 q 0,0.5806 -0.42225,1.00285 -0.42225,0.42225 -1.00285,0.42225 h -18.1568 v 0.31669 q 0.10556,3.48357 2.11126,5.48927 2.05847,1.95291 5.27814,1.95291 2.63907,0 4.06416,-0.68616 1.47788,-0.68616 2.63907,-1.95291 0.42226,-0.42225 0.73894,-0.5806 0.36947,-0.15834 0.95007,-0.15834 h 1.58344 q 0.63338,0 1.05563,0.42225 0.42225,0.42225 0.36947,1.00285 -0.21113,1.42509 -1.58344,2.95575 -1.31954,1.47788 -3.85304,2.53351 -2.48073,1.00285 -5.9643,1.00285 -3.37801,0 -6.01708,-1.53066 -2.63907,-1.58344 -4.22251,-4.32808 -1.53066,-2.74463 -1.84735,-6.17542 -0.10557,-1.58344 -0.10557,-2.42795 0,-0.8445 0.10557,-2.42794 0.31669,-3.27245 1.84735,-5.91152 1.58344,-2.63907 4.16973,-4.16973 2.63907,-1.53066 6.06986,-1.53066 z m 7.44217,11.77025 v -0.15834 q 0,-3.21967 -2.05847,-5.1198 -2.00569,-1.95291 -5.3837,-1.95291 -3.06132,0 -5.22536,1.95291 -2.11126,1.95292 -2.16404,5.1198 v 0.15834 z"
         id="path3308" />
    </g>
    <g
       aria-label="icon"
       transform="matrix(1.0124606,0,0,0.98769276,1.0583333,-1.0583333)"
       id="text427"
       style="font-weight:600;font-size:108.696px;font-family:'Antipasto Pro';-inkscape-font-specification:'Antipasto Pro, Semi-Bold';fill:#ffffff;stroke-width:0.353722">
      <path
         d="m 20.838288,21.632369 q 0,1.250004 0.489132,2.336964 0.489132,1.08696 1.304352,1.90218 0.81522,0.81522 1.90218,1.304352 1.08696,0.434784 2.336964,0.434784 1.250004,0 2.336964,-0.434784 1.08696,-0.489132 1.90218,-1.304352 0.81522,-0.81522 1.304352,-1.90218 0.489132,-1.08696 0.489132,-2.336964 0,-1.250004 -0.489132,-2.336964 -0.489132,-1.141308 -1.304352,-1.956528 -0.81522,-0.81522 -1.90218,-1.250004 -1.08696,-0.489132 -2.336964,-0.489132 -1.250004,0 -2.336964,0.489132 -1.08696,0.434784 -1.90218,1.250004 -0.81522,0.81522 -1.304352,1.956528 -0.489132,1.08696 -0.489132,2.336964 z m 11.467428,17.11962 q 0,-1.141308 -0.434784,-2.119572 -0.380436,-0.978264 -1.08696,-1.684788 -0.706524,-0.760872 -1.684788,-1.195656 -0.978264,-0.434784 -2.119572,-0.434784 -1.141308,0 -2.119572,0.434784 -0.978264,0.434784 -1.739136,1.195656 -0.760872,0.706524 -1.195656,1.684788 -0.434784,0.978264 -0.434784,2.119572 V 79.1869 q 0,1.141308 0.434784,2.119572 0.434784,0.978264 1.141308,1.739136 0.760872,0.706524 1.739136,1.141308 1.032612,0.380436 2.119572,0.380436 2.282616,0 3.80436,-1.521744 1.576092,-1.576092 1.576092,-3.858708 z"
         id="path3311" />
      <path
         d="m 51.11006,59.186836 -0.05435,0.108696 0.05435,0.05435 q 0,2.771748 1.032612,5.4348 1.08696,2.608704 2.98914,4.728276 1.90218,2.065224 4.456536,3.369576 2.608704,1.250004 5.652192,1.304352 2.771748,0.108696 5.326104,-0.652176 2.554356,-0.760872 5.000016,-2.826096 0.81522,-0.652176 1.739136,-1.250004 0.978264,-0.652176 2.010875,-0.869568 1.08696,-0.27174 2.282616,0 1.250004,0.27174 2.554356,1.413048 0.869568,0.760872 1.304352,1.793484 0.434784,1.032612 0.380436,2.119572 0,1.08696 -0.489132,2.228268 -0.489132,1.08696 -1.467396,2.065224 -3.315228,3.423924 -7.934807,5.217408 -4.61958,1.739136 -9.728292,1.739136 -5.4348,0 -10.217424,-1.956528 -4.728276,-2.010876 -8.315244,-5.4348 -3.53262,-3.478272 -5.597844,-8.1522 -2.065224,-4.728276 -2.065224,-10.108728 v -0.05435 l 0.05435,-0.108696 -0.05435,-0.05435 q 0,-5.434799 2.065224,-10.163075 2.065224,-4.728276 5.597844,-8.260896 3.586968,-3.53262 8.315244,-5.543496 4.782624,-2.065224 10.217424,-2.065224 5.108712,0 9.728292,1.793484 4.619579,1.739136 7.934807,5.16306 0.978264,0.978264 1.467396,2.119572 0.489132,1.08696 0.489132,2.228268 0.05435,1.08696 -0.380436,2.119572 -0.434784,1.032612 -1.304352,1.793484 -1.304352,1.141308 -2.554356,1.413048 -1.195656,0.27174 -2.282616,0 Q 78.28406,49.621589 77.305796,49.023761 76.38188,48.371585 75.56666,47.719409 73.121,45.708533 70.566644,44.947661 68.012288,44.186789 65.24054,44.241137 q -2.98914,0.108696 -5.597844,1.413048 -2.554356,1.250004 -4.456536,3.369576 -1.90218,2.065224 -2.98914,4.728276 -1.08696,2.608704 -1.08696,5.434799 z"
         id="path3313" />
      <path
         d="m 101.43632,59.295532 q 0,-3.152183 1.19566,-5.869583 1.19566,-2.7174 3.20653,-4.728276 2.06523,-2.065224 4.78263,-3.206532 2.77174,-1.195656 5.86958,-1.195656 3.15218,0 5.86958,1.195656 2.77175,1.141308 4.78263,3.206532 2.06522,2.010876 3.20653,4.728276 1.19565,2.7174 1.19565,5.869583 0,3.097836 -1.19565,5.869584 -1.14131,2.7174 -3.20653,4.782624 -2.01088,2.010876 -4.78263,3.206532 -2.7174,1.195656 -5.86958,1.195656 -3.09784,0 -5.86958,-1.195656 -2.7174,-1.195656 -4.78263,-3.206532 -2.01087,-2.065224 -3.20653,-4.782624 -1.19566,-2.771748 -1.19566,-5.869584 z m -10.869597,0 q 0,5.380452 2.010876,10.108728 2.065224,4.673928 5.597844,8.206548 3.532617,3.53262 8.260897,5.597844 4.72828,2.010876 10.05438,2.010876 5.38045,0 10.05438,-2.010876 4.72827,-2.065224 8.20655,-5.597844 3.53262,-3.53262 5.54349,-8.206548 2.06523,-4.728276 2.06523,-10.108728 0,-5.380451 -2.06523,-10.054379 -2.01087,-4.728276 -5.54349,-8.260896 -3.47828,-3.53262 -8.20655,-5.543496 -4.67393,-2.065224 -10.05438,-2.065224 -5.3261,0 -10.05438,2.065224 -4.72828,2.010876 -8.260897,5.543496 -3.53262,3.53262 -5.597844,8.260896 -2.010876,4.673928 -2.010876,10.054379 z"
         id="path3315" />
      <path
         d="m 196.00193,58.480312 v 20.869632 q 0,2.282616 -1.57609,3.80436 -1.52175,1.521744 -3.80436,1.521744 -2.28262,0 -3.85871,-1.521744 -1.52174,-1.521744 -1.52174,-3.80436 V 58.480312 q -0.0543,-3.260879 -0.86957,-5.869583 -0.76087,-2.663052 -2.28262,-4.510884 -1.46739,-1.90218 -3.64131,-2.934792 -2.11958,-1.032612 -4.83698,-1.032612 -2.7174,0 -5.05436,1.08696 -2.33696,1.032612 -4.02175,2.934792 -1.68479,1.90218 -2.66305,4.510884 -0.92392,2.554356 -0.92392,5.543496 V 79.1869 q 0,2.282616 -1.57609,3.858708 -1.52175,1.521744 -3.80436,1.521744 -1.08696,0 -2.11957,-0.380436 -0.97827,-0.434784 -1.73914,-1.141308 -0.70652,-0.760872 -1.14131,-1.739136 -0.43478,-0.978264 -0.43478,-2.119572 V 38.751989 q 0,-1.141308 0.43478,-2.119572 0.43479,-0.978264 1.19566,-1.684788 0.76087,-0.760872 1.73913,-1.195656 0.97827,-0.434784 2.11958,-0.434784 1.1413,0 2.11957,0.434784 0.97826,0.434784 1.68479,1.195656 0.70652,0.706524 1.08696,1.684788 0.43478,0.978264 0.43478,2.119572 v 0.760872 q 2.93479,-2.826096 6.46741,-4.456536 3.53262,-1.684788 7.39133,-1.684788 4.72828,0 8.64133,1.90218 3.91306,1.90218 6.68481,5.271756 2.77174,3.315228 4.29349,7.934808 1.57609,4.565232 1.57609,10.000031 z"
         id="path3317" />
    </g>
  </g>
</svg>
