<?xml version="1.0" standalone="no"?><!DOCTYPE svg PUBLIC "-//W3C//DTD SVG 1.1//EN" "http://www.w3.org/Graphics/SVG/1.1/DTD/svg11.dtd"><svg t="1703041545870" class="icon" viewBox="0 0 1024 1024" version="1.1" xmlns="http://www.w3.org/2000/svg" p-id="23013" xmlns:xlink="http://www.w3.org/1999/xlink" width="48" height="48"><path d="M452.608 38.5024C250.112 70.1952 90.3168 221.44 48.384 421.7856c-46.6944 221.696 83.8656 452.1472 303.7696 536.064 64.8704 24.5248 181.1456 33.28 256.3072 18.9952 171.6224-33.28 321.9456-176.5888 366.2336-349.184 19.7632-76.032 13.4656-198.7584-14.2336-276.3776-49.0496-137.7792-166.0928-251.0336-304.5376-293.7856-50.6368-15.8208-158.208-25.2928-203.3152-18.9952z m75.1616 149.7088c27.6992 54.6304 27.6992 55.4496 27.6992 160.768 0 95.7952 1.5872 106.9056 15.0528 117.1968 19.7632 14.2336 24.5248 14.2336 40.3456-1.5872 8.704-8.704 11.0592-19.8144 7.8848-34.8672-14.2336-65.7408 45.1072 1.5872 71.168 79.9744 15.0528 45.1584 17.408 133.0176 4.7616 178.944-4.7616 17.408-23.7056 54.6304-41.1136 81.5616-37.1712 54.6304-124.9792 130.6624-136.8576 118.784-5.5296-5.5296 1.5872-18.2272 20.5824-37.9904 41.8816-43.5712 56.1152-77.6192 56.8832-133.8368 0.768-55.4496-8.704-72.0384-33.2288-58.5728-38.7584 20.5824-104.3968 3.9424-127.3344-33.28-5.5296-8.704-10.2912-37.2224-9.472-63.3344 0.768-46.6944 0-46.6944-15.0528-33.28-22.9376 20.5824-47.4624 94.208-47.4624 142.5408 0 33.28 6.3488 53.8624 27.6992 95.7952 30.8736 59.392 30.8736 58.5728 18.9952 58.5728-15.8208 0.0512-56.1664-51.456-81.4592-102.912-22.1696-45.9264-24.5248-58.5728-24.5248-122.7264 0.768-86.3232 14.2336-121.1392 94.9248-233.5744 70.4-98.9696 83.0464-126.72 83.0464-188.4672 0-64.9728 11.0592-62.5664 47.4624 10.2912z" fill="#FF0000" p-id="23014"></path></svg>