<?xml version="1.0" standalone="no"?><!DOCTYPE svg PUBLIC "-//W3C//DTD SVG 1.1//EN" "http://www.w3.org/Graphics/SVG/1.1/DTD/svg11.dtd"><svg t="1703600255993" class="icon" viewBox="0 0 1024 1024" version="1.1" xmlns="http://www.w3.org/2000/svg" p-id="17949" xmlns:xlink="http://www.w3.org/1999/xlink" width="48" height="48"><path d="M32 16m170 0l620 0q170 0 170 170l0 596q0 170-170 170l-620 0q-170 0-170-170l0-596q0-170 170-170Z" fill="#49021F" p-id="17950"></path><path d="M380.632 260.864v410.228q0 6.448-5.796 6.44H296.912q-5.16 0-5.152-6.44V260.864q0-5.148 5.8-5.152h77.92a4.56 4.56 0 0 1 5.152 5.152zM611.184 683.972a199.528 199.528 0 0 1-85.972-18.032 136.688 136.688 0 0 1-60.212-54.416q-21.904-36.376-21.9-91.128a168.164 168.164 0 0 1 21.9-84.36 160.748 160.748 0 0 1 63.756-61.828q41.852-23.184 101.104-23.184 3.216 0 8.372 0.32 5.148 0.336 12.24 0.968V225.444c0-3 1.284-4.508 3.864-4.508h81.14a3.416 3.416 0 0 1 3.864 3.864v380.604q0 10.96 0.968 23.828 0.964 12.892 1.612 23.184a6.656 6.656 0 0 1-3.868 6.44 319.44 319.44 0 0 1-65.04 19.32 349.2 349.2 0 0 1-61.828 5.8z m39.284-79.856v-175.812a63.88 63.88 0 0 0-10.624-1.932 128.44 128.44 0 0 0-13.2-0.64 99.44 99.44 0 0 0-45.08 10.3 88.02 88.02 0 0 0-33.812 29.624q-13.208 19.32-13.2 50.88a113.564 113.564 0 0 0 6.76 41.212 78.352 78.352 0 0 0 18.032 28.336 68.668 68.668 0 0 0 27.048 16.1 105.96 105.96 0 0 0 33.164 5.152q9.012 0 16.744-0.64a68.928 68.928 0 0 0 14.168-2.58z" fill="#FF3366" p-id="17951"></path></svg>