<?xml version="1.0" standalone="no"?><!DOCTYPE svg PUBLIC "-//W3C//DTD SVG 1.1//EN" "http://www.w3.org/Graphics/SVG/1.1/DTD/svg11.dtd"><svg t="1702999104301" class="icon" viewBox="0 0 1024 1024" version="1.1" xmlns="http://www.w3.org/2000/svg" p-id="66474" xmlns:xlink="http://www.w3.org/1999/xlink" width="48" height="48"><path d="M246.208 128h531.584c64.896 0 117.76 52.48 118.208 117.312v533.376A118.272 118.272 0 0 1 777.792 896H246.208c-64.896 0-117.76-52.48-118.208-117.312V245.312A118.272 118.272 0 0 1 246.208 128z" fill="#42BD56" p-id="66475"></path><path d="M519.68 767.36a1217.024 1217.024 0 0 1-261.952-21.696c-42.112-8.576-66.944-39.68-65.664-82.944 0-12.16 4.096-18.496 15.68-18.496h26.88c10.688 0 18.176 3.2 21.888 15.808 4.48 17.6 17.28 25.664 33.024 27.968 39.68 6.72 79.744 12.16 119.808 14.848 63.232 4.48 126.848 4.48 190.464 0a1558.592 1558.592 0 0 0 137.152-15.808c11.968-2.24 21.888-8.064 24.384-21.12 4.16-19.84 16.128-22.144 31.808-22.144 40.512 0.448 41.728 1.792 31.36 43.776-6.528 26.112-19.84 45.056-44.992 53.12-39.232 12.672-80.128 16.768-120.64 20.8-45.824 5.888-92.544 7.68-139.2 5.888z m0.832-574.08c72.32-4.928 151.616 4.544 230.528 18.56 46.72 8.128 68.992 20.736 78.912 81.152 2.432 15.744-3.328 22.528-17.344 22.08-8.704-0.448-18.176-1.792-27.264-1.792-9.92 1.344-19.456-5.888-21.952-16.256a38.208 38.208 0 0 0-32.64-26.112c-93.312-13.568-187.136-22.144-281.344-16.704-54.08 3.2-108.608 11.264-162.752 17.152a32.128 32.128 0 0 0-28.48 22.528c-4.992 17.152-15.36 21.184-29.76 19.84-6.656-0.896-12.8-0.896-19.456-0.896-12.352 0.448-16.896-5.888-16.896-19.392-0.832-36.096 21.44-67.648 54.08-75.776 87.616-21.12 176.832-27.008 274.368-24.32z m-71.04 288.192v84.736c-0.448 9.92-1.664 19.84-3.776 29.312-2.432 12.16-19.84 25.28 4.544 34.304 5.76 2.24 4.16 15.36 2.112 23.872-2.56 7.232-9.088 11.264-15.744 9.472-18.176-1.344-38.4 1.344-49.92-20.736-3.328-6.336-9.152-7.232-15.36-7.232-6.592 0-12.8-0.448-19.392-1.28-59.904-9.536-66.944-18.56-66.944-83.904V384.512c0-29.312 10.368-43.712 35.968-52.736a136.32 136.32 0 0 1 95.36 1.792c21.952 8.128 31.488 23.424 32.256 51.84 1.28 32.448 0.832 64.512 0.832 96z m-65.728-0.448V389.952c0-12.672-2.048-22.592-16.512-22.592-13.632 0-18.176 7.232-18.176 21.184v182.208c0 13.504 3.712 24.768 17.728 24.768 14.08 0 16.576-12.608 16.576-25.216 0.384-29.76 0-59.52 0.384-89.28z m271.424-51.392c8.32-28.416 15.296-50.56 20.672-72.64 4.096-17.088 11.968-23.872 28.48-23.872 49.984 0 43.392 3.2 29.76 44.16-11.968 36.096-21.888 72.64-35.968 107.328-14.016 34.752-9.472 72.128-11.136 108.224-0.384 12.16 4.544 27.968-9.472 33.344-14.464 5.888-31.808 2.304-47.552-1.792-3.712-0.896-4.928-6.272-5.376-10.368v-4.032c12.032-89.728-29.312-165.952-52.48-246.656-7.808-26.624-6.592-29.312 18.624-29.76 5.76 0 11.52 0.448 17.344 0 14.08-1.792 21.504 4.928 25.216 19.84 5.76 23.424 13.248 46.464 21.888 76.16zM832 482.368v120.832c0 16.256-4.16 24.32-21.12 24.832-42.496 0.896-42.496 1.28-42.496-45.568 0-73.92 0.384-148.352 0-222.72 0-20.288 6.592-27.072 24.768-26.624 38.4 0.896 38.4 0 38.4 41.024L832 482.304z m-287.552 0.448c0 41.472-0.384 83.392 0 124.928 0 13.952-4.096 18.88-16.512 19.84-47.488 3.584-47.488 4.032-47.488-47.808V363.776c0-28.416 1.6-30.208 27.264-30.72a49.536 49.536 0 0 0 11.52 0c18.56-2.176 25.216 6.4 24.832 26.688-1.28 40.96-0.448 82.048-0.448 122.624l0.832 0.448z m-292.096 40.576v82.56c0 15.296-5.76 21.12-19.392 21.568-40.512 1.856-40.512 2.304-40.512-42.816 0-46.4 0.448-92.864 0-139.776 0-17.152 5.376-23.872 21.504-23.872 46.272 0 38.848-3.2 38.848 40.576l-0.448 61.76z m0-156.032c0 34.752 0 34.752-28.48 34.752-31.808 0-31.808 0-31.36-35.2 0-33.344 0-33.344 31.36-33.344 28.096 0 28.096 0 28.48 33.792z" fill="#FFFFFF" p-id="66476"></path></svg>