<?xml version="1.0" standalone="no"?><!DOCTYPE svg PUBLIC "-//W3C//DTD SVG 1.1//EN" "http://www.w3.org/Graphics/SVG/1.1/DTD/svg11.dtd"><svg t="1703170637057" class="icon" viewBox="0 0 1024 1024" version="1.1" xmlns="http://www.w3.org/2000/svg" p-id="15836" xmlns:xlink="http://www.w3.org/1999/xlink" width="48" height="48"><path d="M510 832c11.9 17.2 23.8 34.5 36.2 52.5h-15.7c-2.4 0-2.9-2.2-3.9-3.7-10.3-15.3-20.6-30.6-30.8-46-1.7-2.6-3.5-3.7-6.7-3.5-5.7 0.3-11.4 0.3-17.1-0.1-3.3-0.2-4 1-4 4.1 0.1 15 0 30.1 0.1 45.1 0 3.1-0.6 4.1-3.9 4.2-10.5 0.1-10.5 0.2-10.5-10 0-35.4 0.1-70.9-0.1-106.3 0-4.3 1-5.6 5.4-5.5 16.7 0.6 33.5-0.7 50.3 0.8 16.2 1.4 27.2 12.6 28.3 28.9 0.3 5 0.6 10-0.3 15-2.4 13.9-11.2 21.2-24.6 23.6-0.5 0.1-1 0-1.5 0.1-0.3 0.1-0.5 0.4-1.2 0.8z m-41.9-34.6c0 6.7 0.1 13.5 0 20.2 0 2.3 0.5 3.3 3.1 3.3 11.4-0.1 22.8 0.1 34.2-0.2 9.5-0.3 16.4-6.4 17.6-15.7 0.6-4.9 0.6-9.9-0.6-14.9-2-8.5-7.1-13.5-15.6-15-12.2-2.2-24.4-0.5-36.6-1-2.6-0.1-2 1.7-2 3.2-0.1 6.6-0.1 13.4-0.1 20.1z" fill="#0C0909" p-id="15837"></path><path d="M784.7 821.2v52.9c0 2.5 0 4.4-3.2 5.4-13.8 4.6-27.9 6.4-42.3 3.4-13.6-2.8-22-11.2-25.2-24.8-2.2-9.5-3-19.1-0.8-28.7 4.1-17.3 18.1-27.9 37.1-28.3 5.2-0.1 10.4-0.2 15.5 0 3.2 0.2 4.4-0.6 4.3-4.2-0.3-9.8 0.1-19.7-0.2-29.5-0.1-3.5 1.1-4.3 4.3-4.3 10.2 0 10.2-0.1 10.2 9.7 0.3 16.2 0.3 32.3 0.3 48.4z m-14.4 20.1v-24.9-0.5c0.4-2.5-0.4-3.7-3.3-3.6-5.7 0.2-11.4-0.1-17.1 0.2-10 0.4-18 6.2-21 15.6-3.7 11.4-2.9 22.8 1.4 33.9 1.9 5 5.9 8.4 11.1 10.1 8.7 2.8 17.3 2.3 25.9-0.7 2.3-0.8 3.1-2.1 3.1-4.6-0.2-8.5-0.2-17-0.1-25.5z" fill="#0B0808" p-id="15838"></path><path d="M200.5 820.8c15.9 0 31.8 0.1 47.7-0.1 3.8-0.1 3.9 1.5 4.1 4.5 0.2 3.4-1 4-4.1 3.9-11.6-0.2-23.2-0.1-34.8 0-2.1 0-5.2-1.7-5.3 3.1-0.1 5 2.8 4 5.7 4 11.6 0 23.2 0.2 34.8-0.1 3.6-0.1 3.7 1.4 3.8 4.2 0 3-0.4 4.2-3.9 4.2-11.8-0.2-23.5 0-35.3-0.1-3.1 0-5.1-0.1-5 4.2 0.1 3.9 1.4 4.4 4.8 4.4 14.2-0.2 28.4 0 42.5-0.2 3 0 4.3 0.4 4.1 3.9-0.1 3.2-0.7 4.4-4.3 4.4-14.3-0.2-28.7 0-43.1-0.2-3.1 0-4.3 0.7-4 4 1.1 15.9-4 21.7-20.9 20.6-2.1-0.1-4.1 0-6.2 0-2.6 0-4.9 0.6-4.9-3.7 0-4.2 1.9-4.3 5-4.2 13.2 0.4 10.5-0.8 11.1-10.9 0.3-5-1.4-5.9-6-5.8-14.3 0.3-28.7 0-43.1 0.2-3.2 0-4.5-0.5-4.5-4.1 0-3.7 1.4-4 4.5-4 14.9 0.1 29.7 0 44.6 0.1 3.2 0 4.5-0.6 4.5-4.2-0.1-3.3-0.7-4.5-4.2-4.4-11.8 0.2-23.5 0.1-35.3 0.1-3 0-5.6 0.5-5.6-4.3 0-4.5 2.4-3.9 5.2-3.9 11.8 0 23.5 0 35.3 0.1 3 0 4.6-0.2 4.6-4 0-4.2-2.6-3.2-4.8-3.2-11.9 0-23.9-0.2-35.8 0.1-3.4 0.1-4-1.1-3.9-4.2 0.1-2.7 0.1-4.4 3.8-4.3 16.4 0 32.6-0.1 48.9-0.1z" fill="#0F0C0C" p-id="15839"></path><path d="M356.1 779.2c-1.2 4.5-2.1 8.3-3.1 12.1 10.1 0.6 10.1 0.6 10.1 10.8 0 6.4 0.2 12.8-0.7 19.2-0.7 5-2.7 8.5-8.1 9-2.3 0.2-3.6 1-3.5 3.9 0.3 6 0.2 12.1 0.1 18.2-0.1 4.5 1.9 6.8 6.5 6.6 1.6-0.1 3.1 0.1 4.7 0 3-0.3 4.6 0.1 4.6 4 0 3.7-1.5 4.3-4.5 4.1-4.8-0.3-9.7-0.1-14.5-0.5-7.8-0.7-12-5.3-12.2-13.2-0.2-6.2-0.2-12.5 0-18.7 0.1-2.9-0.7-3.8-3.7-3.7-7 0.1-7.1-0.1-7 7.2 0.1 4.7-0.1 9.4-1.2 13.9-2.8 11.6-10.7 16.9-23.8 16.4 0.1-0.5 0-1.1 0.3-1.3 10.6-9.3 9.6-21.8 9.4-34.1-0.1-3-2.4-2.2-3.7-2-5 0.8-5.9-1.5-5.7-6 0.3-9.5 0.3-19 0-28.5-0.1-4.1 1.1-5.6 5.1-4.9 3.9 0.6 5.1-0.4 3.6-4.7-2.6-7.5-2.3-7.6 5.9-7.6 7.7 0 7.7 0 9.4 7.7 0.5 2.4 0.6 5.6 4.4 4.6 3.6-0.9 8.7 3.1 10.4-4 2.1-8.4 2.5-8.3 11.3-8.3 1.6-0.2 3.5-0.2 5.9-0.2z m-24.9 20.6c-4.3 0-8.6 0.1-13 0-2 0-2.7 0.6-2.7 2.7 0.1 5.9 0.1 11.8 0 17.6 0 2 0.7 2.7 2.7 2.7 7.6-0.1 15.2 0 22.8-0.1 2.2 0 4.9-0.8 5.3-3.3 1.1-6.1 1.8-12.9-0.1-18.4-1.1-3.2-7.8-0.6-12-1.2-0.9-0.1-2 0-3 0z" fill="#0C0909" p-id="15840"></path><path d="M591.2 844.8c-8.8 0-17.6 0.1-26.4-0.1-3.3-0.1-4 0.9-3.7 4.2 2.4 21.9 24.6 32.5 43.3 20.4 3.4-2.2 6.2-4.9 7.8-8.7 0.6-1.4 0.9-2.6 2.7-2.5 1.9 0.1 4.5-0.5 5.5 0.5 1.5 1.4 0.2 3.8-0.6 5.7-4 10-12.2 15-21.9 18-16.8 5.3-42.5-0.1-49.1-23.1-4.3-14.9-3.7-29.7 2.7-43.9 6.7-14.6 22.4-21.9 39.9-19.3 15.1 2.2 25 13 28.2 30.2 0.9 5 0.9 10 1.5 14.9 0.4 3-0.5 3.9-3.5 3.8-8.8-0.2-17.6-0.1-26.4-0.1z m-7.1-10.7h19.7c1.4 0 3.1 0.7 3.6-1.7 2.1-8.4-5.4-22.2-13.9-24.9-16-5.2-31.5 5.2-32.5 24.2-0.2 2.8 1.8 2.4 3.5 2.4h19.6zM840.9 844.8c-9 0-18 0.1-27-0.1-2.4 0-3.5 0.5-3.2 3.1 1.2 10.9 4.8 20.1 16.2 24.2 11.6 4.1 25.7 1 32.4-7.2 0.9-1.1 1.9-2.2 2.2-3.5 1.2-4.8 4.9-3.3 7.9-3.2 2.8 0 1.4 2.3 1.1 3.5-1.4 5.9-4.8 10.7-9.8 14.2-13.7 9.6-28.4 10.9-43.6 4.3-14.9-6.4-19.8-19.3-20.9-34.2-0.7-9.7 0.3-19.3 4.1-28.4 6.3-15.5 20.1-23.1 39.5-21.8 14.2 1 25.3 11.2 28.9 26.8 1.3 5.9 2.2 11.8 2.3 17.9 0 3.3-0.7 4.4-4.2 4.3-8.6 0-17.2 0.1-25.9 0.1z m-6.9-10.7h20.2c1.5 0 2.9 0.4 3.3-2 1.5-9.3-6-21.9-14.9-24.8-15.6-5-32.1 7.5-31.9 24.1 0 2.5 1.2 2.7 3.1 2.7 6.7-0.1 13.5 0 20.2 0zM639.2 818.7V815c0.1-11 0-11.2 10.5-14.6 11.1-3.6 22.4-3.9 33.5-0.4 11 3.4 17.1 11.6 17.3 23 0.2 17.6 0.1 35.3 0.1 52.9 0 1.9-0.1 3.3-2.3 3.9-15.5 4.4-31.1 6.5-46.8 2-10.3-3-19.9-10.7-18.4-27.9 1-12.1 9.1-21.4 21.4-23.9 10.1-2.1 20.3-1.1 30.5-1 4.6 0.1 4.7-2 4.2-5.2-1.5-10.4-10.8-16.5-23.4-15.2-4.6 0.5-9.1 1.6-13.4 3.4-4.3 1.9-8.4 4.2-13.2 6.7z m50.1 36.7c0-4.1-0.1-8.3 0-12.4 0-2-0.3-3.2-2.8-3.2-9.3 0.3-18.7-0.5-27.9 0.7-8.4 1.1-13.5 6.1-14.3 13.8-0.9 9.1 2.4 14.3 11 17.5 8.8 3.3 17.7 2.4 26.5 0.6 7.5-1.5 7.5-1.8 7.5-9.7v-7.3z" fill="#0A0807" p-id="15841"></path><path d="M388.8 816.5v50.3c0 12.8-5.7 18.8-18.4 19-4 0.1-8-0.2-11.9 0.1-3.3 0.2-4.5-0.8-4.5-4.3 0-3.4 1.1-3.9 4.2-3.9 14.6-0.2 14.6-0.2 14.6-14.9 0-29.4-0.1-58.8 0.1-88.2 0-3.8-0.8-4.9-4.8-4.9-21.3 0.2-42.5 0.1-63.8 0.1-2.9 0-4.7-0.1-4.6-3.9 0.1-3.7 1.2-4.5 4.7-4.4 26.5 0.2 52.9 0.2 79.4 0 4.2 0 5.2 1.2 5.1 5.2-0.3 16.6-0.1 33.2-0.1 49.8z" fill="#0F0C0C" p-id="15842"></path><path d="M198.9 776.1c-13.5 0-27 0.1-40.5-0.1-3.3 0-4 0.8-4 4 0.1 8.6-0.1 8.3-9 8.7-5.3 0.3-7.5-1-6.6-6.5 0.7-4.5-2-10.7 1.1-13.3 2.6-2.3 8.6-0.8 13-0.7 3.4 0.1 4.6-0.7 2.8-4.1-0.6-1.2-0.8-2.6-1.2-3.9-0.6-2.1-0.2-3.3 2.3-3 1.4 0.1 2.8 0.2 4.1 0 6-1 10.3 0.4 10.8 7.5 0.2 2.8 1.8 3.7 4.6 3.6 3.8-0.2 7.6-0.2 11.4 0.1 3.4 0.3 3.9-1.2 3.9-4.2-0.1-9.2 0.1-8.9 9-9.4 5.4-0.3 7.2 1.1 6.8 6.6-0.5 6.8-0.1 6.8 6.6 6.8 1 0 2.1-0.2 3.1 0 6 1.1 9.4-1.1 10.2-7.3 0.3-2.6 1.7-4.4 4.9-3.7 1.2 0.2 2.4 0 3.6 0 8.3 0 8.4 0.1 6.3 7.9-0.6 2.3-0.4 3.3 2.1 3.1h1c4.6 0.3 12-1.9 13.2 0.9 2.2 5.2 2.1 12.2 0.4 17.7-1.4 4.6-7.5 0.9-11.3 1.8-1.2 0.2-3.7 1.4-3.8-1.7v-1c-0.2-3.1 1.4-7.2-0.6-8.9-2.4-2.1-6.6-0.7-10-0.7-11.3-0.2-22.7-0.2-34.2-0.2z" fill="#0C0909" p-id="15843"></path><path d="M199.2 786.3c13.1 0 26.3 0.1 39.4-0.1 3.2 0 4.7 0.6 4.4 4.2-0.3 3.6 0 7.3-0.1 10.9-0.2 8-5 13.1-12.9 13.2-23.8 0.2-47.7 0-71.5 0.1-2.3 0-2.9-0.8-2.9-2.9 0.1-7.3 0.2-14.5 0-21.8-0.1-3 0.9-3.7 3.8-3.7 13.2 0.1 26.5 0.1 39.8 0.1z m-1.2 20h23.8c6.1 0 4.7-4.4 5.2-8 0.5-4.2-2.1-3.8-4.8-3.8-15.5 0.1-31 0.1-46.6 0-3.3 0-4.9 0.7-4.3 4.3 0.2 1.2 0.1 2.4 0 3.6-0.4 3.1 0.6 4.2 3.9 4.1 7.6-0.4 15.2-0.2 22.8-0.2z" fill="#0C0909" p-id="15844"></path><path d="M273 836.3c0-15.1 0.2-30.1-0.1-45.2-0.1-4 1.1-4.9 4.9-4.8 11.1 0.2 11.1 0 11.1 11.4 0 27.7-0.1 55.4 0.1 83.1 0 4-0.9 5.3-5.1 5.2-10.9-0.3-10.9 0-10.9-10.8v-38.9zM898 810c9.4-8 19.9-10.6 31-11.9 3.7-0.4 6.1 0 5.3 4.6-0.2 1.3-0.2 2.8 0 4.1 0.4 3-0.9 3.5-3.7 3.7-12.5 0.9-23.8 4.3-30.3 16.3-1.7 3.2-2.6 6.6-2.5 10.4 0.1 13.8-0.1 27.6 0.1 41.5 0.1 3.9-0.7 5.5-5.1 5.3-8.7-0.3-8.7-0.1-8.7-8.8 0-23.5 0.1-47-0.1-70.5 0-4.2 1.2-5.1 5.2-5 8.4 0.3 8.4 0.1 8.8 10.3z" fill="#0A0807" p-id="15845"></path><path d="M435.9 840.4c0 13.3-0.1 26.6 0.1 39.9 0 3.3-0.7 4.3-4.2 4.3-10.1-0.1-10.1 0.1-10.1-9.8 0-24.2 0.1-48.3-0.1-72.5 0-4 0.5-5.7 5.2-5.6 9.1 0.3 9.2 0 9.2 9-0.1 11.6-0.1 23.2-0.1 34.7z" fill="#0F0C0C" p-id="15846"></path><path d="M283.3 756.4h5.2c1.5 0 2.7 0 3 2 0.7 5.8 1.4 11.6 2.3 17.3 0.3 2.3-0.3 3-2.7 2.9-4.1-0.3-9.2 1.2-12.1-0.7-2.6-1.7-1.8-7.2-2.3-11.1-0.1-0.7-0.4-1.3-0.5-2-1.4-8.4-1.4-8.4 7.1-8.4z" fill="#0A0807" p-id="15847"></path><path d="M435.9 770.1c0 7.8 0 7.8-7.8 7.9-6.5 0-6.5 0-6.5-6.8 0-9.3 0-9.1 9.3-9.3 4-0.1 5.8 1 5 5.1-0.1 1 0 2 0 3.1z" fill="#151212" p-id="15848"></path><path d="M358.4 623.3c-2-11.1-4-22.1-5.9-33.2-4.4-26.3-8.7-52.6-13.1-79-7.4-44.5-14.8-89-22.2-133.4-6.2-37.2-12.5-74.5-18.8-111.7-1.2-7.2-2.3-14.5-3.6-21.7-0.5-2.6 0.4-4.1 2.3-5.8 34.4-30.3 58.4-67.4 71.3-111.5 1.3-4.5 2.6-9 5.3-13 3.4-5 7-5.7 11.9-2.2 4.3 3.1 7.6 7.3 10.7 11.5 11.8 15.6 22.9 31.7 33.2 48.4 20 31.4 38.1 63.9 51.9 98.6 13 32.5 22.7 65.6 20.5 101.2-1.2 20-5 39.5-11.3 58.4-11.4 34.3-28.5 65.8-48.8 95.6-19.1 28-40.3 54.3-64.1 78.6-3.4 3.4-6.4 7.2-9.5 10.9-1.4 0-2.1 0.8-2.4 2.2-2.4 2-4.9 4.1-7.4 6.1z" fill="#D83939" p-id="15849"></path><path d="M358.4 623.3c2.5-2 4.9-4 7.4-6 1.6 0.1 2.4-0.5 2.4-2.2 1.1 0.1 2.2 0 3.2-0.8 8-6.4 16.4-12.3 24.1-19.2 24-21.6 46.7-44.6 66.1-70.6 18.3-24.7 33.5-51.3 44-80.2 7.4-20.3 12.8-41.3 14.1-62.9 2-31.5-1.1-62.6-11.5-92.7-5.9-17-12.2-33.8-19.9-50-6.8-14.2-14.4-28.1-22.8-41.4-6.9-10.9-14.5-21.3-21.7-31.9-0.8-1.2-1.4-2.7-3.2-2.8 7.2-9.9 14.6-19.8 23.2-28.5 6.9-6.9 13.7-3.3 19.6 3.3 18 20.2 31.2 43.6 45.1 66.5 0.7 1.2 1.1 2.3 2.5 2.7-0.1 1.9 0.3 3.6 1.3 5.4 10.7 18.6 19.4 38.1 26.9 58.1 10.9 29.2 18.4 59.2 19.9 90.5 1.2 24.2-0.1 48-7.2 71.4-9.7 32.3-29.2 58.5-51.8 82.6-13.6 14.5-28.8 27.5-44.7 39.5-18.6 14-37.7 27.2-58 38.7l-35.7 20.1c-6.6 2.2-12.7 5.4-18.4 9.2-1.1 0.2-1.9 0.7-1.7 2-1-0.6-2.3 0.5-3.2-0.8z" fill="#FDD20C" p-id="15850"></path><path d="M363.3 621.9c5.8-3.8 11.9-7 18.4-9.2 4.3 2.3 6.8-1.5 9.8-3.1 11.7-5.9 24.3-9.7 35.7-16.5 7.5-4.5 16.3-7.1 23.7-12.3 5.1-3.5 11.1-5.4 15.9-9 12.6-9.6 26.3-17.6 38.5-27.6 12.5-10.2 25.1-20.4 35.3-33 3.1-3.9 6.7-7.5 10-11 9.3-9.7 16.6-20.8 22.9-32.3 7.6-13.9 13.2-29 16.7-44.8 3.1-14.3 5.2-28.6 5.3-43.2 0.1-15.9 0-31.8-2.8-47.7-2-11.4-4.8-22.5-8.3-33.4-4.7-14.6-10-28.9-16.5-42.9-5.4-11.6-12-22.5-17-34.2-3.3-7.6-7.9-14.6-11.9-21.9 0.4-0.4 0.9-0.7 1.3-1.1 0.2 0.1 0.5 0.3 0.7 0.4 0-0.3-0.1-0.6-0.1-0.9l0.3 0.3c-0.1-0.1-0.2-0.2-0.2-0.3 0.3 0 0.6 0.1 0.9 0.1-0.1-0.2-0.2-0.5-0.4-0.7 6.4-6.8 12.6-13.7 19.3-20.2 6.4-6.3 11.7-6 17.7 0.8 6.9 7.8 11.8 16.8 16.4 26.1 7.5 15.1 14.9 30.2 22.3 45.3 1.1 3.5 2.1 7.1 3.5 10.6 5.5 13.8 10.6 27.8 14.6 42.2 5.7 20.4 9.7 41.1 12.2 62.3 3.4 28.8 1.5 57-5.8 84.8-5.5 20.7-15.9 39.4-29.5 56-11.8 14.4-26 26.2-40.9 37.3-26.7 19.9-56.1 34.9-86.9 47.3-15.6 6.3-31.5 11.6-47.7 16.3-15.3 4.5-30.6 8.8-46.4 11-1.7 0.2-2.8 1-3.7 2.2-8.2-0.5-15.4 3.9-23.3 2.3z" fill="#8EC320" p-id="15851"></path><path d="M363.3 621.9c7.9 1.6 15.1-2.8 22.9-2.3 8.2 0.9 16.7-0.6 23.8-3.1 10.8-3.8 21.9-3.5 32.7-5.6 7.6-1.5 14.4-5.2 22.3-5.9 6.2-0.5 12.1-4.7 18.4-5.6 11.2-1.6 20.8-7.5 31.6-10.1 9.3-2.3 17.8-7.4 26.7-11.1 3.7-1.5 8-2.9 11-6.1 8.8-3.3 16.3-8.8 24.1-13.8 19-12.2 36.3-26.5 50.3-44.4 15.9-20.4 26.6-43.6 32.8-68.6 2.8-11.2 4-22.9 4.6-34.5 0.5-11.8 0.2-23.6-0.6-35.5-1.3-20.2-6.1-39.6-10.7-59.1-2.1-8.9-5.9-17.3-8.4-26-4.9-17-10.4-33.7-18.5-49.5 3.2-3.7 6.3-7.4 9.6-11.1 8.8-9.7 15.1-9.3 22.3 1.7 7.4 11.3 12.6 23.8 17.5 36.4 12.4 32.4 23.3 65.2 29.1 99.4 6.4 37.8 8.2 75.5-1.3 113.1-4.4 17.5-11.2 34-20.8 49.2-8.7 13.7-19.1 25.9-31.6 36.2-1.5 1.3-3.1 2.7-4.6 4-15.9 11.5-32.7 21.1-51.1 27.8-19.7 7.2-39.8 12.3-60.6 15.5-21.2 3.2-42.4 5.9-63.7 8-35.1 3.5-70.3 3.6-105.5 3h-4c-0.2-1.2 0.6-1.7 1.7-2z" fill="#009ADA" p-id="15852"></path><path d="M440.5 162.6c1.9 0 2.4 1.5 3.2 2.8 7.2 10.6 14.9 21 21.7 31.9 8.4 13.3 16 27.1 22.8 41.4 7.7 16.2 14 33 19.9 50 10.4 30.1 13.5 61.2 11.5 92.7-1.4 21.6-6.8 42.6-14.1 62.9-10.5 28.9-25.7 55.5-44 80.2-19.3 26.1-42 49-66.1 70.6-7.6 6.9-16 12.8-24.1 19.2-1 0.8-2 0.9-3.2 0.8 3.2-3.6 6.2-7.4 9.5-10.9 23.7-24.2 44.9-50.5 64.1-78.6 20.4-29.8 37.4-61.3 48.8-95.6 6.3-19 10.1-38.4 11.3-58.4 2.2-35.7-7.5-68.7-20.5-101.2-13.9-34.7-31.9-67.2-51.9-98.6 5.5-1.2 6.5-7.3 11.1-9.2z" fill="#F6B600" p-id="15853"></path><path d="M626.2 240.7c8.1 15.8 13.6 32.5 18.5 49.5 2.5 8.7 6.3 17.1 8.4 26 4.5 19.5 9.3 38.9 10.7 59.1 0.8 11.9 1.1 23.7 0.6 35.5-0.5 11.5-1.8 23.3-4.6 34.5-6.2 25-16.9 48.2-32.8 68.6-13.9 17.9-31.3 32.1-50.3 44.4-7.8 5-15.4 10.5-24.1 13.8-0.1-1.2-0.4-2.2-1.9-2-0.4 0.1-0.9 0.8-0.9 1 0.5 1.3 1.8 0.8 2.8 1-3 3.2-7.3 4.6-11 6.1-8.9 3.7-17.5 8.8-26.7 11.1-10.8 2.7-20.4 8.6-31.6 10.1-6.3 0.9-12.2 5-18.4 5.6-7.9 0.6-14.7 4.4-22.3 5.9-10.8 2.1-21.9 1.8-32.7 5.6-7.1 2.5-15.6 4-23.8 3.1 0.9-1.2 2.1-2 3.7-2.2 15.8-2.1 31.1-6.5 46.4-11 16.2-4.7 32.1-10 47.7-16.3 30.8-12.4 60.1-27.4 86.9-47.3 14.9-11.1 29.1-22.9 40.9-37.3 13.6-16.7 24-35.3 29.5-56 7.3-27.7 9.2-56 5.8-84.8-2.5-21.2-6.5-41.9-12.2-62.3-4-14.3-9.1-28.3-14.6-42.2-1.4-3.4-2.3-7.1-3.5-10.6 3.3-2.9 6.4-5.9 9.5-8.9z" fill="#0288B4" p-id="15854"></path><path d="M538.9 199.8c4 7.3 8.7 14.3 11.9 21.9 5 11.7 11.7 22.6 17 34.2 6.5 14 11.8 28.3 16.5 42.9 3.5 10.9 6.3 22 8.3 33.4 2.8 15.9 2.9 31.8 2.8 47.7-0.1 14.6-2.1 28.9-5.3 43.2-3.5 15.8-9.1 30.8-16.7 44.8-6.3 11.5-13.6 22.6-22.9 32.3-3.3 3.5-6.9 7.1-10 11-10.2 12.7-22.8 22.8-35.3 33-12.3 10-26 18-38.5 27.6-4.8 3.6-10.8 5.5-15.9 9-7.4 5.1-16.2 7.8-23.7 12.3-11.4 6.8-24 10.6-35.7 16.5-3.1 1.6-5.5 5.4-9.8 3.1 11.9-6.7 23.8-13.4 35.6-20.1 20.3-11.4 39.4-24.6 58-38.7 15.9-12 31-25 44.7-39.5 22.6-24.1 42.1-50.3 51.8-82.6 7-23.3 8.4-47.2 7.2-71.4-1.5-31.3-9.1-61.3-19.9-90.5-7.5-20.1-16.2-39.5-26.9-58.1-1-1.7-1.4-3.5-1.3-5.4 2.8-2.1 5.5-4.3 8.1-6.6z" fill="#8EB133" p-id="15855"></path><path d="M541.4 197.7c0.1 0.2 0.2 0.5 0.4 0.7-0.3 0-0.6-0.1-0.9-0.1-0.1-0.4 0.1-0.6 0.5-0.6zM540.8 198.3c0 0.3 0.1 0.6 0.1 0.9-0.2-0.1-0.5-0.3-0.7-0.4 0.1-0.4 0.3-0.5 0.6-0.5z" fill="#4B8E10" p-id="15856"></path><path d="M368.2 615.1c0 1.6-0.8 2.3-2.4 2.2 0.3-1.4 1-2.2 2.4-2.2z" fill="#F38D01" p-id="15857"></path><path d="M552.7 572.1c-1-0.1-2.3 0.3-2.8-1-0.1-0.2 0.5-0.9 0.9-1 1.4-0.2 1.7 0.8 1.9 2-0.1 0 0 0 0 0z" fill="#0167C6" p-id="15858"></path></svg>