<svg 
 xmlns="http://www.w3.org/2000/svg"
 xmlns:xlink="http://www.w3.org/1999/xlink"
 width="86px" height="36px">
<path fill-rule="evenodd"  fill="rgb(255, 255, 255)"
 d="M82.514,7.700 C80.831,8.184 81.624,8.486 81.299,9.056 C80.974,9.626 80.137,9.898 79.463,10.630 C78.787,11.363 78.570,11.671 77.809,12.366 C78.753,11.905 79.706,12.774 79.625,13.425 C79.544,14.077 79.247,14.728 78.480,15.881 C78.087,16.469 77.194,17.577 76.035,18.283 C76.411,18.392 77.194,19.016 77.815,19.722 C79.081,21.159 80.141,24.024 80.219,24.878 C80.327,26.072 79.680,27.809 79.057,28.840 C78.289,30.117 76.574,31.148 74.629,31.283 C73.308,31.375 72.361,30.604 71.470,29.736 C70.689,28.973 69.122,27.700 69.337,27.239 C69.553,26.777 70.748,25.502 70.944,24.749 C70.722,24.973 70.255,25.311 70.093,25.176 C69.931,25.041 69.634,24.851 68.931,24.823 C68.230,24.797 68.013,24.471 68.013,24.309 C68.013,24.145 68.931,23.602 70.255,22.707 C71.578,21.810 71.901,21.160 71.901,20.725 C71.901,20.291 71.173,20.265 71.173,20.265 C71.173,20.265 69.390,20.454 70.040,19.233 C71.128,17.181 71.245,17.806 72.631,17.253 C73.139,17.049 73.597,16.831 74.163,16.262 C74.376,16.048 74.649,15.691 74.953,15.184 C74.584,15.325 74.247,15.373 73.800,15.597 C72.964,16.018 72.254,16.018 71.676,15.433 C71.180,14.933 70.433,14.725 71.208,14.314 C71.641,14.084 72.244,13.654 72.933,13.004 C74.442,11.579 75.742,10.092 76.521,9.299 C77.514,8.288 79.270,6.039 78.836,6.284 C78.549,6.446 77.137,7.106 76.047,7.917 C75.504,8.321 75.142,8.949 74.791,9.260 C72.744,11.081 72.307,11.553 71.362,12.855 C70.416,14.158 68.878,13.833 68.202,13.317 C67.527,12.802 65.259,11.038 64.990,10.087 C64.719,9.138 65.206,6.804 66.447,5.257 C66.831,4.781 67.148,4.189 67.624,3.927 C68.878,3.235 69.580,2.950 69.580,2.950 C69.851,2.868 70.174,2.868 70.148,3.277 C70.121,3.684 69.904,4.199 69.904,4.199 C69.581,5.610 69.901,7.189 69.954,7.380 C70.008,7.570 70.278,7.764 70.629,7.656 C70.980,7.548 72.065,6.641 72.821,6.288 C73.577,5.935 74.339,5.429 74.339,5.429 C74.022,5.372 73.602,5.185 73.424,4.849 C73.218,4.457 73.057,3.616 72.666,3.263 C72.242,2.881 72.061,2.522 72.061,2.522 C72.573,2.614 72.894,2.591 73.157,2.487 C73.596,2.315 73.814,1.757 74.354,1.722 C75.217,1.669 75.511,2.111 76.142,2.760 C76.676,3.310 76.983,3.711 77.393,4.122 C77.923,3.832 79.868,2.896 80.434,2.679 C81.002,2.462 81.677,2.381 82.622,2.625 C83.566,2.868 84.674,4.307 84.890,4.442 C85.106,4.578 85.133,5.067 85.133,5.067 C82.891,6.560 83.575,7.395 82.514,7.700 ZM75.152,19.035 C74.428,18.854 75.080,19.035 75.080,19.035 C75.080,19.035 73.811,19.782 73.594,20.019 C73.594,20.019 73.376,20.219 73.720,20.346 C74.065,20.474 74.337,20.728 74.120,21.348 C73.902,21.968 73.616,22.205 73.616,22.205 C73.616,22.205 74.193,22.367 74.355,22.586 C74.518,22.804 74.445,23.205 74.246,23.606 C74.049,24.007 73.796,25.057 73.326,25.894 C72.854,26.733 72.365,26.754 73.051,27.047 C73.194,27.109 73.703,27.211 73.902,27.338 C74.101,27.466 74.418,27.817 75.097,27.629 C75.823,27.430 76.493,27.283 76.892,25.554 C77.290,23.824 77.001,22.586 76.802,22.022 C76.602,21.456 75.877,19.217 75.152,19.035 ZM60.741,28.507 C60.385,28.736 59.927,29.654 58.711,30.346 C57.923,30.795 56.402,31.310 56.402,31.310 L56.640,30.730 C58.280,29.805 59.236,28.339 59.051,28.182 C58.322,27.568 54.188,27.999 52.757,24.769 C51.327,21.539 52.784,17.903 53.379,17.225 C53.973,16.547 54.917,15.407 54.350,15.189 C53.784,14.972 53.784,15.706 53.054,15.678 C52.325,15.651 50.219,13.182 49.896,12.122 C49.571,11.065 49.585,9.483 50.273,8.486 C50.212,9.443 50.254,10.597 50.894,11.065 C51.240,11.317 52.295,11.196 53.163,11.173 C54.722,11.133 56.110,11.282 56.504,11.357 C57.700,11.580 58.518,11.965 59.238,12.964 C60.088,14.145 59.596,15.754 59.178,16.363 C58.367,17.544 57.509,18.198 57.151,18.581 C56.605,19.172 56.199,19.799 56.342,20.230 C56.789,21.574 58.692,22.408 59.744,23.406 C60.790,24.394 62.282,26.658 62.157,27.607 C62.063,28.324 61.361,28.107 60.741,28.507 ZM59.751,9.030 C59.401,9.599 58.185,9.382 57.619,8.976 C57.051,8.568 54.999,6.939 54.460,6.614 C53.919,6.288 53.351,7.048 52.245,6.913 C52.245,6.913 53.191,6.560 53.405,5.881 C53.622,5.204 52.083,4.388 51.128,3.804 C51.128,3.804 53.478,3.961 54.388,4.166 C56.420,4.624 57.031,5.023 57.779,5.420 C58.638,5.874 59.240,5.957 59.612,6.812 C59.744,7.111 59.482,7.428 59.482,7.646 C59.482,7.862 60.102,8.459 59.751,9.030 ZM80.866,22.165 C80.597,21.946 80.056,21.187 80.515,19.748 C80.769,18.956 81.569,17.089 81.947,16.411 C82.324,15.732 82.973,14.158 82.973,14.158 C83.243,13.561 83.757,14.213 84.376,15.488 C84.997,16.764 84.782,18.988 84.890,19.450 C84.997,19.912 86.106,20.509 85.997,21.458 C85.889,22.408 85.241,21.838 84.701,22.544 C84.161,23.250 83.215,23.222 82.487,23.412 C81.758,23.603 80.758,24.471 80.758,24.471 C80.758,24.471 80.677,24.335 80.732,24.009 C80.785,23.684 81.271,23.195 81.380,22.897 C81.488,22.598 81.137,22.381 80.866,22.165 Z"/>
<path fill-rule="evenodd"  fill="rgb(255, 255, 255)"
 d="M5.914,3.602 L39.084,3.602 L39.084,28.172 L5.914,28.172 L5.914,3.602 Z"/>
<path fill-rule="evenodd"  fill="rgb(210, 34, 34)"
 d="M41.087,-0.003 L1.833,-0.003 C0.818,-0.003 -0.004,0.832 -0.004,1.863 L-0.004,28.188 C-0.004,29.219 0.896,30.162 1.912,30.162 L24.647,30.054 L32.487,36.000 L32.487,30.162 L41.087,30.162 C42.101,30.162 42.998,29.246 42.998,28.216 L42.998,1.944 C42.998,0.913 42.101,-0.003 41.087,-0.003 ZM14.326,26.269 L7.652,26.269 L7.652,3.880 L14.326,3.880 L14.326,26.269 ZM36.309,9.728 L30.577,9.728 L30.577,26.269 L23.888,26.269 L23.888,9.728 L18.154,9.728 L18.150,3.880 L36.321,3.880 L36.309,9.728 Z"/>
<path fill-rule="evenodd"  fill="rgb(210, 34, 34)"
 d="M5.000,3.000 L38.000,3.000 L38.000,27.000 L5.000,27.000 L5.000,3.000 Z"/>
<path fill-rule="evenodd"  fill="rgb(255, 255, 255)"
 d="M31.000,10.000 L31.000,26.000 L24.000,26.000 L24.000,10.000 L18.000,10.000 L18.000,4.000 L37.000,4.000 L37.000,10.000 L31.000,10.000 ZM7.000,4.000 L14.000,4.000 L14.000,26.000 L7.000,26.000 L7.000,4.000 Z"/>
</svg>