<?xml version="1.0" standalone="no"?><!DOCTYPE svg PUBLIC "-//W3C//DTD SVG 1.1//EN" "http://www.w3.org/Graphics/SVG/1.1/DTD/svg11.dtd"><svg t="1702984124825" class="icon" viewBox="0 0 1024 1024" version="1.1" xmlns="http://www.w3.org/2000/svg" p-id="37652" xmlns:xlink="http://www.w3.org/1999/xlink" width="48" height="48"><path d="M0 0h1024v1024H0V0z" fill="#990033" p-id="37653"></path><path d="M336.896 165.376c23.04-13.312 39.936-11.776 50.688 4.608 10.24 15.872 0 31.232-31.232 46.08s-60.416 18.944-87.552 13.312L266.24 387.072c25.6-5.632 48.128-12.288 67.072-19.968 19.456-7.168 46.592-15.872 81.92-26.112 35.328-10.24 59.904-9.216 74.24 2.048 14.336 11.776 21.504 25.088 21.504 39.424 0 11.776-16.896 18.432-50.688 19.968-33.28 1.536-101.376 12.288-203.776 32.768 11.264 17.408 15.872 31.232 14.336 41.472s-3.072 36.352-3.584 78.848c-1.024 42.496-1.024 102.912 0 181.76s0 138.752-2.56 179.712-6.144 72.192-10.752 94.208-12.288 14.848-23.04-22.016c-10.24-36.352-11.776-73.728-4.608-111.616s10.752-80.384 10.752-126.976v-157.696c0-58.368-7.168-106.496-21.504-144.896l-91.136 35.328c-30.208 11.776-53.248 19.968-68.608 24.064-15.36 4.608-30.208-5.12-45.568-28.672s-13.312-35.328 6.144-35.328 45.568-3.584 79.36-10.752 80.896-19.968 141.824-37.376c0-87.552-1.536-156.16-4.608-206.336-3.072-49.664-10.24-88.576-21.504-116.224-11.264-27.648 1.024-34.304 35.84-19.968 22.528 8.704 31.744 22.528 27.648 41.472-4.096 18.944-6.144 51.712-6.144 98.816 22.016-5.12 44.544-14.336 68.096-27.648z m-27.648 394.752c15.872 7.168 32.256 18.944 49.152 35.328 16.896 15.872 30.72 35.84 41.984 59.392 11.264 23.552 14.848 48.128 10.752 74.752-4.096 26.112-19.968 18.432-48.128-24.064s-48.64-78.336-61.44-107.52c-10.752-32.768-8.192-45.056 7.68-37.888z" fill="#FFFFFF" p-id="37654"></path><path d="M638.976 286.72c15.36-17.408 27.136-22.016 35.84-13.312 8.704 8.704 18.944 20.48 30.208 35.328 11.264 14.848 10.24 27.136-2.56 37.376s-28.672 34.304-47.104 72.192c-18.432 37.888-23.552 37.376-15.872-2.048 8.192-39.424 12.288-66.56 13.312-80.896 1.024-14.848-5.632-16.896-19.456-6.656-13.824 10.24-25.088 18.432-34.816 24.064-9.728 6.144-21.504 1.536-35.84-13.312-8.192 32.256-18.944 68.096-32.256 107.52-13.824 39.424-30.208 75.264-50.688 107.52-19.968 32.256-21.504 24.064-3.584-24.064 17.408-48.128 33.792-98.816 48.128-151.04 14.336-52.224 25.088-105.472 32.256-157.696 7.168-52.736 9.216-90.624 6.144-114.176s1.536-31.232 14.336-24.064c12.8 7.168 23.04 16.896 31.232 28.672 8.192 11.776 8.192 27.136 0 46.08s-21.504 72.192-40.96 160.256c32.768-4.096 56.32-14.336 71.68-31.744z m-33.792 208.384c-5.632 18.944-10.24 57.856-13.312 116.224-3.072 58.368-6.144 100.864-8.192 126.976-2.56 26.112-2.048 37.376 1.024 32.768 3.072-4.608 19.968-29.184 50.688-74.752 30.208-45.056 40.96-54.272 31.232-26.112-9.728 27.648-26.624 65.536-51.712 114.176-25.088 48.128-41.472 83.456-49.152 105.472-8.192 22.016-14.848 24.064-20.48 6.656-5.632-17.408-8.704-33.792-9.728-48.128-1.024-14.848 3.072-35.328 11.776-61.44 8.704-26.112 14.848-78.336 17.92-155.648 3.072-77.312 0.512-130.56-8.192-160.256-8.704-29.184-1.024-37.888 23.04-26.112 22.016 14.336 30.72 30.72 25.088 50.176z m150.016-46.08c22.528 0 43.52-5.632 63.488-17.408 19.968-11.776 33.28-23.552 39.424-35.328 6.144-11.776 14.848-14.848 25.088-8.704 10.24 6.144 19.968 14.848 28.672 26.112 8.704 11.776 9.728 22.016 3.584 30.72-6.656 8.704-11.776 38.912-16.896 90.112-4.608 51.2-13.824 105.984-26.624 164.352 25.6 55.808 49.664 96.256 72.192 122.88 22.528 26.112 43.008 45.568 61.44 56.832 18.432 11.776 22.528 20.48 11.776 26.112-10.24 6.144-28.16 8.192-52.736 6.656-25.088-1.536-41.472-8.192-49.152-19.968-8.192-11.776-15.872-29.184-24.064-52.736-8.192-23.552-19.968-55.296-35.84-96.256-20.992 40.96-41.472 69.632-62.464 85.504-20.992 15.872-40.96 25.6-59.904 28.672-19.456 3.072-19.456-1.536-1.024-13.312 18.432-11.776 37.376-30.72 57.856-56.832 19.968-26.112 34.816-55.296 44.544-87.552-8.192-23.552-18.432-50.176-31.232-80.896-12.8-30.72-23.552-49.664-32.256-56.832-8.704-7.168-7.168-13.824 4.608-19.968 11.776-5.632 20.992 0.512 27.648 19.968 6.144 18.944 20.992 50.176 43.008 94.208 9.728-37.888 15.872-75.776 17.92-114.176 2.56-37.888 2.56-63.488 1.024-76.8-1.536-13.312-8.192-17.408-19.456-13.312-11.264 4.608-25.088 11.776-41.984 22.016-16.896 10.24-33.28 10.752-49.152 2.048-6.656 125.952-19.968 220.672-40.96 285.184-20.992 64.512-45.056 110.592-72.192 138.24-27.136 27.648-32.256 27.648-15.872 0 16.896-27.648 32.256-61.44 47.104-100.864 14.336-39.424 26.112-83.968 34.816-133.632 8.704-49.664 14.336-97.792 16.896-144.896 2.56-46.592 3.072-94.208 2.56-142.336-1.024-48.128-4.608-80.896-11.776-98.816-7.168-17.408-7.168-27.136 0-28.672s17.92 2.048 32.256 10.752c25.6-14.848 47.616-35.328 66.048-61.44s28.672-48.128 31.232-65.536 9.216-22.016 20.48-13.312c11.264 8.704 23.04 20.48 34.816 35.328 11.776 14.848 8.704 25.088-9.728 30.72-18.432 6.144-63.488 39.424-135.68 100.864 2.048 43.52 2.048 97.792 0.512 162.304z" fill="#FFFFFF" p-id="37655"></path></svg>