<?xml version="1.0" standalone="no"?><!DOCTYPE svg PUBLIC "-//W3C//DTD SVG 1.1//EN" "http://www.w3.org/Graphics/SVG/1.1/DTD/svg11.dtd"><svg t="1703169634550" class="icon" viewBox="0 0 1024 1024" version="1.1" xmlns="http://www.w3.org/2000/svg" p-id="32715" xmlns:xlink="http://www.w3.org/1999/xlink" width="48" height="48"><path d="M51.2 46.6432m240.9984 0l439.6032 0q240.9984 0 240.9984 240.9984l0 439.6032q0 240.9984-240.9984 240.9984l-439.6032 0q-240.9984 0-240.9984-240.9984l0-439.6032q0-240.9984 240.9984-240.9984Z" fill="#E9FFF1" p-id="32716"></path><path d="M593.92 219.0336H364.8512a97.792 97.792 0 0 0-97.792 97.792v373.76A97.792 97.792 0 0 0 364.8512 788.48h304.5376a97.792 97.792 0 0 0 97.792-97.792V362.8032z" fill="#B3FFC7" p-id="32717"></path><path d="M593.92 219.0336H366.592a98.8672 98.8672 0 0 0-99.5328 98.0992V660.48a364.6976 364.6976 0 0 0 85.0432 28.2112c181.4016 36.5056 358.7584-68.096 415.0784-237.4144V362.8032z" fill="#CCFFDA" p-id="32718"></path><path d="M593.92 219.0336H366.592a98.8672 98.8672 0 0 0-99.5328 98.0992v249.344c189.0816 23.3984 368.64-84.224 436.5312-256.3584z" fill="#D9FFE6" p-id="32719"></path><path d="M593.92 219.0336H366.592a98.8672 98.8672 0 0 0-99.5328 98.0992v121.4976a411.7504 411.7504 0 0 0 339.3536-209.1008z" fill="#E9FFF1" p-id="32720"></path><path d="M650.24 699.392H384.9216a23.04 23.04 0 0 1 0-46.08H650.24a23.04 23.04 0 0 1 0 46.08zM650.24 591.104H384.9216a23.04 23.04 0 0 1 0-46.08H650.24a23.04 23.04 0 0 1 0 46.08z" fill="#333333" p-id="32721"></path><path d="M764.4672 334.4384L631.808 214.016a78.3872 78.3872 0 0 0-52.7872-20.48H347.5456A103.6288 103.6288 0 0 0 244.0192 296.96v411.136a103.6288 103.6288 0 0 0 103.5264 103.5264h339.1488a103.6288 103.6288 0 0 0 103.5264-103.5264V392.6016a78.7968 78.7968 0 0 0-25.7536-58.1632z m-40.0896 25.856h-111.4112V259.1232z m-37.6832 405.248H347.5456a57.4976 57.4976 0 0 1-57.4464-57.4464V296.96a57.4976 57.4976 0 0 1 57.4464-57.2928h219.3408v132.1984a34.56 34.56 0 0 0 34.56 34.5088h142.6944v301.7216a57.4976 57.4976 0 0 1-57.4464 57.4464z" fill="#333333" p-id="32722"></path><path d="M497.92 377.856a69.4784 69.4784 0 1 0-112.0256 0 98.56 98.56 0 0 0-42.496 80.9472 23.04 23.04 0 1 0 46.08 0 52.4288 52.4288 0 0 1 104.8576 0 23.04 23.04 0 0 0 46.08 0 98.4064 98.4064 0 0 0-42.496-80.9472z m-79.4112-40.96a23.4496 23.4496 0 1 1 23.3984 23.3984 23.4496 23.4496 0 0 1-23.3984-23.3984z" fill="#333333" p-id="32723"></path></svg>