<?xml version="1.0" standalone="no"?><!DOCTYPE svg PUBLIC "-//W3C//DTD SVG 1.1//EN" "http://www.w3.org/Graphics/SVG/1.1/DTD/svg11.dtd"><svg t="1703039797721" class="icon" viewBox="0 0 1075 1024" version="1.1" xmlns="http://www.w3.org/2000/svg" p-id="67430" xmlns:xlink="http://www.w3.org/1999/xlink" width="50.390625" height="48"><path d="M852.992 153.8048c54.6304 0 90.2144 21.248 109.8752 63.744 19.8144 42.7008 17.2544 85.3504-14.9504 122.4704-64.256 73.9328-79.4112 159.2832-59.136 252.6208 8.0896 37.2224 30.5664 66.6112 53.0432 96.0512l9.0624 11.9296c27.4944 36.608 31.9488 77.312 11.9296 118.4768-19.3536 39.8848-52.1216 62.8736-97.0752 65.1776-46.7456 2.4064-83.6096-16.2304-106.8544-57.3952-24.2688-43.1616-21.6576-86.1184 8.2944-125.3376 25.088-32.8704 48.896-66.2016 60.0064-106.4448 25.2928-92.3136 9.728-175.9744-53.248-250.1632-45.824-53.9648-40.96-120.4736 9.7792-164.4032 21.9648-18.944 47.104-28.4672 69.2736-26.7264zM270.336 154.112c47.9744-1.6384 82.2784 21.0432 103.424 62.3616 23.0912 45.312 14.848 88.4736-16.896 126.9248-44.8512 54.3744-68.2496 115.2-65.9456 186.7264 2.048 64.8704 27.392 118.272 67.84 167.0656 39.8336 48.0768 35.8912 113.3056-7.2704 154.9824a116.7872 116.7872 0 0 1-158.0544 3.6864c-47.5136-40.8064-51.968-110.4896-9.0624-163.0208 26.3168-32.256 48.128-66.9184 56.8832-107.5712 19.6096-91.4944 3.072-174.592-60.5696-246.4768-32.4096-36.608-34.1504-79.872-13.6192-122.2656 20.3264-41.7792 55.1936-64.2048 103.2192-62.4128zM450.3552 519.936c0.6656 62.1568 50.944 110.3872 114.176 109.6704 63.6928-0.768 112.9472-50.3296 111.7696-112.128a113.408 113.408 0 0 0-114.2272-110.4896c-61.8496 0.9728-112.3328 51.968-111.6672 112.9472z" p-id="67431"></path></svg>