<?xml version="1.0" standalone="no"?><!DOCTYPE svg PUBLIC "-//W3C//DTD SVG 1.1//EN" "http://www.w3.org/Graphics/SVG/1.1/DTD/svg11.dtd"><svg t="1703032446626" class="icon" viewBox="0 0 1024 1024" version="1.1" xmlns="http://www.w3.org/2000/svg" p-id="47077" xmlns:xlink="http://www.w3.org/1999/xlink" width="48" height="48"><path d="M408 264c-32 0-112-48-112-128 0-32 64 0 64 0-64-48-48-128-16-112s80 64 112 64c80 0 128-16 352-16 48 0 112 16 112 80 0 0 48 32 48 144s-80 192-80 256-32 79.456-64 79.456l-416-367.456" fill="#968CD2" p-id="47078"></path><path d="M902.336 283.36a189.696 189.696 0 0 0-78.336-19.36c-54.72 0-96 65.344-96 152s41.28 152 96 152c3.52 0 31.776-0.448 63.904-12.992 0-1.024 0.096-1.984 0.096-3.008 0-52.16 53.12-115.008 72.768-197.12-11.904-39.68-36.672-60.608-58.432-71.52" fill="#8D7BD4" p-id="47079"></path><path d="M886.144 544c-6.496 39.648-29.472 52.864-54.144 55.072v32c29.12-2.56 56-20.416 56-79.072 0-2.624 0.32-5.312 0.576-8h-2.432" fill="#8D7BD4" p-id="47080"></path><path d="M344 56c32 16 80 64 112 64 80 0 128-16 352-16 48 0 112 16 112 80 0 0 42.24 28.192 47.456 124.224 0.224-4.064 0.544-8.064 0.544-12.224 0-112-48-144-48-144 0-64-64-80-112-80-224 0-272 16-352 16-32 0-80-48-112-64-19.488-9.728-32.928 16.192-26.08 48.736 3.968-14.848 13.824-22.88 26.08-16.736" fill="#A99BE0" p-id="47081"></path><path d="M824 639.456a8 8 0 1 1 0-16c37.664 0 56-23.36 56-71.456 0-29.408 15.072-60.384 32.512-96.32C934.784 409.856 960 357.92 960 296c0-105.472-44.064-137.088-44.48-137.376a8.128 8.128 0 0 1-3.52-6.624c0-64.992-72.736-72-104-72-139.84 0-211.648 6.304-264.064 10.912C511.712 93.76 486.272 96 456 96c-23.136 0-50.784-20.16-77.568-39.648-13.952-10.144-27.136-19.744-38.016-25.184-3.328-1.664-7.616-2.688-11.648 3.872-10.24 16.576-6.944 62.336 36.032 94.56a8 8 0 0 1-8.384 13.536c-18.624-9.28-43.264-16.576-50.56-12.064-0.576 0.352-1.856 1.152-1.856 4.928C304 213.44 382.112 256 408 256a8 8 0 0 1 0 16C371.328 272 288 220.608 288 136c0-10.496 5.12-15.872 9.408-18.528 7.936-4.896 19.84-4.224 31.392-1.536-24.224-33.088-25.184-70.624-13.664-89.28 7.584-12.256 19.968-16.032 32.448-9.792 12.064 6.016 25.792 16 40.288 26.56 23.552 17.152 50.208 36.576 68.128 36.576 29.568 0 54.72-2.208 86.528-4.992C595.264 70.368 667.456 64 808 64c27.712 0 117.024 6.144 119.936 84.064 11.648 10.048 48.064 49.312 48.064 147.936 0 65.632-26.08 119.328-49.088 166.688-16.576 34.112-30.912 63.616-30.912 89.312 0 72.288-39.168 87.456-72 87.456" fill="#785AE6" p-id="47082"></path><path d="M1000 792h-544a160 160 0 0 0-160 160v48h704v-208" fill="#F0DC78" p-id="47083"></path><path d="M296 1000h704v-32h-704z" fill="#DCC864" p-id="47084"></path><path d="M456 792a160 160 0 0 0-160 160v32a160 160 0 0 1 160-160h544v-32h-544" fill="#FFE885" p-id="47085"></path><path d="M824.832 792v-288h-208.64v288H560l152.48 160 167.52-160h-55.168" fill="#F0A0AA" p-id="47086"></path><path d="M713.056 906.656l-108.928-114.656h-76.064c0 7.904 2.848 15.84 8.736 22.048l152 160a31.968 31.968 0 0 0 22.464 9.92l0.736 0.032c8.256 0 16.192-3.2 22.144-8.896l166.976-160a32 32 0 0 0 9.792-23.104h-78.208l-119.648 114.656" fill="#96BEF0" p-id="47087"></path><path d="M546.24 824h88.32l-30.4-32h-76.096c0 7.904 2.848 15.84 8.736 22.048l9.472 9.952M891.84 824l9.28-8.896a32 32 0 0 0 9.792-23.104h-78.208l-33.376 32h92.48" fill="#AAD2FF" p-id="47088"></path><path d="M1000 1008h-704a8 8 0 0 1-8-8v-48a168.192 168.192 0 0 1 168-168h160a8 8 0 0 1 0 16h-160a152.192 152.192 0 0 0-152 152V992H992v-192h-168a8 8 0 0 1 0-16h176a8 8 0 0 1 8 8v208a8 8 0 0 1-8 8" fill="#785AE6" p-id="47089"></path><path d="M878.976 800H824a8 8 0 0 1-8-8V512h-192v280a8 8 0 0 1-8 8H560a8 8 0 0 1 0-16H608v-280a8 8 0 0 1 8-8h208a8 8 0 0 1 8 8v280h46.976a8 8 0 0 1 0 16" fill="#785AE6" p-id="47090"></path><path d="M600 680h32a192 192 0 0 0 192-192v-288h-416v288a192 192 0 0 0 192 192" fill="#FFB4BE" p-id="47091"></path><path d="M664 344h-256v128h256a64 64 0 0 0 0-128" fill="#F0A0AA" p-id="47092"></path><path d="M824 200h-416v96h306.976c2.112 7.872 4.224 19.488 5.76 28.032 2.624 14.432 5.76 31.52 11.168 47.488A250.016 250.016 0 0 0 728 416c0 77.664 33.184 138.048 79.456 149.76 10.56-23.776 16.544-50.048 16.544-77.76v-288" fill="#F0A0AA" p-id="47093"></path><path d="M408 264h320c32 0 16 128 64 128h64v-192h-448v64" fill="#968CD2" p-id="47094"></path><path d="M632 688h-32a200.224 200.224 0 0 1-200-200v-224a8 8 0 0 1 8-8h104.064a8 8 0 1 1 0 16H416v216c0 101.44 82.56 184 184 184h32c17.44 0 34.688-2.432 51.264-7.232a8 8 0 1 1 4.448 15.36 200.192 200.192 0 0 1-55.712 7.872" fill="#785AE6" p-id="47095"></path><path d="M568 600h-16a64 64 0 0 1-64-64v-16a16 16 0 0 1 16-16h112a16 16 0 0 1 16 16v16a64 64 0 0 1-64 64" fill="#E678A0" p-id="47096"></path><path d="M664 440h-288v-128h288a64 64 0 0 1 0 128" fill="#AAD2FF" p-id="47097"></path><path d="M664 408h-288v32h288a64 64 0 0 0 64-64c0-5.568-0.928-10.88-2.272-16a63.84 63.84 0 0 1-61.728 48" fill="#96BEF0" p-id="47098"></path><path d="M725.728 392c1.344-5.12 2.272-10.432 2.272-16a64 64 0 0 0-64-64h-288v32h288c29.792 0 54.592 20.448 61.728 48" fill="#BEE6FF" p-id="47099"></path><path d="M384 432h280c30.88 0 56-25.12 56-56S694.88 320 664 320H384v112z m280 16h-288a8 8 0 0 1-8-8v-128a8 8 0 0 1 8-8h288c39.68 0 72 32.32 72 72S703.68 448 664 448z" fill="#785AE6" p-id="47100"></path><path d="M696 376a32 32 0 1 1-64 0 32 32 0 0 1 64 0" fill="#96AAF0" p-id="47101"></path><path d="M655.136 414.752a8.064 8.064 0 0 1-2.208-0.32 40 40 0 0 1-15.616-8.64 8 8 0 1 1 10.688-11.904 24.032 24.032 0 0 0 9.344 5.184 8 8 0 0 1-2.208 15.68M687.456 405.792a8 8 0 0 1-5.888-13.44A23.968 23.968 0 1 0 640 376a8 8 0 0 1-16 0c0-22.048 17.952-40 40-40a40.064 40.064 0 0 1 29.312 67.232 8 8 0 0 1-5.856 2.56" fill="#785AE6" p-id="47102"></path><path d="M888 360l-0.512-144.928a159.808 159.808 0 0 0-89.792-143.04c-197.888 0.448-254.272 13.6-323.328 15.68a66.656 66.656 0 0 0-6.112 6.048c-8.992 10.176-1.216 26.24 12.352 26.24h215.392a112 112 0 0 1 112 112v128h80" fill="#8D7BD4" p-id="47103"></path><path d="M808 328v-128a112 112 0 0 0-112-112h-240s0-64 144-64c43.616 0 87.136-0.128 126.624-0.352a160 160 0 0 1 160.864 159.424l0.512 144.928h-80" fill="#AAD2FF" p-id="47104"></path><path d="M808 266.112v61.888h80l-0.192-51.04a189.44 189.44 0 0 0-63.808-12.96c-5.504 0-10.784 0.832-16 2.112" fill="#96BEF0" p-id="47105"></path><path d="M600 56c43.616 0 87.136-0.128 126.624-0.352a160 160 0 0 1 160.864 159.424l0.384 112.928h0.128l-0.512-144.928A160 160 0 0 0 726.624 23.648C687.136 23.872 643.616 24 600 24c-144 0-144 64-144 64h18.016c17.984-16 53.984-32 125.984-32" fill="#BEE6FF" p-id="47106"></path><path d="M816 320h63.968l-0.48-136.896a150.944 150.944 0 0 0-44.992-107.424 149.824 149.824 0 0 0-107.84-44.032A24356.16 24356.16 0 0 1 600 32c-101.504 0-127.296 32.448-133.792 48h229.792a120.128 120.128 0 0 1 120 120V320z m72 16h-80a8 8 0 0 1-8-8v-128A104.128 104.128 0 0 0 696 96h-240a8 8 0 0 1-8-8c0-2.944 1.728-72 152-72 43.616 0 87.104-0.16 126.592-0.352h0.928c44.576 0 86.56 17.28 118.24 48.672a166.912 166.912 0 0 1 49.728 118.72L896 327.968a8 8 0 0 1-8 8.032z" fill="#785AE6" p-id="47107"></path><path d="M824 296s32 0 64 16 48 48 48 96c0 64-16 96-48 112s-64 16-64 16c-35.36 0-64-53.728-64-120 0-66.272 28.64-120 64-120" fill="#AAD2FF" p-id="47108"></path><path d="M888 488c-32 16-64 16-64 16-32.448 0-59.2-45.312-63.36-104-0.384 5.248-0.64 10.56-0.64 16 0 66.272 28.64 120 64 120 0 0 32 0 64-16s48-48 48-112c0-4.832-0.288-9.376-0.608-13.888-2.88 51.936-18.624 79.488-47.392 93.888" fill="#96BEF0" p-id="47109"></path><path d="M824 328s32 0 64 16c28.8 14.4 44.48 41.824 47.392 82.112 0.32-5.792 0.608-11.68 0.608-18.112 0-48-16-80-48-96s-64-16-64-16c-35.36 0-64 53.728-64 120 0 5.44 0.256 10.752 0.64 16 4.16-58.688 30.912-104 63.36-104" fill="#BEE6FF" p-id="47110"></path><path d="M855.2 539.712a8.032 8.032 0 0 1-6.528-3.328c-1.312-1.888-32.672-46.752-32.672-127.232 0-81.376 32.288-113.312 33.664-114.624a8 8 0 0 1 11.104 11.456c-0.512 0.576-28.768 29.632-28.768 103.168 0 75.424 29.408 117.504 29.696 117.92a8 8 0 0 1-6.496 12.64" fill="#96BEF0" p-id="47111"></path><path d="M824 544c-40.384 0-72-56.224-72-128 0-71.776 31.616-128 72-128a8 8 0 0 1 0 16C793.664 304 768 355.296 768 416s25.664 112 56 112c0.288 0 30.624-0.256 60.416-15.168C914.976 497.6 928 466.24 928 408c0-45.12-14.24-74.176-43.584-88.864a8 8 0 1 1 7.168-14.304c34.784 17.408 52.416 52.128 52.416 103.168 0 64.288-16.16 101.024-52.416 119.168A166.528 166.528 0 0 1 824 544" fill="#785AE6" p-id="47112"></path><path d="M936 416c0 39.744-14.336 72-32 72s-32-32.256-32-72 14.336-72 32-72 32 32.256 32 72" fill="#FA8CB4" p-id="47113"></path><path d="M904 496a8 8 0 0 1 0-16c9.792 0 24-24.928 24-64s-14.208-64-24-64-24 24.928-24 64a8 8 0 0 1-16 0c0-45.6 17.216-80 40-80s40 34.4 40 80-17.216 80-40 80" fill="#785AE6" p-id="47114"></path><path d="M344 696s16-48 80-48 96 48 96 112-16 240-80 240c-48 0-80-112-80-112h-176s-32 112-80 112c-64 0-80-176-80-240s32-112 96-112 80 48 80 48h144" fill="#A2BAFF" p-id="47115"></path><path d="M440 968c-37.92 0-55.872-69.888-61.728-99.264a15.936 15.936 0 0 0-15.68-12.736H181.44a15.936 15.936 0 0 0-15.68 12.736c-5.856 29.376-23.808 99.264-61.728 99.264-58.24 0-76.736-145.76-79.584-220.224a180.224 180.224 0 0 0-0.416 12.224c0 64 16 240 80 240 48 0 80-112 80-112h176s32 112 80 112c64 0 80-176 80-240 0-4.16-0.16-8.224-0.416-12.224-2.848 74.464-21.312 220.224-79.584 220.224" fill="#96AAF0" p-id="47116"></path><path d="M120 680c64 0 80 48 80 48h144s16-48 80-48c59.84 0 91.712 41.984 95.584 99.776 0.288-7.36 0.416-14.016 0.416-19.776 0-64-32-112-96-112s-80 48-80 48h-144s-16-48-80-48-96 48-96 112c0 5.76 0.128 12.448 0.416 19.776 3.872-57.792 35.712-99.776 95.584-99.776" fill="#B4C8FF" p-id="47117"></path><path d="M184 880h176a8 8 0 0 1 7.68 5.792c8.448 29.568 37.92 106.208 72.32 106.208 50.88 0 72-151.104 72-232 0-65.12-32.896-104-88-104-57.568 0-72.256 42.112-72.416 42.528a8 8 0 0 1-7.584 5.472h-144a8 8 0 0 1-7.584-5.472c-0.576-1.696-15.296-42.528-72.416-42.528C64.896 656 32 694.88 32 760 32 840.896 53.12 992 104 992c34.432 0 63.872-76.64 72.32-106.208a8 8 0 0 1 7.68-5.792z m256 128c-47.52 0-78.016-86.592-85.952-112H189.952c-7.904 25.408-38.432 112-85.952 112C18.4 1008 16 762.496 16 760 16 685.984 55.872 640 120 640c56.416 0 78.656 34.336 85.28 48h133.44c6.624-13.664 28.864-48 85.28-48 64.16 0 104 45.984 104 120 0 2.496-2.4 248-88 248z" fill="#785AE6" p-id="47118"></path><path d="M168 736a24 24 0 1 1-48 0 24 24 0 0 1 48 0M104 800a24 24 0 1 1-48 0 24 24 0 0 1 48 0" fill="#F0DC78" p-id="47119"></path><path d="M312 840h-80a16 16 0 0 1 0-32h80a16 16 0 0 1 0 32" fill="#E678A0" p-id="47120"></path><path d="M472 744h-32v-32h-32v32h-32v32h32v32h32v-32h32v-32" fill="#F0DC78" p-id="47121"></path><path d="M272 704a8 8 0 0 1-8-8v-80c0-8.992-9.952-15.04-26.368-24C217.28 580.928 192 567.168 192 536 192 491.712 228.64 480 248 480a8 8 0 0 1 0.032 16c-4.096 0.032-40.032 1.408-40.032 40 0 21.664 18.112 31.52 37.28 41.952 17.056 9.28 34.72 18.912 34.72 38.048v80a8 8 0 0 1-8 8M616 272H560a8 8 0 0 1 0-16h56a8 8 0 0 1 0 16" fill="#785AE6" p-id="47122"></path></svg>