<?xml version="1.0" standalone="no"?><!DOCTYPE svg PUBLIC "-//W3C//DTD SVG 1.1//EN" "http://www.w3.org/Graphics/SVG/1.1/DTD/svg11.dtd"><svg t="1703550637405" class="icon" viewBox="0 0 4187 1024" version="1.1" xmlns="http://www.w3.org/2000/svg" p-id="4832" xmlns:xlink="http://www.w3.org/1999/xlink" width="196.265625" height="48"><path d="M844.549689 1005.317689h559.627378a103.6288 103.6288 0 0 0 50.631111-13.164089 99.692089 99.692089 0 0 0 37.057422-35.953778 95.869156 95.869156 0 0 0 13.550933-49.117866 95.9488 95.9488 0 0 0-13.585066-49.095112L1116.000711 226.554311a99.760356 99.760356 0 0 0-37.057422-35.953778 103.640178 103.640178 0 0 0-50.619733-13.152711 103.640178 103.640178 0 0 0-50.619734 13.164089 99.748978 99.748978 0 0 0-37.057422 35.9424l-96.096711 161.564445L656.668444 72.192a99.817244 99.817244 0 0 0-37.0688-35.953778 103.708444 103.708444 0 0 0-50.631111-13.152711 103.708444 103.708444 0 0 0-50.631111 13.164089 99.817244 99.817244 0 0 0-37.0688 35.9424L13.596444 857.986844A95.926044 95.926044 0 0 0 0 907.081956a95.914667 95.914667 0 0 0 13.539556 49.117866 99.760356 99.760356 0 0 0 37.0688 35.953778 103.651556 103.651556 0 0 0 50.631111 13.164089h351.288889c139.184356 0 241.823289-59.312356 312.456533-175.0016l171.463111-288.0512 91.8528-154.146133 275.638044 463.041422H936.448l-91.898311 154.157511zM446.805333 850.989511l-245.1456-0.056889L569.116444 233.585778l183.364267 308.679111-122.766222 206.313244c-46.910578 75.070578-100.192711 102.422756-182.931911 102.422756z" fill="#00DC82" p-id="4833"></path></svg>