<?xml version="1.0" standalone="no"?><!DOCTYPE svg PUBLIC "-//W3C//DTD SVG 1.1//EN" "http://www.w3.org/Graphics/SVG/1.1/DTD/svg11.dtd"><svg t="1703550775941" class="icon" viewBox="0 0 1024 1024" version="1.1" xmlns="http://www.w3.org/2000/svg" p-id="5741" xmlns:xlink="http://www.w3.org/1999/xlink" width="48" height="48"><path d="M574.549333 846.08h380.672c12.074667 0 23.978667-3.114667 34.432-8.96a67.84 67.84 0 0 0 25.216-24.490667 65.28 65.28 0 0 0 9.216-33.408 65.237333 65.237333 0 0 0-9.258666-33.365333L759.210667 316.330667a67.84 67.84 0 0 0-25.216-24.448 70.485333 70.485333 0 0 0-34.432-8.96c-12.074667 0-23.978667 3.114667-34.432 8.96a67.84 67.84 0 0 0-25.173334 24.448L574.506667 426.24 446.805333 211.328a67.882667 67.882667 0 0 0-25.216-24.448 70.528 70.528 0 0 0-34.432-8.96c-12.117333 0-23.978667 3.114667-34.432 8.96a67.882667 67.882667 0 0 0-25.216 24.448L9.301333 745.856a65.28 65.28 0 0 0-9.258666 33.365333c0 11.733333 3.157333 23.253333 9.216 33.408a67.84 67.84 0 0 0 25.173333 24.490667c10.496 5.845333 22.4 8.96 34.474667 8.96h238.933333c94.72 0 164.522667-40.362667 212.565333-119.04l116.608-195.968 62.464-104.832 187.52 314.965333h-249.984z m-270.549333-104.96l-166.741333-0.085333 249.941333-419.925334 124.714667 209.962667-83.498667 140.373333c-31.914667 51.029333-68.138667 69.632-124.416 69.632z" fill="#00DC82" p-id="5742"></path></svg>