<?xml version="1.0" standalone="no"?><!DOCTYPE svg PUBLIC "-//W3C//DTD SVG 1.1//EN" "http://www.w3.org/Graphics/SVG/1.1/DTD/svg11.dtd"><svg t="1703030743328" class="icon" viewBox="0 0 1024 1024" version="1.1" xmlns="http://www.w3.org/2000/svg" p-id="14301" xmlns:xlink="http://www.w3.org/1999/xlink" width="48" height="48"><path d="M888.802978 399.251919c-20.774996 25.254205-74.141568 35.449737-116.71538 22.353384-40.568833-12.499125-53.750504-40.952765-31.653075-63.306149 21.07361-21.457543 68.425245-31.013188 108.098236-21.11627 41.251379 10.238191 60.447988 37.75333 40.270219 61.727762m-187.401559-51.48957c-22.05477 21.756156-69.705019 31.055847-104.258914 20.476382-19.196609-5.716323-29.733414-17.916835-30.373301-28.155026-0.341273-7.678643-12.797739-15.016014-26.235365-18.855335-13.73624-3.839322-29.4348-3.540708-45.389315-1.621047a113.558605 113.558605 0 0 0-17.916834 3.839321c-14.674741 4.820482-27.173866 9.939577-37.710671 18.258108a50.337774 50.337774 0 0 0-17.276948 35.83367c0.341273 9.555645 9.598304 17.916835 24.01709 23.03593 13.778899 5.119096 31.013188 5.716323 48.247477 3.156775 21.116269-5.41771 44.1522-5.758983 63.050194 0.597228 34.553895 11.517965 43.128381 41.592652 17.234289 67.18813-27.173866 26.533979-79.644596 36.430897-114.497106 22.054771-19.196609-8.019916-26.192706-23.03593-27.173866-36.772171-0.98116-10.536805-10.878078-19.196609-24.614318-24.614318-13.778899-5.41771-29.776073-5.119096-47.692908-3.839321-2.218275 0-13.096353 2.260934-19.495222 3.839321-8.958417 2.260934-27.47248 7.38003-42.829767 21.756157-12.115193 11.517965-17.618221 22.353384-20.774996 29.136186-1.919661 3.839322-3.839322 12.115193-4.137936 15.357287-0.341273 12.115193 6.697483 23.03593 20.774997 30.032027 13.778899 6.996097 31.994348 8.659803 50.50841 6.100256 23.334544-6.100256 47.948862-5.41771 66.846857 3.540708 34.852509 16.295788 38.990445 55.030278 6.100255 86.939307-34.212622 33.572735-92.740949 44.109541-127.294844 23.633158-18.897995-11.176692-24.315704-28.45364-21.756157-48.247476 2.559548-19.793836 0-4.820482-0.639887-7.38003 0 0-0.597228-3.839322-3.156775-8.958417a39.672991 39.672991 0 0 0-17.234289-16.637061c-13.437626-7.33737-31.354461-9.257031-49.911182-6.697483-23.334544 6.100256-46.071861 5.119096-60.746602-3.839322-25.595478-15.357287-17.916835-47.650248 14.674741-71.965953a135.229443 135.229443 0 0 1 56.90728-24.01709c18.556722-3.498049 37.412057-11.517965 52.47073-23.03593 14.674741-11.176692 22.353384-23.334544 23.03593-33.87135 0.682546-10.536805 0-5.716323-0.597227-11.517965-0.639887-9.257031 0-18.215449 8.617144-27.856412 5.460369-6.39887 17.618221-12.456466 30.714574-14.674741 8.958417-1.578388 20.476383-1.279774 27.173866-1.578387 5.758983 0 15.69856-1.279774 19.196608-2.260934 13.139012-3.839322 21.116269-7.977257 31.055847-15.655901 9.896918-7.678643 16.295788-15.655901 17.234289-23.03593 0-1.578388 0.597228-8.659803 0.597227-9.555646-3.156776-17.276948 21.756156-36.174942 56.310052-42.232539 17.276948-3.199435 33.871349-2.260934 46.370475 1.578388h1.279774c12.499125 3.540708 20.476383 9.257031 23.675817 16.338447v0.597228s0.938501 2.559548 0.938501 3.839322c2.900821 7.678643 11.517965 14.077513 25.595478 17.916834 13.778899 3.540708 30.074687 3.839322 46.071861 1.279774 19.196609-4.820482 40.611492-5.716323 59.168213-0.98116 33.914009 8.31853 45.431974 31.695734 24.017091 52.769344m-80.241824 384.06015c-33.914009 41.251379-101.699366 53.067958-146.832727 26.192706-42.531153-25.595478-46.370475-74.824114-12.115193-109.975238 32.591575-33.572735 90.821288-44.1522 133.011168-24.656977 44.792087 20.817656 57.931099 69.107791 25.936752 108.140895m332.229306-499.197142L546.932709 8.408968a67.529403 67.529403 0 0 0-65.26847 0l-406.413533 224.813616A61.983716 61.983716 0 0 0 42.65913 287.314361v449.28596c0 22.353384 12.499125 42.829767 32.591576 54.049118l406.498852 224.813616a67.529403 67.529403 0 0 0 65.268469 0l406.456193-224.813616c20.135109-11.219351 32.591575-31.695734 32.591575-54.049118V286.973088c0-22.353384-12.499125-42.829767-32.591575-54.049118" fill="#002FA7" p-id="14302"></path></svg>