<?xml version="1.0" standalone="no"?><!DOCTYPE svg PUBLIC "-//W3C//DTD SVG 1.1//EN" "http://www.w3.org/Graphics/SVG/1.1/DTD/svg11.dtd"><svg t="1703599994969" class="icon" viewBox="0 0 1050 1024" version="1.1" xmlns="http://www.w3.org/2000/svg" p-id="9467" xmlns:xlink="http://www.w3.org/1999/xlink" width="49.21875" height="48"><path d="M62 62m163.46153848 0l596.1538459 0q163.46153848 0 163.46153848 163.46153848l0 573.07692305q0 163.46153848-163.46153848 163.46153847l-596.1538459 0q-163.46153848 0-163.46153848-163.46153847l0-573.07692305q0-163.46153848 163.46153848-163.46153848Z" fill="#001E36" p-id="9468"></path><path d="M269.85384599 693.13461523V297.44615411c0-2.88461513 1.23846153-4.33461533 3.71538458-4.33461534 6.59615362 0 12.62307656-0.0961541 21.70769238-0.30769278q13.61538457-0.3076919 29.41153857-0.61923076 15.79230791-0.3076919 33.44230811-0.61923075 17.6461541-0.3076919 34.98461455-0.3076919 47.05384658 0 79.26153926 11.76153838a137.51923096 137.51923096 0 0 1 51.70769209 31.58076884 121.13846192 121.13846192 0 0 1 28.17307705 43.6538461 144.80384589 144.80384589 0 0 1 8.66923066 49.85000068q0 49.5500001-22.91153906 81.73846143a129.4538458 129.4538458 0 0 1-61.92307618 46.753846c-26.00769199 9.70384658-54.90769219 12.99615381-86.69230839 12.9961538q-13.62692285 0-19.19615362-0.30769278-5.57307685-0.3076919-16.71923056-0.31538407v123.54615352a4.92307734 4.92307734 0 0 1-5.57307686 5.57692294H274.18846133c-2.89230732 0-4.33461533-1.64615362-4.33461534-4.95769219zM353.48461543 367.42307715v129.05769199q8.03846162 0.62307685 14.86153829 0.61923076h20.43461513a145.23076933 145.23076933 0 0 0 44.27692383-7.06923105 66.76153857 66.76153857 0 0 0 31.57692275-20.43461513q12.07692334-14.23461533 12.07692334-39.63076875a62.62692276 62.62692276 0 0 0-8.98076953-34.05769278 57.7461542 57.7461542 0 0 0-26.93461552-21.98076943 114.76923047 114.76923047 0 0 0-45.20384562-7.74230714q-14.86153828 0-26.31538476 0.3076919-11.46538477 0.32307714-15.79230791 0.93076963zM800.3499998 473.01153857a144.78076934 144.78076934 0 0 0-36.84615381-13.00384599 195.67307724 195.67307724 0 0 0-43.03461532-4.9538461 80.08461562 80.08461562 0 0 0-23.21923096 2.78461495 20.86538467 20.86538467 0 0 0-12.07692247 7.742308 19.50000029 19.50000029 0 0 0-3.0961538 10.52692295 16.44230742 16.44230742 0 0 0 3.71538457 9.90769219 42.14615362 42.14615362 0 0 0 12.9999999 10.21538496 259.41923086 259.41923086 0 0 0 27.24999961 12.69230713 270 270 0 0 1 59.13461514 28.17692314 89.93076943 89.93076943 0 0 1 30.34615429 31.89230772 85.02692344 85.02692344 0 0 1 8.97692344 39.63076962 89.01153809 89.01153809 0 0 1-14.86153916 51.08461524 97.75384629 97.75384629 0 0 1-43.03846142 34.36923077q-28.18461533 12.38076914-69.66153809 12.38461523a251.93846162 251.93846162 0 0 1-52.32692285-4.95384609 166.95384609 166.95384609 0 0 1-39.31923077-12.38461524 8.01923115 8.01923115 0 0 1-4.3346162-7.43076914v-66.87692314a3.63846182 3.63846182 0 0 1 1.55000039-3.40769268 3.0038458 3.0038458 0 0 1 3.40384658 0.30769278 165.42692315 165.42692315 0 0 0 47.68076865 18.88846171 196.62307734 196.62307734 0 0 0 45.20384649 5.88461485q21.66923057 0 31.88846161-5.57692296a17.50384599 17.50384599 0 0 0 10.21923018-16.0961537q0-8.03846162-9.28846143-15.48076904-9.28846143-7.43076914-37.77307646-17.96153907a227.63076943 227.63076943 0 0 1-54.80384677-27.86153819 94.50769219 94.50769219 0 0 1-29.10384581-32.51153847 85.39230761 85.39230761 0 0 1-8.97692343-39.31923076 88.76923066 88.76923066 0 0 1 13.00000078-46.44230801 94.5 94.5 0 0 1 40.2538456-35.29615342q27.24230742-13.61538457 68.11538467-13.62307676a301.54230791 301.54230791 0 0 1 47.68076953 3.4038457 124.98846153 124.98846153 0 0 1 33.19230762 8.98076953 5.64615352 5.64615352 0 0 1 3.71923066 3.40384571 17.11153828 17.11153828 0 0 1 0.61538466 4.6461542v62.53846172a4.16153847 4.16153847 0 0 1-1.85384618 3.71923066 5.98461503 5.98461503 0 0 1-5.33076944 0z" fill="#31A8FF" p-id="9469"></path></svg>