<?xml version="1.0" standalone="no"?><!DOCTYPE svg PUBLIC "-//W3C//DTD SVG 1.1//EN" "http://www.w3.org/Graphics/SVG/1.1/DTD/svg11.dtd"><svg t="1702984612952" class="icon" viewBox="0 0 1024 1024" version="1.1" xmlns="http://www.w3.org/2000/svg" p-id="46454" xmlns:xlink="http://www.w3.org/1999/xlink" width="48" height="48"><path d="M852.7872 1022.3616H171.2128C77.4144 1022.3616 1.6384 946.5856 1.6384 852.7872V171.2128C1.6384 77.4144 77.4144 1.6384 171.2128 1.6384h681.5744c93.7984 0 169.5744 75.776 169.5744 169.5744v681.5744c0 93.7984-75.776 169.5744-169.5744 169.5744z" fill="#067BEF" p-id="46455"></path><path d="M553.7792 506.6752c0 173.2608-105.2672 272.384-247.808 272.384-145.8176 0-237.9776-111.4112-237.9776-263.3728 0-158.9248 99.9424-270.7456 245.3504-270.7456 151.552 0.4096 240.4352 114.688 240.4352 261.7344zM167.936 514.4576c0 105.2672 52.8384 188.8256 143.36 188.8256 91.3408 0 142.5408-84.3776 142.5408-192.512 0-97.4848-48.3328-189.6448-142.5408-189.6448-93.3888 0-143.36 86.8352-143.36 193.3312zM617.6768 508.3136c0-43.008-0.8192-79.0528-2.8672-111.4112h82.7392l4.5056 56.1152h2.4576c15.9744-29.0816 56.9344-64.3072 118.784-64.3072 65.1264 0 132.7104 42.1888 132.7104 160.5632v221.5936h-94.208v-210.944c0-53.6576-20.0704-94.208-71.2704-94.208-37.6832 0-63.488 27.0336-73.728 55.296-2.8672 8.6016-3.6864 20.0704-3.6864 30.72v219.5456h-95.0272l-0.4096-262.9632z" fill="#FFFFFF" p-id="46456"></path></svg>