<svg xmlns="http://www.w3.org/2000/svg" xmlns:xlink="http://www.w3.org/1999/xlink" viewBox="0 0 992.89 253.75"><defs><style>.svg_logo_1587008371645-1{fill:url(#svg_style_667678_43);}.svg_logo_1587008371645-2{fill:url(#svg_style_667678_43-2);}.svg_logo_1587008371645-3{fill:url(#svg_style_667678_43-3);}.svg_logo_1587008371645-4{fill:url(#svg_style_667678_43-4);}.svg_logo_1587008371645-5{fill:url(#svg_style_667678_43-5);}.svg_logo_1587008371645-6{fill:url(#svg_style_667678_43-6);}.svg_logo_1587008371645-7{fill:url(#svg_style_667678_43-7);}.svg_logo_1587008371645-8{fill:url(#svg_style_667678_43-8);}.svg_logo_1587008371645-9{fill:url(#svg_style_667678_43-9);}.svg_logo_1587008371645-10{fill:url(#svg_style_667678_43-10);}.svg_logo_1587008371645-11{fill:url(#svg_style_667678_43-12);}</style><linearGradient id="svg_style_667678_43" x1="120.1" y1="0.22" x2="138.76" y2="352.22" gradientUnits="userSpaceOnUse"><stop offset="0" stop-color="#67ab3f"/><stop offset="1" stop-color="#1ba35b"/></linearGradient><linearGradient id="svg_style_667678_43-2" x1="177.45" y1="-2.98" x2="196.11" y2="349.02" xlink:href="#svg_style_667678_43"/><linearGradient id="svg_style_667678_43-3" x1="415.03" y1="9.67" x2="415.03" y2="240.8" xlink:href="#svg_style_667678_43"/><linearGradient id="svg_style_667678_43-4" x1="585.31" y1="9.67" x2="585.31" y2="240.8" xlink:href="#svg_style_667678_43"/><linearGradient id="svg_style_667678_43-5" x1="649.96" y1="9.67" x2="649.96" y2="240.8" xlink:href="#svg_style_667678_43"/><linearGradient id="svg_style_667678_43-6" x1="901.84" y1="9.67" x2="901.84" y2="240.8" xlink:href="#svg_style_667678_43"/><linearGradient id="svg_style_667678_43-7" x1="552.98" y1="9.67" x2="552.98" y2="240.8" xlink:href="#svg_style_667678_43"/><linearGradient id="svg_style_667678_43-8" x1="617.64" y1="9.67" x2="617.64" y2="240.8" xlink:href="#svg_style_667678_43"/><linearGradient id="svg_style_667678_43-9" x1="682.29" y1="9.67" x2="682.29" y2="240.8" xlink:href="#svg_style_667678_43"/><linearGradient id="svg_style_667678_43-10" x1="415.03" y1="9.67" x2="415.03" y2="240.8" xlink:href="#svg_style_667678_43"/><linearGradient id="svg_style_667678_43-12" x1="736.91" y1="9.67" x2="736.91" y2="240.8" xlink:href="#svg_style_667678_43"/></defs><title>logo</title><g id="layer_2" data-name="layer 2"><g id="layer_1-2" data-name="layer 1"><path class="svg_logo_1587008371645-1" d="M126.54,253.72A126.7,126.7,0,0,1,37.13,37.23a126.72,126.72,0,0,1,216,100.94,22.34,22.34,0,1,1-44.5-4,82.32,82.32,0,1,0-74.53,74.52,22.34,22.34,0,1,1,4,44.5Q132.28,253.73,126.54,253.72Z"/><path class="svg_logo_1587008371645-2" d="M247,215.3l-87.24-87.24h0a22.32,22.32,0,0,0-31.56,31.57h0l87.23,87.23h0A22.32,22.32,0,0,0,247,215.3Z"/><path class="svg_logo_1587008371645-3" d="M498.08,12.85H424.67V8a8,8,0,0,0-8-8H413.4a8,8,0,0,0-8,8v4.84H332a8,8,0,0,0-8,8v3.27a8,8,0,0,0,8,8H405.4V48.18H332a8,8,0,0,0-8,8v3.26a8,8,0,0,0,8,8H405.4V83.51H332a8,8,0,0,0-8,8v3.26a8,8,0,0,0,8,8H498.08a8,8,0,0,0,8-8V91.52a8,8,0,0,0-8-8H424.67V67.45h73.41a8,8,0,0,0,8-8V56.19a8,8,0,0,0-8-8H424.67V32.12h73.41a8,8,0,0,0,8-8V20.85A8,8,0,0,0,498.08,12.85Z"/><path class="svg_logo_1587008371645-4" d="M619.27,32.12a8,8,0,0,0,8-8V20.85a8,8,0,0,0-8-8H594.94V8a8,8,0,0,0-8-8h-3.26a8,8,0,0,0-8,8v4.84H551.35a8,8,0,0,0-8,8v3.27a8,8,0,0,0,8,8h24.32V245.75a8,8,0,0,0,8,8h3.26a8,8,0,0,0,8-8V32.12Z"/><path class="svg_logo_1587008371645-5" d="M683.92,12.85H658.57V9.64a9.64,9.64,0,0,0-19.28,0V65.9H616a8,8,0,0,0-8,8v3.26a8,8,0,0,0,8,8h23.28v159a9.64,9.64,0,0,0,19.28,0V85.17h25.35a8,8,0,0,0,8-8V73.9a8,8,0,0,0-8-8H658.57V32.12h25.35a8,8,0,0,0,8-8V20.85A8,8,0,0,0,683.92,12.85Z"/><rect class="svg_logo_1587008371645-6" x="833.92" y="12.85" width="135.84" height="19.27" rx="8.01"/><rect class="svg_logo_1587008371645-7" x="543.34" y="48.18" width="19.27" height="205.57" rx="8.01"/><rect class="svg_logo_1587008371645-8" x="608" y="97.77" width="19.27" height="155.98" rx="8.01"/><rect class="svg_logo_1587008371645-9" x="672.65" y="97.77" width="19.27" height="155.98" rx="8.01"/><path class="svg_logo_1587008371645-10" d="M480.78,118.85H349.29a21,21,0,0,0-21,21V244.12a9.63,9.63,0,0,0,9.63,9.63h0a9.64,9.64,0,0,0,9.64-9.63V173.45H461.32a8,8,0,0,0,8-8v-3.27a8,8,0,0,0-8-8H347.58v-9.31a6.75,6.75,0,0,1,6.75-6.75h121.4a6.76,6.76,0,0,1,6.76,6.75v44.64H368.12a8,8,0,0,0-8,8v3.26a8,8,0,0,0,8,8H482.49v18.95a6.76,6.76,0,0,1-6.76,6.75h-31.6a9.64,9.64,0,0,0-9.64,9.64h0a9.64,9.64,0,0,0,9.64,9.63h36.65a21,21,0,0,0,21-21V139.83A21,21,0,0,0,480.78,118.85Z"/><path class="svg_logo_1587008371645-6" d="M900.24,102.79h84.65a8,8,0,0,0,8-8V91.52a8,8,0,0,0-8-8H818.79a8,8,0,0,0-8,8v3.26a8,8,0,0,0,8,8h55.89L816.9,209.13c-9,21.15,6.48,44.62,29.34,44.62H966a24.78,24.78,0,0,0,23.62-32l-7.58-25.22a9.18,9.18,0,1,0-17.58,5.28L969.36,218a12.11,12.11,0,0,1-11.54,15.63H850.32a12.11,12.11,0,0,1-11.09-16.87Z"/><path class="svg_logo_1587008371645-11" d="M741.57,12.85H715.16a9.64,9.64,0,1,0,0,19.27h23.63A10.23,10.23,0,0,1,749,42.35l-.36,93a47,47,0,0,1-3.27,17L736.91,174l-8.49-21.59a46.88,46.88,0,0,1-3.27-17l-.32-77.6a9.63,9.63,0,0,0-9.63-9.6h0a9.64,9.64,0,0,0-9.64,9.64V133.4a56.36,56.36,0,0,0,4,20.81l17.67,44.51L710.34,241.5a9,9,0,0,0,8.34,12.25h0a9,9,0,0,0,8.35-5.68l9.82-25,9.92,25a9,9,0,0,0,8.34,5.66h0a9,9,0,0,0,8.34-12.25l-16.93-43L764,154a56.19,56.19,0,0,0,3.91-20.42l.36-94A26.72,26.72,0,0,0,741.57,12.85Z"/></g></g></svg>