<?xml version="1.0" standalone="no"?><!DOCTYPE svg PUBLIC "-//W3C//DTD SVG 1.1//EN" "http://www.w3.org/Graphics/SVG/1.1/DTD/svg11.dtd"><svg t="1702998135807" class="icon" viewBox="0 0 1028 1024" version="1.1" xmlns="http://www.w3.org/2000/svg" p-id="44562" xmlns:xlink="http://www.w3.org/1999/xlink" width="48.1875" height="48"><path d="M1024 174.933333c-4.266667-4.266667-8.533333-4.266667-12.8-4.266666-12.8 4.266667-166.4 260.266667-499.2 251.733333-55.466667 0-115.2-4.266667-170.666667-21.333333l-25.6-89.6s-4.266667-21.333333-25.6-34.133334c-17.066667-8.533333-25.6-8.533333-29.866666-4.266666v4.266666l12.8 102.4C106.666667 307.2 21.333333 174.933333 12.8 170.666667c-4.266667 0-8.533333 0-12.8 4.266666v12.8c46.933333 140.8 149.333333 251.733333 281.6 311.466667l38.4 243.2C324.266667 810.666667 371.2 853.333333 430.933333 853.333333h183.466667c59.733333 0 106.666667-42.666667 110.933333-110.933333l34.133334-200.533333v-4.266667s-17.066667 0-51.2 21.333333c-34.133333 25.6-42.666667 59.733333-42.666667 59.733334s-34.133333 85.333333-42.666667 119.466666c-8.533333 38.4-51.2 34.133333-51.2 34.133334H469.333333c-17.066667 0-34.133333-12.8-34.133333-29.866667l-59.733333-213.333333c42.666667 12.8 89.6 17.066667 140.8 17.066666 238.933333 0 439.466667-145.066667 512-358.4-4.266667 0-4.266667-8.533333-4.266667-12.8" fill="#02A7E0" p-id="44563"></path></svg>