<?xml version="1.0" standalone="no"?><!DOCTYPE svg PUBLIC "-//W3C//DTD SVG 1.1//EN" "http://www.w3.org/Graphics/SVG/1.1/DTD/svg11.dtd"><svg t="1702984548177" class="icon" viewBox="0 0 1024 1024" version="1.1" xmlns="http://www.w3.org/2000/svg" p-id="45449" xmlns:xlink="http://www.w3.org/1999/xlink" width="48" height="48"><path d="M720.288 144H258.624a92.512 92.512 0 0 0-90.848 84.928L128.224 795.072A78.112 78.112 0 0 0 207.168 880h566.016A92.448 92.448 0 0 0 864 795.072l31.648-452.448z" fill="#2B65F4" p-id="45450"></path><path d="M791.712 342.624h104.32L720.672 144l-7.936 113.728a78.144 78.144 0 0 0 78.976 84.896z" fill="#00DBFE" p-id="45451"></path><path d="M655.072 305.44H221.152a28.32 28.32 0 0 0-21.216 47.04l111.744 126.592a28.352 28.352 0 0 0 21.216 9.6h421.152a28.32 28.32 0 0 0 21.216-47.04z" fill="#FFFFFF" p-id="45452"></path><path d="M491.104 190.272L394.272 880h226.4l74.304-529.344-154.624-175.168a28.288 28.288 0 0 0-49.248 14.784z" fill="#FFFFFF" p-id="45453"></path></svg>