<?xml version="1.0" standalone="no"?><!DOCTYPE svg PUBLIC "-//W3C//DTD SVG 1.1//EN" "http://www.w3.org/Graphics/SVG/1.1/DTD/svg11.dtd"><svg t="1702997966740" class="icon" viewBox="0 0 1024 1024" version="1.1" xmlns="http://www.w3.org/2000/svg" p-id="37845" xmlns:xlink="http://www.w3.org/1999/xlink" width="48" height="48"><path d="M887.488 735.104c-28.608 28.672-67.84 44.16-108.288 42.688l-348.928 0.896c108.288-103.936 192.832-193.984 202.24-198.528 14.72-15.168 30.464-29.44 47.04-42.56 37.504-42.56 70.464-47.36 103.68-47.488a138.752 138.752 0 0 1 103.808 42.24c56.704 51.84 56.896 150.784 0 202.752h0.448z m70.016-268.864c-42.56-42.24-103.936-75.2-165.184-75.008-61.312 0.256-107.968 23.936-150.848 52.48-14.08 14.336-42.24 33.28-61.248 61.312-23.424 14.08-371.328 368.64-371.328 368.64l513.92-1.024c26.88 1.216 53.632-0.448 80.128-4.864a271.936 271.936 0 0 0 150.72-66.56c89.344-94.592 88.96-245.12 3.84-334.784v-0.192z" fill="#00A3FF" p-id="37846"></path><path d="M377.984 443.776a235.712 235.712 0 0 0-146.24-46.784 211.456 211.456 0 0 0-165.376 76.288 243.328 243.328 0 0 0 5.312 339.392c37.76 37.696 80.256 56.448 127.36 56.32l94.08-89.984h-51.52a193.088 193.088 0 0 1-108.672-41.984c-56.704-56.32-56.896-145.92 0-207.36a131.904 131.904 0 0 1 103.104-42.688c28.416 0 56.576 4.544 94.464 42.24 14.336 18.688 56.704 46.976 70.912 65.792h4.672l56.448-66.176c-18.752-23.808-66.112-61.056-84.48-85.12" fill="#00C8DC" p-id="37847"></path><path d="M806.272 334.592C763.52 212.16 640.768 127.232 508.672 128c-160.256 0.384-287.232 118.656-315.072 269.44 9.344 0 23.488-4.672 37.632-4.672 14.208 0 37.76 4.608 51.904 4.48a221.568 221.568 0 0 1 216.384-174.976 229.056 229.056 0 0 1 207.68 131.392s4.8 4.736 4.736 0c33.088-4.672 66.048-18.944 94.336-19.072" fill="#006EFF" p-id="37848"></path></svg>