<?xml version="1.0" standalone="no"?><!DOCTYPE svg PUBLIC "-//W3C//DTD SVG 1.1//EN" "http://www.w3.org/Graphics/SVG/1.1/DTD/svg11.dtd"><svg t="1702999222113" class="icon" viewBox="0 0 1024 1024" version="1.1" xmlns="http://www.w3.org/2000/svg" p-id="72644" xmlns:xlink="http://www.w3.org/1999/xlink" width="48" height="48"><path d="M199.635244 47.860137h624.729512c97.038064 0 175.705175 78.667112 175.705175 175.705176v624.729512c0 97.038064-78.667112 175.705175-175.705175 175.705175H199.635244c-97.038064 0-175.705175-78.667112-175.705175-175.705175v-624.729512c0-97.038064 78.667112-175.705175 175.705175-175.705176z" fill="#FFFFFF" p-id="72645"></path><path d="M614.055423 216.244264c260.39507 149.974128 251.912414 190.034908 1.288504 334.493846-250.633671 144.4687-289.659743 146.665014-289.327855-165.592366 0.312365-312.267142 27.644281-318.88537 288.039351-168.90148z" fill="#4395F8" p-id="72646"></path><path d="M500.989142 244.093534c237.592443 110.20619 230.80827 161.785421 1.015186 267.589221-229.783324 105.813561-251.238878 117.332011-250.965559-132.46218 0.263558-249.803952 12.357931-245.32347 249.950373-135.127041z" fill="#F08E35" p-id="72647"></path><path d="M500.989142 244.093534c237.592443 110.20619 230.80827 161.785421 1.015186 267.589221-79.731104 36.722382-129.201872 59.690953-162.576094 66.738682 0 0-14.124744-20.957723-13.109559-198.693269 1.005424-177.745308 14.573768-202.373316 14.573768-202.373316 25.155124 5.251632 87.852588 33.227801 160.086938 66.738682z" fill="#79E345" p-id="72648"></path><path d="M486.307999 433.601327c-96.188822 55.639972-98.004442 51.29615-97.936113-56.04019 0.06833-107.336339-2.450111-114.208364 97.174724-56.616112 99.624834 57.592252 96.950211 56.996807 0.761389 112.656302z" fill="#FFFFFF" p-id="72649"></path><path d="M23.930069 701.873845s244.034966-19.522797 488.069931-19.522797 488.069931 19.522797 488.069931 19.522797v146.42098c0 97.038064-78.667112 175.705175-175.705175 175.705175H199.635244c-97.038064 0-175.705175-78.667112-175.705175-175.705175v-146.42098z" fill="#E8DAC0" p-id="72650"></path><path d="M23.930069 740.91944s244.034966-58.568392 488.069931-58.568392 488.069931 58.568392 488.069931 58.568392v107.375385c0 97.038064-78.667112 175.705175-175.705175 175.705175H199.635244c-97.038064 0-175.705175-78.667112-175.705175-175.705175v-107.375385z" fill="#232323" p-id="72651" data-spm-anchor-id="a313x.search_index.0.i39.ee927615WwBjfd" class="selected"></path><path d="M385.101818 789.726433h117.136783v29.284196H385.101818v-29.284196z" fill="#E8DAC0" p-id="72652"></path><path d="M385.101818 789.726433h117.136783v29.284196H385.101818v-29.284196zM385.101818 838.533426h117.136783l9.761399 29.284196H375.340419l9.761399-29.284196z" fill="#E8DAC0" p-id="72653"></path><path d="M385.101818 838.533426h117.136783l9.761399 29.284196H375.340419l9.761399-29.284196z" fill="#E8DAC0" p-id="72654"></path><path d="M375.340419 740.91944h136.659581l-9.761399 29.284196H385.101818l-9.761399-29.284196z" fill="#E8DAC0" p-id="72655"></path><path d="M375.340419 740.91944h136.659581l-9.761399 29.284196H385.101818l-9.761399-29.284196z" fill="#E8DAC0" p-id="72656"></path><path d="M538.355776 740.91944H560.806993l-15.130168 37.376395v89.521787h-22.451217V800.532301H512l26.355776-59.612861z" fill="#E8DAC0" p-id="72657"></path><path d="M538.355776 740.91944H560.806993l-15.130168 37.376395v89.521787h-22.451217V800.532301H512l26.355776-59.612861z" fill="#E8DAC0" p-id="72658"></path><path d="M552.997874 753.335939h38.069455v-12.416499h19.522797v12.416499H648.659581l-9.761399 19.522797h-28.308056v57.865571h11.713678l-7.809118-49.587905h19.522797l14.642098 86.68122h-19.522797l-3.41649-17.570518H610.590126v17.570518h-19.522797v-17.570518h-15.081361l-3.465297 17.570518h-19.522797l14.642098-86.68122h19.522797l-7.809118 49.587905h11.713678v-57.865571h-28.308056l-9.761399-19.522797z" fill="#E8DAC0" p-id="72659"></path><path d="M553.007636 753.335939h38.069454v-12.416499h19.522798v12.416499h38.069454l-9.761398 19.522797h-28.308056v57.865571h11.713678l-7.809119-49.587905h19.522797l14.642098 86.68122h-19.522797l-3.41649-17.570518h-15.130167v17.570518h-19.522798v-17.570518h-15.081361l-3.465296 17.570518h-19.522797l14.642098-86.68122h19.522797l-7.809119 49.587905h11.713678v-57.865571h-28.308056l-9.761398-19.522797z" fill="#E8DAC0" p-id="72660"></path><path d="M291.392391 906.863216h39.045595v7.809119h-15.618238v40.997875H307.010629v-40.997875h-15.618238v-7.809119z" fill="#E8DAC0" p-id="72661"></path><path d="M291.392391 906.863216h39.045595v7.809119h-15.618238v40.997875H307.010629v-40.997875h-15.618238v-7.809119zM338.247104 906.863216h7.809119v20.498938h23.427357v-20.498938h7.809119v48.806994h-7.809119v-20.498937H346.056223v20.498937h-7.809119v-48.806994z" fill="#E8DAC0" p-id="72662"></path><path d="M338.247104 906.863216h7.809119v20.498938h23.427357v-20.498938h7.809119v48.806994h-7.809119v-20.498937H346.056223v20.498937h-7.809119v-48.806994zM385.101818 906.863216h31.236475a7.809119 7.809119 0 0 1 7.809119 7.809119h-31.236475v12.689819h22.939287a0.48807 0.48807 0 0 0 0.488069-0.48807v-11.713679a0.48807 0.48807 0 0 0-0.136659-0.35141 0.48807 0.48807 0 0 0-0.35141-0.13666H424.147412v12.689819a7.809119 7.809119 0 0 1-7.809119 7.809119l7.809119 20.498937h-7.809119l-7.809118-20.498937h-15.618238v20.498937H385.101818v-48.806994z" fill="#E8DAC0" p-id="72663"></path><path d="M385.101818 906.863216h31.236475a7.809119 7.809119 0 0 1 7.809119 7.809119h-31.236475v12.689819h22.939287a0.48807 0.48807 0 0 0 0.488069-0.48807v-11.713679a0.48807 0.48807 0 0 0-0.136659-0.35141 0.48807 0.48807 0 0 0-0.35141-0.13666H424.147412v12.689819a7.809119 7.809119 0 0 1-7.809119 7.809119l7.809119 20.498937h-7.809119l-7.809118-20.498937h-15.618238v20.498937H385.101818v-48.806994zM478.811245 906.863216h39.045594v7.809119h-31.236475v12.689819h31.236475v7.809119h-31.236475v12.689818h31.236475v7.809119h-39.045594v-48.806994z" fill="#E8DAC0" p-id="72664"></path><path d="M478.811245 906.863216h39.045594v7.809119h-31.236475v12.689819h31.236475v7.809119h-31.236475v12.689818h31.236475v7.809119h-39.045594v-48.806994zM431.956531 906.863216h39.045595v7.809119h-31.236476v12.689819h31.236476v7.809119h-31.236476v12.689818h31.236476v7.809119h-39.045595v-48.806994z" fill="#E8DAC0" p-id="72665"></path><path d="M431.956531 906.863216h39.045595v7.809119h-31.236476v12.689819h31.236476v7.809119h-31.236476v12.689818h31.236476v7.809119h-39.045595v-48.806994z" fill="#E8DAC0" p-id="72666"></path><path d="M525.665958 927.362154h19.522797v7.809119h-19.522797v-7.809119z" fill="#E8DAC0" p-id="72667"></path><path d="M525.665958 927.362154h19.522797v7.809119h-19.522797v-7.809119z" fill="#E8DAC0" p-id="72668"></path><path d="M552.997874 906.863216h7.809119v20.498938h22.451217a0.97614 0.97614 0 0 0 0.97614-0.97614v-10.737539a0.97614 0.97614 0 0 0-0.97614-0.97614H560.806993v-7.809119h23.427357a7.809119 7.809119 0 0 1 7.809119 7.809119v8.785259a7.809119 7.809119 0 0 1-7.809119 7.809119 7.809119 7.809119 0 0 1 7.809119 7.809119v8.785259a7.809119 7.809119 0 0 1-7.809119 7.809119H560.806993v-7.809119h22.451217a0.97614 0.97614 0 0 0 0.97614-0.97614v-10.737539a0.97614 0.97614 0 0 0-0.97614-0.976139H560.806993v20.498937h-7.809119v-48.806994z" fill="#E8DAC0" p-id="72669"></path><path d="M552.997874 906.863216h7.809119v20.498938h22.451217a0.97614 0.97614 0 0 0 0.97614-0.97614v-10.737539a0.97614 0.97614 0 0 0-0.97614-0.97614H560.806993v-7.809119h23.427357a7.809119 7.809119 0 0 1 7.809119 7.809119v8.785259a7.809119 7.809119 0 0 1-7.809119 7.809119 7.809119 7.809119 0 0 1 7.809119 7.809119v8.785259a7.809119 7.809119 0 0 1-7.809119 7.809119H560.806993v-7.809119h22.451217a0.97614 0.97614 0 0 0 0.97614-0.97614v-10.737539a0.97614 0.97614 0 0 0-0.97614-0.976139H560.806993v20.498937h-7.809119v-48.806994z" fill="#E8DAC0" p-id="72670"></path><path d="M609.613986 906.863216h19.522798a9.761399 9.761399 0 0 1 9.761398 9.761399h-7.809119a1.95228 1.95228 0 0 0-1.952279-1.95228h-19.522798c-1.073754 0-1.95228 0.097614-1.952279 1.95228v29.284196c0 1.073754 0.878526 1.95228 1.952279 1.95228h19.522798a1.95228 1.95228 0 0 0 1.952279-1.95228v-29.284196h7.809119v29.284196a9.761399 9.761399 0 0 1-9.761398 9.761399h-19.522798a9.761399 9.761399 0 0 1-9.761398-9.761399v-29.284196a9.761399 9.761399 0 0 1 9.761398-9.761399z" fill="#E8DAC0" p-id="72671"></path><path d="M609.613986 906.863216h19.522798a9.761399 9.761399 0 0 1 9.761398 9.761399h-7.809119a1.95228 1.95228 0 0 0-1.952279-1.95228h-19.522798c-1.073754 0-1.95228 0.097614-1.952279 1.95228v29.284196c0 1.073754 0.878526 1.95228 1.952279 1.95228h19.522798a1.95228 1.95228 0 0 0 1.952279-1.95228v-29.284196h7.809119v29.284196a9.761399 9.761399 0 0 1-9.761398 9.761399h-19.522798a9.761399 9.761399 0 0 1-9.761398-9.761399v-29.284196a9.761399 9.761399 0 0 1 9.761398-9.761399z" fill="#E8DAC0" p-id="72672"></path><path d="M675.991497 906.863216a9.761399 9.761399 0 0 1 9.761399 9.761399H677.943777a1.95228 1.95228 0 0 0-1.95228-1.95228h-21.475077l-0.058568 33.188756H675.991497a1.95228 1.95228 0 0 0 1.95228-1.95228v-29.284196h7.809119v29.284196a9.761399 9.761399 0 0 1-9.761399 9.761399h-29.284196v-48.806994h29.284196z" fill="#E8DAC0" p-id="72673"></path><path d="M675.991497 906.863216a9.761399 9.761399 0 0 1 9.761399 9.761399H677.943777a1.95228 1.95228 0 0 0-1.95228-1.95228h-21.475077l-0.058568 33.188756H675.991497a1.95228 1.95228 0 0 0 1.95228-1.95228v-29.284196h7.809119v29.284196a9.761399 9.761399 0 0 1-9.761399 9.761399h-29.284196v-48.806994h29.284196z" fill="#E8DAC0" p-id="72674"></path><path d="M709.180252 931.266713l-15.618238-24.403497h9.761399l9.761399 15.257067 9.761398-15.257067h9.761399l-15.618238 24.403497v24.403497h-7.809119v-24.403497z" fill="#E8DAC0" p-id="72675"></path><path d="M709.180252 931.266713l-15.618238-24.403497h9.761399l9.761399 15.257067 9.761398-15.257067h9.761399l-15.618238 24.403497v24.403497h-7.809119v-24.403497z" fill="#E8DAC0" p-id="72676"></path><path d="M375.340419 838.533426l-3.094363 8.550985C309.343603 847.084411 219.158041 867.817622 219.158041 867.817622s80.629153-29.284196 156.182378-29.284196z" fill="#E8DAC0" p-id="72677"></path><path d="M375.340419 838.591995l-3.094363 8.550985C309.343603 847.14298 219.158041 867.87619 219.158041 867.87619s80.629153-29.284196 156.182378-29.284195z" fill="#E8DAC0" p-id="72678"></path><path d="M648.659581 838.533426l3.094363 8.550985c62.902453 0 153.088015 20.733211 153.088015 20.733211s-80.619391-29.284196-156.182378-29.284196z" fill="#E8DAC0" p-id="72679"></path><path d="M648.659581 838.591995l3.094363 8.550985c62.902453 0 153.088015 20.733211 153.088015 20.73321s-80.619391-29.284196-156.182378-29.284195z" fill="#E8DAC0" p-id="72680"></path></svg>