<?xml version="1.0" standalone="no"?><!DOCTYPE svg PUBLIC "-//W3C//DTD SVG 1.1//EN" "http://www.w3.org/Graphics/SVG/1.1/DTD/svg11.dtd"><svg t="1703040817821" class="icon" viewBox="0 0 1024 1024" version="1.1" xmlns="http://www.w3.org/2000/svg" p-id="6061" xmlns:xlink="http://www.w3.org/1999/xlink" width="48" height="48"><path d="M812.629205 108.738223c-19.189098 31.98183-12.792732 95.945491 12.792732 140.720054 31.98183 44.774562 70.360027 57.567295 89.549125 25.585464 19.189098-31.98183 12.792732-95.945491-12.792732-140.720054-31.98183-44.774562-70.360027-57.567295-89.549125-25.585464zM0.290715 383.781964c0 70.360027 31.98183 127.927321 63.96366 127.927321 38.378196 0 63.963661-57.567295 63.963661-127.927321s-25.585464-127.927321-63.963661-127.927321c-31.98183 0-63.963661 57.567295-63.96366 127.927321zM614.341857 377.385598c-19.189098 31.98183 6.396366 70.360027 57.567295 95.945491 51.170929 19.189098 95.945491 6.396366 95.945491-25.585464 0-83.152759-115.134589-140.720053-153.512786-70.360027zM281.730822 479.727455c-57.567295 140.720053 6.396366 185.494616 95.945491 70.360027 51.170929-63.963661 57.567295-102.341857 6.396366-134.323688-31.98183-19.189098-83.152759 6.396366-102.341857 63.963661zM480.01817 575.672946c-19.189098 31.98183 6.396366 63.963661 57.567294 63.96366 57.567295 0 102.341857-31.98183 102.341857-63.96366 0-38.378196-25.585464-63.963661-57.567294-63.963661-38.378196 0-83.152759 25.585464-102.341857 63.963661zM601.549125 741.978463c-115.134589 89.549125-115.134589 95.945491 25.585464 25.585465 76.756393-38.378196 140.720053-83.152759 140.720054-95.945491 0-51.170929-31.98183-38.378196-166.305518 70.360026z" p-id="6062"></path><path d="M895.781964 690.807535c0 83.152759-300.629205 204.683714-511.709285 204.683714-102.341857 0-204.683714 31.98183-223.872813 63.963661-44.774562 70.360027 588.465678 89.549125 761.167562 25.585464 108.738223-44.774562 140.720053-345.403767 38.378197-345.403768-31.98183 0-63.963661 25.585464-63.963661 51.170929z" p-id="6063"></path></svg>