<?xml version="1.0" standalone="no"?><!DOCTYPE svg PUBLIC "-//W3C//DTD SVG 1.1//EN" "http://www.w3.org/Graphics/SVG/1.1/DTD/svg11.dtd"><svg t="1703333828103" class="icon" viewBox="0 0 1024 1024" version="1.1" xmlns="http://www.w3.org/2000/svg" p-id="36786" xmlns:xlink="http://www.w3.org/1999/xlink" width="48" height="48"><path d="M1023.68 177.536A185.216 185.216 0 0 0 839.104 0H184.896A184.96 184.96 0 0 0 0 184.96v54.336l1023.68-61.76zM0 853.824a184.576 184.576 0 0 0 184.96 169.856h653.824a184.96 184.96 0 0 0 184.896-184.576v-47.36L0 853.824z m566.848-354.752c-5.76 2.56-17.92 0-23.36 2.56a69.12 69.12 0 0 0-16.96 0c-1.728 17.344-1.216 34.88 1.6 52.096l54.72-2.56c5.824-2.624 11.52-5.632 16.96-8.96 24.32-10.56 46.4-22.4 69.12-33.92 20.48-7.552 40.064-17.216 58.496-28.8 16.448 3.392 32.256 9.088 47.04 17.024 19.84 7.68 38.72 11.2 58.56 19.456 14.464 6.912 29.312 12.992 44.48 18.24l57.216-3.84v-1.6c2.432-17.28 2.432-34.816 0-52.096l-39.04 3.2a469.632 469.632 0 0 1-45.696-18.24 206.656 206.656 0 0 1-46.72-16.64l128-64a479.872 479.872 0 0 0 0-91.52c-64 5.12-124.8 7.68-192 11.904-23.68 3.968-47.744 4.864-71.68 2.56l-61.056-30.08c-17.28 28.8-37.12 56.576-54.72 84.736a178.816 178.816 0 0 1-26.24 41.92c2.88 8 12.8 7.36 20.8 10.24 14.976 4.032 29.44 9.728 43.2 16.96 8.96-1.6 10.24-11.52 14.4-18.24 10.56-16.64 23.36-33.92 33.92-50.88 23.936 1.216 48-0.064 71.68-3.84h25.856c12.8-1.92 30.4 0 43.2-3.84 22.72-5.12 50.88 2.88 71.68-4.16v1.6a17.6 17.6 0 0 1 0 8.96c-4.48 8.64-21.44 11.2-30.08 15.68l-62.4 32a112.256 112.256 0 0 0-24.96 11.84 223.936 223.936 0 0 1-57.216-21.12 118.016 118.016 0 0 1-35.84-11.84c-10.24 2.56-25.6 37.12-33.92 45.76 1.92 8.32 42.24 20.16 52.16 23.36v1.6c-30.4 14.4-59.52 32-90.24 44.48h-0.96z m-109.44 99.2c7.552 0.448 15.104-0.128 22.4-1.664a199.616 199.616 0 0 0 0-52.8l-95.936 5.12V393.472a311.872 311.872 0 0 0 0-71.68l-35.2 2.56c-7.04 0-17.28-1.92-22.08 0a96 96 0 0 0-22.4 0v156.48c2.816 23.808 2.816 47.808 0 71.68l-230.912 13.056v52.16c30.592 0.96 61.184-0.768 91.52-5.12 14.336-2.88 31.936 3.52 42.816-2.56h26.24a80.64 80.64 0 0 0-14.4 18.24c-10.24 14.4-21.76 28.48-32 43.2-6.4 8.64-17.28 16.64-21.12 27.52-12.8 3.2-64 0-72.96 6.4a69.12 69.12 0 0 0-16.896 0v52.096c23.552 0.64 47.104-1.088 70.4-5.12 8.96-1.92 21.76 0 28.8 0 13.44-2.88 37.376 3.2 46.976-2.56 9.6-5.76 26.88-32 33.92-43.136 24.96-34.56 57.856-68.48 80.896-104.32 25.728 0.384 51.392-1.28 76.8-5.12 13.12-3.2 37.12 2.88 46.72-2.88l-3.52 3.84z" fill="#FF0E00" p-id="36787"></path><path d="M167.936 432.512a35.2 35.2 0 0 0 20.8 0L256 429.952c0-12.48-12.16-17.92-18.24-25.92-13.76-20.16-31.68-36.16-43.52-56l-64 3.84h-24.96c3.84 10.56 14.72 17.6 21.12 25.92 12.352 18.944 26.24 36.864 41.6 53.44v1.28z m2.88 101.76c8.576 1.344 17.344 1.344 25.92 0l59.2-4.224c-2.24-9.28-10.88-14.08-15.68-20.736-10.24-13.76-20.16-26.56-30.08-40.32-4.8-6.4-12.8-11.52-15.68-19.84a199.296 199.296 0 0 0-54.72 2.88c-7.68 0-18.24-2.24-23.68 0a39.36 39.36 0 0 0-11.52 0c12.48 19.84 32 36.16 44.16 54.72 5.76 7.68 11.52 21.376 21.12 24.96l0.96 2.56zM934.72 598.208v-51.2c-59.52 0-106.816 8.32-164.096 8v-24.96c-16.96-0.832-34.048 0-50.88 2.56-7.936 1.92-20.096-2.24-26.24 0h-2.56c1.344 8.704 1.344 17.536 0 26.24l-162.816 8.96v52.16c18.368 0.512 36.672-0.768 54.72-3.84 16.32-3.52 33.92 0 48.32-2.56 14.4-2.56 38.08 3.52 48-2.56a50.56 50.56 0 0 1 13.12 0v77.12a150.4 150.4 0 0 0 0 36.48c20.48-1.92 52.736-3.84 77.056-5.12v-78.4c0-11.2 1.408-22.4 4.16-33.28 54.4 0 107.52-5.76 160-8.96l1.28-0.64z m-507.008 16.64l-87.36 4.16a121.6 121.6 0 0 0 18.24 37.76c14.72 28.8 29.76 56.64 42.88 86.016l54.72-2.56c10.688 1.28 21.568 0.448 32-2.56 2.88-7.68-11.84-25.216-15.68-32-15.68-30.336-29.12-61.44-45.44-90.176l0.64-0.64z" fill="#FF0E00" p-id="36788"></path><path d="M892.8 614.848h-5.12c-3.84 2.56-13.44 0-19.456 1.6a184.96 184.96 0 0 0-53.44 5.12c8.448 10.88 15.552 22.656 21.12 35.2 11.84 19.52 25.28 38.4 36.48 58.88 21.376 0.448 42.816-0.96 64-4.16h18.176a1129.6 1129.6 0 0 0-58.496-97.92l-3.2 1.28z m-235.712 13.12c-4.8 3.2-14.08 0-20.8 1.6-15.36 3.2-45.12 0-55.04 5.12-9.92 5.12-8.64 16.32-12.8 23.36-9.6 15.68-18.88 32-27.52 49.6-4.48 8-6.4 18.816-13.12 24.96a17.92 17.92 0 0 1 0 3.84l80-3.84c12.48-24.32 26.24-49.28 39.04-73.28a140.16 140.16 0 0 1 13.12-25.92c0-4.16 0-3.2-2.56-5.44h-0.32z" fill="#FF0E00" p-id="36789"></path></svg>