<?xml version="1.0" standalone="no"?><!DOCTYPE svg PUBLIC "-//W3C//DTD SVG 1.1//EN" "http://www.w3.org/Graphics/SVG/1.1/DTD/svg11.dtd"><svg t="1703168466385" class="icon" viewBox="0 0 1024 1024" version="1.1" xmlns="http://www.w3.org/2000/svg" p-id="11154" xmlns:xlink="http://www.w3.org/1999/xlink" width="48" height="48"><path d="M512 512m-448 0a448 448 0 1 0 896 0 448 448 0 1 0-896 0Z" fill="#0A78C2" p-id="11155"></path><path d="M396.5 459.9c-8.8 0-16 7.4-16 16.7v130.5c0 9.2 7.2 16.7 16 16.7s15.9-7.5 15.9-16.7V476.6c0-9.2-7.2-16.7-15.9-16.7z m21.2-40L401 402.2c-1.2-1.2-2.7-2-4.4-2h-0.3c-1.6 0-3.2 0.7-4.4 2l-16.7 17.7c-2.5 2.7-2.5 7 0 9.6l16.7 17.7c1.2 1.3 2.9 2 4.6 2 1.7 0 3.3-0.7 4.5-2l16.7-17.7c1.2-1.3 1.9-3 1.9-4.8 0-1.8-0.6-3.5-1.9-4.8z m128.4 203.9h0.3c15.7 0.1 28.2-7.5 39.6-24.8l72.3-112.6c1.8-2.8 2.8-6.2 2.8-9.6 0-5.4-2.4-10.7-6.9-14-2.6-1.9-5.8-3-9-3-5.2 0-10.1 2.8-13.1 7.3L560 579.9c-4.4 7.1-9.2 10.1-13.9 10.1h-0.1c-5.5-0.1-9.5-3.2-14-10.1l-72.3-112.6c-2.9-4.6-7.8-7.3-13.1-7.3-3.1 0-6.2 1-9 3-4.3 3.2-6.9 8.4-6.9 14 0 3.3 0.9 6.6 2.8 9.6L505.9 599c10 15.7 24.6 24.8 40.2 24.8z m-299.1 0h0.3c15.7 0.1 28.2-7.5 39.7-24.8l72.3-112.6c1.8-2.8 2.8-6.2 2.8-9.6 0-5.6-2.6-10.8-6.9-14-2.6-1.9-5.8-3-9-3-5.2 0-10.1 2.8-13.1 7.3l-72.3 112.6c-4.4 7.1-9.2 10.1-13.9 10.1h-0.1c-5.5-0.1-9.5-3.2-14-10.1l-72.3-112.6c-2.9-4.6-7.8-7.4-13.1-7.4-3.2 0-6.3 1-9 3-4.3 3.2-6.9 8.4-6.9 14 0 3.3 0.9 6.6 2.8 9.6L206.8 599c10 15.7 24.7 24.8 40.2 24.8z m569.3-166.6h-80.2c-41.9 0-76 36.3-76 80.8v4.2c0 44.6 34.1 80.8 76 80.8h80.2c41.9 0 76-36.3 76-80.8V538c-0.1-44.5-34.1-80.8-76-80.8z m0 134.3h-80.2c-25.4-0.1-46-22.1-46-49.3V538c0-27.2 20.7-49.2 46-49.3h80.2c25.4 0.1 46 22.1 46 49.3v4.2c-0.1 27.2-20.7 49.2-46 49.3z" fill="#FFFFFF" p-id="11156"></path></svg>