<?xml version="1.0" standalone="no"?><!DOCTYPE svg PUBLIC "-//W3C//DTD SVG 1.1//EN" "http://www.w3.org/Graphics/SVG/1.1/DTD/svg11.dtd"><svg t="1703169740187" class="icon" viewBox="0 0 1052 1024" version="1.1" xmlns="http://www.w3.org/2000/svg" p-id="33915" xmlns:xlink="http://www.w3.org/1999/xlink" width="49.3125" height="48"><path d="M541.155556 642.304h-221.809778a11.719111 11.719111 0 1 0 0 23.438222h221.809778a11.719111 11.719111 0 1 0 0-23.438222z m116.736 65.223111h-0.512c-3.128889-12.344889-12.032-17.92-20.764445-17.92-10.666667 0-21.219556 8.248889-21.219555 22.698667 0 28.615111 42.24 55.466667 42.24 55.466666s42.183111-26.851556 42.183111-55.466666c0-26.368-35.015111-32-41.927111-4.778667z m75.093333-136.334222H319.857778a11.719111 11.719111 0 1 0 0 23.438222H733.013333a11.690667 11.690667 0 0 0 8.277334-20.024889 11.719111 11.719111 0 0 0-8.277334-3.413333z m0-71.111111H319.857778a11.719111 11.719111 0 1 0 0 23.438222H733.013333a11.690667 11.690667 0 0 0 8.277334-20.024889 11.719111 11.719111 0 0 0-8.277334-3.413333z m1.422222-105.016889h-144.014222a11.662222 11.662222 0 0 0-11.719111 11.719111 11.719111 11.719111 0 0 0 11.719111 11.719111h144.042667a11.719111 11.719111 0 0 0 0-23.438222zM510.008889 207.644444h-193.223111a11.719111 11.719111 0 0 0-11.719111 11.719112v217.713777c0 6.485333 5.233778 11.719111 11.719111 11.719111h193.223111a11.719111 11.719111 0 0 0 11.747555-11.719111V219.392a11.747556 11.747556 0 0 0-11.747555-11.719111z m-147.541333 220.103112c0-0.824889 0-1.592889 0.056888-2.360889 0.512-26.112 9.614222-49.493333 22.983112-63.630223a56.263111 56.263111 0 0 0 58.424888 0c13.454222 14.136889 22.528 37.546667 23.04 63.630223 0.056889 0.768 0.056889 1.536 0.056889 2.360889h-104.561777z m19.086222-114.488889c0-18.261333 14.904889-33.166222 33.194666-33.166223a33.223111 33.223111 0 0 1 27.847112 51.143112 33.336889 33.336889 0 0 1-27.875556 15.217777c-7.196444 0-13.909333-2.304-19.342222-6.314666a32.768 32.768 0 0 1-13.824-26.88z m116.736 112.128h-7.879111c-0.398222-26.055111-7.736889-50.574222-20.764445-69.319111a90.88 90.88 0 0 0-8.533333-10.439112 56.035556 56.035556 0 0 0 10.24-32.369777c0-31.232-25.372444-56.604444-56.604445-56.604445a56.632889 56.632889 0 0 0-46.392888 88.974222 90.88 90.88 0 0 0-8.504889 10.439112c-12.999111 18.744889-20.366222 43.264-20.821334 69.319111h-10.524444v-194.275556h169.813333v194.275556z m34.872889 299.690666a11.690667 11.690667 0 0 1-11.719111 11.719111h-203.207112a11.719111 11.719111 0 1 1 0-23.466666h203.207112a11.719111 11.719111 0 0 1 11.719111 11.747555z" fill="#2B3F75" p-id="33916"></path><path d="M922.595556 755.456l-113.464889-297.329778V139.861333a13.653333 13.653333 0 0 0-13.653334-13.653333h-112.952889l-25.258666-66.161778a13.653333 13.653333 0 0 0-17.664-7.879111l-193.991111 74.040889H237.994667a13.653333 13.653333 0 0 0-13.653334 13.653333v70.769778L118.812444 250.88a13.653333 13.653333 0 0 0-7.879111 17.635556l113.408 297.329777v318.293334c0 7.566222 6.144 13.653333 13.653334 13.653333h113.009777l25.173334 66.133333a13.568 13.568 0 0 0 17.664 7.879111l193.991111-74.012444h207.644444a13.653333 13.653333 0 0 0 13.653334-13.653333v-70.769778l105.528889-40.248889a13.710222 13.710222 0 0 0 7.936-17.664z m-698.254223-266.24l-83.057777-217.656889 83.057777-31.687111v249.344zM636.586667 82.574222l16.64 43.633778h-130.901334l114.261334-43.633778z m-239.701334 858.823111l-16.64-43.605333h130.901334l-114.261334 43.605333z m384.910223-70.940444H251.676444V153.543111h530.119112v716.913778z m27.335111-86.385778v-249.230222l83.000889 217.6-83.000889 31.630222z" fill="#586485" p-id="33917"></path><path d="M511.146667 897.792l-114.261334 43.633778-16.64-43.633778h130.929778z m380.984889-145.351111l-83.000889 31.630222v-249.230222l83.000889 217.6zM653.226667 126.208h-130.901334l114.289778-43.633778 16.611556 43.633778zM224.341333 239.872v249.344l-83.057777-217.656889 83.057777-31.687111z" fill="#F5F3EB" p-id="33918"></path><path d="M251.676444 153.543111v716.913778h530.119112V153.543111H251.676444z m338.744889 84.48h144.014223a11.719111 11.719111 0 1 1 0 23.466667h-144.014223a11.719111 11.719111 0 0 1 0-23.466667z m0 78.506667h144.014223c2.616889 0 4.977778 0.853333 6.912 2.275555a11.576889 11.576889 0 0 1 4.551111 11.889778v0.056889a11.747556 11.747556 0 0 1-11.093334 9.216h-144.384a11.719111 11.719111 0 1 1 0-23.438222z m0 78.535111h144.014223a11.719111 11.719111 0 0 1 0 23.438222h-144.014223a11.719111 11.719111 0 1 1 0-23.438222z m142.592 128.455111H319.829333a11.719111 11.719111 0 1 1 0-23.438222H733.013333a11.719111 11.719111 0 0 1 0 23.438222z m11.719111 59.392a11.690667 11.690667 0 0 1-11.719111 11.719111H319.829333a11.719111 11.719111 0 1 1 0-23.438222H733.013333a11.719111 11.719111 0 0 1 11.719111 11.719111zM305.095111 219.392a11.719111 11.719111 0 0 1 11.719111-11.719111h193.223111c6.456889 0 11.719111 5.262222 11.719111 11.719111v217.713778a11.719111 11.719111 0 0 1-11.719111 11.719111h-193.223111a11.690667 11.690667 0 0 1-11.719111-11.719111V219.392z m216.348445 517.432889h-203.207112a11.719111 11.719111 0 1 1 0-23.438222h203.207112a11.719111 11.719111 0 0 1 0 23.438222z m19.712-71.054222h-221.781334a11.719111 11.719111 0 1 1 0-23.466667h221.781334a11.719111 11.719111 0 0 1 0 23.466667z m116.992 162.645333a108.544 108.544 0 0 1-108.430223-108.430222 108.544 108.544 0 0 1 108.430223-108.458667 108.544 108.544 0 0 1 108.458666 108.458667 108.544 108.544 0 0 1-108.458666 108.430222z" fill="#62A9E1" p-id="33919"></path><path d="M498.318222 231.111111v194.304h-7.907555c-0.398222-26.055111-7.708444-50.574222-20.764445-69.319111a90.88 90.88 0 0 0-8.533333-10.439111 56.035556 56.035556 0 0 0 10.24-32.369778c0-31.232-25.372444-56.604444-56.604445-56.604444a56.632889 56.632889 0 0 0-46.364444 88.974222 90.88 90.88 0 0 0-8.533333 10.439111c-12.999111 18.744889-20.366222 43.235556-20.821334 69.319111h-10.524444V231.111111h169.813333z" fill="#62A9E1" p-id="33920"></path><path d="M467.029333 427.776h-104.561777c0-0.824889 0-1.592889 0.056888-2.360889 0.512-26.112 9.614222-49.493333 22.983112-63.630222a56.263111 56.263111 0 0 0 58.424888 0c13.454222 14.136889 22.528 37.546667 23.04 63.630222 0.056889 0.768 0.056889 1.536 0.056889 2.360889z m-19.114666-114.488889a33.336889 33.336889 0 0 1-33.166223 33.166222c-7.224889 0-13.937778-2.275556-19.342222-6.257777a32.768 32.768 0 0 1-13.824-26.88c0-18.318222 14.876444-33.194667 33.166222-33.194667 18.289778 0 33.166222 14.876444 33.166223 33.166222z" fill="#F5F3EB" p-id="33921"></path><path d="M541.155556 642.275556h-221.781334a11.719111 11.719111 0 1 0 0 23.466666h221.781334a11.719111 11.719111 0 0 0 0-23.438222z m116.736 65.251555h-0.512c-3.128889-12.344889-12.032-17.92-20.764445-17.92-10.666667 0-21.219556 8.248889-21.219555 22.670222 0 28.643556 42.24 55.523556 42.24 55.523556s42.183111-26.88 42.183111-55.495111c0-26.396444-34.986667-32.028444-41.927111-4.778667z m75.093333-136.334222H319.857778a11.719111 11.719111 0 1 0 0 23.438222H733.013333a11.690667 11.690667 0 0 0 8.277334-20.024889 11.719111 11.719111 0 0 0-8.277334-3.413333z m0-71.111111H319.857778a11.719111 11.719111 0 1 0 0 23.438222H733.013333a11.690667 11.690667 0 0 0 8.277334-20.024889 11.719111 11.719111 0 0 0-8.277334-3.413333z m1.450667-105.016889h-144.014223a11.719111 11.719111 0 1 0 0 23.438222h144.014223a11.719111 11.719111 0 0 0 0-23.438222z m0 0h-144.014223a11.719111 11.719111 0 1 0 0 23.438222h144.014223a11.719111 11.719111 0 0 0 0-23.438222z m-1.422223 105.016889H319.829333a11.719111 11.719111 0 1 0 0 23.438222H733.013333a11.690667 11.690667 0 0 0 8.277334-20.024889 11.719111 11.719111 0 0 0-8.277334-3.413333z m0 71.111111H319.829333a11.719111 11.719111 0 1 0 0 23.438222H733.013333a11.690667 11.690667 0 0 0 8.277334-20.024889 11.719111 11.719111 0 0 0-8.277334-3.413333z m-75.093333 136.334222h-0.540444c-3.128889-12.344889-12.032-17.92-20.764445-17.92-10.666667 0-21.219556 8.248889-21.219555 22.670222 0 28.643556 42.24 55.523556 42.24 55.523556s42.183111-26.88 42.183111-55.495111c0-26.396444-34.986667-32.028444-41.927111-4.778667z m-116.764444-65.223111h-221.781334a11.719111 11.719111 0 1 0 0 23.438222h221.781334a11.719111 11.719111 0 0 0 0-23.438222z m0 0h-221.781334a11.719111 11.719111 0 1 0 0 23.438222h221.781334a11.719111 11.719111 0 0 0 0-23.438222z m116.736 65.223111h-0.512c-3.128889-12.344889-12.032-17.92-20.764445-17.92-10.666667 0-21.219556 8.248889-21.219555 22.670222 0 28.643556 42.24 55.523556 42.24 55.523556s42.183111-26.88 42.183111-55.495111c0-26.396444-34.986667-32.028444-41.927111-4.778667z m75.093333-136.334222H319.857778a11.719111 11.719111 0 1 0 0 23.438222H733.013333a11.690667 11.690667 0 0 0 8.277334-20.024889 11.719111 11.719111 0 0 0-8.277334-3.413333z m0-71.111111H319.857778a11.719111 11.719111 0 1 0 0 23.438222H733.013333a11.690667 11.690667 0 0 0 8.277334-20.024889 11.719111 11.719111 0 0 0-8.277334-3.413333z m1.450667-105.016889h-144.014223a11.719111 11.719111 0 1 0 0 23.438222h144.014223a11.719111 11.719111 0 0 0 0-23.438222z m0 0h-144.014223a11.719111 11.719111 0 1 0 0 23.438222h144.014223a11.719111 11.719111 0 0 0 0-23.438222z m-1.422223 105.016889H319.829333a11.719111 11.719111 0 1 0 0 23.438222H733.013333a11.690667 11.690667 0 0 0 8.277334-20.024889 11.719111 11.719111 0 0 0-8.277334-3.413333z m0 71.111111H319.829333a11.719111 11.719111 0 1 0 0 23.438222H733.013333a11.690667 11.690667 0 0 0 8.277334-20.024889 11.719111 11.719111 0 0 0-8.277334-3.413333z m-75.093333 136.334222h-0.540444c-3.128889-12.344889-12.032-17.92-20.764445-17.92-10.666667 0-21.219556 8.248889-21.219555 22.670222 0 28.643556 42.24 55.523556 42.24 55.523556s42.183111-26.88 42.183111-55.495111c0-26.396444-34.986667-32.028444-41.927111-4.778667z m-116.764444-65.223111h-221.781334a11.719111 11.719111 0 1 0 0 23.438222h221.781334a11.719111 11.719111 0 0 0 0-23.438222z m0 0h-221.781334a11.719111 11.719111 0 1 0 0 23.438222h221.781334a11.719111 11.719111 0 0 0 0-23.438222z m116.736 65.223111h-0.512c-3.128889-12.344889-12.032-17.92-20.764445-17.92-10.666667 0-21.219556 8.248889-21.219555 22.670222 0 28.643556 42.24 55.523556 42.24 55.523556s42.183111-26.88 42.183111-55.495111c0-26.396444-34.986667-32.028444-41.927111-4.778667z m75.093333-136.334222H319.857778a11.719111 11.719111 0 1 0 0 23.438222H733.013333a11.690667 11.690667 0 0 0 8.277334-20.024889 11.719111 11.719111 0 0 0-8.277334-3.413333z m0-71.111111H319.857778a11.719111 11.719111 0 1 0 0 23.438222H733.013333a11.690667 11.690667 0 0 0 8.277334-20.024889 11.719111 11.719111 0 0 0-8.277334-3.413333z m1.450667-105.016889h-144.014223a11.719111 11.719111 0 1 0 0 23.438222h144.014223a11.719111 11.719111 0 0 0 0-23.438222z m0 0h-144.014223a11.719111 11.719111 0 1 0 0 23.438222h144.014223a11.719111 11.719111 0 0 0 0-23.438222z m-1.422223 105.016889H319.829333a11.719111 11.719111 0 1 0 0 23.438222H733.013333a11.690667 11.690667 0 0 0 8.277334-20.024889 11.719111 11.719111 0 0 0-8.277334-3.413333z m0 71.111111H319.829333a11.719111 11.719111 0 1 0 0 23.438222H733.013333a11.690667 11.690667 0 0 0 8.277334-20.024889 11.719111 11.719111 0 0 0-8.277334-3.413333z m-75.093333 136.334222h-0.540444c-3.128889-12.344889-12.032-17.92-20.764445-17.92-10.666667 0-21.219556 8.248889-21.219555 22.670222 0 28.643556 42.24 55.523556 42.24 55.523556s42.183111-26.88 42.183111-55.495111c0-26.396444-34.986667-32.028444-41.927111-4.778667z m-116.764444-65.223111h-221.781334a11.719111 11.719111 0 1 0 0 23.438222h221.781334a11.719111 11.719111 0 0 0 0-23.438222z m0 0h-221.781334a11.719111 11.719111 0 1 0 0 23.438222h221.781334a11.719111 11.719111 0 0 0 0-23.438222z m116.736 65.223111h-0.512c-3.128889-12.344889-12.032-17.92-20.764445-17.92-10.666667 0-21.219556 8.248889-21.219555 22.670222 0 28.643556 42.24 55.523556 42.24 55.523556s42.183111-26.88 42.183111-55.495111c0-26.396444-34.986667-32.028444-41.927111-4.778667z m75.093333-136.334222H319.857778a11.719111 11.719111 0 1 0 0 23.438222H733.013333a11.690667 11.690667 0 0 0 8.277334-20.024889 11.719111 11.719111 0 0 0-8.277334-3.413333z m0-71.111111H319.857778a11.719111 11.719111 0 1 0 0 23.438222H733.013333a11.690667 11.690667 0 0 0 8.277334-20.024889 11.719111 11.719111 0 0 0-8.277334-3.413333z m1.450667-105.016889h-144.014223a11.719111 11.719111 0 1 0 0 23.438222h144.014223a11.719111 11.719111 0 0 0 0-23.438222z m0 0h-144.014223a11.719111 11.719111 0 1 0 0 23.438222h144.014223a11.719111 11.719111 0 0 0 0-23.438222z m-1.422223 105.016889H319.829333a11.719111 11.719111 0 1 0 0 23.438222H733.013333a11.690667 11.690667 0 0 0 8.277334-20.024889 11.719111 11.719111 0 0 0-8.277334-3.413333z m0 71.111111H319.829333a11.719111 11.719111 0 1 0 0 23.438222H733.013333a11.690667 11.690667 0 0 0 8.277334-20.024889 11.719111 11.719111 0 0 0-8.277334-3.413333z m-75.093333 136.334222h-0.540444c-3.128889-12.344889-12.032-17.92-20.764445-17.92-10.666667 0-21.219556 8.248889-21.219555 22.670222 0 28.643556 42.24 55.523556 42.24 55.523556s42.183111-26.88 42.183111-55.495111c0-26.396444-34.986667-32.028444-41.927111-4.778667z m-116.764444-65.223111h-221.781334a11.719111 11.719111 0 1 0 0 23.438222h221.781334a11.719111 11.719111 0 0 0 0-23.438222z m0 0h-221.781334a11.719111 11.719111 0 1 0 0 23.438222h221.781334a11.719111 11.719111 0 0 0 0-23.438222z m116.736 65.223111h-0.512c-3.128889-12.344889-12.032-17.92-20.764445-17.92-10.666667 0-21.219556 8.248889-21.219555 22.670222 0 28.643556 42.24 55.523556 42.24 55.523556s42.183111-26.88 42.183111-55.495111c0-26.396444-34.986667-32.028444-41.927111-4.778667z m75.093333-136.334222H319.857778a11.719111 11.719111 0 1 0 0 23.438222H733.013333a11.690667 11.690667 0 0 0 8.277334-20.024889 11.719111 11.719111 0 0 0-8.277334-3.413333z m0-71.111111H319.857778a11.719111 11.719111 0 1 0 0 23.438222H733.013333a11.690667 11.690667 0 0 0 8.277334-20.024889 11.719111 11.719111 0 0 0-8.277334-3.413333z m1.450667-105.016889h-144.014223a11.719111 11.719111 0 1 0 0 23.438222h144.014223a11.719111 11.719111 0 0 0 0-23.438222z m-193.28 247.239111h-221.781334a11.719111 11.719111 0 1 0 0 23.438222h221.781334a11.719111 11.719111 0 0 0 0-23.438222z m116.736 65.223111h-0.512c-3.128889-12.344889-12.032-17.92-20.764445-17.92-10.666667 0-21.219556 8.248889-21.219555 22.670222 0 28.643556 42.24 55.523556 42.24 55.523556s42.183111-26.88 42.183111-55.495111c0-26.396444-34.986667-32.028444-41.927111-4.778667z m75.093333-136.334222H319.857778a11.719111 11.719111 0 1 0 0 23.438222H733.013333a11.690667 11.690667 0 0 0 8.277334-20.024889 11.719111 11.719111 0 0 0-8.277334-3.413333z m0-71.111111H319.857778a11.719111 11.719111 0 1 0 0 23.438222H733.013333a11.690667 11.690667 0 0 0 8.277334-20.024889 11.719111 11.719111 0 0 0-8.277334-3.413333z m1.450667-105.016889h-144.014223a11.719111 11.719111 0 1 0 0 23.438222h144.014223a11.719111 11.719111 0 0 0 0-23.438222z m0 0h-144.014223a11.719111 11.719111 0 1 0 0 23.438222h144.014223a11.719111 11.719111 0 0 0 0-23.438222z m-1.422223 105.016889H319.829333a11.719111 11.719111 0 1 0 0 23.438222H733.013333a11.690667 11.690667 0 0 0 8.277334-20.024889 11.719111 11.719111 0 0 0-8.277334-3.413333z m0 71.111111H319.829333a11.719111 11.719111 0 1 0 0 23.438222H733.013333a11.690667 11.690667 0 0 0 8.277334-20.024889 11.719111 11.719111 0 0 0-8.277334-3.413333z m-75.093333 136.334222h-0.540444c-3.128889-12.344889-12.032-17.92-20.764445-17.92-10.666667 0-21.219556 8.248889-21.219555 22.670222 0 28.643556 42.24 55.523556 42.24 55.523556s42.183111-26.88 42.183111-55.495111c0-26.396444-34.986667-32.028444-41.927111-4.778667z m-116.764444-65.223111h-221.781334a11.719111 11.719111 0 1 0 0 23.438222h221.781334a11.719111 11.719111 0 0 0 0-23.438222z m0 0h-221.781334a11.719111 11.719111 0 1 0 0 23.438222h221.781334a11.719111 11.719111 0 0 0 0-23.438222z m116.736 65.223111h-0.512c-3.128889-12.344889-12.032-17.92-20.764445-17.92-10.666667 0-21.219556 8.248889-21.219555 22.670222 0 28.643556 42.24 55.523556 42.24 55.523556s42.183111-26.88 42.183111-55.495111c0-26.396444-34.986667-32.028444-41.927111-4.778667z m75.093333-136.334222H319.857778a11.719111 11.719111 0 1 0 0 23.438222H733.013333a11.690667 11.690667 0 0 0 8.277334-20.024889 11.719111 11.719111 0 0 0-8.277334-3.413333z m0-71.111111H319.857778a11.719111 11.719111 0 1 0 0 23.438222H733.013333a11.690667 11.690667 0 0 0 8.277334-20.024889 11.719111 11.719111 0 0 0-8.277334-3.413333z m1.450667-105.016889h-144.014223a11.719111 11.719111 0 1 0 0 23.438222h144.014223a11.719111 11.719111 0 0 0 0-23.438222z m0 0h-144.014223a11.719111 11.719111 0 1 0 0 23.438222h144.014223a11.719111 11.719111 0 0 0 0-23.438222z m-1.422223 105.016889H319.829333a11.719111 11.719111 0 1 0 0 23.438222H733.013333a11.690667 11.690667 0 0 0 8.277334-20.024889 11.719111 11.719111 0 0 0-8.277334-3.413333z m0 71.111111H319.829333a11.719111 11.719111 0 1 0 0 23.438222H733.013333a11.690667 11.690667 0 0 0 8.277334-20.024889 11.719111 11.719111 0 0 0-8.277334-3.413333z m-75.093333 136.334222h-0.540444c-3.128889-12.344889-12.032-17.92-20.764445-17.92-10.666667 0-21.219556 8.248889-21.219555 22.670222 0 28.643556 42.24 55.523556 42.24 55.523556s42.183111-26.88 42.183111-55.495111c0-26.396444-34.986667-32.028444-41.927111-4.778667z m-116.764444-65.223111h-221.781334a11.719111 11.719111 0 1 0 0 23.438222h221.781334a11.719111 11.719111 0 0 0 0-23.438222z m0 0h-221.781334a11.719111 11.719111 0 1 0 0 23.438222h221.781334a11.719111 11.719111 0 0 0 0-23.438222z m116.736 65.223111h-0.512c-3.128889-12.344889-12.032-17.92-20.764445-17.92-10.666667 0-21.219556 8.248889-21.219555 22.670222 0 28.643556 42.24 55.523556 42.24 55.523556s42.183111-26.88 42.183111-55.495111c0-26.396444-34.986667-32.028444-41.927111-4.778667z m75.093333-136.334222H319.857778a11.719111 11.719111 0 1 0 0 23.438222H733.013333a11.690667 11.690667 0 0 0 8.277334-20.024889 11.719111 11.719111 0 0 0-8.277334-3.413333z m0-71.111111H319.857778a11.719111 11.719111 0 1 0 0 23.438222H733.013333a11.690667 11.690667 0 0 0 8.277334-20.024889 11.719111 11.719111 0 0 0-8.277334-3.413333z m1.450667-105.016889h-144.014223a11.719111 11.719111 0 1 0 0 23.438222h144.014223a11.719111 11.719111 0 0 0 0-23.438222z m0 0h-144.014223a11.719111 11.719111 0 1 0 0 23.438222h144.014223a11.719111 11.719111 0 0 0 0-23.438222z m-1.422223 105.016889H319.829333a11.719111 11.719111 0 1 0 0 23.438222H733.013333a11.690667 11.690667 0 0 0 8.277334-20.024889 11.719111 11.719111 0 0 0-8.277334-3.413333z m0 71.111111H319.829333a11.719111 11.719111 0 1 0 0 23.438222H733.013333a11.690667 11.690667 0 0 0 8.277334-20.024889 11.719111 11.719111 0 0 0-8.277334-3.413333z m-75.093333 136.334222h-0.540444c-3.128889-12.344889-12.032-17.92-20.764445-17.92-10.666667 0-21.219556 8.248889-21.219555 22.670222 0 28.643556 42.24 55.523556 42.24 55.523556s42.183111-26.88 42.183111-55.495111c0-26.396444-34.986667-32.028444-41.927111-4.778667z m-116.764444-65.223111h-221.781334a11.719111 11.719111 0 1 0 0 23.438222h221.781334a11.719111 11.719111 0 0 0 0-23.438222z m0 0h-221.781334a11.719111 11.719111 0 1 0 0 23.438222h221.781334a11.719111 11.719111 0 0 0 0-23.438222z m116.736 65.223111h-0.512c-3.128889-12.344889-12.032-17.92-20.764445-17.92-10.666667 0-21.219556 8.248889-21.219555 22.670222 0 28.643556 42.24 55.523556 42.24 55.523556s42.183111-26.88 42.183111-55.495111c0-26.396444-34.986667-32.028444-41.927111-4.778667z m75.093333-136.334222H319.857778a11.719111 11.719111 0 1 0 0 23.438222H733.013333a11.690667 11.690667 0 0 0 8.277334-20.024889 11.719111 11.719111 0 0 0-8.277334-3.413333z m0-71.111111H319.857778a11.719111 11.719111 0 1 0 0 23.438222H733.013333a11.690667 11.690667 0 0 0 8.277334-20.024889 11.719111 11.719111 0 0 0-8.277334-3.413333z m1.450667-105.016889h-144.014223a11.719111 11.719111 0 1 0 0 23.438222h144.014223a11.719111 11.719111 0 0 0 0-23.438222z m0 0h-144.014223a11.719111 11.719111 0 1 0 0 23.438222h144.014223a11.719111 11.719111 0 0 0 0-23.438222z m-1.422223 105.016889H319.829333a11.719111 11.719111 0 1 0 0 23.438222H733.013333a11.690667 11.690667 0 0 0 8.277334-20.024889 11.719111 11.719111 0 0 0-8.277334-3.413333z m0 71.111111H319.829333a11.719111 11.719111 0 1 0 0 23.438222H733.013333a11.690667 11.690667 0 0 0 8.277334-20.024889 11.719111 11.719111 0 0 0-8.277334-3.413333z m-75.093333 136.334222h-0.540444c-3.128889-12.344889-12.032-17.92-20.764445-17.92-10.666667 0-21.219556 8.248889-21.219555 22.670222 0 28.643556 42.24 55.523556 42.24 55.523556s42.183111-26.88 42.183111-55.495111c0-26.396444-34.986667-32.028444-41.927111-4.778667z m-116.764444-65.223111h-221.781334a11.719111 11.719111 0 1 0 0 23.438222h221.781334a11.719111 11.719111 0 0 0 0-23.438222z m0 0h-221.781334a11.719111 11.719111 0 1 0 0 23.438222h221.781334a11.719111 11.719111 0 0 0 0-23.438222z m116.736 65.223111h-0.512c-3.128889-12.344889-12.032-17.92-20.764445-17.92-10.666667 0-21.219556 8.248889-21.219555 22.670222 0 28.643556 42.24 55.523556 42.24 55.523556s42.183111-26.88 42.183111-55.495111c0-26.396444-34.986667-32.028444-41.927111-4.778667z m75.093333-136.334222H319.857778a11.719111 11.719111 0 1 0 0 23.438222H733.013333a11.690667 11.690667 0 0 0 8.277334-20.024889 11.719111 11.719111 0 0 0-8.277334-3.413333z m0-71.111111H319.857778a11.719111 11.719111 0 1 0 0 23.438222H733.013333a11.690667 11.690667 0 0 0 8.277334-20.024889 11.719111 11.719111 0 0 0-8.277334-3.413333z m1.450667-105.016889h-144.014223a11.719111 11.719111 0 1 0 0 23.438222h144.014223a11.719111 11.719111 0 0 0 0-23.438222z m0 0h-144.014223a11.719111 11.719111 0 1 0 0 23.438222h144.014223a11.719111 11.719111 0 0 0 0-23.438222z m-1.422223 105.016889H319.829333a11.719111 11.719111 0 1 0 0 23.438222H733.013333a11.690667 11.690667 0 0 0 8.277334-20.024889 11.719111 11.719111 0 0 0-8.277334-3.413333z m0 71.111111H319.829333a11.719111 11.719111 0 1 0 0 23.438222H733.013333a11.690667 11.690667 0 0 0 8.277334-20.024889 11.719111 11.719111 0 0 0-8.277334-3.413333z m-75.093333 136.334222h-0.540444c-3.128889-12.344889-12.032-17.92-20.764445-17.92-10.666667 0-21.219556 8.248889-21.219555 22.670222 0 28.643556 42.24 55.523556 42.24 55.523556s42.183111-26.88 42.183111-55.495111c0-26.396444-34.986667-32.028444-41.927111-4.778667z m-116.764444-65.223111h-221.781334a11.719111 11.719111 0 1 0 0 23.438222h221.781334a11.719111 11.719111 0 0 0 0-23.438222z" fill="#2B3F75" p-id="33922"></path><path d="M699.847111 712.277333c0 28.643556-42.211556 55.523556-42.211555 55.523556s-42.24-26.88-42.24-55.495111c0-14.449778 10.552889-22.698667 21.191111-22.698667 8.760889 0 17.692444 5.575111 20.792889 17.92h0.512c6.912-27.221333 41.927111-21.617778 41.927111 4.778667z" fill="#2B3F75" p-id="33923"></path><path d="M658.147556 611.527111a108.544 108.544 0 0 0-108.430223 108.430222 108.544 108.544 0 0 0 108.430223 108.458667 108.544 108.544 0 0 0 108.458666-108.458667 108.544 108.544 0 0 0-108.458666-108.430222z m0 193.479111a85.134222 85.134222 0 0 1-84.992-85.048889 85.105778 85.105778 0 0 1 84.992-84.992 85.077333 85.077333 0 0 1 84.992 84.992c0 46.933333-38.115556 85.048889-84.992 85.048889z" fill="#2B3F75" p-id="33924"></path><path d="M658.147556 634.965333a85.105778 85.105778 0 0 0-84.992 84.992 85.134222 85.134222 0 0 0 84.992 85.048889 85.077333 85.077333 0 0 0 84.992-85.048889 85.077333 85.077333 0 0 0-84.992-84.992z m-0.512 132.835556s-42.24-26.908444-42.24-55.523556c0-14.421333 10.524444-22.670222 21.191111-22.670222 8.760889 0 17.664 5.575111 20.764444 17.92h0.540445c6.912-27.249778 41.927111-21.617778 41.927111 4.750222 0 28.615111-42.183111 55.495111-42.183111 55.495111z" fill="#DF6D43" p-id="33925"></path><path d="M746.183111 249.742222a11.719111 11.719111 0 0 1-11.747555 11.747556h-144.014223a11.719111 11.719111 0 0 1 0-23.466667h144.014223c6.456889 0 11.747556 5.290667 11.747555 11.719111zM746.183111 328.248889c0 0.853333-0.113778 1.706667-0.284444 2.474667v0.028444a11.747556 11.747556 0 0 1-11.093334 9.216h-144.384a11.719111 11.719111 0 1 1 0-23.438222h144.014223c2.616889 0 4.977778 0.853333 6.912 2.275555 2.929778 2.133333 4.835556 5.546667 4.835555 9.443556zM746.183111 406.755556a11.747556 11.747556 0 0 1-11.747555 11.747555h-144.014223a11.719111 11.719111 0 0 1 0-23.438222h144.014223a11.719111 11.719111 0 0 1 11.747555 11.719111zM744.732444 511.800889a11.690667 11.690667 0 0 1-11.719111 11.747555H319.829333a11.719111 11.719111 0 0 1 0-23.466666H733.013333a11.719111 11.719111 0 0 1 11.719111 11.719111zM744.732444 582.912a11.690667 11.690667 0 0 1-11.719111 11.747556H319.829333a11.719111 11.719111 0 0 1 0-23.466667H733.013333a11.719111 11.719111 0 0 1 11.719111 11.719111zM552.874667 654.023111a11.747556 11.747556 0 0 1-11.719111 11.747556h-221.781334a11.719111 11.719111 0 0 1 0-23.466667h221.781334a11.719111 11.719111 0 0 1 11.719111 11.719111zM699.847111 712.277333c0 28.643556-42.211556 55.523556-42.211555 55.523556s-42.24-26.88-42.24-55.495111c0-14.449778 10.552889-22.698667 21.191111-22.698667 8.760889 0 17.692444 5.575111 20.792889 17.92h0.512c6.912-27.221333 41.927111-21.617778 41.927111 4.778667z" fill="#2B3F75" p-id="33926"></path></svg>