<?xml version="1.0" standalone="no"?><!DOCTYPE svg PUBLIC "-//W3C//DTD SVG 1.1//EN" "http://www.w3.org/Graphics/SVG/1.1/DTD/svg11.dtd"><svg t="1702996205136" class="icon" viewBox="0 0 1024 1024" version="1.1" xmlns="http://www.w3.org/2000/svg" p-id="21412" xmlns:xlink="http://www.w3.org/1999/xlink" width="48" height="48"><path d="M157.615686 0h708.768628c86.337255 0 157.615686 70.27451 157.615686 156.611765v710.77647c0 86.337255-71.278431 156.611765-157.615686 156.611765h-708.768628c-86.337255 0-157.615686-70.27451-157.615686-156.611765v-710.77647c0-86.337255 71.278431-156.611765 157.615686-156.611765z" fill="#D20B0A" p-id="21413"></path><path d="M543.121569 620.423529c30.117647-37.145098 39.152941-67.262745 28.109804-91.356862-14.054902-26.101961-33.129412-46.180392-65.254902-51.2-2.007843 21.082353-5.019608 39.152941-7.027451 51.2 16.062745 14.054902 30.117647 23.090196 37.145098 35.137255 9.035294 14.054902-2.007843 35.137255-19.07451 35.137254-33.129412 0-58.227451-28.109804-53.207843-60.235294 0-7.027451 0-12.047059 2.007843-19.074509 16.062745-74.290196-33.129412-100.392157-88.345098-100.392157-39.152941 0-79.309804 7.027451-118.462745 9.035294 5.019608-33.129412 33.129412-35.137255 60.235294-35.137255 46.180392-2.007843 91.356863-5.019608 137.537255-9.035294 16.062745-2.007843 35.137255-5.019608 33.129411-28.109804h-181.709803c5.019608-12.047059 9.035294-21.082353 16.062745-35.137255-19.07451-9.035294-35.137255-16.062745-56.219608-28.109804-12.047059 65.254902-51.2 86.337255-111.435294 65.254902-5.019608 53.207843 37.145098 33.129412 65.254902 44.172549-37.145098 46.180392-70.27451 88.345098-107.419608 135.529412 35.137255 7.027451 56.219608-19.07451 88.345098-35.137255-14.054902 72.282353-26.101961 137.537255-39.152941 202.792157 28.109804 7.027451 51.2-5.019608 63.247059-33.129412 7.027451-19.07451 9.035294-37.145098 16.062745-53.207843 21.082353-65.254902 91.356863-111.435294 163.639215-95.372549-2.007843 9.035294-2.007843 16.062745-5.019608 26.101961-19.07451 0-37.145098 0-53.207843 2.007843-30.117647 5.019608-56.219608 19.07451-63.247059 51.2-7.027451 30.117647 2.007843 56.219608 28.109804 74.290196 37.145098 26.101961 81.317647 35.137255 130.509804 35.137255 5.019608-26.101961 7.027451-51.2 12.047059-79.309804 12.047059 7.027451 19.07451 12.047059 28.109804 14.054902 67.262745 37.145098 137.537255 70.27451 216.847059 79.309804 77.301961 9.035294 144.564706-14.054902 197.772549-70.27451 5.019608-5.019608 9.035294-14.054902 12.047059-21.082353-131.513725 71.278431-250.980392 50.196078-367.435294-15.058824z m-146.572549-153.6c-49.192157 19.07451-98.384314 37.145098-144.564706 53.207844-5.019608-33.129412 0-49.192157 35.137255-56.219608 26.101961-7.027451 53.207843-7.027451 79.309804-7.027451h12.047058c27.105882 1.003922 18.070588 10.039216 18.070589 10.039215z m-7.027451 135.529412c-5.019608 23.090196-7.027451 46.180392-12.047059 70.27451H366.431373c-2.007843 0-2.007843 0-5.019608-2.007843-2.007843 0-5.019608-2.007843-5.019608-2.007843s-2.007843 0-2.007843-2.007843c0 0-2.007843 0-2.007843-2.007844 0 0-2.007843 0-2.007844-2.007843h-2.007843l-2.007843-2.007843c-2.007843 0-2.007843-2.007843-2.007843-2.007843-2.007843-2.007843-5.019608-5.019608-5.019608-7.027451l-2.007843-2.007843s0-2.007843-2.007843-2.007843c-2.007843-5.019608-2.007843-12.047059-2.007843-16.062745v-6.02353c0-26.101961 21.082353-33.129412 56.219608-23.090196z" fill="#FFFFFF" p-id="21414"></path><path d="M881.443137 355.388235c-26.101961 2.007843-49.192157 2.007843-79.309804 5.019608 12.047059-16.062745 19.07451-26.101961 26.101961-37.145098-19.07451-9.035294-35.137255-16.062745-51.2-23.090196-28.109804 19.07451-30.117647 58.227451-67.262745 65.254902-5.019608-21.082353-7.027451-42.164706-9.035294-60.235294-49.192157 7.027451-51.2 12.047059-42.164706 63.247059h-74.290196c0 30.117647 7.027451 37.145098 39.152941 37.145098h67.262745c0 2.007843 2.007843 7.027451 2.007843 9.035294-14.054902 5.019608-30.117647 9.035294-44.172549 16.062745-14.054902 7.027451-37.145098 16.062745-39.152941 28.109804-12.047059 51.2-16.062745 105.411765-23.090196 160.627451 70.27451 44.172549 146.572549 37.145098 228.894118 26.101961 5.019608-30.117647 7.027451-56.219608 12.047059-81.317647 2.007843-26.101961 9.035294-51.2 9.035294-77.301961 2.007843-37.145098-12.047059-53.207843-46.180392-60.235294-14.054902-2.007843-30.117647-5.019608-44.17255-7.027451 0-2.007843-2.007843-5.019608-2.007843-7.027451 14.054902-5.019608 28.109804-9.035294 44.172549-12.047059 26.101961-5.019608 51.2-5.019608 74.290196-9.035294 10.039216-9.035294 26.101961-13.05098 19.07451-36.141177z m-123.482353 248.972549c-39.152941 16.062745-77.301961 12.047059-114.447059 0 0-2.007843 2.007843-5.019608 5.019608-7.027451s2.007843-5.019608 5.019608-7.027451l2.007843-2.007843 2.007843-2.007843 2.007844-2.007843c2.007843-2.007843 5.019608-2.007843 7.027451-5.019608 0 0 2.007843 0 2.007843-2.007843 5.019608-2.007843 7.027451-2.007843 12.047059-5.019608h49.192156c9.035294 0 19.07451 2.007843 30.117647 5.019608-2.007843-1.003922 28.109804 6.023529-2.007843 27.105882z m-5.019608-72.282353s-2.007843 0 0 0H746.917647c-5.019608 0-7.027451 2.007843-12.047059 2.007844-7.027451 2.007843-16.062745 2.007843-23.090196 5.019607l-49.192157 7.027451c-5.019608 0-7.027451 2.007843-12.047059 2.007843V537.098039c0-2.007843 0-5.019608 2.007844-7.027451 5.019608-9.035294 12.047059-14.054902 23.090196-19.07451 2.007843 0 2.007843 0 5.019608-2.007843h16.062745c23.090196-2.007843 46.180392 0 70.274509 0 35.137255 0-2.007843 18.070588-14.054902 23.090196z m17.066667-67.262745c-37.145098 7.027451-74.290196 14.054902-109.427451 21.082353-5.019608-21.082353 5.019608-33.129412 28.109804-37.145098 41.160784-12.047059 67.262745-7.027451 81.317647 16.062745z m-259.011765-30.117647l7.027451-56.219608c42.164706 9.035294 67.262745 53.207843 56.219608 98.384314-12.047059-7.027451-21.082353-14.054902-30.117647-21.082353-10.039216-7.027451-22.086275-12.047059-33.129412-21.082353z m-179.70196 211.827451c2.007843 2.007843 2.007843 5.019608 5.019607 7.027451 0-2.007843-3.011765-5.019608-5.019607-7.027451z m46.180392 25.098039c-19.07451-5.019608-33.129412-9.035294-42.164706-19.074509 10.039216 10.039216 24.094118 17.066667 42.164706 19.074509z" fill="#FFFFFF" p-id="21415"></path><path d="M653.552941 588.298039c-2.007843 2.007843-5.019608 5.019608-5.019608 7.027451 0-3.011765 2.007843-5.019608 5.019608-7.027451z m9.035294-40.156863c-5.019608 0-7.027451 2.007843-12.047059 2.007844 5.019608-2.007843 7.027451-2.007843 12.047059-2.007844z m86.337255-16.062745c0 2.007843 0 2.007843 0 0-5.019608 2.007843-9.035294 2.007843-14.054902 5.019608 4.015686-3.011765 9.035294-3.011765 14.054902-5.019608 0 2.007843 0 2.007843 0 0z m2.007843 0s-2.007843 0 0 0z m14.054902-25.098039c-23.090196 0-46.180392-2.007843-70.27451 0h-7.02745 7.02745c24.094118-3.011765 49.192157 0 70.27451 0z" fill="#FFFFFF" p-id="21416"></path></svg>